<svg xmlns="http://www.w3.org/2000/svg" width="61.837" height="44.938" viewBox="0 0 61.837 44.938">
    <defs>
        <style>
            .cls-1{fill:#3ebbd2}
        </style>
    </defs>
    <g id="Group_6491" transform="translate(-65.88 -326.929)">
        <g id="Group_6473" transform="translate(65.88 326.929)">
            <g id="Group_6472">
                <g id="Group_6471">
                    <path id="Path_4468" d="M119.57 330.309a4.773 4.773 0 0 1 4.768 4.767v28.644a4.773 4.773 0 0 1-4.768 4.768H74.028a4.773 4.773 0 0 1-4.768-4.768v-28.644a4.773 4.773 0 0 1 4.768-4.767h45.542m0-3.38H74.028a8.147 8.147 0 0 0-8.148 8.147v28.644a8.147 8.147 0 0 0 8.148 8.148h45.542a8.147 8.147 0 0 0 8.148-8.148v-28.644a8.147 8.147 0 0 0-8.148-8.147z" class="cls-1" transform="translate(-65.88 -326.929)"/>
                </g>
            </g>
        </g>
        <g id="Group_6476" transform="translate(67.026 330.74)">
            <g id="Group_6475">
                <g id="Group_6474">
                    <path id="Path_4469" d="M97.382 361.133a6.215 6.215 0 0 1-4.3-1.729l-25.5-24.4 2.336-2.442 25.5 24.4a2.85 2.85 0 0 0 3.946-.008l25.432-24.386 2.34 2.44-25.436 24.385a6.22 6.22 0 0 1-4.318 1.74z" class="cls-1" transform="translate(-67.575 -332.566)"/>
                </g>
            </g>
        </g>
        <g id="Group_6479" transform="translate(105.826 348.401)">
            <g id="Group_6478" transform="translate(0 0)">
                <g id="Group_6477" transform="translate(0)">
                    <path id="Rectangle_6401" d="M0 0H3.379V25.486H0z" class="cls-1" transform="translate(0 2.442) rotate(-46.274)"/>
                </g>
            </g>
        </g>
        <g id="Group_6482" transform="translate(67.367 348.347)">
            <g id="Group_6481" transform="translate(0 0)">
                <g id="Group_6480">
                    <path id="Rectangle_6402" d="M0 0H25.027V3.38H0z" class="cls-1" transform="matrix(0.722, -0.692, 0.692, 0.722, 0, 17.321)"/>
                </g>
            </g>
        </g>
    </g>
</svg>
