<svg xmlns="http://www.w3.org/2000/svg" width="31.953" height="31.953" viewBox="0 0 31.953 31.953">
    <defs>
        <style>
            .cls-1{fill:#3ebbd2}
        </style>
    </defs>
    <g id="Group_5447" transform="translate(-663.202 -55.542)">
        <g id="Group_5443" transform="translate(663.202 55.542)">
            <g id="Group_5442">
                <path id="Path_4376" d="M679.178 57.776a13.742 13.742 0 1 1-13.742 13.742 13.757 13.757 0 0 1 13.742-13.742m0-2.234a15.976 15.976 0 1 0 15.976 15.976 15.976 15.976 0 0 0-15.976-15.976z" class="cls-1" transform="translate(-663.202 -55.542)"/>
            </g>
        </g>
        <g id="Group_5446" transform="translate(672.972 63.546)">
            <g id="Group_5445">
                <g id="Group_5444">
                    <path id="Path_4377" d="M688.541 88.1l-1.232 1.521a.489.489 0 0 1-.717.043 4.738 4.738 0 0 1-1.528-3.571 4.223 4.223 0 0 1 2.253-3.8.491.491 0 0 0 .131-.771 4.451 4.451 0 0 1-1.163-3.115 4.693 4.693 0 0 1 1.456-3.566 5.139 5.139 0 0 1 3.684-1.381 5.418 5.418 0 0 1 3.558 1.24.489.489 0 0 1 .1.655l-1.051 1.519a.482.482 0 0 1-.673.119 3.1 3.1 0 0 0-1.8-.6 2.375 2.375 0 0 0-1.7.664 2.211 2.211 0 0 0-.7 1.67 2.475 2.475 0 0 0 .707 1.756 2.244 2.244 0 0 0 1.692.75h4.014a.484.484 0 0 1 .484.484v1.963a.484.484 0 0 1-.484.484h-4.956a3.064 3.064 0 0 0-1.927.535 1.684 1.684 0 0 0-.689 1.392 2.057 2.057 0 0 0 .527 1.384.485.485 0 0 1 .014.625z" class="cls-1" transform="translate(-685.065 -73.455)"/>
                </g>
            </g>
        </g>
    </g>
</svg>
