<svg xmlns="http://www.w3.org/2000/svg" width="31.952" height="31.952" viewBox="0 0 31.952 31.952">
    <defs>
        <style>
            .cls-1{fill:#3ebbd2}
        </style>
    </defs>
    <g id="Group_6504" data-name="Group 6504" transform="translate(-537.001 -55.542)">
        <g id="Group_6498" data-name="Group 6498" transform="translate(537.001 55.542)">
            <g id="Group_6497" data-name="Group 6497">
                <path id="Path_4474" data-name="Path 4474" d="M552.977,57.776a13.742,13.742,0,1,1-13.742,13.742,13.757,13.757,0,0,1,13.742-13.742m0-2.234a15.976,15.976,0,1,0,15.976,15.976,15.976,15.976,0,0,0-15.976-15.976Z" transform="translate(-537.001 -55.542)" fill="#3EBBD2"/>
            </g>
        </g>
        <g id="Group_6503" data-name="Group 6503" transform="translate(543.104 66.736)">
            <g id="Group_6500" data-name="Group 6500" transform="translate(0 0.019)">
                <g id="Group_6499" data-name="Group 6499">
                    <path id="Path_4475" data-name="Path 4475" d="M559.037,86.3h-5.911a2.416,2.416,0,0,0,2.635,1.863,3.17,3.17,0,0,0,1.958-.64c.169-.113.282-.113.414.019l.828.81c.132.132.132.263-.019.414a4.807,4.807,0,0,1-3.426,1.412A4.69,4.69,0,0,1,550.66,85.4a4.626,4.626,0,0,1,4.649-4.762,4.358,4.358,0,0,1,4.386,4.555C559.7,85.926,559.6,86.3,559.037,86.3Zm-5.948-1.619h4.405a2.111,2.111,0,0,0-2.165-1.92A2.181,2.181,0,0,0,553.088,84.684Z" transform="translate(-550.66 -80.637)" fill="#3EBBD2"/>
                </g>
            </g>
            <g id="Group_6502" data-name="Group 6502" transform="translate(11.011)">
                <g id="Group_6501" data-name="Group 6501">
                    <path id="Path_4476" data-name="Path 4476" d="M584.037,84.491v5.252a.267.267,0,0,1-.282.282h-1.92a.267.267,0,0,1-.282-.282v-4.8c0-1.525-.828-2.052-1.732-2.052a2.142,2.142,0,0,0-2.033,1.807v5.045a.267.267,0,0,1-.282.282h-1.92a.267.267,0,0,1-.282-.282V81.084a.266.266,0,0,1,.282-.282h1.845a.277.277,0,0,1,.282.282l.076,1.2v.019a3.363,3.363,0,0,1,2.917-1.713C582.587,80.594,584.037,82.025,584.037,84.491Z" transform="translate(-575.302 -80.594)" fill="#3EBBD2"/>
                </g>
            </g>
        </g>
    </g>
</svg>
