<svg xmlns="http://www.w3.org/2000/svg" width="695.84" height="165.713" viewBox="0 0 695.84 165.713">
  <g id="Group_6596" data-name="Group 6596" transform="translate(-119.001 -54.469)">
    <g id="Group_6196" data-name="Group 6196" transform="translate(119.001 54.469)">
      <path id="Path_4313" data-name="Path 4313" d="M1953.263,349.3h-21.57a3.107,3.107,0,0,0-3.121,3.1V401.38a10.894,10.894,0,0,1-8.426,10.8,10.649,10.649,0,0,1-12.828-10.4V352.389a3.09,3.09,0,0,0-3.09-3.089H1882.66a3.089,3.089,0,0,0-3.089,3.089v49.388a10.625,10.625,0,0,1-11.1,10.617c-5.8-.253-10.15-5.5-10.15-11.308v-48.8a2.975,2.975,0,0,0-2.984-2.984h-21.779a2.973,2.973,0,0,0-2.983,2.984v48.852c0,7.1-5.213,13.47-12.291,14.07a13.493,13.493,0,0,1-14.7-13.429V352.284a2.975,2.975,0,0,0-2.985-2.984h-21.778a2.973,2.973,0,0,0-2.984,2.984v47.525a14.493,14.493,0,0,1-14.4,12.6s-42.868.032-43.1,0a14.5,14.5,0,0,1-13.84-14.5V371.873a3.1,3.1,0,0,0-3.09-3.091h-21.568a3.1,3.1,0,0,0-3.091,3.089v26.036c0,28.1,15.435,42.245,40.467,42.245H1759.5a40.9,40.9,0,0,0,6.064-.459,38.238,38.238,0,0,0,20.657-10.392.1.1,0,0,1,.143.006,41.288,41.288,0,0,0,58.808,2.669.1.1,0,0,1,.128,0,38.294,38.294,0,0,0,48.085-.624.1.1,0,0,1,.125,0,38.392,38.392,0,0,0,62.845-29.571V352.389A3.089,3.089,0,0,0,1953.263,349.3Z" transform="translate(-1415.031 -317.109)" fill="#3ebbd2"/>
      <path id="Path_4314" data-name="Path 4314" d="M2008.854,401.661V352.3a2.988,2.988,0,0,0-2.99-2.991H1984.08a2.989,2.989,0,0,0-2.991,2.991v49.642a10.453,10.453,0,0,1-10.452,10.452H1958.8a.1.1,0,0,1-.095-.094V394.265c0-23.264-17.913-43.317-41.175-44.387a43.189,43.189,0,0,0-45.331,43.158v3.871a42.979,42.979,0,0,0,2.329,13.977v.032a42.9,42.9,0,0,0,18.795,23.136,40.463,40.463,0,0,0,12.056,4.881,42.269,42.269,0,0,0,10.073,1.226h16.212l.122.148a19.493,19.493,0,0,1-34.4,8.6,2.978,2.978,0,0,0-4.343-.377l-15.331,13.757a3,3,0,0,0-.314,4.124,46.051,46.051,0,0,0,81.151-26.134c.05-.047.079-.073.127-.12h11.681A38.5,38.5,0,0,0,2008.854,401.661Zm-76.721,10.644a.1.1,0,0,1-.105.1h-16.589a16.691,16.691,0,0,1-16.662-16.694V394.24a16.7,16.7,0,0,1,20.1-16.346c7.895,1.592,13.252,9.039,13.252,17.091Z" transform="translate(-1313.021 -317.103)" fill="#3ebbd2"/>
      <circle id="Ellipse_111" data-name="Ellipse 111" cx="13.878" cy="13.878" r="13.878" transform="translate(668.083 137.949)" fill="#3ebbd2"/>
      <circle id="Ellipse_112" data-name="Ellipse 112" cx="13.878" cy="13.878" r="13.878" transform="translate(330.588 0)" fill="#3ebbd2"/>
      <circle id="Ellipse_113" data-name="Ellipse 113" cx="13.878" cy="13.878" r="13.878" transform="translate(295.2 0)" fill="#3ebbd2"/>
      <path id="Path_4315" data-name="Path 4315" d="M1649.219,349.3h-35.646a38.82,38.82,0,0,0-28.665,12.6,38.506,38.506,0,0,0-7.478,12,38.057,38.057,0,0,0-2.624,13.973v21.411a3.123,3.123,0,0,1-3.124,3.123H1547.2a14.668,14.668,0,0,1-14.668-14.668V371.871a3.1,3.1,0,0,0-3.089-3.089h-21.567a3.1,3.1,0,0,0-3.089,3.091v26.034c0,.427.033.819.033,1.246,0,24.676,13.935,41,38.647,41l7.631,0h48.372a3.1,3.1,0,0,0,3.09-3.089V395.32c0-7.64,5.652-14.431,13.27-15.041a14.386,14.386,0,0,1,8.684,2.017.113.113,0,0,1,.053.1v54.777a3,3,0,0,0,3.017,2.984h21.671a3.1,3.1,0,0,0,3.091-3.089v-84.64A3.122,3.122,0,0,0,1649.219,349.3Z" transform="translate(-1504.782 -317.109)" fill="#3ebbd2"/>
      <path id="Path_4316" data-name="Path 4316" d="M1690.259,412.816V363.323a2.972,2.972,0,0,0-2.983-2.984H1665.5a2.975,2.975,0,0,0-2.985,2.984v49.493a10.624,10.624,0,0,1-11.1,10.617c-5.8-.253-10.152-5.5-10.152-11.308V331.133a3,3,0,0,0-3.018-2.984H1616.5a3,3,0,0,0-3.016,2.984v81.683a38.39,38.39,0,0,0,76.779,0Z" transform="translate(-1448.051 -328.148)" fill="#3ebbd2"/>
      <circle id="Ellipse_114" data-name="Ellipse 114" cx="13.878" cy="13.878" r="13.878" transform="translate(62.477 137.956)" fill="#3ebbd2"/>
      <circle id="Ellipse_115" data-name="Ellipse 115" cx="13.878" cy="13.878" r="13.878" transform="translate(214.454 137.956)" fill="#3ebbd2"/>
      <circle id="Ellipse_116" data-name="Ellipse 116" cx="13.878" cy="13.878" r="13.878" transform="translate(27.09 137.956)" fill="#3ebbd2"/>
    </g>
  </g>
</svg>
