<svg xmlns="http://www.w3.org/2000/svg" width="34.127" height="34.127" viewBox="0 0 34.127 34.127">
    <defs>
        <style>
            .cls-1{fill:#fff}
        </style>
    </defs>
    <g id="Group_5476">
        <path id="Path_4384" d="M1118.811 645.8a3.556 3.556 0 1 1-3.556-3.556 3.561 3.561 0 0 1 3.556 3.556z" class="cls-1" transform="translate(-1098.189 -628.737)"/>
        <path id="Path_4385" d="M1114.214 630.982h-9.774a4.005 4.005 0 0 0-4 4v9.773a4.005 4.005 0 0 0 4 4h9.774a4.005 4.005 0 0 0 4-4v-9.773a4.005 4.005 0 0 0-4-4zm-4.887 14.22a5.332 5.332 0 1 1 5.332-5.332 5.337 5.337 0 0 1-5.332 5.33zm5.663-9.774a1.222 1.222 0 1 1 1.222-1.222 1.225 1.225 0 0 1-1.222 1.222z" class="cls-1" transform="translate(-1092.261 -622.809)"/>
        <path id="Path_4386" d="M1100.235 613.722a17.063 17.063 0 1 0 17.061 17.061 17.064 17.064 0 0 0-17.061-17.061zm10.665 21.948a5.782 5.782 0 0 1-5.777 5.777h-9.774a5.782 5.782 0 0 1-5.777-5.777v-9.77a5.782 5.782 0 0 1 5.777-5.777h9.774a5.782 5.782 0 0 1 5.777 5.777z" class="cls-1" transform="translate(-1083.169 -613.722)"/>
    </g>
</svg>
