<svg xmlns="http://www.w3.org/2000/svg" viewBox="0 0 241.125 225.884">
    <defs>
        <style>
            .cls-999991111{fill:#eeb59e}.cls-2sadasdasd{fill:#3ebbd2}.cls-43434334{fill:#ffe755}
        </style>
    </defs>
    <g id="Group_6291" transform="translate(-70.102 -244.558)">
        <g id="Group_6289" transform="translate(70.102 244.558)">
            <g id="Group_4661" transform="translate(2.532 80.479)">
                <g id="Group_4659" transform="translate(0.187 0.186)">
                    <path id="Path_2165" d="M-2350.694 1089.8c-.384-.589-2.077-2.368-2.365-4.378a3.205 3.205 0 0 1 1.719-3.289.5.5 0 0 1 .72.235 17.478 17.478 0 0 0 1.615 3.073c.12.161.259.328.408.5a10.136 10.136 0 0 0 3.636 2.595l2.336.991a4.568 4.568 0 0 0 2.666.28l1.824-.529 12.179-3.524a15.714 15.714 0 0 1 1.365 3.762c.279 1.246.492 2.342.708 3.375l-11.545 3.416-1.954.578a5.482 5.482 0 0 0-3.442 2.226c-.28.4-.626.861-1.063 1.395a6.462 6.462 0 0 1-2.364 1.693 18.279 18.279 0 0 1-5.508 1.339l-2.222-12.368h2.568s-.816-.841-1.281-1.37z" class="cls-999991111" fill="#eeb59e" transform="translate(2353.095 -1082.067)" />
                </g>
                <g id="Group_4660">
                    <path id="Path_2166" d="M-2350.073 1103.411a.187.187 0 0 1-.183-.153l-2.222-12.368a.186.186 0 0 1 .041-.152.185.185 0 0 1 .143-.067h2.129c-.282-.295-.7-.736-.982-1.057a.2.2 0 0 1-.017-.021c-.073-.112-.194-.267-.344-.46a9.115 9.115 0 0 1-2.049-3.993 3.378 3.378 0 0 1 1.81-3.476.693.693 0 0 1 .568-.06.687.687 0 0 1 .417.383 17.222 17.222 0 0 0 1.592 3.034c.111.148.245.311.4.485a10.017 10.017 0 0 0 3.569 2.547l2.336.991a4.366 4.366 0 0 0 2.558.268l13.986-4.049a.187.187 0 0 1 .218.094 15.885 15.885 0 0 1 1.381 3.807c.192.857.353 1.643.505 2.387.069.338.136.667.2.99a.186.186 0 0 1-.129.217l-13.5 3.994a5.285 5.285 0 0 0-3.342 2.155c-.339.479-.689.939-1.071 1.405a6.585 6.585 0 0 1-2.431 1.745 18.646 18.646 0 0 1-5.573 1.355zm-2-12.368l2.152 11.981a17.971 17.971 0 0 0 5.277-1.308 6.221 6.221 0 0 0 2.3-1.641c.377-.46.722-.913 1.055-1.385a5.642 5.642 0 0 1 3.559-2.3l13.317-3.94-.169-.823c-.151-.742-.312-1.526-.5-2.38a15.493 15.493 0 0 0-1.279-3.582l-13.854 4.01a4.742 4.742 0 0 1-2.791-.287l-2.336-.991a10.386 10.386 0 0 1-3.7-2.643c-.161-.182-.3-.353-.418-.509a17.539 17.539 0 0 1-1.637-3.111.308.308 0 0 0-.191-.175.32.32 0 0 0-.263.028 3.025 3.025 0 0 0-1.629 3.1 8.806 8.806 0 0 0 1.974 3.817c.154.2.276.354.355.473.458.517 1.259 1.342 1.266 1.351a.186.186 0 0 1 .038.2.187.187 0 0 1-.172.114z" transform="translate(2353.596 -1081.568)" />
                </g>
            </g>
            <g id="Group_4664" transform="translate(4.19 97.874)">
                <g id="Group_4662" transform="translate(0.186 0.188)">
                    <path id="Path_2167" d="M-2346.972 1132.794a1.668 1.668 0 0 1-1.671-1.6 3.243 3.243 0 0 1 .015-.623l.824-.272 4.747-1.566a.876.876 0 0 1 .8.317 1.786 1.786 0 0 1 .373.869c.274 1.381-.61 1.555-5.088 2.875z" class="cls-999991111" fill="#eeb59e" transform="translate(2348.651 -1128.72)" />
                </g>
                <g id="Group_4663">
                    <path id="Path_2168" d="M-2347.285 1132.664a1.843 1.843 0 0 1-1.856-1.776 3.422 3.422 0 0 1 .015-.657.186.186 0 0 1 .127-.156l5.572-1.839a.2.2 0 0 1 .058-.009 1.042 1.042 0 0 1 .943.381 1.966 1.966 0 0 1 .416.957c.289 1.474-.629 1.744-4.5 2.878l-.726.214a.2.2 0 0 1-.049.007zm-1.482-2.274a2.9 2.9 0 0 0 0 .468 1.472 1.472 0 0 0 1.46 1.432l.7-.205c3.953-1.161 4.449-1.351 4.234-2.45a1.641 1.641 0 0 0-.329-.781.7.7 0 0 0-.626-.258z" transform="translate(2349.151 -1128.216)" />
                </g>
            </g>
            <g id="Group_4667" transform="translate(2.632 94.82)">
                <g id="Group_4665" transform="translate(0.186 0.186)">
                    <path id="Path_2169" d="M-2345.673 1123.589l-4.747 1.566-.824.272a2.151 2.151 0 0 1-1.581-2.163 3.648 3.648 0 0 1 .1-.727l1.723-.593 4.009-1.38a2.031 2.031 0 0 1 .287-.037 2.015 2.015 0 0 1 1.16.242 1.179 1.179 0 0 1 .481.593 1.608 1.608 0 0 1-.608 2.227z" class="cls-999991111" fill="#eeb59e" transform="translate(2352.83 -1120.523)" />
                </g>
                <g id="Group_4666">
                    <path id="Path_2170" d="M-2351.562 1125.3a.17.17 0 0 1-.044-.005 2.354 2.354 0 0 1-1.723-2.348 3.8 3.8 0 0 1 .105-.764.186.186 0 0 1 .122-.135l5.731-1.973a1.9 1.9 0 0 1 .336-.047 2.156 2.156 0 0 1 1.271.271 1.359 1.359 0 0 1 .555.684 1.781 1.781 0 0 1-.683 2.452.183.183 0 0 1-.057.023l-5.555 1.833a.186.186 0 0 1-.058.009zm-1.32-2.934a3.25 3.25 0 0 0-.074.588 1.935 1.935 0 0 0 1.39 1.965l5.506-1.817c.706-.433.861-1.047.5-1.987a1 1 0 0 0-.406-.5 1.768 1.768 0 0 0-1.051-.214 1.76 1.76 0 0 0-.256.033zm6.9.909z" transform="translate(2353.33 -1120.025)" />
                </g>
            </g>
            <g id="Group_4670" transform="translate(125.984 67.519)">
                <g id="Group_4668" transform="translate(0.186 0.187)">
                    <path id="Path_2171" d="M-2011.536 1055.246c-.026.116-.638 2.558-5.068 2.558-4.542 0-5.437-2.562-5.437-2.562a14.4 14.4 0 0 0 3.352-6.6c.093-.436.168-.88.22-1.328a12.8 12.8 0 0 0 1.939.145H-2016.288a12.983 12.983 0 0 0 1.577-.119 14.549 14.549 0 0 0 1.466 5.235 14.609 14.609 0 0 0 1.7 2.67z" class="cls-999991111" fill="#eeb59e" transform="translate(2022.041 -1047.314)" />
                </g>
                <g id="Group_4669">
                    <path id="Path_2172" d="M-2016.917 1057.677c-4.621 0-5.574-2.578-5.613-2.687a.187.187 0 0 1 .037-.186 14.239 14.239 0 0 0 3.309-6.515c.094-.44.167-.881.218-1.311a.187.187 0 0 1 .072-.126.181.181 0 0 1 .141-.036 12.707 12.707 0 0 0 1.911.144h.234a13.165 13.165 0 0 0 1.561-.118.188.188 0 0 1 .142.039.19.19 0 0 1 .069.13 14.324 14.324 0 0 0 1.447 5.168 14.426 14.426 0 0 0 1.683 2.636.2.2 0 0 1 .04.162c-.027.106-.664 2.7-5.251 2.7zm-5.22-2.713c.215.461 1.33 2.34 5.22 2.34s4.723-1.9 4.862-2.33a14.853 14.853 0 0 1-1.669-2.633 14.683 14.683 0 0 1-1.466-5.108 13.313 13.313 0 0 1-1.407.1h-.234a13.163 13.163 0 0 1-1.788-.12c-.05.381-.117.768-.2 1.155a14.605 14.605 0 0 1-3.318 6.596z" transform="translate(2022.541 -1046.813)" />
                </g>
            </g>
            <g id="Group_4673" transform="translate(20.42 48.341)">
                <g id="Group_4671" transform="translate(0.815 0.186)">
                    <path id="Path_2173" d="M-2114.815 1058.826a28.414 28.414 0 0 1-4.934 2.04c-8.353 2.726-26.972 5.922-53.459-6.007-.783-.4-1.585-.768-2.4-1.111.805.384 1.607.757 2.4 1.111a40.145 40.145 0 0 1 21.83 31.037 39.784 39.784 0 0 1 .291 4.837 39.982 39.982 0 0 1-.966 8.771 39.759 39.759 0 0 1-1.354 4.7 36.959 36.959 0 0 1 2.017 3.177c2.252 3.927 3.964 8.152 5.594 10.93.519.861 1.022 1.659 1.5 2.4 7.76 11.873 11.269 9.233 11.582 8.965-1.368 1.7-8.115.962-15.916 13.122-7.592 11.84-22.922 22.6-23.866 23.258l-.045.034a32.394 32.394 0 0 1-20.107 6.955 32.441 32.441 0 0 1-24.25-10.851 31.936 31.936 0 0 1-3.539 1.506 32.373 32.373 0 0 1-10.937 1.891 32.525 32.525 0 0 1-32.525-32.525 32.422 32.422 0 0 1 10.572-24l.03-.03 22.1-22.106c-1.782-14.454 5.459-34.624 10.8-43.126-.2-.075-7.641-2.689-23.87 18.388-13.391 17.4-24.529 26.648-28.206 29.478 3.811-3.792 5.124-15.028-10.93-35.5-7.343-9.367-8.375-12.675-9.345-17.329-.216-1.033-.429-2.129-.708-3.375a15.725 15.725 0 0 0-1.365-3.763c-2.368-4.646-6.567-7.35-8.622-6.432.16-.164 5.929-5.8 48.22-5.053 31.514-.567 39.017 13.991 51.33 6.75l.041-.022c.365-.239 2.267-1.346 2.812-1.727a14.575 14.575 0 0 0 2.532-2.234s.9 2.562 5.437 2.562c4.43 0 5.042-2.443 5.068-2.558a14.687 14.687 0 0 0 8.081 5.12 44.992 44.992 0 0 0 4.736-2.032q.766-.375 1.581-.8c2.938-1.54 10.956-6.582 10.956-6.582 14.782-9.449 34.684-23.083 45.386-22.811-2.618 0-5.855 3.207-5.146 9.214.052.44.123.891.22 1.361a65.652 65.652 0 0 1 1.5 7.768c.272 3.289-.146 7.4-2.2 15.237a50.132 50.132 0 0 0-1.208 19.19c.634 4.43 1.943 7.906 3.666 9.528a3.324 3.324 0 0 0 2.055.992 10.793 10.793 0 0 0 3.561-.348z" class="cls-2sadasdasd" transform="translate(2303.441 -995.883)" />
                </g>
                <g id="Group_4672">
                    <path id="Path_2174" d="M-2194.014 1172.927a32.756 32.756 0 0 1-24.3-10.809 32.054 32.054 0 0 1-3.435 1.454 32.529 32.529 0 0 1-11 1.9 32.748 32.748 0 0 1-32.711-32.711 32.78 32.78 0 0 1 10.632-24.134l.024-.024 22.039-22.043c-1.7-14.053 5.077-33.851 10.706-42.951-1.362-.289-8.734-.7-23.433 18.388-3.445 4.475-15.663 19.83-28.24 29.512l-.245-.28c4.327-4.306 4.057-16.122-10.945-35.253-7.458-9.516-8.424-12.814-9.38-17.406-.068-.323-.135-.653-.2-.991-.152-.742-.312-1.526-.5-2.38a15.525 15.525 0 0 0-1.349-3.718c-2.359-4.629-6.442-7.212-8.38-6.348l-.891.4.681-.7c.233-.239 6.205-5.852 48.357-5.109 15.876-.285 25.806 3.31 33.055 5.936 7.306 2.646 12.133 4.395 18.177.839l.135.138-.1-.156c.139-.09.5-.305.919-.558.692-.415 1.554-.932 1.887-1.165a14.4 14.4 0 0 0 2.5-2.205l.209-.233.106.295c.035.1.921 2.438 5.261 2.438 4.292 0 4.863-2.314 4.886-2.413l.085-.377.242.3a14.566 14.566 0 0 0 7.924 5.042 44.88 44.88 0 0 0 4.66-2c.515-.252 1.04-.52 1.583-.8 2.9-1.519 10.863-6.524 10.943-6.574 1.469-.939 2.991-1.921 4.549-2.926 13.921-8.982 31.247-20.149 40.941-19.913v.373a4.361 4.361 0 0 0-3.15 1.606c-.885 1-2.3 3.28-1.811 7.4.055.461.126.9.218 1.345.193.938.386 1.777.574 2.589a35.51 35.51 0 0 1 .932 5.2c.308 3.719-.332 8.152-2.209 15.3a50.052 50.052 0 0 0-1.2 19.115c.632 4.426 1.948 7.859 3.609 9.422a3.149 3.149 0 0 0 1.939.942 10.662 10.662 0 0 0 3.5-.348l1.488-.412-1.347.755-.091-.163.089.164a28.851 28.851 0 0 1-4.836 2.011l-.129.046c-8.342 2.721-25.7 5.587-50.263-4.575a40.17 40.17 0 0 1 18.76 29.4 40.182 40.182 0 0 1 .292 4.859 40.251 40.251 0 0 1-.971 8.812 40.135 40.135 0 0 1-1.327 4.633c.657.924 1.3 1.944 1.971 3.113l.024.047c1.18 2.061 2.23 4.241 3.157 6.167.845 1.754 1.643 3.411 2.41 4.719.466.774.957 1.558 1.5 2.394 4.712 7.21 7.82 9.026 9.6 9.281a2.141 2.141 0 0 0 1.708-.356l.266.259a5.287 5.287 0 0 1-2.2 1.172c-2.792 1.059-7.99 3.029-13.7 11.934-7.434 11.593-22.251 22.145-23.916 23.31l-.038.029a32.392 32.392 0 0 1-20.241 6.992zm-24.3-11.224h.127l.059.062a32.384 32.384 0 0 0 24.111 10.789 32.022 32.022 0 0 0 19.992-6.914l.049-.037c1.663-1.164 16.425-11.676 23.82-23.209 5.779-9.009 11.051-11.008 13.884-12.082.3-.114.577-.219.825-.32a3.834 3.834 0 0 1-.519-.037c-1.853-.265-5.066-2.119-9.855-9.446-.545-.84-1.037-1.627-1.506-2.407-.776-1.323-1.578-2.987-2.426-4.748-.931-1.933-1.987-4.124-3.17-6.186l-.025-.047a36.432 36.432 0 0 0-1.983-3.118l-.057-.079.033-.092a39.757 39.757 0 0 0 1.347-4.681 39.913 39.913 0 0 0 .961-8.73 39.793 39.793 0 0 0-.289-4.814 39.83 39.83 0 0 0-21.729-30.893c-.748-.335-1.534-.7-2.394-1.11l.153-.34c.842.355 1.652.731 2.41 1.117 26.081 11.746 44.476 8.852 53.19 6.037l.127-.045a34.621 34.621 0 0 0 3.636-1.4 11.2 11.2 0 0 1-2.218.075 3.512 3.512 0 0 1-2.17-1.042c-1.746-1.644-3.069-5.067-3.722-9.638a50.457 50.457 0 0 1 1.212-19.266c1.865-7.1 2.5-11.5 2.2-15.174a35.246 35.246 0 0 0-.924-5.148c-.188-.814-.382-1.655-.576-2.6-.094-.454-.167-.9-.223-1.377-.5-4.264.976-6.65 1.9-7.691a5.547 5.547 0 0 1 1.644-1.285c-9.833.995-25.893 11.356-38.949 19.78-1.559 1.006-3.081 1.987-4.551 2.928-.082.052-8.059 5.064-10.97 6.59q-.82.426-1.586.8a45.688 45.688 0 0 1-4.755 2.04l-.052.019-.054-.013a14.936 14.936 0 0 1-7.974-4.929c-.327.724-1.474 2.373-5.131 2.373-3.79 0-5.113-1.733-5.487-2.418a14.782 14.782 0 0 1-2.375 2.056c-.344.24-1.212.761-1.909 1.179-.417.25-.77.462-.907.551l-.143-.134.094.16c-6.2 3.644-11.088 1.872-18.493-.81-7.222-2.616-17.113-6.2-32.928-5.914-34.964-.619-44.885 3.094-47.358 4.49 2.561-.087 6.142 3.232 7.922 6.725a15.874 15.874 0 0 1 1.381 3.807c.192.857.353 1.643.505 2.387.069.338.136.667.2.99.946 4.54 1.9 7.8 9.309 17.251 7.192 9.172 11.549 17.275 12.95 24.083.878 4.268.5 7.95-1.033 10.4 4.316-3.485 14.739-12.627 26.925-28.458 6.766-8.787 12.825-14.567 18.008-17.178 3.911-1.971 5.864-1.349 6.073-1.271l.122.045v.183l-.029.049c-5.633 8.97-12.511 28.9-10.772 43v.077l-.053.081-22.132 22.136a32.411 32.411 0 0 0-10.517 23.865 32.375 32.375 0 0 0 32.338 32.338 32.164 32.164 0 0 0 10.874-1.88 31.792 31.792 0 0 0 3.518-1.5z" transform="translate(2305.626 -995.384)" />
                </g>
            </g>
            <g id="Group_4675" transform="translate(120.623 68.847)">
                <g id="Group_4674">
                    <path id="Path_2175" d="M-2036.715 1061.3a.19.19 0 0 1-.173-.089.16.16 0 0 1 .052-.235l.085.166-.072-.173c.149-.1.5-.309.923-.56.7-.417 1.56-.935 1.895-1.169a14.148 14.148 0 0 0 5.809-8.72.189.189 0 0 1 .221-.144.187.187 0 0 1 .144.221 14.521 14.521 0 0 1-5.96 8.948c-.345.241-1.217.763-1.917 1.183-.413.248-.763.458-.9.547a.242.242 0 0 1-.107.025z" transform="translate(2036.916 -1050.376)" />
                </g>
            </g>
            <g id="Group_4677" transform="translate(93.295 136.061)">
                <g id="Group_4676">
                    <path id="Path_2176" d="M-2110.014 1234.33a.184.184 0 0 1-.132-.055.186.186 0 0 1 0-.264l3.337-3.337a.187.187 0 0 1 .264 0 .187.187 0 0 1 0 .264l-3.337 3.337a.186.186 0 0 1-.132.055z" transform="translate(2110.201 -1230.62)" />
                </g>
            </g>
            <g id="Group_4689" transform="translate(99.321 157.047)">
                <g id="Group_4679" transform="translate(0 12.997)">
                    <g id="Group_4678">
                        <path id="Path_2177" d="M-2089.935 1360.55a.186.186 0 0 1-.164-.1 32.7 32.7 0 0 1-3.942-15.576 32.393 32.393 0 0 1 3.113-13.944 32.73 32.73 0 0 1 4.958-7.572c.466-.533.955-1.057 1.455-1.557a.186.186 0 0 1 .263 0 .186.186 0 0 1 0 .264c-.494.494-.978 1.012-1.438 1.539a32.355 32.355 0 0 0-4.9 7.486 32.027 32.027 0 0 0-3.077 13.785 32.316 32.316 0 0 0 3.9 15.4.187.187 0 0 1-.075.253.187.187 0 0 1-.093.022z" transform="translate(2094.041 -1321.75)" />
                    </g>
                </g>
                <g id="Group_4681">
                    <g id="Group_4680">
                        <path id="Path_2178" d="M-2061.326 1355.732a32.711 32.711 0 0 1-28.774-17.132 32.693 32.693 0 0 1-3.942-15.575 32.393 32.393 0 0 1 3.113-13.944 32.727 32.727 0 0 1 4.958-7.572c.466-.533.955-1.057 1.455-1.557.251-.251.506-.5.765-.746q.32-.3.653-.6c.082-.077.169-.153.258-.23l.1-.084 11.6-11.342a.186.186 0 0 1 .263 0 .186.186 0 0 1 0 .264l-11.711 11.441c-.085.073-.169.146-.252.224-.223.2-.437.392-.648.592-.256.241-.509.49-.757.738-.494.494-.978 1.012-1.438 1.539a32.355 32.355 0 0 0-4.9 7.486 32.027 32.027 0 0 0-3.077 13.785 32.316 32.316 0 0 0 3.9 15.4 32.337 32.337 0 0 0 28.445 16.941 32.018 32.018 0 0 0 19.97-6.9.2.2 0 0 1 .029-.025l.018-.013c.641-.445 16.237-11.366 23.84-23.222 5.779-9.008 11.051-11.007 13.884-12.081a5.175 5.175 0 0 0 2.044-1.058.187.187 0 0 1 .263-.028.187.187 0 0 1 .028.262 5.289 5.289 0 0 1-2.2 1.173c-2.792 1.059-7.989 3.029-13.7 11.933-7.546 11.767-22.9 22.6-23.911 23.306l-.043.032a32.384 32.384 0 0 1-20.233 6.993z" transform="translate(2094.041 -1286.897)" />
                    </g>
                </g>
                <g id="Group_4684" transform="translate(80.878 11.044)">
                    <g id="Group_4682" transform="translate(0.187 0.186)">
                        <path id="Path_2179" d="M-1865.052 1331.043a.082.082 0 0 0-.019.019c-.313.269-3.822 2.909-11.582-8.965l5.086-5.086c8.767 7.04 7.843 12.305 6.515 14.032z" transform="translate(1876.653 -1317.014)" />
                    </g>
                    <g id="Group_4683">
                        <path id="Path_2180" d="M-1866.771 1331.371a3.46 3.46 0 0 1-.5-.036c-1.853-.265-5.067-2.119-9.856-9.446a.187.187 0 0 1 .024-.234l5.086-5.086a.186.186 0 0 1 .249-.014c10.481 8.416 6.889 13.819 6.562 14.265a.2.2 0 0 1-.036.047 2.3 2.3 0 0 1-1.529.504zm-9.956-9.56c4.667 7.106 7.747 8.9 9.513 9.155a2.159 2.159 0 0 0 1.7-.347c.324-.422 1.319-2.018.5-4.858s-3.124-5.791-6.849-8.807zm11.362 8.921z" transform="translate(1877.153 -1316.514)" />
                    </g>
                </g>
                <g id="Group_4686" transform="translate(92.479 25.076)">
                    <g id="Group_4685">
                        <path id="Path_2181" d="M-1845.857 1354.515a.187.187 0 0 1-.132-.054.187.187 0 0 1 0-.264.188.188 0 0 1 .266 0 .184.184 0 0 1 0 .262.186.186 0 0 1-.134.056z" transform="translate(1846.043 -1354.141)" />
                    </g>
                </g>
                <g id="Group_4688" transform="translate(0 22.073)">
                    <g id="Group_4687">
                        <path id="Path_2182" d="M-2089.935 1375.813a.186.186 0 0 1-.164-.1 32.7 32.7 0 0 1-3.942-15.576 32.392 32.392 0 0 1 3.113-13.944.187.187 0 0 1 .248-.089.187.187 0 0 1 .089.248 32.027 32.027 0 0 0-3.077 13.785 32.315 32.315 0 0 0 3.9 15.4.187.187 0 0 1-.075.253.186.186 0 0 1-.092.023z" transform="translate(2094.041 -1346.09)" />
                    </g>
                </g>
            </g>
            <g id="Group_4691" transform="translate(173.103 159.842)">
                <g id="Group_4690">
                    <path id="Path_2183" d="M-1896 1294.769a.185.185 0 0 1-.186-.185.186.186 0 0 1 .186-.186.186.186 0 0 1 .187.186.188.188 0 0 1-.187.185z" transform="translate(1896.183 -1294.394)" />
                </g>
            </g>
            <g id="Group_4693" transform="translate(148.886 106.208)">
                <g id="Group_4692">
                    <path id="Path_2184" d="M-1936.71 1183.085a.187.187 0 0 1-.185-.164 39.829 39.829 0 0 0-21.725-30.89c-.753-.338-1.538-.7-2.4-1.112a.186.186 0 0 1-.09-.245.187.187 0 0 1 .242-.1c.84.354 1.649.729 2.406 1.115 26.182 11.791 44.614 8.832 53.289 6.009a.144.144 0 0 1 .032-.014 28.812 28.812 0 0 0 4.9-2.024l.185.324a29.108 29.108 0 0 1-4.935 2.043.163.163 0 0 1-.032.015c-8.341 2.721-25.7 5.586-50.258-4.574a40.169 40.169 0 0 1 18.756 29.4.186.186 0 0 1-.163.207z" transform="translate(1961.123 -1150.565)" />
                </g>
            </g>
            <g id="Group_4695" transform="translate(147.482 156.665)">
                <g id="Group_4694">
                    <path id="Path_2185" d="M-1964.7 1310.32a.187.187 0 0 1-.175-.12.187.187 0 0 1 .109-.241 39.917 39.917 0 0 0 17.56-13.072 38.628 38.628 0 0 0 2.55-3.745 39.368 39.368 0 0 0 3.381-7.145.184.184 0 0 1 .238-.113.186.186 0 0 1 .113.238 39.72 39.72 0 0 1-3.413 7.212 38.968 38.968 0 0 1-2.574 3.78 40.293 40.293 0 0 1-17.724 13.194.191.191 0 0 1-.065.012z" transform="translate(1964.888 -1285.872)" />
                </g>
            </g>
            <g id="Group_4697" transform="translate(21.05 72.613)">
                <g id="Group_4696">
                    <path id="Path_2186" d="M-2272.782 1132.365a.183.183 0 0 1-.14-.064.186.186 0 0 1 .009-.255c4.327-4.305 4.057-16.122-10.945-35.253-7.459-9.516-8.424-12.814-9.381-17.406-.068-.323-.135-.653-.2-.991-.151-.742-.312-1.526-.5-2.381a15.519 15.519 0 0 0-1.348-3.718 14.657 14.657 0 0 0-4.371-5.236c-1.568-1.117-3.066-1.532-4.009-1.111a.188.188 0 0 1-.229-.064.187.187 0 0 1 .02-.237c.234-.239 6.2-5.852 48.357-5.109 15.881-.28 25.806 3.31 33.055 5.936 7.306 2.646 12.132 4.395 18.177.839a.185.185 0 0 1 .252.062.186.186 0 0 1-.056.254 55.8 55.8 0 0 0-16.449 16.78.187.187 0 0 1-.222.075c-.3-.111-7.617-2.5-23.657 18.327-3.445 4.476-15.663 19.83-28.24 29.512a.186.186 0 0 1-.123.04zm-30.02-66.963c2.556 0 6.078 3.271 7.838 6.726a15.876 15.876 0 0 1 1.381 3.807c.192.857.353 1.643.505 2.387.069.338.136.667.2.99.946 4.54 1.9 7.8 9.31 17.252 7.191 9.172 11.549 17.275 12.95 24.083.878 4.269.5 7.95-1.033 10.4 4.316-3.485 14.739-12.628 26.925-28.458 6.766-8.787 12.825-14.567 18.009-17.178 3.452-1.739 5.377-1.458 5.927-1.316a56.255 56.255 0 0 1 14.393-15.327c-5.181 2.055-9.733.405-16.205-1.939-7.222-2.615-17.117-6.209-32.928-5.914-34.966-.616-44.885 3.094-47.358 4.49z" transform="translate(2303.938 -1060.473)" />
                </g>
            </g>
            <g id="Group_4700" transform="translate(17.106 77.541)">
                <g id="Group_4698" transform="translate(0.181 0.2)">
                    <path id="Path_2187" d="M-2301.458 1080.837l-12.179 3.524c-.917-4.061-.414-7.984 3.554-9.953 2.058-.92 6.257 1.783 8.625 6.429z" transform="translate(2314.03 -1074.227)" />
                </g>
                <g id="Group_4699">
                    <path id="Path_2188" d="M-2313.941 1084.211a.19.19 0 0 1-.095-.026.186.186 0 0 1-.087-.12c-1.108-4.9.15-8.415 3.638-10.153a.151.151 0 0 1 .025-.014c2.543-1.137 6.853 2.571 8.864 6.518a.187.187 0 0 1 .005.159.188.188 0 0 1-.119.1l-12.179 3.524a.2.2 0 0 1-.052.012zm3.65-9.98l-.014.008c-3.329 1.652-4.506 4.865-3.5 9.551l11.769-3.4c-2.364-4.49-6.338-6.99-8.255-6.159z" transform="translate(2314.514 -1073.69)" />
                </g>
            </g>
            <g id="Group_4703" transform="translate(20.2 91.303)">
                <g id="Group_4701" transform="translate(0.186 0.186)">
                    <path id="Path_2189" d="M-2273.9 1163.923c-.75.585-1.19.895-1.275.958a.043.043 0 0 0-.015.008c-4.616 2.454-12.38 1.45-14.476-12.06s-10.37-29.534-13.712-34.411a39.787 39.787 0 0 1-2.342-3.908l11.545-3.416c.97 4.654 2 7.961 9.345 17.329 16.056 20.477 14.743 31.708 10.93 35.5z" transform="translate(2305.718 -1111.094)" />
                </g>
                <g id="Group_4702">
                    <path id="Path_2190" d="M-2279.63 1165.823a8.136 8.136 0 0 1-3.658-.863c-2.448-1.225-5.626-4.373-6.874-12.416-2.01-12.96-10.032-29.008-13.681-34.335a39.387 39.387 0 0 1-2.353-3.926.185.185 0 0 1-.007-.159.185.185 0 0 1 .118-.106l11.545-3.416a.186.186 0 0 1 .149.019.183.183 0 0 1 .087.122c.946 4.539 1.9 7.8 9.31 17.251 7.192 9.172 11.549 17.275 12.95 24.083 1.046 5.084.3 9.336-2.035 11.665l-.017.015c-.627.49-1.035.785-1.208.91l-.07.051a.235.235 0 0 1-.037.022 8.987 8.987 0 0 1-4.219 1.083zm-26.129-51.512a38.968 38.968 0 0 0 2.224 3.688c3.665 5.35 11.723 21.47 13.743 34.489 1.222 7.884 4.3 10.953 6.672 12.139a8.13 8.13 0 0 0 7.532-.215l.061-.044c.172-.124.572-.414 1.189-.895 4.319-4.312 4.04-16.126-10.953-35.245-7.351-9.378-8.395-12.717-9.339-17.208zm31.548 49.3z" transform="translate(2306.218 -1110.595)" />
                </g>
            </g>
            <g id="Group_4705" transform="translate(50.744 144.132)">
                <g id="Group_4704">
                    <path id="Path_2191" d="M-2224.121 1253.6a.187.187 0 0 1-.165-.1.187.187 0 0 1 .077-.252 5.211 5.211 0 0 0 1.211-.9.186.186 0 0 1 .152-.079.186.186 0 0 1 .187.186.235.235 0 0 1-.065.147 5.605 5.605 0 0 1-1.309.976.185.185 0 0 1-.088.022z" transform="translate(2224.308 -1252.264)" />
                </g>
            </g>
            <g id="Group_4707" transform="translate(104.095 96.268)">
                <g id="Group_4706">
                    <path id="Path_2192" d="M-2081.048 1124.284a.186.186 0 0 1-.186-.187.188.188 0 0 1 .186-.189.186.186 0 0 1 .172.113.178.178 0 0 1 .016.075.185.185 0 0 1-.188.188z" transform="translate(2081.238 -1123.909)" />
                </g>
            </g>
            <g id="Group_4710" transform="translate(199.961 63.272)">
                <g id="Group_4708" transform="translate(0.187 0.186)">
                    <path id="Path_2193" d="M-1813.932 1083.928a.012.012 0 0 0-.008 0 10.788 10.788 0 0 1-3.561.354 3.323 3.323 0 0 1-2.055-.992c-1.723-1.622-3.032-5.1-3.666-9.528a50.127 50.127 0 0 1 1.208-19.19c2.059-7.839 2.476-11.948 2.2-15.237 1.081-.414 2.278-.861 3.423-1.275a54.406 54.406 0 0 1 7.51-2.14c-.089.686-.194 1.339-.3 1.935-1.055 5.817-3.017 17.068.6 30.254 2.83 10.315-1.037 14.61-5.351 15.819z" transform="translate(1823.658 -1035.924)" />
                </g>
                <g id="Group_4709">
                    <path id="Path_2194" d="M-1817.1 1084.186c-.243 0-.487-.007-.729-.023a3.511 3.511 0 0 1-2.17-1.042c-1.746-1.644-3.068-5.067-3.722-9.637a50.455 50.455 0 0 1 1.213-19.267c1.865-7.1 2.5-11.5 2.2-15.174a.186.186 0 0 1 .119-.189c1.159-.444 2.344-.885 3.426-1.277a55.414 55.414 0 0 1 7.539-2.148.185.185 0 0 1 .163.048.186.186 0 0 1 .057.16c-.083.637-.185 1.292-.3 1.945-.992 5.47-3.057 16.851.6 30.171 3.329 12.126-2.687 15.253-5.457 16.037a.2.2 0 0 1-.036.014 10.9 10.9 0 0 1-2.903.382zm-2.828-45.035c.281 3.69-.366 8.1-2.221 15.16a50.056 50.056 0 0 0-1.2 19.115c.633 4.426 1.948 7.859 3.609 9.422a3.147 3.147 0 0 0 1.939.942 10.665 10.665 0 0 0 3.478-.342l.032-.012c7.962-2.23 6.3-11.642 5.222-15.585-3.676-13.4-1.6-24.839-.6-30.336.1-.56.191-1.12.266-1.67a56.888 56.888 0 0 0-7.23 2.084c-1.047.371-2.181.796-3.297 1.222z" transform="translate(1824.158 -1035.424)" />
                </g>
            </g>
            <g id="Group_4713" transform="translate(202.083 45.395)">
                <g id="Group_4711" transform="translate(0.186 0.186)">
                    <path id="Path_2195" d="M-1779.305 997.172a1.373 1.373 0 0 1-1.231 1.5l-10.549 1.991a.222.222 0 0 0-.171.31.225.225 0 0 0 .216.134l9.009-.72a1.273 1.273 0 0 1 1.354 1.108 1.238 1.238 0 0 1-1.13 1.365l-9.468 1.067a.223.223 0 0 0-.2.246.22.22 0 0 0 .22.205l6.977-.007a1.144 1.144 0 0 1 1.16 1.063 1.113 1.113 0 0 1-1.074 1.171l-7.984.265c-1.3.391-4.87 1.3-7.059.142a18.832 18.832 0 0 1-1.991-1.19c-.026-.019-.052-.033-.078-.052l-.015-.011c-.268-.138-1.212-.429-3.99.1a54.424 54.424 0 0 0-7.51 2.141c-1.145.414-2.342.861-3.423 1.275a65.6 65.6 0 0 0-1.5-7.768c-.1-.47-.168-.921-.22-1.361a45.235 45.235 0 0 0 12.794-1.2l.3-.074a5.416 5.416 0 0 0 2.6-1.53l.745-.786.017-.024a13.919 13.919 0 0 0 2.434-5.716c.144-.8.277-1.661.323-2.311a.568.568 0 0 1 .712-.507 3.121 3.121 0 0 1 2.282 2.357c.4 1.809-.242 3.554-.328 4.486.175 0 .343 0 .5-.007.873-.03 1.525-.138 2.029-.142l.977-.291.667-.2 7.8-2.308a1.276 1.276 0 0 1 1.645.593 1.26 1.26 0 0 1 .108.3 1.273 1.273 0 0 1-.585 1.365l-8.07 2.9c-.332.205-.4.548 0 .537l10.318-1.671a1.38 1.38 0 0 1 1.389 1.255z" class="cls-999991111" fill="#eeb59e" transform="translate(1817.968 -987.984)" />
                </g>
                <g id="Group_4712">
                    <path id="Path_2196" d="M-1816.559 1009.151a.187.187 0 0 1-.1-.029.187.187 0 0 1-.086-.142 35.172 35.172 0 0 0-.925-5.149c-.187-.814-.382-1.655-.575-2.6-.094-.455-.166-.905-.222-1.377a.186.186 0 0 1 .049-.15.177.177 0 0 1 .146-.059 45.242 45.242 0 0 0 12.741-1.192l.293-.073a5.215 5.215 0 0 0 2.507-1.478l.745-.786a13.84 13.84 0 0 0 2.4-5.645 23.069 23.069 0 0 0 .321-2.291.75.75 0 0 1 .311-.557.761.761 0 0 1 .633-.117 3.312 3.312 0 0 1 2.418 2.5 8.614 8.614 0 0 1-.168 3.646c-.053.259-.1.491-.132.692l.288-.006c.448-.015.838-.052 1.183-.084.31-.029.58-.054.822-.057l9.421-2.789a1.458 1.458 0 0 1 1.864.687 1.481 1.481 0 0 1 .124.348 1.456 1.456 0 0 1-.672 1.564l-8.083 2.909a.4.4 0 0 0-.168.184.24.24 0 0 1 .062 0h.014l10.294-1.668a1.577 1.577 0 0 1 1.618 1.411 1.562 1.562 0 0 1-1.4 1.706l-10.533 1.989-.035.021c.006.046.022.064.037.053l9-.719a1.46 1.46 0 0 1 1.554 1.275 1.421 1.421 0 0 1-.323 1.062 1.408 1.408 0 0 1-.977.507l-9.462 1.066s-.036.045-.036.049a.034.034 0 0 0 .034.031l6.977-.008a1.322 1.322 0 0 1 1.347 1.241 1.287 1.287 0 0 1-.338.942 1.3 1.3 0 0 1-.916.423l-7.96.264c-1.441.431-4.97 1.286-7.176.121a19.259 19.259 0 0 1-2.011-1.2l-.08-.054h-.005c-.23-.111-1.14-.393-3.857.125a55.123 55.123 0 0 0-7.484 2.133c-1.078.39-2.261.831-3.418 1.273a.181.181 0 0 1-.061.008zm-1.51-9.119c.051.383.113.753.19 1.127.193.938.386 1.776.574 2.587a36.981 36.981 0 0 1 .91 4.955c1.085-.414 2.186-.823 3.2-1.188a55.453 55.453 0 0 1 7.539-2.148c2.71-.516 3.738-.274 4.11-.083a.187.187 0 0 1 .047.034l.069.043a18.852 18.852 0 0 0 1.97 1.177c2.1 1.108 5.537.26 6.919-.155a.19.19 0 0 1 .048-.008l7.983-.265a.924.924 0 0 0 .654-.3.917.917 0 0 0 .24-.673.962.962 0 0 0-.974-.886l-6.977.008a.407.407 0 0 1-.406-.38.4.4 0 0 1 .089-.292.413.413 0 0 1 .282-.151l9.464-1.066a1.043 1.043 0 0 0 .727-.375 1.051 1.051 0 0 0 .239-.786 1.1 1.1 0 0 0-1.158-.94l-9 .719a.407.407 0 0 1-.4-.246.4.4 0 0 1 .016-.358.408.408 0 0 1 .3-.209l10.543-1.99a1.194 1.194 0 0 0 1.08-1.3 1.2 1.2 0 0 0-1.213-1.077l-10.293 1.668c-.359.006-.448-.174-.472-.255a.6.6 0 0 1 .348-.625.178.178 0 0 1 .035-.017l8.07-2.9a1.082 1.082 0 0 0 .466-1.149 1.087 1.087 0 0 0-.093-.26 1.091 1.091 0 0 0-1.4-.5l-9.467 2.8a.187.187 0 0 1-.052.008c-.233 0-.5.027-.816.056-.35.032-.746.07-1.208.086-.164 0-.333.007-.51.007a.186.186 0 0 1-.138-.061.187.187 0 0 1-.048-.143 9.427 9.427 0 0 1 .163-.938 8.3 8.3 0 0 0 .169-3.49 2.941 2.941 0 0 0-2.147-2.217.39.39 0 0 0-.322.059.379.379 0 0 0-.157.281 23.316 23.316 0 0 1-.325 2.33 14.183 14.183 0 0 1-2.466 5.792c0 .007-.027.037-.033.043l-.744.786a5.583 5.583 0 0 1-2.686 1.583l-.3.075a45.6 45.6 0 0 1-12.639 1.207z" transform="translate(1818.468 -987.485)" />
                </g>
            </g>
            <g id="Group_4715" transform="translate(133.26 48.34)">
                <g id="Group_4714">
                    <path id="Path_2197" d="M-1998.79 1029.5c-3.01 0-4.116-1.1-4.186-1.171a.187.187 0 0 1 .006-.264.187.187 0 0 1 .263.005 4.428 4.428 0 0 0 2.341.93c1.564.254 4.354.221 8.772-1.372a44.837 44.837 0 0 0 4.711-2.021c.515-.252 1.04-.52 1.583-.8 2.9-1.519 10.863-6.524 10.943-6.574 1.469-.939 2.991-1.921 4.548-2.926 13.77-8.884 30.871-19.917 40.623-19.917h.318a.186.186 0 0 1 .182.191.177.177 0 0 1-.191.182c-9.578-.254-26.852 10.9-40.73 19.854-1.558 1.005-3.08 1.987-4.551 2.927-.081.052-8.058 5.064-10.97 6.59q-.819.426-1.586.8a45.323 45.323 0 0 1-4.755 2.041 21.934 21.934 0 0 1-7.321 1.525z" transform="translate(2003.028 -995.383)" />
                </g>
            </g>
            <g id="Group_4718" transform="translate(129.339 67.519)">
                <g id="Group_4716" transform="translate(0.186 0.187)">
                    <path id="Path_2198" d="M-2005.894 1055.242a11.6 11.6 0 0 1-3.226-4.426c-1.518-3.229-3.923-2.174-3.923-2.174.093-.436.168-.88.22-1.328a12.8 12.8 0 0 0 1.939.145H-2010.642a12.983 12.983 0 0 0 1.577-.119 14.557 14.557 0 0 0 1.465 5.235 14.629 14.629 0 0 0 1.706 2.667z" transform="translate(2013.043 -1047.314)" />
                </g>
                <g id="Group_4717">
                    <path id="Path_2199" d="M-2006.208 1055.114a.184.184 0 0 1-.108-.035 11.784 11.784 0 0 1-3.286-4.5c-1.418-3.017-3.588-2.122-3.679-2.082a.185.185 0 0 1-.192-.027.186.186 0 0 1-.065-.183c.094-.439.167-.88.217-1.31a.189.189 0 0 1 .072-.126.181.181 0 0 1 .141-.036 12.713 12.713 0 0 0 1.911.144h.234a13.157 13.157 0 0 0 1.561-.118.187.187 0 0 1 .142.039.186.186 0 0 1 .069.13 14.321 14.321 0 0 0 1.447 5.168 14.449 14.449 0 0 0 1.682 2.636.186.186 0 0 1-.009.245.186.186 0 0 1-.137.055zm-6.23-7.131c.9 0 2.217.4 3.173 2.439a15.218 15.218 0 0 0 1.616 2.724q-.227-.4-.43-.806a14.685 14.685 0 0 1-1.466-5.108 13.318 13.318 0 0 1-1.407.1h-.234a13.173 13.173 0 0 1-1.789-.12c-.037.28-.083.564-.137.848a2.993 2.993 0 0 1 .674-.077z" transform="translate(2013.543 -1046.813)" />
                </g>
            </g>
            <g id="Group_4720" transform="translate(136.49 75.448)">
                <g id="Group_4719">
                    <path id="Path_2200" d="M-1986.1 1073.573a.175.175 0 0 1-.043-.005 14.938 14.938 0 0 1-8.184-5.185.189.189 0 0 1 .023-.26.184.184 0 0 1 .257.015 14.584 14.584 0 0 0 7.99 5.068.186.186 0 0 1 .139.224.187.187 0 0 1-.182.143z" transform="translate(1994.365 -1068.077)" />
                </g>
            </g>
            <g id="Group_4722" transform="translate(60.592 96.268)">
                <g id="Group_4721">
                    <path id="Path_2201" d="M-2165.187 1246.07a32.748 32.748 0 0 1-32.711-32.711 32.781 32.781 0 0 1 10.633-24.134l.024-.024 22.037-22.042c-1.708-14.178 5.182-34.151 10.833-43.152a.186.186 0 0 1 .163-.1.185.185 0 0 1 .187.185.2.2 0 0 1-.029.1c-5.634 8.97-12.511 28.906-10.772 43.008a.186.186 0 0 1-.053.155l-22.132 22.136a32.411 32.411 0 0 0-10.517 23.865 32.375 32.375 0 0 0 32.338 32.338 32 32 0 0 0 14.4-3.378.192.192 0 0 1 .271.167.186.186 0 0 1-.124.176 32.367 32.367 0 0 1-14.548 3.411z" transform="translate(2197.898 -1123.909)" />
                </g>
            </g>
            <g id="Group_4725" transform="translate(81.052)">
                <g id="Group_4723" transform="translate(0.047 0.046)">
                    <path id="Path_2202" d="M-2079.093 920.459a13.22 13.22 0 0 1-11.411 13.1c-.008-.071-.015-.138-.019-.209a4.981 4.981 0 0 0 3.192-4.65 4.961 4.961 0 0 0-1.425-3.49 4.967 4.967 0 0 0-3.561-1.5 4.968 4.968 0 0 0-3.5 1.436 4.962 4.962 0 0 0-1.484 3.55 4.987 4.987 0 0 0 3.062 4.6c-.007.078-.015.16-.026.239a13.217 13.217 0 0 1-10.829-9.677v-.008c-2.685-8.308-12.8-11.646-17.9-12.82-1.436-.334-2.983-.567-2.983-.567-10.11-1.518-16.93-11.4-16.93-21.93a22.658 22.658 0 0 1 22.658-22.657 22.662 22.662 0 0 1 22.661 22.657c0 1.507-1.2 16.363 9.416 19.365a13.23 13.23 0 0 1 9.079 12.561z" transform="translate(2142.908 -865.874)" />
                </g>
                <g id="Group_4724">
                    <path id="Path_2203" d="M-2090.582 933.525a.047.047 0 0 1-.029-.01.046.046 0 0 1-.018-.032v-.019c-.007-.065-.013-.126-.017-.192a.046.046 0 0 1 .03-.046 4.9 4.9 0 0 0 3.162-4.607 4.9 4.9 0 0 0-1.411-3.458 4.9 4.9 0 0 0-3.528-1.482 4.9 4.9 0 0 0-3.465 1.422 4.9 4.9 0 0 0-1.47 3.517 4.93 4.93 0 0 0 3.033 4.555.047.047 0 0 1 .028.047v.019c-.007.073-.014.149-.025.222a.047.047 0 0 1-.018.031.044.044 0 0 1-.035.009 13.22 13.22 0 0 1-10.866-9.707.029.029 0 0 1 0-.009c-1.168-3.614-3.867-6.662-8.022-9.059a36.686 36.686 0 0 0-9.843-3.73c-1.418-.331-2.964-.564-2.979-.566a18.9 18.9 0 0 1-12.287-7.6 24.141 24.141 0 0 1-4.683-14.374 22.73 22.73 0 0 1 22.7-22.7 22.732 22.732 0 0 1 22.708 22.7c0 .1 0 .244-.011.44a31.816 31.816 0 0 0 .947 9.48c1.415 5.052 4.257 8.215 8.447 9.4a13.247 13.247 0 0 1 9.114 12.608 13.255 13.255 0 0 1-3.3 8.758 13.253 13.253 0 0 1-8.15 4.385zm.03-.225c0 .042.007.084.011.125a13.156 13.156 0 0 0 8.045-4.347 13.159 13.159 0 0 0 3.278-8.7 13.154 13.154 0 0 0-9.048-12.519c-4.221-1.194-7.085-4.378-8.509-9.464a31.918 31.918 0 0 1-.95-9.508c.006-.194.011-.342.011-.437a22.638 22.638 0 0 0-22.615-22.611 22.636 22.636 0 0 0-22.611 22.611 24.048 24.048 0 0 0 4.664 14.318 18.806 18.806 0 0 0 12.226 7.566c.015 0 1.565.236 2.986.567a36.808 36.808 0 0 1 9.869 3.741c4.175 2.408 6.887 5.472 8.063 9.108a.047.047 0 0 1 .005.013 13.127 13.127 0 0 0 10.744 9.635l.016-.156a5.023 5.023 0 0 1-3.059-4.628 4.988 4.988 0 0 1 1.5-3.583 5 5 0 0 1 3.531-1.449 5 5 0 0 1 3.595 1.509 4.994 4.994 0 0 1 1.438 3.523 5 5 0 0 1-3.19 4.686z" transform="translate(2143.033 -865.75)" />
                </g>
            </g>
            <g id="Group_4728" transform="translate(126.523 57.697)">
                <g id="Group_4726" transform="translate(0.186 0.186)">
                    <path id="Path_2204" d="M-2010.625 1025.96a4.98 4.98 0 0 1-3.192 4.65 5 5 0 0 1-1.559.328H-2015.618a4.936 4.936 0 0 1-1.913-.384 4.987 4.987 0 0 1-3.062-4.6 4.962 4.962 0 0 1 1.484-3.55 4.967 4.967 0 0 1 3.5-1.436 4.967 4.967 0 0 1 3.561 1.5 4.962 4.962 0 0 1 1.423 3.492z" class="cls-999991111" fill="#eeb59e" transform="translate(2020.593 -1020.974)" />
                </g>
                <g id="Group_4727">
                    <path id="Path_2205" d="M-2015.921 1030.815a5.106 5.106 0 0 1-2-.4 5.161 5.161 0 0 1-3.176-4.77 5.127 5.127 0 0 1 1.54-3.683 5.134 5.134 0 0 1 3.629-1.489 5.134 5.134 0 0 1 3.694 1.551 5.132 5.132 0 0 1 1.478 3.621 5.135 5.135 0 0 1-3.311 4.824 5.175 5.175 0 0 1-1.617.34c-.078.006-.156.006-.237.006zm0-9.968a4.767 4.767 0 0 0-3.367 1.381 4.758 4.758 0 0 0-1.428 3.418 4.789 4.789 0 0 0 2.947 4.426 4.717 4.717 0 0 0 1.841.37h.234a4.817 4.817 0 0 0 1.5-.317 4.764 4.764 0 0 0 3.073-4.476 4.762 4.762 0 0 0-1.371-3.359 4.763 4.763 0 0 0-3.433-1.443z" transform="translate(2021.093 -1020.474)" />
                </g>
            </g>
            <g id="Group_4730" transform="translate(129.559 67.285)">
                <g id="Group_4729">
                    <path id="Path_2206" d="M-2010.827 1046.939a13.08 13.08 0 0 1-1.968-.148.186.186 0 0 1-.156-.211c.01-.067.016-.136.022-.2a.211.211 0 0 1 .091-.155.194.194 0 0 1 .169-.025 4.716 4.716 0 0 0 1.841.37.186.186 0 0 1 .186.186.186.186 0 0 1-.185.183z" transform="translate(2012.953 -1046.186)" />
                </g>
            </g>
            <g id="Group_4732" transform="translate(131.74 67.333)">
                <g id="Group_4731">
                    <path id="Path_2207" d="M-2006.917 1047.015a.186.186 0 0 1-.186-.181.186.186 0 0 1 .177-.192 4.818 4.818 0 0 0 1.5-.317.186.186 0 0 1 .168.018.187.187 0 0 1 .085.147c0 .061.009.119.016.179a.2.2 0 0 1-.158.224 13.393 13.393 0 0 1-1.6.121zm1.577-.306z" transform="translate(2007.103 -1046.314)" />
                </g>
            </g>
            <g id="Group_4735" transform="translate(201.983 48.345)">
                <g id="Group_4733" transform="translate(0.188 0.186)">
                    <path id="Path_2208" d="M-1805.34 1003.911a45.236 45.236 0 0 1-12.794 1.2c-.708-6.007 2.528-9.214 5.146-9.214 5.172.203 7.126 3.849 7.648 8.014z" transform="translate(1818.234 -995.894)" />
                </g>
                <g id="Group_4734">
                    <path id="Path_2209" d="M-1816.258 1005.036c-.807 0-1.545-.022-2.2-.055a.186.186 0 0 1-.176-.164c-.5-4.265.976-6.65 1.9-7.692a4.733 4.733 0 0 1 3.429-1.731c4.542.177 7.175 2.929 7.833 8.181a.186.186 0 0 1-.141.2 45.45 45.45 0 0 1-10.645 1.261zm-2.025-.419a45.262 45.262 0 0 0 12.42-1.161c-.666-4.936-3.171-7.523-7.449-7.689a4.358 4.358 0 0 0-3.142 1.606c-.873.982-2.261 3.227-1.828 7.244z" transform="translate(1818.737 -995.394)" />
                </g>
            </g>
            <g id="Group_4737" transform="translate(136.488 75.449)">
                <g id="Group_4736">
                    <path id="Path_2210" d="M-1994.181 1068.454a.19.19 0 0 1-.19-.187.188.188 0 0 1 .187-.189.186.186 0 0 1 .173.116.181.181 0 0 1 .015.073.185.185 0 0 1-.185.187z" transform="translate(1994.371 -1068.079)" />
                </g>
            </g>
            <g id="Group_4740" transform="translate(96.877 181.863)">
                <g id="Group_4738" transform="translate(0.171 0.186)">
                    <path id="Path_2211" d="M-2089.4 1386.741a32.226 32.226 0 0 1-4.355 1.786s-12.932-16.057-1.965-34.583a32.336 32.336 0 0 0-1.954 11.124 32.372 32.372 0 0 0 3.412 14.521c.164.324.332.645.507.966a32.72 32.72 0 0 0 4.355 6.186z" transform="translate(2100.135 -1353.944)" />
                </g>
                <g id="Group_4739">
                    <path id="Path_2212" d="M-2094.045 1388.4a.186.186 0 0 1-.146-.069 33.128 33.128 0 0 1-5.129-10.408 30.11 30.11 0 0 1 3.148-24.386.187.187 0 0 1 .24-.073.187.187 0 0 1 .1.233 32.093 32.093 0 0 0-1.943 11.059 31.992 31.992 0 0 0 3.393 14.438c.163.322.33.641.5.959a32.584 32.584 0 0 0 4.331 6.152.189.189 0 0 1 .044.16.186.186 0 0 1-.1.131 32.535 32.535 0 0 1-4.381 1.8.193.193 0 0 1-.057.004zm-2.769-32.933a29.628 29.628 0 0 0-2.151 22.336 33.185 33.185 0 0 0 4.987 10.193 32.228 32.228 0 0 0 3.987-1.627 32.978 32.978 0 0 1-4.218-6.038c-.176-.322-.345-.644-.51-.971a32.367 32.367 0 0 1-3.432-14.6 32.6 32.6 0 0 1 1.337-9.292z" transform="translate(2100.594 -1353.445)" />
                </g>
            </g>
            <g id="Group_4743" transform="translate(148.886 106.208)">
                <g id="Group_4741" transform="translate(0.187 0.186)">
                    <path id="Path_2213" d="M-1936.116 1188.041a40 40 0 0 1-.966 8.771 39.813 39.813 0 0 1-1.354 4.7 39.419 39.419 0 0 1-3.4 7.178 38.613 38.613 0 0 1-2.562 3.762 40.234 40.234 0 0 1-11.042 9.912c11.69-10.113 16.146-29.728 13.242-45.058-2.864-15.088-17.959-25.909-18.429-26.245.8.38 1.6.75 2.387 1.1a40.146 40.146 0 0 1 21.83 31.037 39.787 39.787 0 0 1 .294 4.843z" transform="translate(1960.623 -1151.064)" />
                </g>
                <g id="Group_4742">
                    <path id="Path_2214" d="M-1955.75 1222.24a.186.186 0 0 1-.151-.077.186.186 0 0 1 .029-.25c9.258-8.009 16.759-26 13.181-44.882-2.825-14.881-17.721-25.676-18.354-26.128a.186.186 0 0 1-.052-.247.187.187 0 0 1 .24-.074c.79.375 1.592.746 2.383 1.1a40.2 40.2 0 0 1 21.938 31.185 40.155 40.155 0 0 1 .292 4.859 40.285 40.285 0 0 1-.97 8.811 40.084 40.084 0 0 1-1.36 4.724 39.686 39.686 0 0 1-3.413 7.212 38.886 38.886 0 0 1-2.574 3.78 40.246 40.246 0 0 1-11.093 9.958.186.186 0 0 1-.096.029zm-3.711-70.595c3.887 3.107 14.754 12.765 17.136 25.316 2.61 13.772-.654 32.815-11.74 43.787a39.889 39.889 0 0 0 9.209-8.719 38.482 38.482 0 0 0 2.55-3.745 39.327 39.327 0 0 0 3.381-7.145 39.683 39.683 0 0 0 1.347-4.681 39.91 39.91 0 0 0 .961-8.73 39.87 39.87 0 0 0-.289-4.814 39.831 39.831 0 0 0-21.729-30.893q-.41-.185-.826-.376z" transform="translate(1961.123 -1150.564)" />
                </g>
            </g>
            <g id="Group_4746" transform="translate(171.085 134.151)">
                <g id="Group_4744" transform="translate(0.186 0.175)">
                    <path id="Path_2215" d="M-1866 1256.671l-13.82-3.144a1.038 1.038 0 0 0-.964.278l-11.2 11.2c-.481-.742-.984-1.54-1.5-2.4-2.084-3.554-4.3-9.476-7.611-14.111a39.745 39.745 0 0 0 1.354-4.7 39.981 39.981 0 0 0 .966-8.771 39.833 39.833 0 0 0-.291-4.837l3.913-3.913a1.037 1.037 0 0 1 1.467 0l11.017 11.016 17.636 17.639a1.038 1.038 0 0 1-.967 1.743z" class="cls-999991111" fill="#eeb59e" transform="translate(1901.093 -1225.967)" />
                </g>
                <g id="Group_4745">
                    <path id="Path_2216" d="M-1892.293 1264.9h-.02a.186.186 0 0 1-.137-.084c-.544-.84-1.037-1.627-1.506-2.406-.777-1.324-1.579-2.99-2.427-4.752a63.558 63.558 0 0 0-5.176-9.346.187.187 0 0 1-.024-.171 39.752 39.752 0 0 0 1.347-4.681 39.9 39.9 0 0 0 .961-8.73 39.72 39.72 0 0 0-.29-4.814.186.186 0 0 1 .053-.154l3.913-3.913a1.253 1.253 0 0 1 1.731 0l28.652 28.655a1.2 1.2 0 0 1 .206 1.457 1.2 1.2 0 0 1-1.343.6l-13.82-3.144a.847.847 0 0 0-.791.228l-11.2 11.2a.186.186 0 0 1-.129.055zm-8.906-16.727a64.414 64.414 0 0 1 5.152 9.322c.845 1.756 1.643 3.414 2.412 4.724.43.714.88 1.436 1.373 2.2l11.036-11.036a1.215 1.215 0 0 1 1.137-.328l13.82 3.144a.837.837 0 0 0 .934-.418.836.836 0 0 0-.143-1.013l-28.652-28.655a.871.871 0 0 0-1.2 0l-3.849 3.849a40.185 40.185 0 0 1 .282 4.769 40.3 40.3 0 0 1-.97 8.812 40.174 40.174 0 0 1-1.333 4.627z" transform="translate(1901.593 -1225.498)" />
                </g>
            </g>
            <g id="Group_4749" transform="translate(173.093 134.139)">
                <g id="Group_4747" transform="translate(0.196 0.186)">
                    <path id="Path_2217" d="M-1862.617 1256.67l-7.182-1.633s10.3-.656-25.6-20.957c-.03-1.316-.123-2.618-.28-3.9l3.912-3.912a1.033 1.033 0 0 1 1.466 0l11.019 11.016 17.635 17.638a1.038 1.038 0 0 1-.97 1.748z" class="cls-2sadasdasd" transform="translate(1895.683 -1225.967)" />
                </g>
                <g id="Group_4748">
                    <path id="Path_2218" d="M-1862.7 1256.572a1.293 1.293 0 0 1-.287-.033l-8.423-1.916 1.27-.086c.01 0 1.013-.076 1.173-.781.845-3.714-18.5-15.1-26.856-19.828l-.092-.053v-.106c-.03-1.307-.123-2.612-.278-3.879l-.011-.091 3.976-3.976a1.217 1.217 0 0 1 .866-.359 1.208 1.208 0 0 1 .861.36l28.653 28.653a1.2 1.2 0 0 1 .206 1.457 1.2 1.2 0 0 1-1.058.638zm-.2-.4a.84.84 0 0 0 .935-.419.835.835 0 0 0-.143-1.013l-28.654-28.654a.839.839 0 0 0-.6-.25.848.848 0 0 0-.6.25l-3.847 3.848c.146 1.216.236 2.466.267 3.719 18.285 10.344 27.6 17.322 26.943 20.185a1.271 1.271 0 0 1-.749.867z" transform="translate(1896.209 -1225.467)" />
                </g>
            </g>
            <g id="Group_4751" transform="translate(13.899 88.215)">
                <g id="Group_4750">
                    <path id="Path_2219" d="M-2320.841 1105.419a.187.187 0 0 1-.181-.141 3.378 3.378 0 0 0-1.961-2.6.187.187 0 0 1-.124-.232.187.187 0 0 1 .232-.125 3.726 3.726 0 0 1 2.215 2.866.187.187 0 0 1-.135.227.211.211 0 0 1-.046.005z" transform="translate(2323.115 -1102.314)" />
                </g>
            </g>
            <g id="Group_4754" transform="translate(0 89.022)">
                <g id="Group_4752" transform="translate(0.185 0.187)">
                    <path id="Path_2220" d="M-2352.651 1107.3a1.48 1.48 0 0 1-.772.832l-4.389 1.369-.753.235a1.975 1.975 0 0 1-1.212-1.271 1.7 1.7 0 0 1 .116-1.48 1.8 1.8 0 0 1 .887-.675c.619-.246 2.659-.873 4.24-1.3a.91.91 0 0 1 .287-.026 2.371 2.371 0 0 1 .295.052 1.632 1.632 0 0 1 1.189 1.059 1.844 1.844 0 0 1 .112 1.205z" class="cls-999991111" fill="#eeb59e" transform="translate(2359.889 -1104.978)" />
                </g>
                <g id="Group_4753">
                    <path id="Path_2221" d="M-2358.877 1109.607a.192.192 0 0 1-.054-.008 2.153 2.153 0 0 1-1.336-1.4 1.889 1.889 0 0 1 .138-1.637 1.972 1.972 0 0 1 .975-.746c.631-.251 2.662-.875 4.26-1.309a1.1 1.1 0 0 1 .35-.032 2.627 2.627 0 0 1 .326.057 1.823 1.823 0 0 1 1.318 1.173 2.026 2.026 0 0 1 .116 1.331 1.646 1.646 0 0 1-.861.939l-5.176 1.618a.2.2 0 0 1-.056.014zm4.258-4.757a.772.772 0 0 0-.182.023c-1.557.423-3.607 1.052-4.216 1.294a1.62 1.62 0 0 0-.8.6 1.515 1.515 0 0 0-.1 1.325 1.8 1.8 0 0 0 1.039 1.131l5.083-1.585a1.276 1.276 0 0 0 .649-.709 1.676 1.676 0 0 0-.109-1.087 1.445 1.445 0 0 0-1.059-.943 2.2 2.2 0 0 0-.273-.049z" transform="translate(2360.387 -1104.477)" />
                </g>
            </g>
            <g id="Group_4757" transform="translate(1.165 91.859)">
                <g id="Group_4755" transform="translate(0.186 0.186)">
                    <path id="Path_2222" d="M-2349.464 1115.585l-4.009 1.38-1.723.593a2.287 2.287 0 0 1-1.544-2.465 3.226 3.226 0 0 1 .134-.589l.753-.235 4.389-1.369.85-.265a1.512 1.512 0 0 1 .283-.052 1 1 0 0 1 .209.011 1.643 1.643 0 0 1 .742.265 1.453 1.453 0 0 1 .518.664 2.336 2.336 0 0 1 .164.518 1.374 1.374 0 0 1-.766 1.544z" class="cls-999991111" fill="#eeb59e" transform="translate(2356.764 -1112.583)" />
                </g>
                <g id="Group_4756">
                    <path id="Path_2223" d="M-2355.509 1117.431a.177.177 0 0 1-.057-.009 2.488 2.488 0 0 1-1.671-2.667 3.412 3.412 0 0 1 .142-.621.187.187 0 0 1 .122-.122l5.993-1.868a1.668 1.668 0 0 1 .324-.06h.047a.994.994 0 0 1 .215.016 1.787 1.787 0 0 1 .808.292 1.637 1.637 0 0 1 .585.746 2.569 2.569 0 0 1 .177.562 1.565 1.565 0 0 1-.885 1.746h-.007l-5.731 1.973a.182.182 0 0 1-.062.012zm-1.26-3.092a2.964 2.964 0 0 0-.1.464 2.067 2.067 0 0 0 1.36 2.244l5.665-1.949a1.188 1.188 0 0 0 .649-1.342 2.195 2.195 0 0 0-.152-.475 1.268 1.268 0 0 0-.45-.581 1.455 1.455 0 0 0-.657-.233.765.765 0 0 0-.152-.01 1.184 1.184 0 0 0-.271.046zm6.992.933zm0 0z" transform="translate(2357.263 -1112.084)" />
                </g>
            </g>
            <g id="Group_4759" transform="translate(226.458 55.592)">
                <g id="Group_4758">
                    <path id="Path_2224" d="M-1752.815 1019.835a.158.158 0 0 1-.032 0 .186.186 0 0 1-.152-.215 9.81 9.81 0 0 0-.094-4.538.187.187 0 0 1 .112-.239.187.187 0 0 1 .239.112 9.959 9.959 0 0 1 .11 4.728.187.187 0 0 1-.183.152z" transform="translate(1753.103 -1014.83)" />
                </g>
            </g>
            <g id="Group_4761" transform="translate(222.926 52.256)">
                <g id="Group_4760">
                    <path id="Path_2225" d="M-1762.387 1008.916a.186.186 0 0 1-.115-.04.186.186 0 0 1-.032-.262 4.346 4.346 0 0 0 .988-2.539.187.187 0 0 1 .181-.192.2.2 0 0 1 .192.181 4.664 4.664 0 0 1-1.067 2.78.187.187 0 0 1-.147.072z" transform="translate(1762.574 -1005.884)" />
                </g>
            </g>
            <g id="Group_4763" transform="translate(130.78 62.248)">
                <g id="Group_4762">
                    <path id="Path_2226" d="M-2008.852 1034.554c-.419 0-.683-.122-.785-.36-.219-.514.5-1.306.65-1.459a.187.187 0 0 1 .264-.006.186.186 0 0 1 .006.264c-.286.3-.667.842-.576 1.055.036.085.2.134.442.134a.186.186 0 0 1 .186.187.187.187 0 0 1-.187.185z" transform="translate(2009.678 -1032.677)" />
                </g>
            </g>
            <g id="Group_4765" transform="translate(145.406 179.863)">
                <g id="Group_4764">
                    <path id="Path_2227" d="M-1968.468 1351.168a.178.178 0 0 1-.037 0 2.359 2.359 0 0 1-1.719-1.1 2.413 2.413 0 0 1-.073-1.866.186.186 0 0 1 .241-.1.186.186 0 0 1 .105.241 2.069 2.069 0 0 0 .055 1.555 2.009 2.009 0 0 0 1.465.908.187.187 0 0 1 .146.22.187.187 0 0 1-.183.142z" transform="translate(1970.456 -1348.081)" />
                </g>
            </g>
            <g id="Group_4767" transform="translate(189.012 160.895)">
                <g id="Group_4766">
                    <path id="Path_2228" d="M-1849.982 1298.395a.179.179 0 0 1-.044-.005l-3.35-.8a.187.187 0 0 1-.138-.225.186.186 0 0 1 .225-.138l3.35.8a.187.187 0 0 1 .138.225.187.187 0 0 1-.181.143z" transform="translate(1853.519 -1297.217)" />
                </g>
            </g>
            <g id="Group_4769" transform="translate(10.55 92.187)">
                <g id="Group_4768" />
            </g>
        </g>
        <g id="Group_6290" transform="translate(-4.898 137.5)">
            <g id="Group_5092" transform="translate(126.687 141.62)">
                <g id="Group_5091">
                    <path id="Path_2585" d="M2541.664-2246.545c-.574 5.342-1.039 5.807-6.381 6.381 5.343.573 5.807 1.039 6.381 6.381.574-5.342 1.039-5.807 6.381-6.381-5.345-.574-5.807-1.036-6.381-6.381z" class="cls-43434334" transform="translate(-2533.768 2248.06)" />
                    <path id="Path_2586" d="M2538.5-2235.435l-.161-1.5c-.565-5.264-.973-5.673-6.237-6.237l-1.5-.161 1.5-.161c5.264-.565 5.672-.974 6.237-6.238l.161-1.5.161 1.5c.565 5.264.974 5.672 6.237 6.238l1.5.161-1.5.161c-5.264.565-5.672.973-6.237 6.237zm-5.009-7.9c3.727.5 4.506 1.282 5.009 5.009.5-3.728 1.282-4.507 5.009-5.009-3.727-.5-4.506-1.282-5.009-5.009-.505 3.731-1.284 4.51-5.012 5.013z" transform="translate(-2530.601 2251.227)" />
                </g>
            </g>
            <g id="Group_5094" transform="translate(218.484 110.058)">
                <g id="Group_5093">
                    <path id="Path_2587" d="M2451.871-2232.034c-20.142.616-20.641 1.118-21.26 21.257-.616-20.139-1.118-20.641-21.257-21.257 20.139-.62 20.641-1.122 21.257-21.26.619 20.138 1.118 20.64 21.26 21.26z" class="cls-43434334" transform="translate(-2409.347 2253.301)" />
                    <path id="Path_2588" d="M2430.79-2210.781h-.38c-.614-20.065-1.008-20.459-21.073-21.073v-.38c20.065-.618 20.459-1.012 21.073-21.077h.38c.618 20.065 1.012 20.459 21.076 21.077v.38c-20.066.614-20.458 1.008-21.076 21.073zm-16.258-21.263c13.585.64 15.429 2.483 16.068 16.068.643-13.585 2.486-15.428 16.071-16.068-13.585-.643-15.428-2.486-16.071-16.071-.639 13.584-2.483 15.428-16.068 16.07z" transform="translate(-2409.337 2253.311)" />
                </g>
            </g>
            <g id="Group_5096" transform="translate(111.25 134.285)">
                <g id="Group_5095" transform="translate(0 0)">
                    <path id="Path_2589" d="M2151.63-2164.138c-.418 3.894-.757 4.232-4.651 4.651 3.894.418 4.233.757 4.651 4.651.418-3.894.757-4.233 4.651-4.651-3.894-.419-4.233-.757-4.651-4.651z" class="cls-43434334" transform="translate(-2145.464 2165.653)" />
                    <path id="Path_2590" d="M2148.462-2156.488l-.161-1.5c-.409-3.8-.7-4.1-4.507-4.507l-1.5-.161 1.5-.161c3.8-.409 4.1-.7 4.507-4.507l.161-1.5.161 1.5c.408 3.8.7 4.1 4.507 4.507l1.5.161-1.5.161c-3.8.408-4.1.7-4.507 4.507zm-3.338-6.166c2.385.358 2.979.953 3.338 3.338.358-2.385.953-2.98 3.337-3.338-2.385-.358-2.979-.953-3.337-3.338-.362 2.385-.953 2.98-3.337 3.338z" transform="translate(-2142.296 2168.82)" />
                </g>
            </g>
        </g>
    </g>
</svg>
