<svg id="Layer_1" data-name="Layer 1" xmlns="http://www.w3.org/2000/svg" viewBox="0 0 500 150"><defs><style>.cls-1{fill:#fff;}</style></defs><path class="cls-1" d="M375.83,41.39l-14.26,0a2.06,2.06,0,0,0-2.07,2.05l0,32.39A7.21,7.21,0,0,1,354,83a7.06,7.06,0,0,1-8.49-6.88l0-32.66a2,2,0,0,0-2.05-2H329.14a2,2,0,0,0-2,2l0,32.66a7,7,0,0,1-7.33,7,7.33,7.33,0,0,1-6.72-7.47l0-32.27a2,2,0,0,0-2-2H296.66a2,2,0,0,0-2,2l0,32.31a9.2,9.2,0,0,1-8.12,9.31,8.92,8.92,0,0,1-9.73-8.87l0-32.73a2,2,0,0,0-2-2l-14.41,0a2,2,0,0,0-2,2l0,31.43A9.6,9.6,0,0,1,249,83.23s-28.35,0-28.5,0a9.59,9.59,0,0,1-9.16-9.58V56.45a2.06,2.06,0,0,0-2.05-2H195a2,2,0,0,0-2,2V73.68c0,18.59,10.23,27.93,26.78,27.92l28,0h0a26.46,26.46,0,0,0,4-.31,25.32,25.32,0,0,0,13.65-6.88.07.07,0,0,1,.1,0,27.32,27.32,0,0,0,38.89,1.74.05.05,0,0,1,.08,0,25.33,25.33,0,0,0,31.8-.43.06.06,0,0,1,.08,0A25.4,25.4,0,0,0,377.9,76.1l0-32.66A2,2,0,0,0,375.83,41.39Z"/><path class="cls-1" d="M480.08,75.94l0-32.64a2,2,0,0,0-2-2l-14.41,0a2,2,0,0,0-2,2l0,32.82a6.91,6.91,0,0,1-6.91,6.92H447a.07.07,0,0,1-.07-.06V71.08c0-15.39-11.86-28.64-27.25-29.33a28.55,28.55,0,0,0-30,28.56v2.56a28.09,28.09,0,0,0,1.55,9.24v0a28.36,28.36,0,0,0,12.44,15.3,27,27,0,0,0,8,3.22,28,28,0,0,0,6.67.8h10.72l.08.1a12.9,12.9,0,0,1-22.75,5.71,2,2,0,0,0-2.87-.25l-10.13,9.11a2,2,0,0,0-.21,2.72,30.45,30.45,0,0,0,53.65-17.32l.09-.08h7.72A25.46,25.46,0,0,0,480.08,75.94ZM429.35,83a.07.07,0,0,1-.07.07h-11a11,11,0,0,1-11-11v-1a11,11,0,0,1,13.29-10.82c5.22,1,8.77,6,8.77,11.3Z"/><circle class="cls-1" cx="470.94" cy="120.44" r="9.18"/><circle class="cls-1" cx="247.68" cy="29.39" r="9.18"/><circle class="cls-1" cx="224.28" cy="29.4" r="9.18"/><path class="cls-1" d="M115.41,41.6l-23.58,0A25.6,25.6,0,0,0,67.94,57.91a25.08,25.08,0,0,0-1.72,9.24V81.31a2.07,2.07,0,0,1-2.07,2.06L48,83.39a9.71,9.71,0,0,1-9.71-9.7V56.59a2,2,0,0,0-2-2H21.94a2,2,0,0,0-2,2V73.82c0,.28,0,.54,0,.83,0,16.31,9.23,27.1,25.57,27.09h5.05l32,0a2.05,2.05,0,0,0,2-2l0-27.6a9.86,9.86,0,0,1,8.77-10,9.55,9.55,0,0,1,5.74,1.33.1.1,0,0,1,0,.07l0,36.22a2,2,0,0,0,2,2h14.34a2,2,0,0,0,2-2l0-56A2.06,2.06,0,0,0,115.41,41.6Z"/><path class="cls-1" d="M180.09,76.25l0-32.73a2,2,0,0,0-2-2h-14.4a2,2,0,0,0-2,2l0,32.73a7,7,0,0,1-7.33,7,7.33,7.33,0,0,1-6.72-7.47l0-53.56a2,2,0,0,0-2-2H131.27a2,2,0,0,0-2,2l0,54a25.39,25.39,0,0,0,50.77,0Z"/><circle class="cls-1" cx="70.45" cy="120.76" r="9.18"/><circle class="cls-1" cx="170.95" cy="120.68" r="9.18"/><circle class="cls-1" cx="47.04" cy="120.78" r="9.18"/></svg>