<svg xmlns="http://www.w3.org/2000/svg" width="34.127" height="34.127" viewBox="0 0 34.127 34.127">
    <path fill="#fff" d="M1286.545 613.722a17.063 17.063 0 1 0 17.061 17.061 17.061 17.061 0 0 0-17.061-17.061zm7.108 13.221v.5c0 5.337-3.769 11.45-10.664 11.45a10.064 10.064 0 0 1-5.758-1.852 4.368 4.368 0 0 0 .923.071 7.265 7.265 0 0 0 4.621-1.7 3.7 3.7 0 0 1-3.485-2.77 2.414 2.414 0 0 0 .71.071 4.266 4.266 0 0 0 1-.142 4.079 4.079 0 0 1-2.988-3.982v-.071a3.42 3.42 0 0 0 1.7.5 4.05 4.05 0 0 1-1.634-3.343 3.853 3.853 0 0 1 .5-2.06 10.413 10.413 0 0 0 7.752 4.2 4.083 4.083 0 0 1-.071-.928 3.9 3.9 0 0 1 3.765-4.049 3.628 3.628 0 0 1 2.7 1.279 8.219 8.219 0 0 0 2.415-.995 3.956 3.956 0 0 1-1.634 2.2 5.74 5.74 0 0 0 2.136-.639 8.589 8.589 0 0 1-1.989 2.26z" transform="translate(-1269.479 -613.722)"/>
</svg>
