<svg xmlns="http://www.w3.org/2000/svg" width="224.802" height="54.067" viewBox="0 0 224.802 54.067">
    <defs>
        <style>
            .cls-1{fill:#fff}
        </style>
    </defs>
    <g id="Group_6684" transform="translate(-5203.198 -11169.21)">
        <path id="Path_4313" d="M1766.078 349.3h-6.969a1 1 0 0 0-1.009 1v15.822a3.519 3.519 0 0 1-2.721 3.489 3.44 3.44 0 0 1-4.145-3.361V350.3a1 1 0 0 0-1-1h-6.968a1 1 0 0 0-1 1v15.956a3.433 3.433 0 0 1-3.587 3.43 3.583 3.583 0 0 1-3.279-3.653v-15.769a.961.961 0 0 0-.964-.964h-7.036a.961.961 0 0 0-.964.964v15.782a4.493 4.493 0 0 1-3.971 4.546 4.359 4.359 0 0 1-4.75-4.339v-15.989a.961.961 0 0 0-.964-.964h-7.036a.96.96 0 0 0-.964.964v15.354a4.683 4.683 0 0 1-4.652 4.069s-13.849.01-13.923 0a4.686 4.686 0 0 1-4.466-4.687v-8.411a1 1 0 0 0-1-1h-6.968a1 1 0 0 0-1 1V365c0 9.078 4.986 13.648 13.073 13.648h13.661a13.216 13.216 0 0 0 1.959-.148 12.353 12.353 0 0 0 6.674-3.357.032.032 0 0 1 .046 0 13.339 13.339 0 0 0 19 .862.032.032 0 0 1 .042 0 12.372 12.372 0 0 0 15.535-.2.031.031 0 0 1 .04 0 12.4 12.4 0 0 0 20.3-9.553V350.3a1 1 0 0 0-.994-1z" class="cls-1" transform="translate(3611.004 10830.548)"/>
        <path id="Path_4314" d="M1916.349 366.224v-15.946a.965.965 0 0 0-.966-.966h-7.038a.965.965 0 0 0-.966.966v16.038a3.377 3.377 0 0 1-3.377 3.377h-3.823a.031.031 0 0 1-.031-.03v-5.827a14.226 14.226 0 0 0-13.3-14.34 13.953 13.953 0 0 0-14.645 13.943v1.251a13.886 13.886 0 0 0 .752 4.516v.01a13.86 13.86 0 0 0 6.072 7.475 13.071 13.071 0 0 0 3.895 1.577 13.656 13.656 0 0 0 3.255.4h5.237l.039.048a6.3 6.3 0 0 1-11.115 2.779.962.962 0 0 0-1.4-.122l-4.952 4.444a.969.969 0 0 0-.1 1.332 14.877 14.877 0 0 0 26.214-8.449l.041-.039h3.773a12.437 12.437 0 0 0 12.435-12.437zm-24.786 3.439a.034.034 0 0 1-.034.034h-5.359a5.392 5.392 0 0 1-5.383-5.393v-.477a5.394 5.394 0 0 1 6.495-5.281 5.557 5.557 0 0 1 4.281 5.522z" class="cls-1" transform="translate(3511.649 10830.835)"/>
        <circle id="Ellipse_111" cx="4.484" cy="4.484" r="4.484" class="cls-1" transform="translate(5419.033 11214.309)"/>
        <circle id="Ellipse_112" cx="4.484" cy="4.484" r="4.484" class="cls-1" transform="translate(5310 11169.21)"/>
        <circle id="Ellipse_113" cx="4.484" cy="4.484" r="4.484" class="cls-1" transform="translate(5298.566 11169.21)"/>
        <path id="Path_4315" d="M1551.445 349.3h-11.516a12.541 12.541 0 0 0-9.26 4.069 12.441 12.441 0 0 0-2.416 3.878 12.293 12.293 0 0 0-.848 4.514v6.917a1.009 1.009 0 0 1-1.009 1.009h-7.911a4.739 4.739 0 0 1-4.739-4.739v-8.356a1 1 0 0 0-1-1h-6.967a1 1 0 0 0-1 1V365c0 .138.01.264.01.4 0 7.972 4.5 13.246 12.485 13.246h18.093a1 1 0 0 0 1-1v-13.479a4.808 4.808 0 0 1 4.287-4.859 4.647 4.647 0 0 1 2.806.652.037.037 0 0 1 .017.031v17.7a.97.97 0 0 0 .975.964h7a1 1 0 0 0 1-1v-27.346a1.009 1.009 0 0 0-1.007-1.009z" class="cls-1" transform="translate(3698.416 10830.538)"/>
        <path id="Path_4316" d="M1638.285 355.5v-15.987a.96.96 0 0 0-.964-.964h-7.036a.961.961 0 0 0-.964.964V355.5a3.432 3.432 0 0 1-3.586 3.43 3.584 3.584 0 0 1-3.28-3.653v-26.164a.97.97 0 0 0-.975-.964h-7.026a.97.97 0 0 0-.974.964V355.5a12.4 12.4 0 0 0 24.8 0z" class="cls-1" transform="translate(3643.162 10841.062)"/>
        <circle id="Ellipse_114" cx="4.484" cy="4.484" r="4.484" class="cls-1" transform="translate(5223.383 11214.311)"/>
        <circle id="Ellipse_115" cx="4.484" cy="4.484" r="4.484" class="cls-1" transform="translate(5272.48 11214.311)"/>
        <circle id="Ellipse_116" cx="4.484" cy="4.484" r="4.484" class="cls-1" transform="translate(5211.95 11214.311)"/>
    </g>
</svg>
