<svg data-name="Group 6582" xmlns="http://www.w3.org/2000/svg" width="14.412" height="17.701" viewBox="0 0 14.412 17.701">
    <defs>
        <clipPath id="2pznefo55a">
            <path data-name="Rectangle 6311" style="fill:#fff" d="M0 0h14.412v17.701H0z"/>
        </clipPath>
    </defs>
    <g data-name="Group 6581" style="clip-path:url(#2pznefo55a)">
        <path data-name="Path 4464" d="M13.952 6.035a4.009 4.009 0 0 0-1.915 3.372 3.9 3.9 0 0 0 2.376 3.58A9.284 9.284 0 0 1 13.2 15.5c-.758 1.091-1.549 2.179-2.753 2.179s-1.514-.7-2.9-.7c-1.354 0-1.836.722-2.937.722s-1.877-1.009-2.76-2.248A10.843 10.843 0 0 1 0 9.592C0 6.15 2.238 4.325 4.44 4.325c1.17 0 2.146.768 2.88.768.7 0 1.79-.814 3.121-.814a4.174 4.174 0 0 1 3.511 1.756M9.809 2.822a3.953 3.953 0 0 0 .94-2.466A1.7 1.7 0 0 0 10.716 0a3.96 3.96 0 0 0-2.6 1.342 3.849 3.849 0 0 0-.975 2.4 1.625 1.625 0 0 0 .034.32 1.385 1.385 0 0 0 .241.023 3.431 3.431 0 0 0 2.4-1.262" style="fill:#fff"/>
    </g>
</svg>
