<svg xmlns="http://www.w3.org/2000/svg" width="33" height="33" viewBox="0 0 33 33">
    <g>
        <g fill="none" stroke="#3ebbd2" stroke-miterlimit="10" stroke-width="2px" transform="translate(-724.718 -57.909) translate(724.718 57.909)">
            <circle cx="16.5" cy="16.5" r="16.5" stroke="none"/>
            <circle cx="16.5" cy="16.5" r="15.5"/>
        </g>
        <g>
            <path fill="#3ebbd2" d="M750.17 90.945l-1.27 1.571a.506.506 0 0 1-.741.044 4.895 4.895 0 0 1-1.578-3.688 4.365 4.365 0 0 1 2.327-3.927.507.507 0 0 0 .136-.8 4.6 4.6 0 0 1-1.2-3.217 4.847 4.847 0 0 1 1.5-3.683 5.306 5.306 0 0 1 3.8-1.426 5.6 5.6 0 0 1 3.675 1.28.5.5 0 0 1 .1.677l-1.085 1.569a.5.5 0 0 1-.7.123 3.2 3.2 0 0 0-1.861-.618 2.452 2.452 0 0 0-1.758.686 2.284 2.284 0 0 0-.719 1.725 2.558 2.558 0 0 0 .73 1.814 2.316 2.316 0 0 0 1.747.774h4.146a.5.5 0 0 1 .5.5v2.031a.5.5 0 0 1-.5.5H752.3a3.164 3.164 0 0 0-1.99.553 1.738 1.738 0 0 0-.708 1.438 2.128 2.128 0 0 0 .544 1.43.5.5 0 0 1 .024.644z" transform="translate(-724.718 -57.909) translate(734.807 66.176) translate(-746.58 -75.822)"/>
        </g>
    </g>
</svg>
