<svg xmlns="http://www.w3.org/2000/svg" width="35" height="35" viewBox="0 0 35 35">
    <g>
        <g fill="#3ebbd2">
            <path d="M17.5 34c-4.407 0-8.55-1.716-11.667-4.833C2.716 26.051 1 21.907 1 17.5S2.716 8.95 5.833 5.833C8.949 2.716 13.093 1 17.5 1s8.55 1.716 11.667 4.833C32.284 8.949 34 13.093 34 17.5s-1.716 8.55-4.833 11.667C26.051 32.284 21.907 34 17.5 34z" transform="translate(0 35) rotate(-90) translate(35 35) rotate(180)"/>
            <path d="M17.5 2C13.36 2 9.467 3.612 6.54 6.54 3.612 9.467 2 13.36 2 17.5c0 4.14 1.612 8.033 4.54 10.96C9.467 31.388 13.36 33 17.5 33c4.14 0 8.033-1.612 10.96-4.54C31.388 25.533 33 21.64 33 17.5c0-4.14-1.612-8.033-4.54-10.96C25.533 3.612 21.64 2 17.5 2m0-2C27.165 0 35 7.835 35 17.5S27.165 35 17.5 35 0 27.165 0 17.5 7.835 0 17.5 0z" transform="translate(0 35) rotate(-90) translate(35 35) rotate(180)"/>
        </g>
        <path fill="rgba(0,0,0,0)" stroke="#fff" stroke-linecap="round" stroke-linejoin="round" stroke-width="2px" d="M0 11.573l7.85-5.787L0 0" transform="translate(0 35) rotate(-90) translate(20.363 23.286) rotate(180)"/>
    </g>
</svg>
