<svg xmlns="http://www.w3.org/2000/svg" width="259.146" height="449.507" viewBox="0 0 259.146 449.507">
    <defs>
        <style>
            .cls-1{fill:#c85047}.cls-2{fill:#1c1c1c}.cls-3{fill:#f6d58f}.cls-4{fill:#152154}.cls-5{fill:#75aecd}.cls-6{fill:#464545}.cls-7{fill:#fbb200}.cls-8{fill:#fff}
        </style>
    </defs>
    <g id="Group_2513" data-name="Group 2513" transform="translate(-473.122 -281.094)">
        <g id="Group_2518" data-name="Group 2518">
            <g id="Group_2517" data-name="Group 2517">
                <g id="Group_2516" data-name="Group 2516">
                    <g id="Group_2515" data-name="Group 2515">
                        <g id="Group_2514" data-name="Group 2514">
                            <g id="Group_2513-2" data-name="Group 2513">
                                <path id="Path_1055" d="M653.869 316.177c-3.246-6.676-7.6-11.858-13.068-14.642-22.054-11.229-120.958-27.493-146.984-17.129-29.42 11.716-20.336 58.378-15.389 85.926 9.385 52.255 70.156 25.781 111.841 44.5a101.118 101.118 0 0 1 23.711 21.524 1.806 1.806 0 0 0 3.18-.8c.6-6.642 2.117-15.324 6.367-19.245 7.032-6.486 17.069-6.213 23.749-14.084 6.252-7.365 9.209-17.666 11.213-26.575 4.289-19.052 4.162-41.405-4.62-59.475z" class="cls-1" data-name="Path 1055"/>
                            </g>
                        </g>
                    </g>
                </g>
            </g>
        </g>
        <g id="Group_2694" data-name="Group 2694">
            <g id="Group_2522" data-name="Group 2522">
                <g id="Group_2521" data-name="Group 2521">
                    <g id="Group_2520" data-name="Group 2520">
                        <g id="Group_2519" data-name="Group 2519">
                            <path id="Path_1056" d="M653.066 410.513c.015-.083.03-.168.043-.251.6-3.543.083-7.638-2.823-9.837-3.274-2.476-7.108-.286-10.779-1.469-1.566-.5-2.6-1.741-4.02-2.289-2.593-1-6.636.383-7.65 2.953a7.932 7.932 0 0 0 2.822 9.232 10.924 10.924 0 0 1 2.958 3.526c.648 1.086 1.039 2.3 1.588 3.432a11.112 11.112 0 0 0 5.39 5.441c2.456 1.073 6.05 5.1 8.232 3.13 1.089-.983 2.327-6.3 2.651-7.619.515-2.086 1.203-4.135 1.588-6.249z" class="cls-2" data-name="Path 1056"/>
                        </g>
                    </g>
                </g>
            </g>
            <g id="Group_2526" data-name="Group 2526">
                <g id="Group_2525" data-name="Group 2525">
                    <g id="Group_2524" data-name="Group 2524">
                        <g id="Group_2523" data-name="Group 2523">
                            <path id="Path_1057" d="M649.221 415.385l11.925 14.648c1.15 3.213-7.951 6.369-11.8 7.751s-7.947-.117-9.1-3.329l-5.046-14.042z" class="cls-3" data-name="Path 1057"/>
                        </g>
                    </g>
                </g>
            </g>
            <g id="Group_2530" data-name="Group 2530">
                <g id="Group_2529" data-name="Group 2529">
                    <g id="Group_2528" data-name="Group 2528">
                        <g id="Group_2527" data-name="Group 2527">
                            <path id="Path_1058" d="M645.141 414.9l.461 1.288a7.386 7.386 0 0 1 .422 2.656c-.07 3.8-2.963 7.618-7.37 9.228l-3.449-9.608z" class="cls-2" data-name="Path 1058"/>
                        </g>
                    </g>
                </g>
            </g>
            <g id="Group_2535" data-name="Group 2535">
                <g id="Group_2534" data-name="Group 2534">
                    <g id="Group_2533" data-name="Group 2533">
                        <g id="Group_2532" data-name="Group 2532">
                            <g id="Group_2531" data-name="Group 2531">
                                <path id="Path_1059" d="M629.977 418.393l.79-13.055a7.364 7.364 0 0 1 .127-.971l16.927.74a7.932 7.932 0 0 1 .009.976l-.645 10.664a5.443 5.443 0 0 0 .079 1.439 5.82 5.82 0 0 0-.437.453 9.498 9.498 0 0 0-.831-.071c-1.737 2.37-7.908 6.419-12.688 5.572-2.696-.481-3.489-3.105-3.331-5.747z" class="cls-3" data-name="Path 1059"/>
                            </g>
                        </g>
                    </g>
                </g>
            </g>
            <g id="Group_2539" data-name="Group 2539">
                <g id="Group_2538" data-name="Group 2538">
                    <g id="Group_2537" data-name="Group 2537">
                        <g id="Group_2536" data-name="Group 2536">
                            <path id="Path_1060" d="M638.3 403.17l1.655 6.572a3.942 3.942 0 0 0 4.809 2.77l3.874-.948-.222-9.593-6.586.334z" class="cls-2" data-name="Path 1060"/>
                        </g>
                    </g>
                </g>
            </g>
            <g id="Group_2543" data-name="Group 2543">
                <g id="Group_2542" data-name="Group 2542">
                    <g id="Group_2541" data-name="Group 2541">
                        <g id="Group_2540" data-name="Group 2540">
                            <path id="Path_1061" d="M644.647 418.369a3.757 3.757 0 0 0 5.053-1.069 3.414 3.414 0 0 0-1.043-4.854 3.757 3.757 0 0 0-5.055 1.067 3.415 3.415 0 0 0 1.045 4.856z" class="cls-4" data-name="Path 1061"/>
                        </g>
                    </g>
                </g>
            </g>
            <g id="Group_2547" data-name="Group 2547">
                <g id="Group_2546" data-name="Group 2546">
                    <g id="Group_2545" data-name="Group 2545">
                        <g id="Group_2544" data-name="Group 2544">
                            <path id="Path_1062" d="M633.706 411.3a.6.6 0 0 1-.583-.627.622.622 0 0 1 .656-.57.6.6 0 0 1 .583.625.623.623 0 0 1-.656.572z" class="cls-4" data-name="Path 1062"/>
                        </g>
                    </g>
                </g>
            </g>
            <g id="Group_2551" data-name="Group 2551">
                <g id="Group_2550" data-name="Group 2550">
                    <g id="Group_2549" data-name="Group 2549">
                        <g id="Group_2548" data-name="Group 2548">
                            <path id="Path_1063" d="M630.415 410.131l-.941 4.588a.417.417 0 0 0 .4.492l1.444.063.385-6.383z" class="cls-3" data-name="Path 1063"/>
                        </g>
                    </g>
                </g>
            </g>
            <g id="Group_2555" data-name="Group 2555">
                <g id="Group_2554" data-name="Group 2554">
                    <g id="Group_2553" data-name="Group 2553">
                        <g id="Group_2552" data-name="Group 2552">
                            <path id="Path_1064" d="M643.815 418.025a3.756 3.756 0 0 0 5.053-1.067 3.414 3.414 0 0 0-1.045-4.854 3.759 3.759 0 0 0-5.054 1.067 3.414 3.414 0 0 0 1.046 4.854z" class="cls-3" data-name="Path 1064"/>
                        </g>
                    </g>
                </g>
            </g>
            <g id="Group_2564" data-name="Group 2564">
                <g id="Group_2563" data-name="Group 2563">
                    <g id="Group_2562" data-name="Group 2562">
                        <g id="Group_2561" data-name="Group 2561">
                            <g id="Group_2560" data-name="Group 2560">
                                <g id="Group_2559" data-name="Group 2559">
                                    <g id="Group_2558" data-name="Group 2558">
                                        <g id="Group_2557" data-name="Group 2557">
                                            <g id="Group_2556" data-name="Group 2556">
                                                <path id="Path_1065" d="M607.186 727.576v2.275h30.827l.016-3.158.11-25.275h-12.265v15.795l-14.856 5.024a5.632 5.632 0 0 0-3.76 4.456 5.407 5.407 0 0 0-.072.883z" class="cls-5" data-name="Path 1065"/>
                                            </g>
                                        </g>
                                    </g>
                                </g>
                            </g>
                        </g>
                    </g>
                </g>
            </g>
            <g id="Group_2573" data-name="Group 2573">
                <g id="Group_2572" data-name="Group 2572">
                    <g id="Group_2571" data-name="Group 2571">
                        <g id="Group_2570" data-name="Group 2570">
                            <g id="Group_2569" data-name="Group 2569">
                                <g id="Group_2568" data-name="Group 2568">
                                    <g id="Group_2567" data-name="Group 2567">
                                        <g id="Group_2566" data-name="Group 2566">
                                            <g id="Group_2565" data-name="Group 2565">
                                                <path id="Path_1066" d="M625.874 701.418v14.217h12.2l.063-14.217z" class="cls-3" data-name="Path 1066"/>
                                            </g>
                                        </g>
                                    </g>
                                </g>
                            </g>
                        </g>
                    </g>
                </g>
            </g>
            <g id="Group_2582" data-name="Group 2582">
                <g id="Group_2581" data-name="Group 2581">
                    <g id="Group_2580" data-name="Group 2580">
                        <g id="Group_2579" data-name="Group 2579">
                            <g id="Group_2578" data-name="Group 2578">
                                <g id="Group_2577" data-name="Group 2577">
                                    <g id="Group_2576" data-name="Group 2576">
                                        <g id="Group_2575" data-name="Group 2575">
                                            <g id="Group_2574" data-name="Group 2574">
                                                <path id="Path_1067" d="M607.186 727.576v2.275h30.827l.016-3.158h-30.771a5.407 5.407 0 0 0-.072.883z" class="cls-2" data-name="Path 1067"/>
                                            </g>
                                        </g>
                                    </g>
                                </g>
                            </g>
                        </g>
                    </g>
                </g>
            </g>
            <g id="Group_2589" data-name="Group 2589">
                <g id="Group_2588" data-name="Group 2588">
                    <g id="Group_2587" data-name="Group 2587">
                        <g id="Group_2586" data-name="Group 2586">
                            <g id="Group_2585" data-name="Group 2585">
                                <g id="Group_2584" data-name="Group 2584">
                                    <g id="Group_2583" data-name="Group 2583">
                                        <path id="Path_1068" d="M629.23 535.288c-1.045 6.793-5.47 98.224-6.331 105.041-2.756 21.868-2.077 44.017-.522 66 .094 1.332.251 2.794 1.23 3.717a5.164 5.164 0 0 0 2.692 1.092 31.529 31.529 0 0 0 8.659.347 7.17 7.17 0 0 0 3.793-1.2 7.693 7.693 0 0 0 2.082-3.225 172 172 0 0 0 10.019-32.1c1.514-7.31 2.549-14.708 3.586-22.1 2.988-21.344 5.975-57.915 8.963-79.259 1.523-10.881 2.713-23.087-4.111-31.776a21.867 21.867 0 0 0-18.52-7.873c-8.619.645-8.223-16.287-8.81-9.164-1.575 19.156.194-8.516-2.73 10.5z" class="cls-2" data-name="Path 1068"/>
                                    </g>
                                </g>
                            </g>
                        </g>
                    </g>
                </g>
            </g>
            <g id="Group_2598" data-name="Group 2598">
                <g id="Group_2597" data-name="Group 2597">
                    <g id="Group_2596" data-name="Group 2596">
                        <g id="Group_2595" data-name="Group 2595">
                            <g id="Group_2594" data-name="Group 2594">
                                <g id="Group_2593" data-name="Group 2593">
                                    <g id="Group_2592" data-name="Group 2592">
                                        <g id="Group_2591" data-name="Group 2591">
                                            <g id="Group_2590" data-name="Group 2590">
                                                <path id="Path_1069" d="M707.82 728.912l1.523 1.689L732.268 710l-2.1-2.361-16.813-18.87-9.121 8.2 10.559 11.747-7.693 13.664a5.667 5.667 0 0 0 .718 6.532z" class="cls-5" data-name="Path 1069"/>
                                            </g>
                                        </g>
                                    </g>
                                </g>
                            </g>
                        </g>
                    </g>
                </g>
            </g>
            <g id="Group_2607" data-name="Group 2607">
                <g id="Group_2606" data-name="Group 2606">
                    <g id="Group_2605" data-name="Group 2605">
                        <g id="Group_2604" data-name="Group 2604">
                            <g id="Group_2603" data-name="Group 2603">
                                <g id="Group_2602" data-name="Group 2602">
                                    <g id="Group_2601" data-name="Group 2601">
                                        <g id="Group_2600" data-name="Group 2600">
                                            <g id="Group_2599" data-name="Group 2599">
                                                <path id="Path_1070" d="M704.233 696.965l9.5 10.574 9.075-8.159-9.457-10.615z" class="cls-3" data-name="Path 1070"/>
                                            </g>
                                        </g>
                                    </g>
                                </g>
                            </g>
                        </g>
                    </g>
                </g>
            </g>
            <g id="Group_2616" data-name="Group 2616">
                <g id="Group_2615" data-name="Group 2615">
                    <g id="Group_2614" data-name="Group 2614">
                        <g id="Group_2613" data-name="Group 2613">
                            <g id="Group_2612" data-name="Group 2612">
                                <g id="Group_2611" data-name="Group 2611">
                                    <g id="Group_2610" data-name="Group 2610">
                                        <g id="Group_2609" data-name="Group 2609">
                                            <g id="Group_2608" data-name="Group 2608">
                                                <path id="Path_1071" d="M707.82 728.912l1.523 1.689L732.268 710l-2.1-2.361-22.884 20.57a5.6 5.6 0 0 0 .536.703z" class="cls-2" data-name="Path 1071"/>
                                            </g>
                                        </g>
                                    </g>
                                </g>
                            </g>
                        </g>
                    </g>
                </g>
            </g>
            <g id="Group_2623" data-name="Group 2623">
                <g id="Group_2622" data-name="Group 2622">
                    <g id="Group_2621" data-name="Group 2621">
                        <g id="Group_2620" data-name="Group 2620">
                            <g id="Group_2619" data-name="Group 2619">
                                <g id="Group_2618" data-name="Group 2618">
                                    <g id="Group_2617" data-name="Group 2617">
                                        <path id="Path_1072" d="M715.226 703.108c-.058.037-.116.075-.173.109-10.759 6.74-17.829 1.768-25.389-6.81q-7.431-8.439-14.151-17.344c-9.893-13.077-15.484-22.217-24.479-35.429-5.88-8.635-9.295-23.3-11.5-33.3-3.309-14.924-5.782-45.288-7.571-60.44V467.6c0-7.316 1.242-8.981 3.68-15.96l4.084-11.665 25.683-.69 13.644 15.864 10.4 68.459 3.2 22.76.017.145.025.176q-2.4 12.488-4.8 24.957c-1.445 9.032-3.7 18.633-6 27.481-1.347 5.182-5.051 12.21-4.059 17.676.976 5.388 6.751 8.675 9.519 13.674 2.066 3.731 3.41 7.81 5.244 11.66 4.308 9.039 11.175 16.551 17.228 24.525 7.167 9.452 19.42 27.425 5.398 36.446z" class="cls-6" data-name="Path 1072"/>
                                    </g>
                                </g>
                            </g>
                        </g>
                    </g>
                </g>
            </g>
            <g id="Group_2630" data-name="Group 2630">
                <g id="Group_2629" data-name="Group 2629">
                    <g id="Group_2628" data-name="Group 2628">
                        <g id="Group_2627" data-name="Group 2627">
                            <g id="Group_2626" data-name="Group 2626">
                                <g id="Group_2625" data-name="Group 2625">
                                    <g id="Group_2624" data-name="Group 2624">
                                        <path id="Path_1073" d="M656.668 540.8a4.574 4.574 0 0 1 .722 1.9l.189.9a172.787 172.787 0 0 0 26.857 4.134 58.93 58.93 0 0 0 2.781-1.228l-.016-.145-2.908-22.76c-1.667-.089-2.9-.152-3.485-.152q-16.789-.011-33.577.016c-5.119.007-13.516-2.091-15.271 1.313a4.543 4.543 0 0 0 0 3.469l.049.168c2.162 6.755 15.062 10.625 20.894 11.081 1.364.104 2.925.213 3.765 1.304z" class="cls-2" data-name="Path 1073"/>
                                    </g>
                                </g>
                            </g>
                        </g>
                    </g>
                </g>
            </g>
            <g id="Group_2637" data-name="Group 2637">
                <g id="Group_2636" data-name="Group 2636">
                    <g id="Group_2635" data-name="Group 2635">
                        <g id="Group_2634" data-name="Group 2634">
                            <g id="Group_2633" data-name="Group 2633">
                                <g id="Group_2632" data-name="Group 2632">
                                    <g id="Group_2631" data-name="Group 2631">
                                        <path id="Path_1074" d="M682.662 493.193c-1.788-13.977-3.971-22.367-7.794-35.95-1.551-5.51-9.031-27.014-17.915-32.767-14.536 1.274-20.928 17.065-23.98 29.692-3.823 15.8-3.814 26.794-3.718 43.072q.566 11.585 1.619 23.141c1.359 14.807 12.451 13.4 25.282 13.506a119.543 119.543 0 0 0 31.045-3.539c1.644-.648-4.201-34.521-4.539-37.155z" class="cls-5" data-name="Path 1074"/>
                                    </g>
                                </g>
                            </g>
                        </g>
                    </g>
                </g>
            </g>
            <g id="Group_2645" data-name="Group 2645">
                <g id="Group_2644" data-name="Group 2644">
                    <g id="Group_2643" data-name="Group 2643">
                        <g id="Group_2642" data-name="Group 2642">
                            <g id="Group_2641" data-name="Group 2641">
                                <g id="Group_2640" data-name="Group 2640">
                                    <g id="Group_2639" data-name="Group 2639">
                                        <g id="Group_2638" data-name="Group 2638">
                                            <path id="Path_1075" d="M696.21 538.235a11.019 11.019 0 0 0 .937-2.34c-.5-.008-.884-.018-.884-.025-2.86-93.888-21.192-98.945-21.192-98.945L658.1 423.359c-7.528-5.259-16.117 27.936-16.637 32.092-1.376 11-.5 16.555.843 27.564 1.681 13.75 3.36 28.378 7.4 41.666.6 1.966 6.9 21.449 8.381 21.471 22.108.33 32.968-4.119 37.857-7.259a4.528 4.528 0 0 1 .266-.658z" class="cls-1" data-name="Path 1075"/>
                                        </g>
                                    </g>
                                </g>
                            </g>
                        </g>
                    </g>
                </g>
            </g>
            <g id="Group_2652" data-name="Group 2652">
                <g id="Group_2651" data-name="Group 2651">
                    <g id="Group_2650" data-name="Group 2650">
                        <g id="Group_2649" data-name="Group 2649">
                            <g id="Group_2648" data-name="Group 2648">
                                <g id="Group_2647" data-name="Group 2647">
                                    <g id="Group_2646" data-name="Group 2646">
                                        <path id="Path_1076" d="M688.136 505.84c.225-2.332.33-5.067.5-8.227.668-12.358-.383-18.677-3-30.724-2.788-12.844-5.784-32.908-20.448-34.593-7.351-.847-11.309 4.418-12.43 12.081-2.914 19.875 11.087 32.477 14.075 51.406a124.349 124.349 0 0 1 1.041 18.642c0 .55.01 1.111.01 1.659 2.312.02 4.681.379 6.843.454 10.528.404 12.647-2.881 13.409-10.698z" class="cls-5" data-name="Path 1076"/>
                                    </g>
                                </g>
                            </g>
                        </g>
                    </g>
                </g>
            </g>
            <g id="Group_2659" data-name="Group 2659">
                <g id="Group_2658" data-name="Group 2658">
                    <g id="Group_2657" data-name="Group 2657">
                        <g id="Group_2656" data-name="Group 2656">
                            <g id="Group_2655" data-name="Group 2655">
                                <g id="Group_2654" data-name="Group 2654">
                                    <g id="Group_2653" data-name="Group 2653">
                                        <path id="Path_1077" d="M667.891 515.888h.023l-.273 1.848c-.008-1.136.059-1.85.25-1.848z" class="cls-7" data-name="Path 1077"/>
                                    </g>
                                </g>
                            </g>
                        </g>
                    </g>
                </g>
            </g>
            <g id="Group_2666" data-name="Group 2666">
                <g id="Group_2665" data-name="Group 2665">
                    <g id="Group_2664" data-name="Group 2664">
                        <g id="Group_2663" data-name="Group 2663">
                            <g id="Group_2662" data-name="Group 2662">
                                <g id="Group_2661" data-name="Group 2661">
                                    <g id="Group_2660" data-name="Group 2660">
                                        <path id="Path_1078" d="M668.477 512.313c.073 1.262.127 2.527.183 3.8-.252-.011-.495-.022-.748-.023z" class="cls-7" data-name="Path 1078"/>
                                    </g>
                                </g>
                            </g>
                        </g>
                    </g>
                </g>
            </g>
            <g id="Group_2673" data-name="Group 2673">
                <g id="Group_2672" data-name="Group 2672">
                    <g id="Group_2671" data-name="Group 2671">
                        <g id="Group_2670" data-name="Group 2670">
                            <g id="Group_2669" data-name="Group 2669">
                                <g id="Group_2668" data-name="Group 2668">
                                    <g id="Group_2667" data-name="Group 2667">
                                        <path id="Path_1079" d="M671.364 571.088a10.925 10.925 0 0 0 3.179-6.322c.562-3.568.04-7.27.87-10.786a34.807 34.807 0 0 1 2.606-6.526 100 100 0 0 0 8.32-31.03c-3.7-.673-7.621-.434-11.377-1.382-6.161-1.556-6.926-2.642-8.654 3.393-1.993 6.968-1.129 16.418-1.994 23.808-.822 7.017-2.523 14.179-6.792 19.81a8.718 8.718 0 0 1-1.916 1.97 26.642 26.642 0 0 0-2.728 1.674c-.8.714-1.235 2.038-.526 2.839.889 1.133 2.644.7 4.083.662 4.126-.111 7.642 3.917 11.736 3.394a5.9 5.9 0 0 0 3.193-1.504z" class="cls-3" data-name="Path 1079"/>
                                    </g>
                                </g>
                            </g>
                        </g>
                    </g>
                </g>
            </g>
            <g id="Group_2680" data-name="Group 2680">
                <g id="Group_2679" data-name="Group 2679">
                    <g id="Group_2678" data-name="Group 2678">
                        <g id="Group_2677" data-name="Group 2677">
                            <g id="Group_2676" data-name="Group 2676">
                                <g id="Group_2675" data-name="Group 2675">
                                    <g id="Group_2674" data-name="Group 2674">
                                        <path id="Path_1080" d="M689.627 508.736a3.382 3.382 0 0 0-1.191-.049 58.386 58.386 0 0 1-19.54-.423 3.277 3.277 0 0 0-2.741.683 44.406 44.406 0 0 0 .5 10.074 3.289 3.289 0 0 0 1.446.428l14.343.716a34.283 34.283 0 0 0 5.286-.022c1.292-3.718 2.27-7.455 1.897-11.407z" class="cls-2" data-name="Path 1080"/>
                                    </g>
                                </g>
                            </g>
                        </g>
                    </g>
                </g>
            </g>
            <g id="Group_2693" data-name="Group 2693">
                <g id="Group_2692" data-name="Group 2692">
                    <g id="Group_2691" data-name="Group 2691">
                        <g id="Group_2690" data-name="Group 2690">
                            <g id="Group_2689" data-name="Group 2689">
                                <g id="Group_2688" data-name="Group 2688">
                                    <g id="Group_2687" data-name="Group 2687">
                                        <g id="Group_2686" data-name="Group 2686">
                                            <g id="Group_2685" data-name="Group 2685">
                                                <g id="Group_2684" data-name="Group 2684">
                                                    <g id="Group_2683" data-name="Group 2683">
                                                        <g id="Group_2682" data-name="Group 2682">
                                                            <g id="Group_2681" data-name="Group 2681">
                                                                <path id="Path_1081" d="M632.862 417.106a1.323 1.323 0 0 0-.558-.408 1.089 1.089 0 0 0-1.159.243l.332.349a.621.621 0 0 1 .67-.147 1.1 1.1 0 0 1 .633.951l.469-.047a1.817 1.817 0 0 0-.387-.941z" class="cls-4" data-name="Path 1081"/>
                                                            </g>
                                                        </g>
                                                    </g>
                                                </g>
                                            </g>
                                        </g>
                                    </g>
                                </g>
                            </g>
                        </g>
                    </g>
                </g>
            </g>
        </g>
        <g id="Group_2695" data-name="Group 2695">
            <path id="Path_1082" d="M551.292 382.36a10.979 10.979 0 1 1 10.91 11.048 10.945 10.945 0 0 1-10.91-11.048zm19.094-22.365c-.544 1.638-1.089 2.319-2.589 2.319h-6.547a2.389 2.389 0 0 1-2.182-2.728l2.045-52.233c.407-8.047 5.59-12.276 11.592-12.276 6.954 0 11.866 5.457 9.955 13.5z" class="cls-8" data-name="Path 1082"/>
        </g>
    </g>
</svg>
