<svg xmlns="http://www.w3.org/2000/svg" viewBox="0 0 156.162 241.517">
    <defs>
        <style>
            .cls-1343434{fill:#eaeaea}.cls-3343433434{fill:#d46659}.cls-4sdssad87{fill:#8e4b32}.cls-5343kjskf{fill:#b27e4f}
</style>
    </defs>
    <g id="Group_6296" transform="translate(-109 -100.616)">
        <g id="Group_4997" transform="translate(-1776.847 1145.204)">
            <g id="Group_4910" transform="translate(1979.686 -806.593)">
                <path id="Path_2387" d="M2261.166-168.41h-30.013a.815.815 0 0 1-.815-.815v-2.122c0-.45.365-.281.815-.281h30.564a.538.538 0 0 1 .264.442v1.961a.815.815 0 0 1-.815.815z" transform="translate(-2230.202 171.795)" />
                <path id="Path_2388" d="M2260.8-168.637h-30.013a.953.953 0 0 1-.951-.952v-2.122a.449.449 0 0 1 .124-.35.683.683 0 0 1 .544-.084c.088.008.184.017.284.017h30.564a.137.137 0 0 1 .071.02.678.678 0 0 1 .329.558v1.961a.953.953 0 0 1-.952.952zm-30.525-3.249a.216.216 0 0 0-.132.027.22.22 0 0 0-.035.149v2.122a.68.68 0 0 0 .679.679h30.013a.68.68 0 0 0 .679-.679v-1.961a.4.4 0 0 0-.168-.306h-30.523c-.108 0-.213-.009-.308-.018-.07-.006-.143-.013-.202-.013z" transform="translate(-2229.838 172.159)" />
            </g>
            <g id="Group_4911" transform="translate(1920.3 -806.594)">
                <path id="Path_2389" d="M2013.457-168.41h30.013a.815.815 0 0 0 .815-.815v-2.122c0-.45-.365-.281-.815-.281h-30.564a.538.538 0 0 0-.264.442v1.961a.815.815 0 0 0 .815.815z" transform="translate(-2012.506 171.796)" />
                <path id="Path_2390" d="M2043.107-168.638h-30.013a.953.953 0 0 1-.952-.952v-1.961a.675.675 0 0 1 .329-.558.137.137 0 0 1 .071-.02h30.565c.1 0 .2-.009.283-.017a.68.68 0 0 1 .544.084.448.448 0 0 1 .124.35v2.122a.953.953 0 0 1-.951.952zm-30.523-3.218a.4.4 0 0 0-.169.306v1.961a.68.68 0 0 0 .679.679h30.013a.679.679 0 0 0 .679-.679v-2.122a.221.221 0 0 0-.035-.149c-.045-.041-.193-.027-.336-.014-.1.009-.2.018-.308.018z" transform="translate(-2012.142 172.16)" />
            </g>
            <g id="Group_4992" transform="translate(1885.847 -1044.588)">
                <g id="Group_4978" transform="translate(0)">
                    <g id="Group_4914" transform="translate(98.385 7.201)">
                        <g id="Group_4912" transform="translate(0 6.455)">
                            <path id="Path_2391" d="M2292.506-993.7a9.466 9.466 0 0 1 2.5-.332 9.5 9.5 0 0 1 9.5 9.5 9.462 9.462 0 0 1-1.615 5.3h-55.546a9.48 9.48 0 0 1-.344-2.54 9.5 9.5 0 0 1 9.5-9.5 9.5 9.5 0 0 1 1.678.149" class="cls-1343434" transform="translate(-2246.865 994.163)" />
                            <path id="Path_2392" d="M2302.527-979.448h-55.546a.136.136 0 0 1-.131-.1 9.62 9.62 0 0 1-.349-2.577 9.651 9.651 0 0 1 9.64-9.64 9.671 9.671 0 0 1 1.7.151.136.136 0 0 1 .11.158.138.138 0 0 1-.158.11 9.407 9.407 0 0 0-1.654-.147 9.378 9.378 0 0 0-9.367 9.367 9.354 9.354 0 0 0 .313 2.4h55.368a9.334 9.334 0 0 0 1.551-5.166 9.378 9.378 0 0 0-9.367-9.367 9.335 9.335 0 0 0-2.46.327.137.137 0 0 1-.167-.1.137.137 0 0 1 .1-.168 9.625 9.625 0 0 1 2.532-.337 9.651 9.651 0 0 1 9.64 9.64 9.607 9.607 0 0 1-1.637 5.379.137.137 0 0 1-.118.07z" transform="translate(-2246.501 994.527)" />
                        </g>
                        <g id="Group_4913" transform="translate(11.181)">
                            <path id="Path_2393" d="M2294.068-1004.46c-.027-.037-.051-.073-.08-.11-.046-.066-.1-.132-.147-.2a.071.071 0 0 0-.012-.017l-.034-.044c-.037-.046-.076-.1-.115-.142s-.085-.107-.132-.159c-.029-.037-.061-.073-.093-.108-.081-.1-.169-.19-.259-.283s-.2-.2-.3-.3a.038.038 0 0 0-.014-.014l-.015-.015a.105.105 0 0 0-.029-.027c-.093-.093-.186-.176-.281-.256a.235.235 0 0 0-.044-.039c-.088-.078-.176-.151-.269-.222a.221.221 0 0 0-.046-.037.135.135 0 0 0-.02-.017.058.058 0 0 0-.022-.014c-.005-.005-.008-.01-.012-.012a.031.031 0 0 1-.01-.007.235.235 0 0 0-.051-.039c-.056-.046-.113-.088-.171-.13a.891.891 0 0 0-.078-.056.739.739 0 0 0-.069-.049.013.013 0 0 0-.012-.007.206.206 0 0 0-.042-.029l-.093-.064a1.059 1.059 0 0 0-.09-.059l-.088-.059c-.051-.034-.1-.066-.156-.1s-.1-.064-.152-.09c-.029-.02-.056-.034-.085-.051-.1-.059-.205-.117-.313-.171s-.242-.124-.366-.183c-.056-.027-.115-.054-.176-.081-.085-.039-.169-.076-.254-.11-.142-.058-.286-.115-.433-.166-.046-.017-.1-.034-.144-.049s-.108-.036-.164-.053l-.088-.027c-.139-.044-.281-.083-.423-.12l-.059-.014c-.056-.015-.112-.03-.171-.042-.039-.007-.078-.017-.115-.024-.054-.012-.1-.025-.159-.034l-.191-.037a9.506 9.506 0 0 1 9.491-9.005 9.489 9.489 0 0 1 7.74 3.989 9.488 9.488 0 0 1 7.984-4.35 9.506 9.506 0 0 1 9.108 6.787 9.281 9.281 0 0 1 .1 5.272" class="cls-1343434" transform="translate(-2287.853 1017.827)" />
                            <path id="Path_2394" d="M2293.705-1004.688a.136.136 0 0 1-.11-.055l-.029-.04c-.016-.022-.031-.044-.048-.065-.05-.071-.1-.134-.147-.2a.169.169 0 0 1-.016-.025l-.016-.018-.127-.158c-.038-.046-.084-.106-.128-.155s-.062-.074-.092-.106c-.083-.1-.169-.191-.256-.281s-.193-.2-.292-.292l-.01-.01-.008-.007s-.023-.023-.026-.028c-.108-.1-.2-.184-.29-.262l-.047-.041c-.085-.076-.17-.147-.26-.216a.683.683 0 0 1-.059-.048l-.009-.008a.158.158 0 0 1-.033-.023l-.007-.005-.018-.015a.129.129 0 0 0-.024-.018.161.161 0 0 1-.026-.019c-.049-.041-.1-.08-.158-.12-.027-.021-.049-.038-.072-.052s-.046-.035-.065-.047h-.007a.152.152 0 0 1-.022-.016.144.144 0 0 1-.052-.034l-.075-.05a.86.86 0 0 0-.082-.053l-.095-.063c-.049-.032-.1-.063-.149-.093l-.028-.018c-.039-.025-.077-.049-.117-.07s-.051-.031-.07-.042c-.12-.069-.22-.126-.326-.179-.121-.064-.24-.124-.364-.182-.055-.026-.113-.053-.173-.079-.085-.039-.166-.075-.25-.108-.141-.058-.282-.113-.426-.164-.046-.017-.092-.033-.138-.047s-.111-.037-.164-.054l-.092-.028c-.135-.043-.274-.081-.413-.117l-.057-.014c-.056-.014-.11-.029-.167-.04l-.114-.024c-.066-.015-.11-.025-.156-.034l-.192-.037a.137.137 0 0 1-.11-.141 9.632 9.632 0 0 1 9.627-9.135 9.669 9.669 0 0 1 7.735 3.886 9.6 9.6 0 0 1 7.99-4.247 9.7 9.7 0 0 1 9.238 6.885 9.326 9.326 0 0 1 .1 5.349.135.135 0 0 1-.169.092.136.136 0 0 1-.092-.169 9.226 9.226 0 0 0-.1-5.186 9.423 9.423 0 0 0-8.979-6.7 9.332 9.332 0 0 0-7.87 4.288.137.137 0 0 1-.111.062.145.145 0 0 1-.114-.057 9.4 9.4 0 0 0-7.629-3.931 9.36 9.36 0 0 0-9.348 8.758l.074.014c.049.009.1.02.146.032l.126.027c.063.013.122.028.18.044l.058.015c.144.037.288.077.429.122l.091.028c.054.017.111.034.167.055s.1.031.144.049c.147.051.293.108.437.168.086.035.171.072.259.112.061.027.121.054.178.082q.188.089.371.186c.107.053.212.113.316.173.045.026.068.039.093.056s.078.045.123.073l.025.016c.053.031.106.064.159.1l.088.058a1.069 1.069 0 0 1 .1.063l.089.061.007.005a.427.427 0 0 1 .041.029.8.8 0 0 1 .081.058.856.856 0 0 1 .08.057c.055.039.114.082.173.131a.258.258 0 0 1 .047.035l.01.008a.186.186 0 0 1 .022.018.183.183 0 0 1 .029.023c-.007-.01 0 0 .008.006a.386.386 0 0 1 .059.049c.082.061.172.136.263.217a.292.292 0 0 1 .058.054c.078.064.17.146.263.238a.24.24 0 0 1 .044.042.18.18 0 0 1 .029.029c.1.095.2.191.292.293s.182.19.265.291c.029.031.063.07.094.109s.09.1.133.16.076.093.114.141l.019.024.026.036c.053.066.1.134.152.2.016.019.034.046.053.071l.026.036a.137.137 0 0 1-.029.191.133.133 0 0 1-.078.021zm-1.951-2z" transform="translate(-2287.489 1018.191)" />
                        </g>
                    </g>
                    <g id="Group_4920" transform="translate(83.95 1.138)">
                        <g id="Group_4915" transform="translate(0.136 0.136)">
                            <path id="Path_2395" d="M2217.673-1030.96a6.555 6.555 0 0 1-.2 1.615h-23.357a4.089 4.089 0 0 1-.03-.516 4.73 4.73 0 0 1 4.537-4.728 6.541 6.541 0 0 1 6.43-5.328 6.526 6.526 0 0 1 5.126 2.48 6.358 6.358 0 0 1 .947-.071 6.545 6.545 0 0 1 6.547 6.548z" class="cls-1343434" transform="translate(-2194.087 1039.916)" />
                        </g>
                        <g id="Group_4919">
                            <g id="Group_4916" transform="translate(4.419 5.327)">
                                <path id="Path_2396" d="M2210.076-1017.982a.136.136 0 0 1-.133-.107 6.68 6.68 0 0 1-.156-1.443 6.359 6.359 0 0 1 .12-1.246.135.135 0 0 1 .16-.107.136.136 0 0 1 .107.16 6.122 6.122 0 0 0-.115 1.193 6.4 6.4 0 0 0 .149 1.384.136.136 0 0 1-.1.163.143.143 0 0 1-.032.003z" transform="translate(-2209.787 1020.887)" />
                            </g>
                            <g id="Group_4917">
                                <path id="Path_2397" d="M2217.11-1029.572h-23.357a.137.137 0 0 1-.135-.119 4.2 4.2 0 0 1-.031-.533 4.852 4.852 0 0 1 4.56-4.859 6.676 6.676 0 0 1 6.543-5.333 6.642 6.642 0 0 1 5.184 2.47 6.487 6.487 0 0 1 .889-.062 6.691 6.691 0 0 1 6.683 6.684 6.706 6.706 0 0 1-.2 1.648.137.137 0 0 1-.136.104zm-23.234-.273H2217a6.441 6.441 0 0 0 .17-1.479 6.418 6.418 0 0 0-6.41-6.411 6.282 6.282 0 0 0-.927.069.134.134 0 0 1-.127-.05 6.37 6.37 0 0 0-5.019-2.428 6.4 6.4 0 0 0-6.3 5.216.137.137 0 0 1-.129.112 4.579 4.579 0 0 0-4.406 4.591c.008.138.013.263.024.38z" transform="translate(-2193.587 1040.416)" />
                            </g>
                            <g id="Group_4918" transform="translate(11.768 2.48)">
                                <path id="Path_2398" d="M2236.863-1028.461a.138.138 0 0 1-.081-.027.137.137 0 0 1-.029-.191 6.708 6.708 0 0 1 4.415-2.646.138.138 0 0 1 .154.116.137.137 0 0 1-.116.154 6.434 6.434 0 0 0-4.233 2.538.136.136 0 0 1-.11.056z" transform="translate(-2236.727 1031.326)" />
                            </g>
                        </g>
                    </g>
                    <g id="Group_4923">
                        <g id="Group_4921">
                            <path id="Path_2399" d="M1914.131-1008.887a14.109 14.109 0 0 0 .367-3.2 14.071 14.071 0 0 0-7.83-12.617 14 14 0 0 0-6.246-1.459 14.075 14.075 0 0 0-14.073 14.076 14.078 14.078 0 0 0 12.579 14h77.621a19.866 19.866 0 0 0 1.714-8.105 19.966 19.966 0 0 0-19.966-19.966 20.149 20.149 0 0 0-3.643.331 19.885 19.885 0 0 0-8.663 3.912 19.353 19.353 0 0 0 .15-2.428 19.826 19.826 0 0 0-.416-4.053 19.746 19.746 0 0 0-19.324-15.685 19.735 19.735 0 0 0-19.733 19.382" class="cls-1343434" transform="translate(-1886.211 1044.224)" />
                            <path id="Path_2400" d="M1976.184-998.321h-77.621a14.176 14.176 0 0 1-12.715-14.132 14.227 14.227 0 0 1 14.21-14.212 14.045 14.045 0 0 1 6.115 1.38 19.747 19.747 0 0 1 5.93-13.6 19.759 19.759 0 0 1 13.935-5.7 19.948 19.948 0 0 1 19.457 15.794 20.028 20.028 0 0 1 .419 4.08 19.679 19.679 0 0 1-.113 2.123 20.122 20.122 0 0 1 8.465-3.74 20.338 20.338 0 0 1 3.668-.333 20.125 20.125 0 0 1 20.1 20.1 19.926 19.926 0 0 1-1.726 8.161.136.136 0 0 1-.124.079zm-76.127-28.071a13.954 13.954 0 0 0-13.937 13.939 13.9 13.9 0 0 0 12.457 13.86h77.518a19.655 19.655 0 0 0 1.667-7.969 19.852 19.852 0 0 0-19.829-19.83 20.051 20.051 0 0 0-3.619.329 19.845 19.845 0 0 0-8.6 3.885.136.136 0 0 1-.151.011.136.136 0 0 1-.068-.135 19.344 19.344 0 0 0 .149-2.411 19.756 19.756 0 0 0-.413-4.025 19.674 19.674 0 0 0-19.19-15.576 19.487 19.487 0 0 0-13.744 5.626 19.478 19.478 0 0 0-5.851 13.537 14.133 14.133 0 0 1 7.828 12.7 14.272 14.272 0 0 1-.37 3.233.137.137 0 0 1-.164.1.137.137 0 0 1-.1-.164 13.987 13.987 0 0 0 .363-3.172 13.865 13.865 0 0 0-7.752-12.494h-.005a13.774 13.774 0 0 0-6.189-1.444z" transform="translate(-1885.847 1044.588)" />
                        </g>
                        <g id="Group_4922" transform="translate(55.306 19.674)">
                            <path id="Path_2401" d="M2093.578-971.97a19.593 19.593 0 0 1-4.493 12.514" class="cls-1343434" transform="translate(-2088.949 972.106)" />
                            <path id="Path_2402" d="M2088.721-959.682a.135.135 0 0 1-.087-.031.136.136 0 0 1-.019-.192 19.565 19.565 0 0 0 4.462-12.427.136.136 0 0 1 .136-.136.136.136 0 0 1 .136.136 19.84 19.84 0 0 1-4.524 12.6.135.135 0 0 1-.104.05z" transform="translate(-2088.585 972.469)" />
                        </g>
                    </g>
                    <g id="Group_4924" transform="translate(67.59 18.383)">
                        <path id="Path_2403" d="M2157.419-963.661l.007-.1a2.3 2.3 0 0 0 1.014-1.91 2.307 2.307 0 0 0-1.446-2.14 2.3 2.3 0 0 0 .639-1.59 2.307 2.307 0 0 0-2.307-2.307 2.3 2.3 0 0 0-.357.031c.007-.073.011-.148.011-.223a2.307 2.307 0 0 0-2.307-2.307 2.3 2.3 0 0 0-.43.042 2.308 2.308 0 0 0-2.261-1.849 2.3 2.3 0 0 0-1.653.7 2.308 2.308 0 0 0-2.116-1.388 2.306 2.306 0 0 0-2.062 1.277 2.3 2.3 0 0 0-1.535-.589 2.308 2.308 0 0 0-2.261 1.849 2.3 2.3 0 0 0-.43-.042 2.307 2.307 0 0 0-2.307 2.307c0 .075 0 .149.011.223a2.3 2.3 0 0 0-.357-.031 2.307 2.307 0 0 0-2.307 2.307 2.3 2.3 0 0 0 .629 1.58 2.306 2.306 0 0 0-1.475 2.15 2.3 2.3 0 0 0 1.1 1.962 2.3 2.3 0 0 0-1.1 1.962 2.306 2.306 0 0 0 2.112 2.3 1.933 1.933 0 0 0-.15.749 1.935 1.935 0 0 0 1.935 1.935 1.948 1.948 0 0 0 .35-.033 1.557 1.557 0 0 0-.2.765 1.568 1.568 0 0 0 1.568 1.568 1.56 1.56 0 0 0 .961-.331 1.079 1.079 0 0 0-.021.206 1.093 1.093 0 0 0 1.092 1.092 1.089 1.089 0 0 0 1.048-.8l.04.014v.037a1.112 1.112 0 0 0 1.112 1.112 1.108 1.108 0 0 0 .992-.62 11 11 0 0 0 1.608.119 10.953 10.953 0 0 0 1.484-.1 1.108 1.108 0 0 0 .984.6 1.109 1.109 0 0 0 1.1-.963 1.088 1.088 0 0 0 .97.6 1.093 1.093 0 0 0 1.092-1.092 1.06 1.06 0 0 0-.021-.206 1.559 1.559 0 0 0 .961.331 1.568 1.568 0 0 0 1.568-1.568 1.56 1.56 0 0 0-.183-.734h.033a1.935 1.935 0 0 0 1.935-1.935 1.924 1.924 0 0 0-.151-.749 2.307 2.307 0 0 0 2.112-2.3 2.306 2.306 0 0 0-1.031-1.911z" transform="translate(-2133.98 976.838)" />
                        <path id="Path_2404" d="M2148.662-953.362a1.241 1.241 0 0 1-1.057-.593 10.979 10.979 0 0 1-2.945-.015 1.237 1.237 0 0 1-1.066.608 1.25 1.25 0 0 1-1.195-.885 1.227 1.227 0 0 1-1 .523 1.231 1.231 0 0 1-1.227-1.17 1.681 1.681 0 0 1-.805.2 1.706 1.706 0 0 1-1.7-1.7 1.706 1.706 0 0 1 .109-.6 2.069 2.069 0 0 1-2.195-2.067 2.064 2.064 0 0 1 .1-.635 2.457 2.457 0 0 1-2.06-2.412 2.426 2.426 0 0 1 .99-1.962 2.425 2.425 0 0 1-.99-1.962 2.425 2.425 0 0 1 1.386-2.2 2.427 2.427 0 0 1-.54-1.529 2.446 2.446 0 0 1 2.444-2.444 2.1 2.1 0 0 1 .21.011v-.067a2.446 2.446 0 0 1 2.444-2.443 2.383 2.383 0 0 1 .326.023 2.451 2.451 0 0 1 2.365-1.83 2.436 2.436 0 0 1 1.5.514 2.429 2.429 0 0 1 2.1-1.2 2.444 2.444 0 0 1 2.157 1.3 2.42 2.42 0 0 1 1.611-.608 2.451 2.451 0 0 1 2.366 1.83 2.383 2.383 0 0 1 .326-.023 2.446 2.446 0 0 1 2.444 2.443v.067c.074-.007.144-.011.21-.011a2.447 2.447 0 0 1 2.444 2.444 2.427 2.427 0 0 1-.55 1.542 2.431 2.431 0 0 1 1.358 2.188 2.442 2.442 0 0 1-.987 1.962 2.443 2.443 0 0 1 .987 1.962 2.458 2.458 0 0 1-2.06 2.412 2.077 2.077 0 0 1 .1.635 2.074 2.074 0 0 1-1.9 2.064 1.708 1.708 0 0 1 .111.6 1.707 1.707 0 0 1-1.7 1.7 1.682 1.682 0 0 1-.805-.2 1.23 1.23 0 0 1-1.227 1.17 1.216 1.216 0 0 1-.916-.416 1.249 1.249 0 0 1-1.163.774zm-.984-.877a.136.136 0 0 1 .121.073.971.971 0 0 0 .863.531.976.976 0 0 0 .961-.845.136.136 0 0 1 .112-.116.136.136 0 0 1 .145.073.95.95 0 0 0 .849.526.957.957 0 0 0 .956-.956.926.926 0 0 0-.019-.18.137.137 0 0 1 .063-.142.137.137 0 0 1 .155.009 1.415 1.415 0 0 0 .877.3 1.433 1.433 0 0 0 1.432-1.432 1.41 1.41 0 0 0-.167-.67.138.138 0 0 1 0-.135.137.137 0 0 1 .117-.066h.033a1.8 1.8 0 0 0 1.8-1.8 1.787 1.787 0 0 0-.14-.7.137.137 0 0 1 .009-.124.138.138 0 0 1 .1-.065 2.182 2.182 0 0 0 1.987-2.161 2.17 2.17 0 0 0-.961-1.8.137.137 0 0 1-.06-.124l.008-.1a.137.137 0 0 1 .059-.1 2.17 2.17 0 0 0 .954-1.8 2.161 2.161 0 0 0-1.361-2.013.137.137 0 0 1-.082-.1.135.135 0 0 1 .035-.123 2.162 2.162 0 0 0 .6-1.5 2.173 2.173 0 0 0-2.171-2.171 2.151 2.151 0 0 0-.336.029.138.138 0 0 1-.115-.036.137.137 0 0 1-.042-.112 2.053 2.053 0 0 0 .011-.21 2.173 2.173 0 0 0-2.171-2.171 2.172 2.172 0 0 0-.4.039.138.138 0 0 1-.159-.107 2.176 2.176 0 0 0-2.128-1.739 2.154 2.154 0 0 0-1.555.658.137.137 0 0 1-.122.039.136.136 0 0 1-.1-.08 2.171 2.171 0 0 0-1.99-1.306 2.159 2.159 0 0 0-1.94 1.2.137.137 0 0 1-.1.073.138.138 0 0 1-.116-.032 2.166 2.166 0 0 0-1.445-.554 2.175 2.175 0 0 0-2.127 1.739.138.138 0 0 1-.159.107 2.172 2.172 0 0 0-.4-.039 2.173 2.173 0 0 0-2.171 2.171c0 .071 0 .14.01.21a.135.135 0 0 1-.042.112.137.137 0 0 1-.114.036 2.194 2.194 0 0 0-.336-.029 2.173 2.173 0 0 0-2.171 2.171 2.16 2.16 0 0 0 .592 1.486.137.137 0 0 1 .034.124.138.138 0 0 1-.084.1 2.157 2.157 0 0 0-1.388 2.023 2.157 2.157 0 0 0 1.032 1.845.137.137 0 0 1 .065.116.137.137 0 0 1-.065.116 2.158 2.158 0 0 0-1.032 1.846 2.182 2.182 0 0 0 1.987 2.161.137.137 0 0 1 .1.065.137.137 0 0 1 .009.124 1.789 1.789 0 0 0-.14.7 1.8 1.8 0 0 0 1.8 1.8 1.784 1.784 0 0 0 .325-.031.14.14 0 0 1 .136.055.137.137 0 0 1 .008.146 1.429 1.429 0 0 0-.183.7 1.433 1.433 0 0 0 1.432 1.432 1.417 1.417 0 0 0 .877-.3.137.137 0 0 1 .155-.009.137.137 0 0 1 .063.142.925.925 0 0 0-.018.18.957.957 0 0 0 .956.956.956.956 0 0 0 .916-.7.137.137 0 0 1 .07-.085.134.134 0 0 1 .109-.007c.055.02.131.088.129.146v.033a.976.976 0 0 0 .975.976.969.969 0 0 0 .87-.544.139.139 0 0 1 .142-.074 10.727 10.727 0 0 0 3.054.016z" transform="translate(-2133.616 977.202)" />
                    </g>
                    <g id="Group_4925" transform="translate(39.205 117.096)">
                        <path id="Path_2405" fill="#575756" d="M2110.5-513.931c-1.5.567-3 1.083-4.488 1.549-8.989 2.826-17.4 3.841-21.679 3.2a4.15 4.15 0 0 1-2.761-1.162c-1.792-2.562-11.111-73.988-11.111-84.228 0 10.241-9.316 81.667-11.108 84.228a4.152 4.152 0 0 1-2.763 1.162c-4.285.644-12.687-.371-21.676-3.2-1.487-.466-2.987-.982-4.49-1.549-3.827-28.128 6.078-76 11.324-98.381q.377-1.608.72-3.034h24.363q1.461.315 3.023.663a28.062 28.062 0 0 0 16.163-.663h12.442q.339 1.424.72 3.034c5.245 22.383 15.147 70.254 11.321 98.381z" transform="translate(-2029.564 615.345)" />
                    </g>
                    <g id="Group_4926" transform="translate(39.067 116.959)">
                        <path id="Path_2406" d="M2034.542-512.608a.145.145 0 0 1-.041-.006c-1.519-.477-3.032-1-4.5-1.552a.136.136 0 0 1-.087-.109c-1.669-12.267-.909-29.555 2.26-51.383 2.636-18.158 6.385-35.607 9.067-47.048q.376-1.609.721-3.034a.136.136 0 0 1 .132-.1h24.392q1.462.315 3.023.663a28.135 28.135 0 0 0 16.088-.658.136.136 0 0 1 .045-.008h12.443a.137.137 0 0 1 .133.1q.34 1.424.72 3.034c2.681 11.438 6.429 28.885 9.065 47.048 3.167 21.828 3.927 39.116 2.258 51.383a.137.137 0 0 1-.087.109c-1.445.546-2.958 1.069-4.495 1.552a.136.136 0 0 1-.171-.089.136.136 0 0 1 .089-.171c1.506-.473 2.987-.984 4.4-1.518 1.652-12.237.888-29.471-2.269-51.226-2.634-18.153-6.381-35.592-9.061-47.024q-.366-1.549-.7-2.928h-12.311a28.405 28.405 0 0 1-16.216.66q-1.555-.346-3.007-.66H2042.2q-.332 1.378-.695 2.928c-13.567 57.887-12.933 86.382-11.332 98.251 1.437.541 2.919 1.051 4.407 1.518a.136.136 0 0 1 .089.171.136.136 0 0 1-.127.097z" transform="translate(-2029.056 615.844)" />
                    </g>
                    <g id="Group_4932" transform="translate(47.616 117.536)">
                        <g id="Group_4927" transform="translate(31.405)">
                            <path id="Path_2407" d="M2176.6-611.566a1.083 1.083 0 0 1-1.082-1.081 1.083 1.083 0 0 1 1.082-1.082 1.083 1.083 0 0 1 1.082 1.082 1.083 1.083 0 0 1-1.082 1.081zm0-1.89a.81.81 0 0 0-.809.809.81.81 0 0 0 .809.809.81.81 0 0 0 .809-.809.81.81 0 0 0-.809-.809z" transform="translate(-2175.516 613.729)" />
                        </g>
                        <g id="Group_4928" transform="translate(3.615 2.455)">
                            <path id="Path_2408" d="M2131.234-604.455h-57.453a.136.136 0 0 1-.136-.136.136.136 0 0 1 .136-.136h57.453a.136.136 0 0 1 .136.136.136.136 0 0 1-.136.136z" transform="translate(-2073.645 604.729)" />
                        </g>
                        <g id="Group_4929" transform="translate(32.35 2.457)">
                            <path id="Path_2409" d="M2179.117-586.714a.136.136 0 0 1-.136-.136v-17.737a.136.136 0 0 1 .136-.136.136.136 0 0 1 .136.136v17.737a.136.136 0 0 1-.136.136z" transform="translate(-2178.981 604.724)" />
                        </g>
                        <g id="Group_4930" transform="translate(50.217 2.457)">
                            <path id="Path_2410" d="M2259.1-587.959a13.339 13.339 0 0 1-9.908-3.786c-4.778-4.851-4.714-12.765-4.712-12.844a.143.143 0 0 1 .138-.134.137.137 0 0 1 .135.139c0 .078-.062 7.881 4.635 12.65a13.078 13.078 0 0 0 9.713 3.7.136.136 0 0 1 .136.136.136.136 0 0 1-.137.139z" transform="translate(-2244.478 604.724)" />
                        </g>
                        <g id="Group_4931" transform="translate(0 2.457)">
                            <path id="Path_2411" d="M2060.531-587.959a.136.136 0 0 1-.136-.136.136.136 0 0 1 .136-.136 13.078 13.078 0 0 0 9.713-3.7c4.7-4.768 4.636-12.571 4.635-12.65a.137.137 0 0 1 .134-.139.15.15 0 0 1 .138.134c0 .079.065 7.993-4.712 12.844a13.339 13.339 0 0 1-9.908 3.783z" transform="translate(-2060.395 604.724)" />
                        </g>
                    </g>
                    <g id="Group_4936" transform="translate(35.454 43.253)">
                        <g id="Group_4933">
                            <path id="Path_2412" d="M2106.551-846.728c-.573-2.8-3.072-2.57-5.759-1.528-2.109.821-4.332 2.141-5.83 2.892-2.5 1.249-6.408 2.133-8.271 1.151.663 9.952 3.71 19.48 6.9 27.154a10.809 10.809 0 0 0-6.326-.008c-3.484.985-6.814 3.315-11.247 4.875a28.063 28.063 0 0 1-16.163.663q-1.563-.348-3.022-.663c-12.322-2.649-19.418-3.473-23.5-3.571-4.692-.112-5.393.731-5.472.854 3.5-8 7.09-18.4 7.818-29.306-.633-2.845-3.05-3.743-6.635-3.039-2.592.51-5.24-.267-7.488-.9-2.921-.824-5.167-1.4-5.745 1.427a45.478 45.478 0 0 1 37.309-36.724 10.989 10.989 0 0 0 2.111-.537 7.1 7.1 0 0 0 3.035-2c.068.153.537 1.018 2.248 1.018s2.2-.9 2.272-1.061a8.126 8.126 0 0 0 2.944 1.893 12.234 12.234 0 0 0 2.71.734c19.394 3.087 35.26 17.299 38.111 36.676z" class="cls-3343433434" transform="translate(-2015.811 886.035)" />
                        </g>
                    </g>
                    <g id="Group_4940" transform="translate(77.772 41.185)">
                        <g id="Group_4937" transform="translate(3.557)">
                            <path id="Path_2415" d="M2184.484-893.082a.135.135 0 0 1 0-.033" class="cls-4sdssad87" transform="translate(-2184.345 893.251)" />
                            <path id="Path_2416" d="M2184.121-893.309a.137.137 0 0 1-.133-.1.254.254 0 0 1-.007-.067.136.136 0 0 1 .136-.136.137.137 0 0 1 .136.136.137.137 0 0 1-.1.166.141.141 0 0 1-.032.001z" transform="translate(-2183.981 893.615)" />
                        </g>
                        <g id="Group_4938" transform="translate(0 0.03)">
                            <path id="Path_2417" d="M2175.961-891.1c-.074.158-.565 1.061-2.272 1.061s-2.179-.865-2.248-1.017a3.237 3.237 0 0 0 .829-1.945 4.087 4.087 0 0 0 1.364.235A4.169 4.169 0 0 0 2175-893a3.075 3.075 0 0 0 .961 1.9z" class="cls-5343kjskf" transform="translate(-2171.305 893.141)" />
                            <path id="Path_2418" d="M2173.326-890.269c-1.791 0-2.291-.915-2.373-1.1a.136.136 0 0 1 .02-.142 3.035 3.035 0 0 0 .8-1.86.136.136 0 0 1 .059-.11.137.137 0 0 1 .123-.017 4 4 0 0 0 2.641 0 .133.133 0 0 1 .123.017.136.136 0 0 1 .058.109 2.98 2.98 0 0 0 .923 1.808.137.137 0 0 1 .024.151c-.091.195-.624 1.144-2.398 1.144zm-2.085-1.138c.136.229.644.865 2.085.865a2.251 2.251 0 0 0 2.106-.9 3.338 3.338 0 0 1-.918-1.737 4.254 4.254 0 0 1-2.481 0 3.474 3.474 0 0 1-.793 1.773z" transform="translate(-2170.941 893.504)" />
                        </g>
                        <g id="Group_4939" transform="translate(0.829)">
                            <path id="Path_2419" d="M2174.481-893.085v-.03" class="cls-4sdssad87" transform="translate(-2174.345 893.251)" />
                            <path id="Path_2420" d="M2174.117-893.312a.136.136 0 0 1-.136-.136v-.03a.136.136 0 0 1 .136-.136.136.136 0 0 1 .136.136v.03a.136.136 0 0 1-.136.136z" transform="translate(-2173.981 893.615)" />
                        </g>
                    </g>
                    <g id="Group_4941" transform="translate(76.32 34.156)">
                        <circle id="Ellipse_105" cx="3.646" cy="3.646" r="3.646" class="cls-5343kjskf" transform="translate(0.137 0.137)" />
                        <path id="Path_2421" d="M2169.4-911.815a3.787 3.787 0 0 1-3.782-3.782 3.787 3.787 0 0 1 3.782-3.782 3.786 3.786 0 0 1 3.782 3.782 3.786 3.786 0 0 1-3.782 3.782zm0-7.292a3.513 3.513 0 0 0-3.509 3.51 3.513 3.513 0 0 0 3.509 3.509 3.513 3.513 0 0 0 3.51-3.509 3.514 3.514 0 0 0-3.51-3.509z" transform="translate(-2165.619 919.379)" />
                    </g>
                    <g id="Group_4945" transform="translate(35.317 43.116)">
                        <g id="Group_4942">
                            <path id="Path_2422" d="M2066.769-810.9a33.382 33.382 0 0 1-7.312-.863q-1.562-.348-3.021-.663c-10.438-2.244-18.335-3.444-23.47-3.568-4.717-.115-5.331.755-5.354.791a.136.136 0 0 1-.179.046.136.136 0 0 1-.06-.175c4.581-10.475 7.207-20.313 7.806-29.241-.415-1.833-1.875-3.817-6.471-2.916-2.56.5-5.124-.218-7.385-.856l-.166-.047c-1.825-.514-3.548-1-4.579-.373a2.408 2.408 0 0 0-1 1.7.137.137 0 0 1-.16.106.137.137 0 0 1-.108-.159 45.629 45.629 0 0 1 37.422-36.834 10.893 10.893 0 0 0 2.085-.53 7.062 7.062 0 0 0 2.978-1.962.137.137 0 0 1 .124-.048.137.137 0 0 1 .106.079c.043.1.466.937 2.123.937 1.61 0 2.073-.818 2.149-.982a.136.136 0 0 1 .1-.077.139.139 0 0 1 .122.045 8.079 8.079 0 0 0 2.893 1.857 11.992 11.992 0 0 0 2.68.726c20.1 3.2 35.462 17.99 38.224 36.8a.136.136 0 0 1-.111.154.135.135 0 0 1-.157-.107 2.53 2.53 0 0 0-1.183-1.838c-.932-.508-2.37-.375-4.393.41a40.915 40.915 0 0 0-4.335 2.107c-.536.288-1.043.56-1.483.78-2.569 1.284-6.252 2.069-8.18 1.252.581 8.257 2.892 17.3 6.871 26.879a.136.136 0 0 1-.025.144.136.136 0 0 1-.14.039 10.67 10.67 0 0 0-6.25-.007 32.949 32.949 0 0 0-5.458 2.318 50.826 50.826 0 0 1-5.781 2.554 26.548 26.548 0 0 1-8.922 1.522zm-34.633-5.377c.264 0 .542 0 .836.01 5.153.124 13.067 1.327 23.521 3.574q1.461.315 3.023.663a28.135 28.135 0 0 0 16.088-.658 50.643 50.643 0 0 0 5.751-2.541 33.164 33.164 0 0 1 5.5-2.336 10.931 10.931 0 0 1 6.128-.071c-3.96-9.6-6.247-18.661-6.8-26.935a.136.136 0 0 1 .062-.123.136.136 0 0 1 .138-.007c1.756.927 5.6.123 8.146-1.152.436-.219.941-.489 1.476-.776a41.121 41.121 0 0 1 4.365-2.12c2.1-.816 3.615-.944 4.623-.4a2.324 2.324 0 0 1 .842.791c-3.24-18.075-18.265-32.175-37.789-35.286a12.263 12.263 0 0 1-2.741-.743 8.317 8.317 0 0 1-2.866-1.791 2.578 2.578 0 0 1-2.3.969 2.552 2.552 0 0 1-2.27-.919 7.52 7.52 0 0 1-2.965 1.9 11.141 11.141 0 0 1-2.137.543 45.35 45.35 0 0 0-36.92 35.22 2.007 2.007 0 0 1 .576-.532c1.133-.69 2.912-.188 4.8.343l.166.047c2.233.629 4.763 1.342 7.259.851 3.82-.751 6.17.336 6.794 3.143a.134.134 0 0 1 0 .038c-.59 8.831-3.155 18.546-7.625 28.883a10.449 10.449 0 0 1 4.319-.58z" transform="translate(-2015.311 886.534)" />
                        </g>
                        <g id="Group_4943" transform="translate(19.807 18.981)">
                            <path id="Path_2423" d="M2088.115-793.843a.136.136 0 0 1-.132-.1c-.451-1.826 1.529-18.369 5.5-22.961a.136.136 0 0 1 .192-.014.136.136 0 0 1 .014.192c-3.929 4.543-5.887 20.911-5.441 22.717a.137.137 0 0 1-.1.165.139.139 0 0 1-.033.001z" transform="translate(-2087.919 816.955)" />
                        </g>
                        <g id="Group_4944" transform="translate(63.959 18.981)">
                            <path id="Path_2424" d="M2256.825-793.842a.136.136 0 0 1-.132-.1c-.059-.242-.168-.818-.32-1.616-.9-4.753-3.291-17.377-6.572-21.168a.136.136 0 0 1 .014-.192.136.136 0 0 1 .192.014c3.328 3.846 5.729 16.523 6.634 21.3.15.793.259 1.366.316 1.6a.136.136 0 0 1-.1.165.132.132 0 0 1-.032-.003z" transform="translate(-2249.769 816.955)" />
                        </g>
                    </g>
                    <g id="Group_4946" transform="translate(34.452 224.184)">
                        <path id="Path_2425" d="M2044.286-222.285v14.123a.761.761 0 0 1-.761.761h-30.316a.566.566 0 0 1-.3-1.045l9.343-5.881a.76.76 0 0 0 .355-.644v-7.314z" class="cls-3343433434" transform="translate(-2012.506 222.421)" />
                        <path id="Path_2426" d="M2043.159-207.628h-30.315a.687.687 0 0 1-.674-.507.689.689 0 0 1 .3-.79l9.343-5.882a.621.621 0 0 0 .291-.528v-7.45h21.952v14.259a.9.9 0 0 1-.897.898zm-20.781-14.884v7.177a.892.892 0 0 1-.418.759l-9.343 5.881a.418.418 0 0 0-.184.484.415.415 0 0 0 .412.309h30.315a.625.625 0 0 0 .625-.624v-13.987z" transform="translate(-2012.141 222.785)" />
                    </g>
                    <g id="Group_4947" transform="translate(44.417 219.923)">
                        <path id="Path_2427" d="M2070.847-234.708v1.064h-21.679v-4.256c8.988 2.826 17.391 3.841 21.676 3.2z" class="cls-5343kjskf" transform="translate(-2049.032 238.041)" />
                        <path id="Path_2428" d="M2070.483-233.871H2048.8a.136.136 0 0 1-.136-.136v-4.261a.136.136 0 0 1 .056-.11.138.138 0 0 1 .122-.02c9.574 3.01 17.754 3.771 21.615 3.193a.156.156 0 0 1 .159.135v1.064a.136.136 0 0 1-.133.135zm-21.542-.273h21.406v-.772c-4.654.654-13.213-.611-21.406-3.167z" transform="translate(-2048.668 238.404)" />
                    </g>
                    <g id="Group_4948" transform="translate(93.839 224.184)">
                        <path id="Path_2429" d="M2261.417-207.4H2231.1a.759.759 0 0 1-.758-.761v-14.123h21.676v7.314a.76.76 0 0 0 .354.644l9.349 5.884a.565.565 0 0 1-.304 1.042z" class="cls-3343433434" transform="translate(-2230.202 222.421)" />
                        <path id="Path_2430" d="M2261.054-207.628h-30.321a.9.9 0 0 1-.895-.9v-14.259h21.949v7.45a.621.621 0 0 0 .291.528l9.349 5.884a.685.685 0 0 1 .3.787.686.686 0 0 1-.673.51zm-30.943-14.884v13.987a.624.624 0 0 0 .622.624h30.321a.414.414 0 0 0 .41-.31.414.414 0 0 0-.182-.48l-9.349-5.884a.892.892 0 0 1-.418-.759v-7.177z" transform="translate(-2229.838 222.785)" />
                    </g>
                    <g id="Group_4949" transform="translate(93.839 219.923)">
                        <path id="Path_2431" d="M2252.014-237.9v4.261h-21.676v-1.064c4.283.639 12.69-.376 21.676-3.197z" class="cls-5343kjskf" transform="translate(-2230.202 238.041)" />
                        <path id="Path_2432" d="M2251.651-233.871h-21.676a.136.136 0 0 1-.136-.136v-1.064a.136.136 0 0 1 .047-.1.133.133 0 0 1 .109-.031c3.861.581 12.042-.181 21.615-3.193a.138.138 0 0 1 .122.02.136.136 0 0 1 .055.11v4.261a.136.136 0 0 1-.136.133zm-21.54-.273h21.4v-3.939c-8.179 2.552-16.724 3.818-21.4 3.169z" transform="translate(-2229.838 238.405)" />
                    </g>
                    <g id="Group_4956" transform="translate(106.198 80.177)">
                        <g id="Group_4950" transform="translate(0 0.719)">
                            <path id="Path_2433" d="M2302.119-683.2s-.232 1.274-1.118 1.165a4.662 4.662 0 0 1-2.406 1.244s-1.4 1.6-2.084 1.642-1.525-.641-.761-1.721a6.537 6.537 0 0 0 .679-5.734c-.84-2.444-1.844-1.282-1.964-.96a15.716 15.716 0 0 0 .6 3.407c.24.922.2 1.882-.4 2.043s-2.389-1.364-3.112-4.929-1.184-5.415-.311-7.772c0 0 .745-1.9-.889-5.349-1.031-2.171-3.852-7.1-6.76-13.711q-.528-1.2-1.056-2.469c-3.186-7.674-6.233-17.2-6.9-27.154 1.863.982 5.772.1 8.271-1.151 1.5-.75 3.721-2.07 5.83-2.892.278 1.735.764 4.747 1.241 7.736 1.981 12.385 5.688 35.7 6.01 38.565.437 3.936 1.874 8.871 3.247 10.557a7.828 7.828 0 0 1 1.883 7.483z" class="cls-5343kjskf" transform="translate(-2275.505 747.681)" />
                            <path id="Path_2434" d="M2296.086-679.374a1.186 1.186 0 0 1-1.018-.57 1.232 1.232 0 0 1 .205-1.368 6.4 6.4 0 0 0 .661-5.611c-.314-.915-.7-1.422-1.077-1.427h-.006a.8.8 0 0 0-.624.47 15.84 15.84 0 0 0 .607 3.325c.233.9.242 2.011-.5 2.209a.926.926 0 0 1-.689-.18c-.849-.526-2.037-2.113-2.593-4.854l-.129-.635c-.651-3.2-1.01-4.962-.177-7.212.008-.021.7-1.9-.885-5.244-.313-.658-.787-1.564-1.387-2.712-1.333-2.549-3.349-6.4-5.374-11a.085.085 0 0 1-.006-.016c-.344-.782-.7-1.609-1.051-2.458-4.026-9.7-6.35-18.848-6.906-27.2a.136.136 0 0 1 .062-.123.136.136 0 0 1 .138-.007c1.757.927 5.6.123 8.147-1.152.437-.219.941-.489 1.476-.776a41.143 41.143 0 0 1 4.365-2.12.139.139 0 0 1 .117.009.135.135 0 0 1 .067.1l.31 1.928.932 5.809c1.7 10.606 5.677 35.6 6.01 38.571.455 4.1 1.928 8.9 3.217 10.487a7.929 7.929 0 0 1 1.907 7.6c-.086.472-.441 1.329-1.2 1.28a4.814 4.814 0 0 1-2.386 1.23c-.252.285-1.466 1.613-2.146 1.651zm-1.234-9.249h.009c.519.007.967.548 1.332 1.611a6.678 6.678 0 0 1-.7 5.857 1 1 0 0 0-.19 1.078.91.91 0 0 0 .831.429c.513-.029 1.61-1.162 1.99-1.6a.137.137 0 0 1 .085-.045 4.572 4.572 0 0 0 2.329-1.207.135.135 0 0 1 .111-.037c.747.091.966-1.042.968-1.054a7.694 7.694 0 0 0-1.852-7.372c-1.453-1.785-2.867-6.936-3.276-10.628-.333-2.969-4.313-27.954-6.009-38.559-.33-2.069-.665-4.149-.932-5.809l-.282-1.76a42.423 42.423 0 0 0-4.178 2.045c-.536.288-1.043.56-1.483.78-2.569 1.284-6.252 2.069-8.18 1.252.581 8.257 2.892 17.3 6.87 26.879.354.852.709 1.682 1.054 2.466a.1.1 0 0 1 .006.016c2.02 4.587 4.03 8.429 5.36 10.972.6 1.151 1.077 2.059 1.392 2.722 1.64 3.459.924 5.378.893 5.458-.805 2.174-.452 3.91.189 7.061l.129.635c.539 2.655 1.667 4.179 2.469 4.677a.713.713 0 0 0 .474.148c.509-.136.514-1.069.3-1.877a16.652 16.652 0 0 1-.6-3.489 1.059 1.059 0 0 1 .891-.649z" transform="translate(-2275.141 748.043)" />
                        </g>
                        <g id="Group_4951" transform="translate(14.101)">
                            <path id="Path_2435" d="M2328.572-741.726c-.477-2.99-.963-6-1.241-7.736 2.687-1.042 5.186-1.271 5.759 1.528 1.023 5-4.518 6.208-4.518 6.208z" transform="translate(-2327.195 750.317)" />
                            <path id="Path_2436" d="M2328.208-741.952a.137.137 0 0 1-.077-.024.137.137 0 0 1-.058-.091l-.932-5.809-.31-1.927a.137.137 0 0 1 .086-.149c2.1-.816 3.615-.944 4.622-.4a2.787 2.787 0 0 1 1.319 2.022c1.038 5.074-4.565 6.357-4.622 6.369a.127.127 0 0 1-.028.009zm-1.089-7.785l.292 1.818c.26 1.62.585 3.641.908 5.662a7.767 7.767 0 0 0 2.457-1.175 4.478 4.478 0 0 0 1.816-4.837 2.53 2.53 0 0 0-1.183-1.838c-.916-.501-2.32-.38-4.29.37z" transform="translate(-2326.831 750.68)" />
                        </g>
                        <g id="Group_4952" transform="translate(25.358 61.008)">
                            <path id="Path_2437" d="M2368.234-521.546a.136.136 0 0 1-.1-.043.137.137 0 0 1 0-.191c.016-.017.781-.88.543-5.115a.136.136 0 0 1 .128-.144.133.133 0 0 1 .144.128c.25 4.443-.59 5.293-.626 5.327a.137.137 0 0 1-.089.038z" transform="translate(-2368.098 527.039)" />
                        </g>
                        <g id="Group_4953" transform="translate(22.953 61.009)">
                            <path id="Path_2438" d="M2359.417-520.3a.136.136 0 0 1-.119-.07.136.136 0 0 1 .051-.185c.02-.012 1.67-1.042 1.694-6.345a.137.137 0 0 1 .136-.136.136.136 0 0 1 .136.137c-.024 5.5-1.758 6.54-1.832 6.581a.136.136 0 0 1-.066.018z" transform="translate(-2359.281 527.037)" />
                        </g>
                        <g id="Group_4954" transform="translate(20.869 61.008)">
                            <path id="Path_2439" d="M2351.776-518.659a.137.137 0 0 1-.121-.073.136.136 0 0 1 .057-.184c.029-.016 2.908-1.615 2.157-7.97a.136.136 0 0 1 .12-.151.134.134 0 0 1 .151.119c.776 6.56-2.176 8.178-2.3 8.243a.139.139 0 0 1-.064.016z" transform="translate(-2351.64 527.039)" />
                        </g>
                        <g id="Group_4955" transform="translate(18.805 58.839)">
                            <path id="Path_2440" d="M2344.6-532.634a2.861 2.861 0 0 1 .464-1.859" transform="translate(-2344.441 534.629)" />
                            <path id="Path_2441" d="M2344.231-532.862a.136.136 0 0 1-.134-.11 2.977 2.977 0 0 1 .481-1.955.136.136 0 0 1 .187-.048.136.136 0 0 1 .048.187 2.767 2.767 0 0 0-.448 1.763.137.137 0 0 1-.108.16z" transform="translate(-2344.076 534.993)" />
                        </g>
                    </g>
                    <g id="Group_4962" transform="translate(28.447 80.997)">
                        <g id="Group_4957">
                            <path id="Path_2442" d="M2017.375-743.236c-.728 10.906-4.318 21.3-7.818 29.306l-.008.016q-.336.765-.669 1.5c-2.717 6-5.259 10.475-6.225 12.51-1.634 3.445-.887 5.349-.887 5.349.873 2.357.407 4.2-.314 7.772s-2.51 5.09-3.113 4.929-.641-1.121-.4-2.043a15.726 15.726 0 0 0 .6-3.407c-.12-.322-1.124-1.484-1.964.96a6.536 6.536 0 0 0 .679 5.734c.764 1.08-.079 1.762-.761 1.721s-2.084-1.642-2.084-1.642a4.66 4.66 0 0 1-2.406-1.244c-.884.109-1.118-1.165-1.118-1.165a7.828 7.828 0 0 1 1.879-7.486c1.372-1.686 2.81-6.621 3.246-10.557.322-2.875 4.037-26.221 6.01-38.565l.262-1.631.18-1.124.167-1.031.1-.614.18-1.121.076-.475.265-1.64c2.248.633 4.9 1.41 7.488.9 3.585-.695 6.002.203 6.635 3.048z" class="cls-5343kjskf" transform="translate(-1990.5 747.311)" />
                            <path id="Path_2443" d="M1996.184-679.106h-.068c-.68-.038-1.893-1.366-2.146-1.651a4.813 4.813 0 0 1-2.386-1.23c-.759.044-1.117-.811-1.2-1.282a7.928 7.928 0 0 1 1.908-7.6c1.289-1.583 2.762-6.386 3.216-10.486.295-2.633 3.431-22.429 6.01-38.572l1.228-7.636a.138.138 0 0 1 .062-.093.135.135 0 0 1 .11-.016l.166.047c2.233.629 4.763 1.342 7.259.851 3.82-.751 6.17.336 6.794 3.143a.143.143 0 0 1 0 .038c-.6 8.965-3.233 18.841-7.83 29.352-.23.523-.452 1.021-.672 1.508a.1.1 0 0 1-.006.015c-1.834 4.053-3.567 7.367-4.833 9.787-.6 1.154-1.08 2.066-1.394 2.726-1.584 3.34-.89 5.223-.883 5.242.833 2.248.475 4.005-.175 7.2l-.132.651c-.556 2.741-1.744 4.328-2.593 4.854a.923.923 0 0 1-.688.18c-.74-.2-.731-1.314-.5-2.209a15.863 15.863 0 0 0 .607-3.325.8.8 0 0 0-.624-.47h-.006c-.38 0-.763.512-1.078 1.427a6.4 6.4 0 0 0 .662 5.612 1.232 1.232 0 0 1 .2 1.368 1.187 1.187 0 0 1-1.008.569zm-4.55-3.161a.137.137 0 0 1 .095.038 4.571 4.571 0 0 0 2.329 1.207.137.137 0 0 1 .085.045c.38.434 1.477 1.567 1.989 1.6a.914.914 0 0 0 .832-.428 1 1 0 0 0-.189-1.078 6.679 6.679 0 0 1-.7-5.858c.365-1.062.813-1.6 1.332-1.611h.009a1.058 1.058 0 0 1 .88.647 16.65 16.65 0 0 1-.6 3.489c-.21.808-.205 1.741.3 1.877a.709.709 0 0 0 .474-.148c.8-.5 1.931-2.021 2.469-4.677l.132-.652c.639-3.142.992-4.873.187-7.046-.031-.078-.749-2 .891-5.455.316-.665.793-1.579 1.4-2.735 1.263-2.414 2.992-5.72 4.821-9.76a.08.08 0 0 1 .005-.015q.331-.736.668-1.5c4.589-10.491 7.215-20.329 7.814-29.257-.749-3.312-3.93-3.414-6.471-2.916-2.56.5-5.124-.218-7.385-.856l-.019-.005-1.2 7.484c-2.579 16.14-5.715 35.932-6.009 38.559-.409 3.692-1.823 8.844-3.276 10.628a7.694 7.694 0 0 0-1.852 7.372c0 .015.222 1.144.969 1.057z" transform="translate(-1990.127 747.675)" />
                        </g>
                        <g id="Group_4958" transform="translate(0.742 60.188)">
                            <path id="Path_2444" d="M1993.612-521.547a.134.134 0 0 1-.092-.037c-.036-.034-.876-.884-.626-5.327a.131.131 0 0 1 .144-.128.136.136 0 0 1 .128.144c-.24 4.257.535 5.107.543 5.115a.138.138 0 0 1 0 .192.138.138 0 0 1-.097.041z" transform="translate(-1992.847 527.04)" />
                        </g>
                        <g id="Group_4959" transform="translate(2.015 60.189)">
                            <path id="Path_2445" d="M1999.41-520.3a.134.134 0 0 1-.066-.018c-.073-.041-1.807-1.079-1.832-6.581a.136.136 0 0 1 .136-.137.137.137 0 0 1 .136.136c.023 5.309 1.677 6.335 1.694 6.345a.137.137 0 0 1 .05.186.137.137 0 0 1-.118.069z" transform="translate(-1997.512 527.037)" />
                        </g>
                        <g id="Group_4960" transform="translate(3.504 60.189)">
                            <path id="Path_2446" d="M2005.465-518.658a.136.136 0 0 1-.063-.016c-.126-.065-3.077-1.684-2.3-8.243a.134.134 0 0 1 .151-.12.136.136 0 0 1 .119.151c-.393 3.327.216 5.319.8 6.4a3.88 3.88 0 0 0 1.36 1.567.136.136 0 0 1 .057.184.136.136 0 0 1-.124.077z" transform="translate(-2002.971 527.038)" />
                        </g>
                        <g id="Group_4961" transform="translate(7.441 58.019)">
                            <path id="Path_2447" d="M2018.006-532.862h-.026a.137.137 0 0 1-.108-.16 2.768 2.768 0 0 0-.448-1.763.137.137 0 0 1 .048-.187.137.137 0 0 1 .187.048 2.978 2.978 0 0 1 .481 1.955.136.136 0 0 1-.134.107z" transform="translate(-2017.405 534.993)" />
                        </g>
                    </g>
                    <g id="Group_4963" transform="translate(35.192 80.322)">
                        <path id="Path_2448" d="M2021.22-748.971l-.265 1.639-.076.475-.18 1.121-.1.614-.167 1.031-.18 1.124-.262 1.631s-5.54-1.208-4.517-6.209c.58-2.823 2.827-2.25 5.747-1.426z" transform="translate(-2015.213 749.782)" />
                        <path id="Path_2449" d="M2019.63-741.564a.133.133 0 0 1-.029 0c-.057-.012-5.66-1.3-4.622-6.37a2.662 2.662 0 0 1 1.121-1.874c1.133-.69 2.911-.188 4.8.343a.137.137 0 0 1 .1.153l-1.228 7.635a.137.137 0 0 1-.058.091.137.137 0 0 1-.084.022zm-2.132-8.31a2.382 2.382 0 0 0-1.257.3 2.408 2.408 0 0 0-1 1.7 4.478 4.478 0 0 0 1.816 4.837 7.77 7.77 0 0 0 2.457 1.175l1.184-7.368a12.973 12.973 0 0 0-3.198-.644z" transform="translate(-2014.851 750.146)" />
                    </g>
                    <g id="Group_4964" transform="translate(106.768 111.615)">
                        <path id="Path_2450" d="M2285.113-631.99c0 .06-.068 1.427-6.187 2.4-.453-1.888-.856-3.527-1.195-4.875a10.809 10.809 0 0 1 6.326.008q.528 1.267 1.056 2.467z" transform="translate(-2277.594 635.073)" />
                        <path id="Path_2451" d="M2278.562-629.818a.136.136 0 0 1-.133-.1c-.414-1.725-.816-3.365-1.195-4.873a.137.137 0 0 1 .1-.165 10.936 10.936 0 0 1 6.4.009.137.137 0 0 1 .086.078c.354.852.709 1.682 1.054 2.467a.138.138 0 0 1 .012.055c0 .157-.177 1.56-6.3 2.53zm-1.03-4.916c.36 1.438.741 2.992 1.133 4.625 5.436-.877 5.905-2.057 5.944-2.222-.334-.758-.676-1.557-1.017-2.378a10.63 10.63 0 0 0-6.06-.025z" transform="translate(-2277.231 635.436)" />
                    </g>
                    <g id="Group_4965" transform="translate(46.689 113.378)">
                        <path id="Path_2452" d="M2063.647-628.462c-.262 1.058-.551 2.253-.867 3.571 0 0-5.366 2.335-5.281-1.195q.331-.737.668-1.5l.008-.016c.079-.129.78-.972 5.472-.86z" transform="translate(-2057.361 628.609)" />
                        <path id="Path_2453" d="M2059.2-624.362a2.6 2.6 0 0 1-1.456-.365 1.878 1.878 0 0 1-.745-1.728.158.158 0 0 1 .012-.055q.331-.736.668-1.5c0-.006.014-.029.018-.035.156-.243 1.021-1.028 5.59-.917a.137.137 0 0 1 .1.053.135.135 0 0 1 .024.116c-.262 1.058-.551 2.253-.867 3.57a.137.137 0 0 1-.078.093 9.671 9.671 0 0 1-3.266.768zm-1.928-2.062a1.614 1.614 0 0 0 .625 1.47c1.244.837 3.959-.22 4.4-.4.294-1.223.564-2.34.811-3.339-4.56-.083-5.161.759-5.184.8-.216.493-.436.987-.653 1.47z" transform="translate(-2056.997 628.974)" />
                    </g>
                    <g id="Group_4966" transform="translate(95.52 112.084)">
                        <path id="Path_2454" d="M2248.943-628.34H2236.5c4.433-1.56 7.764-3.89 11.247-4.875.339 1.348.743 2.987 1.196 4.875z" class="cls-5343kjskf" transform="translate(-2236.365 633.351)" />
                        <path id="Path_2455" d="M2248.58-628.567h-12.442a.136.136 0 0 1-.135-.113.136.136 0 0 1 .089-.152 50.645 50.645 0 0 0 5.751-2.541 33.188 33.188 0 0 1 5.5-2.336.135.135 0 0 1 .105.013.136.136 0 0 1 .064.085c.379 1.509.781 3.15 1.195 4.876a.137.137 0 0 1-.025.116.137.137 0 0 1-.102.052zm-11.673-.273h11.5c-.388-1.612-.764-3.148-1.12-4.568a33.9 33.9 0 0 0-5.323 2.279c-1.586.784-3.22 1.592-5.057 2.289z" transform="translate(-2236.001 633.715)" />
                    </g>
                    <g id="Group_4967" transform="translate(51.971 113.388)">
                        <path id="Path_2456" d="M2101.224-624.864h-24.363c.316-1.318.605-2.513.867-3.571 4.079.098 11.172.922 23.496 3.571z" class="cls-5343kjskf" transform="translate(-2076.725 628.571)" />
                        <path id="Path_2457" d="M2100.861-625.091H2076.5a.137.137 0 0 1-.107-.052.136.136 0 0 1-.025-.116c.316-1.318.605-2.513.867-3.572a.129.129 0 0 1 .136-.1c5.153.124 13.067 1.327 23.521 3.574a.137.137 0 0 1 .107.148.137.137 0 0 1-.138.118zm-24.19-.273h22.9c-9.74-2.055-17.168-3.163-22.095-3.3-.248.991-.515 2.093-.806 3.3z" transform="translate(-2076.361 628.935)" />
                    </g>
                    <g id="Group_4968" transform="translate(66.096 137.73)">
                        <path id="Path_2458" d="M2128.274-454.042a.136.136 0 0 1-.135-.116.136.136 0 0 1 .115-.155 4.058 4.058 0 0 0 2.669-1.106c.782-1.118 3.275-16.861 6.2-39.174 2.351-17.915 4.881-39.631 4.881-44.976a.137.137 0 0 1 .136-.136.136.136 0 0 1 .136.136c0 5.344 2.531 27.061 4.882 44.976 2.929 22.313 5.422 38.056 6.2 39.174a4.056 4.056 0 0 0 2.669 1.106.128.128 0 0 1 .127.136.143.143 0 0 1-.145.136c-1.505-.223-2.465-.634-2.875-1.221-1.643-2.348-9.84-63.686-11-81.117-1.159 17.432-9.354 78.769-11 81.117a4.215 4.215 0 0 1-2.852 1.219z" transform="translate(-2128.137 539.705)" />
                    </g>
                    <g id="Group_4969" transform="translate(77.761 43.138)">
                        <path id="Path_2459" d="M2171.052-886.158a.142.142 0 0 1-.121-.069.411.411 0 0 1-.024-.05.136.136 0 0 1 .088-.172.136.136 0 0 1 .171.088.133.133 0 0 1-.048.184.129.129 0 0 1-.066.019z" transform="translate(-2170.901 886.455)" />
                    </g>
                    <g id="Group_4970" transform="translate(82.292 43.096)">
                        <path id="Path_2460" d="M2187.647-886.317a.131.131 0 0 1-.061-.014.136.136 0 0 1-.061-.183.14.14 0 0 1 .175-.089.134.134 0 0 1 .087.169c0 .006-.015.036-.018.042a.136.136 0 0 1-.122.075z" transform="translate(-2187.511 886.611)" />
                    </g>
                    <g id="Group_4971" transform="translate(44.417 230.776)">
                        <path id="Path_2461" d="M2051.809-198.349h-3a.136.136 0 0 1-.136-.136.136.136 0 0 1 .136-.136h3a.137.137 0 0 1 .136.136.136.136 0 0 1-.136.136z" transform="translate(-2048.669 198.622)" />
                    </g>
                    <g id="Group_4972" transform="translate(44.417 228.601)">
                        <path id="Path_2462" d="M2051.809-206.321h-3a.136.136 0 0 1-.136-.136.136.136 0 0 1 .136-.136h3a.136.136 0 0 1 .136.136.137.137 0 0 1-.136.136z" transform="translate(-2048.669 206.594)" />
                    </g>
                    <g id="Group_4973" transform="translate(44.417 226.393)">
                        <path id="Path_2463" d="M2051.809-214.414h-3a.136.136 0 0 1-.136-.136.136.136 0 0 1 .136-.136h3a.136.136 0 0 1 .136.136.137.137 0 0 1-.136.136z" transform="translate(-2048.669 214.687)" />
                    </g>
                    <g id="Group_4974" transform="translate(112.512 230.776)">
                        <path id="Path_2464" d="M2301.428-198.349h-3a.136.136 0 0 1-.136-.136.137.137 0 0 1 .136-.136h3a.136.136 0 0 1 .136.136.136.136 0 0 1-.136.136z" transform="translate(-2298.288 198.622)" />
                    </g>
                    <g id="Group_4975" transform="translate(112.512 228.601)">
                        <path id="Path_2465" d="M2301.428-206.321h-3a.137.137 0 0 1-.136-.136.136.136 0 0 1 .136-.136h3a.136.136 0 0 1 .136.136.136.136 0 0 1-.136.136z" transform="translate(-2298.288 206.594)" />
                    </g>
                    <g id="Group_4976" transform="translate(112.512 226.393)">
                        <path id="Path_2466" d="M2301.428-214.414h-3a.137.137 0 0 1-.136-.136.136.136 0 0 1 .136-.136h3a.136.136 0 0 1 .136.136.136.136 0 0 1-.136.136z" transform="translate(-2298.288 214.687)" />
                    </g>
                    <g id="Group_4977" transform="translate(79.434 37.485)">
                        <path id="Path_2467" d="M2177.638-905.8c-.306 0-.5-.089-.574-.263-.161-.376.368-.955.475-1.068a.137.137 0 0 1 .193 0 .137.137 0 0 1 0 .193c-.209.219-.489.616-.422.772.026.062.144.1.323.1a.136.136 0 0 1 .136.136.136.136 0 0 1-.131.13z" transform="translate(-2177.034 907.177)" />
                    </g>
                </g>
                <g id="Group_4979" transform="translate(121.799 132.044)">
                    <path id="Path_2468" d="M2332.831-558.468a6.631 6.631 0 0 1 1.188-1.58" transform="translate(-2332.695 560.185)" />
                    <path id="Path_2469" d="M2332.467-558.7a.131.131 0 0 1-.068-.018.136.136 0 0 1-.05-.186 6.245 6.245 0 0 1 1.245-1.634.137.137 0 0 1 .183.061.137.137 0 0 1-.062.183 6 6 0 0 0-1.131 1.527.136.136 0 0 1-.117.067z" transform="translate(-2332.331 560.549)" />
                </g>
                <g id="Group_4980" transform="translate(38.304 131.806)">
                    <path id="Path_2470" d="M2028.034-559.1a7.809 7.809 0 0 0-1.274-1.818" transform="translate(-2026.623 561.055)" />
                    <path id="Path_2471" d="M2027.671-559.328a.136.136 0 0 1-.12-.071 7.066 7.066 0 0 0-1.219-1.763.137.137 0 0 1-.055-.185.136.136 0 0 1 .185-.055 7.34 7.34 0 0 1 1.329 1.873.136.136 0 0 1-.055.185.135.135 0 0 1-.065.016z" transform="translate(-2026.26 561.419)" />
                </g>
                <g id="Group_4981" transform="translate(106.505 87.148)">
                    <path id="Path_2472" d="M2282.988-700.043c-1.217-.368-2.133-.96-3.361-3.738-3.361-8.8-3.233-19.943-3.361-21.343.022.224.044.445.068.666 0 .041.008.079.014.117.027.259.06.519.093.778 0 .052.011.106.019.161q.037.315.082.63c.017.128.033.257.055.385.025.188.052.379.082.567.011.09.025.18.041.267.038.273.082.54.128.81q.073.454.155.908c.044.256.093.516.142.772.063.344.128.687.2 1.026.057.286.117.573.177.856.011.047.019.1.03.142.123.556.248 1.113.379 1.664.208.878.431 1.748.663 2.608.079.286.155.573.237.857s.161.567.243.848.167.564.251.843.169.56.256.835l.262.827c.087.273.174.54.264.81a.049.049 0 0 1 .005.022c.09.267.18.535.271.8.128.379.259.756.39 1.127q.209.585.42 1.162c.486 1.332.99 2.625 1.5 3.869.096.243.196.484.295.724z" transform="translate(-2276.266 725.124)" />
                </g>
                <g id="Group_4991" transform="translate(42.875 41.321)">
                    <g id="Group_4985" transform="translate(35.545)">
                        <g id="Group_4982" transform="translate(2.978)">
                            <path id="Path_2473" d="M2184.235-893.082a.135.135 0 0 1 0-.033" transform="translate(-2184.232 893.115)" />
                        </g>
                        <g id="Group_4983" transform="translate(0 0.03)">
                            <path id="Path_2474" d="M2178.575-890.026a3.6 3.6 0 0 1-1.62-.671c-.27-.248-.472-.587-1.143-1.195a2 2 0 0 0-2.5-.082 2.635 2.635 0 0 0 .251-1.031 4.085 4.085 0 0 0 1.364.235 4.175 4.175 0 0 0 1.373-.23 3.074 3.074 0 0 0 .96 1.9 5.987 5.987 0 0 0 1.315 1.074z" transform="translate(-2173.316 893.005)" />
                        </g>
                        <g id="Group_4984" transform="translate(0.25)">
                            <path id="Path_2475" d="M2174.232-893.085v-.03" transform="translate(-2174.232 893.115)" />
                        </g>
                    </g>
                    <g id="Group_4986" transform="translate(1.609 178.739)">
                        <path id="Path_2476" d="M2062.872-234.83c-7.753-.466-13.956-.944-13.956-.944v-2.126c.379.12.756.234 1.132.346q.376.115.753.221c.273.082.545.158.816.234q1 .279 1.989.527l.445.112c1.661.409 3.274.753 4.815 1.031.262.049.521.092.778.136.851.145 1.675.27 2.471.371.213.028.42.055.627.079z" transform="translate(-2048.916 237.904)" />
                    </g>
                    <g id="Group_4987" transform="translate(17.86 72.918)">
                        <path id="Path_2477" d="M2143.546-622.958c-3.947 1.642-8.975 2.97-12.835 2.469-.535-.071-1.277-.2-2.166-.385-.516-.1-1.08-.226-1.683-.357-2.12-.47-4.706-1.091-7.265-1.727-5.478-1.359-10.814-2.777-11.111-2.856 3.945.537 9.051 1.435 15.667 2.856q1.461.315 3.023.663l.15.032a.625.625 0 0 0 .065.014c.1.022.194.044.289.063.287.06.567.117.846.169.245.046.488.09.726.128.286.049.567.093.845.131a.05.05 0 0 0 .019 0q.417.061.818.106c.237.027.472.052.7.074.246.025.485.044.726.063h.008c.142.011.287.019.429.027l.153.008c.076.005.15.008.224.011a.343.343 0 0 0 .052 0c.191.008.376.014.565.019.229.005.458.008.685.008a26.166 26.166 0 0 0 8.86-1.522z" transform="translate(-2108.486 625.814)" />
                    </g>
                    <g id="Group_4988" transform="translate(63.392 42.136)">
                        <path id="Path_2478" d="M2284.567-738.654a14.689 14.689 0 0 1-9.052 3.129c-.005-.065-.014-.134-.016-.2-.016-.169-.03-.338-.044-.508 0-.016 0-.032-.005-.049-.019-.251-.038-.5-.055-.756 1.863.982 5.772.1 8.271-1.151.277-.138.579-.296.901-.465z" transform="translate(-2275.396 738.654)" />
                    </g>
                    <g id="Group_4989" transform="translate(0 40.287)">
                        <path id="Path_2479" d="M2055.393-741.975c-1.124-1.511-1.5-1.609-5.3-1.617a16.329 16.329 0 0 1-7.082-1.841.546.546 0 0 0 .1.025c.068.019.136.035.207.052.139.035.278.068.42.1.161.038.325.074.488.107.082.019.166.035.251.049a15.035 15.035 0 0 0 1.691.232l.172.011c.035 0 .071 0 .106.005l.237.008c.186.005.371.005.559 0q.18 0 .36-.016l.109-.008c.12-.008.237-.019.357-.033a.452.452 0 0 1 .055-.005c.136-.016.276-.035.415-.06l.221-.041c.254-.049.5-.09.742-.125a9.76 9.76 0 0 1 1.768-.1c.1.005.191.011.284.019.071.005.142.014.21.022.1.013.2.027.292.044l.284.055a1.1 1.1 0 0 1 .136.033c.087.022.172.046.256.071s.164.055.246.085c.049.019.1.038.15.06a3.781 3.781 0 0 1 .437.213c.063.036.123.071.18.109.093.06.183.125.27.194.041.032.082.065.12.1s.058.049.085.076c.046.041.093.085.136.131l.117.128a1.373 1.373 0 0 1 .1.12l.082.1c.027.032.052.071.076.107a1.454 1.454 0 0 1 .09.136l.065.106c.03.052.06.106.087.161s.044.082.063.125c.038.076.071.156.1.235s.06.15.087.229.06.177.084.267c.016.057.033.118.047.177a.108.108 0 0 1 .008.027c0 .011.005.019.008.03.013.037.018.072.024.097z" transform="translate(-2043.016 745.434)" />
                    </g>
                    <g id="Group_4990" transform="translate(51.032 180.872)">
                        <path id="Path_2480" d="M2243.57-230.084a62.2 62.2 0 0 1-7.357 2.128 27.921 27.921 0 0 1-6.127.753v-1.817c2.935.442 7.814.104 13.484-1.064z" transform="translate(-2230.086 230.084)" />
                    </g>
                </g>
            </g>
            <g id="Group_4993" transform="translate(1983.638 -983.746)">
                <path id="Path_2481" d="M2244.478-819.77a.137.137 0 0 1-.134-.111 1.524 1.524 0 0 1 .256-1.119 1.574 1.574 0 0 1 1.185-.559.134.134 0 0 1 .147.124.136.136 0 0 1-.125.147 1.318 1.318 0 0 0-.991.453 1.255 1.255 0 0 0-.2.9.137.137 0 0 1-.109.16z" transform="translate(-2244.325 821.557)" />
            </g>
            <g id="Group_4994" transform="translate(1945.918 -983.832)">
                <path id="Path_2482" d="M2108.094-820.271a.137.137 0 0 1-.135-.115 1.4 1.4 0 0 0-.634-1.133 1.314 1.314 0 0 0-1.066.11.137.137 0 0 1-.186-.049.136.136 0 0 1 .049-.187 1.568 1.568 0 0 1 1.319-.122 1.64 1.64 0 0 1 .789 1.336.136.136 0 0 1-.113.157z" transform="translate(-2106.054 821.87)" />
            </g>
            <g id="Group_4995" transform="translate(1989.081 -918.392)">
                <path id="Path_2483" d="M2266.105-573.271a.136.136 0 0 1-.134-.109l-1.69-8.441a.136.136 0 0 1 .029-.114.135.135 0 0 1 .105-.05h6.868a.137.137 0 0 1 .137.136.137.137 0 0 1-.137.136h-6.7l1.658 8.278a.136.136 0 0 1-.107.161z" transform="translate(-2264.279 581.985)" />
            </g>
            <g id="Group_4996" transform="translate(1935.677 -918.392)">
                <path id="Path_2484" d="M2073.824-573.271h-.027a.136.136 0 0 1-.107-.161l1.657-8.278h-6.7a.136.136 0 0 1-.136-.136.136.136 0 0 1 .136-.136h6.868a.136.136 0 0 1 .105.05.137.137 0 0 1 .028.114l-1.69 8.441a.136.136 0 0 1-.134.106z" transform="translate(-2068.51 581.985)" />
            </g>
        </g>
    </g>
</svg>
