<svg xmlns="http://www.w3.org/2000/svg" width="8" height="  " viewBox="0 0 8    ">
    <defs>
        <style>
            .cls-1,.cls-2{fill:#575756}.cls-1{font-size:20px;font-family:GreycliffCF-Regular,Greycliff CF;letter-spacing:-.04em}.cls-2{stroke:#575756}
        </style>
    </defs>
    <g id="Group_1944" data-name="Group 1944" transform="translate(-190.125 -929)">
        <path id="Path_906" d="M-5767.174-5915.408l-1.4-1.4-3.433-3.43a.814.814 0 0 1-.247-.877.8.8 0 0 1 1.271-.363 1.439 1.439 0 0 1 .108.1q2.681 2.682 5.363 5.362a.808.808 0 0 1 .181 1 .973.973 0 0 1-.17.218q-2.689 2.691-5.382 5.38a.8.8 0 0 1-1.367-.317.81.81 0 0 1 .246-.835l2.653-2.65 2.088-2.087a1.24 1.24 0 0 1 .089-.101z" class="cls-2" data-name="Path 906" transform="rotate(180 -2787.293 -2486.241)"/>
    </g>
</svg>
