<svg xmlns="http://www.w3.org/2000/svg" width="233.504" height="143.285" viewBox="0 0 233.504 143.285">
    <defs>
        <style>
            .cls-1{fill:none}.cls-2{fill:#75aecd}.cls-3,.cls-8{fill:#fff}.cls-3{opacity:.8}.cls-4{clip-path:url(#clip-path)}.cls-5{fill:#1c1c1c}.cls-6{fill:#f4cfa0}.cls-7{fill:#04297b}.cls-9{fill:#f6d58f}
        </style>
        <clipPath id="clip-path">
            <path id="Rectangle_1669" d="M0 0h49.863v59.653H0z" class="cls-1" data-name="Rectangle 1669"/>
        </clipPath>
    </defs>
    <g id="Group_3080" data-name="Group 3080" transform="translate(-162.668 -161.383)">
        <path id="Path_1247" d="M385.138 161.383H173.7a11.03 11.03 0 0 0-11.03 11.03v121.226a11.03 11.03 0 0 0 11.03 11.029h211.44a11.03 11.03 0 0 0 11.034-11.029V172.413a11.031 11.031 0 0 0-11.036-11.03z" class="cls-2" data-name="Path 1247"/>
        <path id="Rectangle_1667" d="M0 0h49.863v59.653H0z" class="cls-3" data-name="Rectangle 1667" transform="translate(323.671 233.026)"/>
        <g id="Group_3121" data-name="Group 3121" transform="translate(323.671 233.026)">
            <g id="Group_3120" class="cls-4" data-name="Group 3120">
                <g id="Group_3119" data-name="Group 3119" transform="translate(6.868 6.168)">
                    <g id="Group_3084" data-name="Group 3084">
                        <g id="Group_3083" data-name="Group 3083">
                            <g id="Group_3082" data-name="Group 3082">
                                <g id="Group_3081" data-name="Group 3081">
                                    <g id="Group_3080-2" data-name="Group 3080">
                                        <path id="Path_1248" d="M547.971 347.255c1.246-4.132 3.293-7.709 7.652-7.9 3.911-.168 5.789 3.161 9.676 3.606 2.8.322 7.432.344 10.073 1.318 4.05 1.495 5.71 4.583 6.44 8.794a64.118 64.118 0 0 1 .8 15.216c-.183 2.726-.723 5.763-2.966 7.359-2.8 1.992-6.92.628-9.29-1.85a10.876 10.876 0 0 1-2.2-3.311c-.585-1.4-.83-2.922-1.354-4.349a8.761 8.761 0 0 0-6.007-5.722c-3.652-.786-9.872 3.567-12.427.759-2.907-3.186-1.559-10.056-.397-13.92z" class="cls-5" data-name="Path 1248" transform="translate(-546.623 -339.352)"/>
                                    </g>
                                </g>
                            </g>
                        </g>
                    </g>
                    <g id="Group_3093" data-name="Group 3093" transform="translate(3.499 7.623)">
                        <g id="Group_3088" data-name="Group 3088">
                            <g id="Group_3087" data-name="Group 3087">
                                <g id="Group_3086" data-name="Group 3086">
                                    <g id="Group_3085" data-name="Group 3085">
                                        <path id="Path_1249" d="M582.774 370.691v32.251h-25.705l.086-.639 11.543-8.088c-6.1-.4-9.575-2.282-11.543-4.391a9.392 9.392 0 0 1-2.529-5.864v-13.269a14.042 14.042 0 0 1 14.072-13.9h.022a14.027 14.027 0 0 1 14.054 13.9z" class="cls-6" data-name="Path 1249" transform="translate(-554.626 -356.787)"/>
                                    </g>
                                </g>
                            </g>
                        </g>
                        <g id="Group_3092" data-name="Group 3092" transform="translate(2.529 33.036)">
                            <g id="Group_3091" data-name="Group 3091">
                                <g id="Group_3090" data-name="Group 3090">
                                    <g id="Group_3089" data-name="Group 3089">
                                        <path id="Path_1250" d="M571.953 436.737l-11.543 8.088v-12.48c1.968 2.11 5.439 3.988 11.543 4.392z" class="cls-5" data-name="Path 1250" transform="translate(-560.41 -432.346)"/>
                                    </g>
                                </g>
                            </g>
                        </g>
                    </g>
                    <g id="Group_3098" data-name="Group 3098" transform="translate(22.029 21.168)">
                        <g id="Group_3097" data-name="Group 3097">
                            <g id="Group_3096" data-name="Group 3096">
                                <g id="Group_3095" data-name="Group 3095">
                                    <g id="Group_3094" data-name="Group 3094">
                                        <path id="Path_1251" d="M599.711 397.732a5.442 5.442 0 0 0 7.384-1.954 5.3 5.3 0 0 0-1.979-7.293 5.441 5.441 0 0 0-7.383 1.954 5.306 5.306 0 0 0 1.978 7.293z" class="cls-7" data-name="Path 1251" transform="translate(-597.008 -387.768)"/>
                                    </g>
                                </g>
                            </g>
                        </g>
                    </g>
                    <g id="Group_3103" data-name="Group 3103" transform="translate(1.937 4.496)">
                        <g id="Group_3102" data-name="Group 3102">
                            <g id="Group_3101" data-name="Group 3101">
                                <g id="Group_3100" data-name="Group 3100">
                                    <g id="Group_3099" data-name="Group 3099">
                                        <path id="Path_1252" d="M552.615 359.47c.015.049-1.561-1.018-1.561-.968 7.535.654 14.656 1.259 16.741.965.978 8.867 5.051 8.572 9.324 9.9 3.973 1.211 8.081-.622 7.286-5.562a15.586 15.586 0 0 0-4.835-8.489 25.826 25.826 0 0 0-12.934-5.563 18.167 18.167 0 0 0-13.38 3.681c-1.506 1.223-1.271 4.221-.641 6.036z" class="cls-5" data-name="Path 1252" transform="translate(-551.054 -349.636)"/>
                                    </g>
                                </g>
                            </g>
                        </g>
                    </g>
                    <g id="Group_3108" data-name="Group 3108" transform="translate(24.827 25.19)">
                        <g id="Group_3107" data-name="Group 3107">
                            <g id="Group_3106" data-name="Group 3106">
                                <g id="Group_3105" data-name="Group 3105">
                                    <g id="Group_3104" data-name="Group 3104">
                                        <path id="Rectangle_1668" d="M4.76 0a4.76 4.76 0 0 1 4.76 4.76v2.668a4.76 4.76 0 0 1-4.76 4.76A4.76 4.76 0 0 1 0 7.428V4.76A4.76 4.76 0 0 1 4.76 0z" class="cls-5" data-name="Rectangle 1668" transform="rotate(-180 4.76 6.094)"/>
                                    </g>
                                </g>
                            </g>
                        </g>
                    </g>
                    <g id="Group_3113" data-name="Group 3113" transform="translate(20.767 20.702)">
                        <g id="Group_3112" data-name="Group 3112">
                            <g id="Group_3111" data-name="Group 3111">
                                <g id="Group_3110" data-name="Group 3110">
                                    <g id="Group_3109" data-name="Group 3109">
                                        <path id="Path_1253" d="M596.823 396.665a5.44 5.44 0 0 0 7.383-1.954 5.3 5.3 0 0 0-1.978-7.293 5.441 5.441 0 0 0-7.384 1.954 5.3 5.3 0 0 0 1.979 7.293z" class="cls-6" data-name="Path 1253" transform="translate(-594.12 -386.702)"/>
                                    </g>
                                </g>
                            </g>
                        </g>
                    </g>
                    <g id="Group_3118" data-name="Group 3118" transform="translate(18.676 14.331)">
                        <g id="Group_3117" data-name="Group 3117">
                            <g id="Group_3116" data-name="Group 3116">
                                <g id="Group_3115" data-name="Group 3115">
                                    <g id="Group_3114" data-name="Group 3114">
                                        <path id="Path_1254" d="M589.339 372.129v4.961a3.056 3.056 0 0 0 3.075 3.038 3.057 3.057 0 0 0 3.075-3.038v-4.753z" class="cls-5" data-name="Path 1254" transform="translate(-589.339 -372.129)"/>
                                    </g>
                                </g>
                            </g>
                        </g>
                    </g>
                </g>
            </g>
        </g>
        <g id="Group_3122" data-name="Group 3122" transform="translate(228.075 211.866)">
            <path id="Path_1255" d="M317.392 281.989h-1.428a.209.209 0 0 1-.188-.1l-.871-1.354-.881 1.354a.21.21 0 0 1-.189.1h-1.428c-.126 0-.178-.083-.1-.189l1.689-2.445-1.605-2.319c-.073-.1-.021-.189.1-.189h1.427a.211.211 0 0 1 .189.1l.8 1.218.787-1.218a.21.21 0 0 1 .189-.1h1.427c.126 0 .179.084.105.189l-1.606 2.319 1.691 2.445c.07.106.018.189-.108.189z" class="cls-8" data-name="Path 1255" transform="translate(-312.268 -276.847)"/>
            <path id="Path_1256" d="M331.5 281.989h-1.427a.209.209 0 0 1-.189-.1l-.871-1.354-.882 1.354a.21.21 0 0 1-.189.1h-1.427c-.126 0-.178-.083-.1-.189l1.689-2.445-1.605-2.319c-.073-.1-.021-.189.1-.189h1.427a.211.211 0 0 1 .189.1l.8 1.218.787-1.218a.211.211 0 0 1 .189-.1h1.428c.126 0 .178.084.1.189l-1.606 2.319 1.689 2.445c.08.106.027.189-.102.189z" class="cls-8" data-name="Path 1256" transform="translate(-320.21 -276.847)"/>
            <path id="Path_1257" d="M345.615 281.989h-1.427a.209.209 0 0 1-.189-.1l-.871-1.354-.882 1.354a.209.209 0 0 1-.188.1h-1.427c-.126 0-.178-.083-.1-.189l1.689-2.445-1.605-2.319c-.073-.1-.021-.189.1-.189h1.427a.211.211 0 0 1 .189.1l.8 1.218.787-1.218a.21.21 0 0 1 .188-.1h1.428c.126 0 .178.084.1.189l-1.606 2.319 1.69 2.445c.076.106.024.189-.103.189z" class="cls-8" data-name="Path 1257" transform="translate(-328.152 -276.847)"/>
            <path id="Path_1258" d="M357.578 280.7v.955a.148.148 0 0 1-.157.157h-3.159a.149.149 0 0 1-.157-.157v-.955a.149.149 0 0 1 .157-.157h3.159a.148.148 0 0 1 .157.157z" class="cls-8" data-name="Path 1258" transform="translate(-335.813 -278.928)"/>
            <path id="Path_1259" d="M368.151 281.989h-1.428a.21.21 0 0 1-.189-.1l-.871-1.354-.881 1.354a.211.211 0 0 1-.189.1h-1.428c-.126 0-.178-.083-.1-.189l1.689-2.445-1.605-2.319c-.073-.1-.021-.189.105-.189h1.427a.211.211 0 0 1 .189.1l.8 1.218.787-1.218a.211.211 0 0 1 .189-.1h1.427c.126 0 .178.084.1.189l-1.605 2.319 1.69 2.445c.071.106.019.189-.107.189z" class="cls-8" data-name="Path 1259" transform="translate(-340.835 -276.847)"/>
            <path id="Path_1260" d="M382.262 281.989h-1.427a.209.209 0 0 1-.188-.1l-.871-1.354-.881 1.354a.21.21 0 0 1-.189.1h-1.427c-.126 0-.179-.083-.105-.189l1.69-2.445-1.605-2.319c-.073-.1-.021-.189.1-.189h1.427a.211.211 0 0 1 .189.1l.8 1.218.787-1.218a.211.211 0 0 1 .189-.1h1.428c.126 0 .178.084.1.189l-1.606 2.319 1.69 2.445c.077.106.025.189-.101.189z" class="cls-8" data-name="Path 1260" transform="translate(-348.776 -276.847)"/>
            <path id="Path_1261" d="M396.374 281.989h-1.427a.209.209 0 0 1-.189-.1l-.871-1.354-.882 1.354a.209.209 0 0 1-.188.1h-1.427c-.126 0-.178-.083-.1-.189l1.689-2.445-1.605-2.319c-.073-.1-.021-.189.1-.189h1.426a.212.212 0 0 1 .189.1l.8 1.218.787-1.218a.21.21 0 0 1 .188-.1h1.427c.126 0 .178.084.1.189l-1.606 2.319 1.69 2.445c.078.106.025.189-.101.189z" class="cls-8" data-name="Path 1261" transform="translate(-356.719 -276.847)"/>
            <path id="Path_1262" d="M410.486 281.989h-1.427a.21.21 0 0 1-.189-.1l-.87-1.358-.881 1.354a.211.211 0 0 1-.189.1h-1.43c-.126 0-.178-.083-.1-.189l1.689-2.445-1.605-2.319c-.073-.1-.021-.189.105-.189h1.427a.211.211 0 0 1 .189.1l.8 1.218.787-1.218a.211.211 0 0 1 .189-.1h1.419c.126 0 .178.084.1.189l-1.605 2.319 1.689 2.445c.08.11.028.193-.098.193z" class="cls-8" data-name="Path 1262" transform="translate(-364.66 -276.847)"/>
            <path id="Path_1263" d="M422.448 280.7v.955a.148.148 0 0 1-.157.157h-3.159a.149.149 0 0 1-.157-.157v-.955a.149.149 0 0 1 .157-.157h3.159a.148.148 0 0 1 .157.157z" class="cls-8" data-name="Path 1263" transform="translate(-372.321 -278.928)"/>
            <path id="Path_1264" d="M433.021 281.989h-1.428a.21.21 0 0 1-.189-.1l-.871-1.354-.881 1.354a.21.21 0 0 1-.189.1h-1.428c-.126 0-.178-.083-.1-.189l1.689-2.445-1.605-2.319c-.073-.1-.021-.189.1-.189h1.427a.211.211 0 0 1 .189.1l.8 1.218.787-1.218a.211.211 0 0 1 .189-.1h1.427c.126 0 .179.084.105.189l-1.606 2.319 1.689 2.445c.074.106.021.189-.105.189z" class="cls-8" data-name="Path 1264" transform="translate(-377.342 -276.847)"/>
            <path id="Path_1265" d="M447.133 281.989h-1.428a.209.209 0 0 1-.188-.1l-.871-1.354-.882 1.354a.21.21 0 0 1-.189.1h-1.427c-.126 0-.179-.083-.105-.189l1.69-2.445-1.605-2.319c-.073-.1-.021-.189.1-.189h1.427a.21.21 0 0 1 .189.1l.8 1.218.787-1.218a.211.211 0 0 1 .189-.1h1.427c.126 0 .178.084.1.189l-1.606 2.319 1.69 2.445c.08.106.028.189-.098.189z" class="cls-8" data-name="Path 1265" transform="translate(-385.285 -276.847)"/>
            <path id="Path_1266" d="M461.244 281.989h-1.427a.209.209 0 0 1-.189-.1l-.871-1.354-.882 1.354a.209.209 0 0 1-.188.1h-1.427c-.126 0-.178-.083-.1-.189l1.689-2.445-1.605-2.319c-.073-.1-.021-.189.1-.189h1.427a.211.211 0 0 1 .189.1l.8 1.218.787-1.218a.21.21 0 0 1 .188-.1h1.427c.126 0 .178.084.1.189l-1.606 2.319 1.69 2.445c.077.106.024.189-.102.189z" class="cls-8" data-name="Path 1266" transform="translate(-393.227 -276.847)"/>
            <path id="Path_1267" d="M475.356 281.989h-1.428a.21.21 0 0 1-.189-.1l-.871-1.354-.881 1.354a.21.21 0 0 1-.189.1h-1.428c-.126 0-.178-.083-.1-.189l1.689-2.445-1.605-2.319c-.073-.1-.021-.189.105-.189h1.427a.211.211 0 0 1 .189.1l.8 1.218.787-1.218a.21.21 0 0 1 .189-.1h1.427c.126 0 .179.084.105.189l-1.606 2.319 1.69 2.445c.067.106.015.189-.111.189z" class="cls-8" data-name="Path 1267" transform="translate(-401.168 -276.847)"/>
            <path id="Path_1268" d="M489.468 281.989h-1.428a.209.209 0 0 1-.188-.1l-.871-1.354-.882 1.354a.21.21 0 0 1-.189.1h-1.427c-.126 0-.179-.083-.105-.189l1.69-2.445-1.605-2.319c-.073-.1-.021-.189.1-.189h1.427a.211.211 0 0 1 .189.1l.8 1.218.787-1.218a.211.211 0 0 1 .189-.1h1.428c.126 0 .178.084.1.189l-1.606 2.319 1.689 2.445c.08.106.028.189-.098.189z" class="cls-8" data-name="Path 1268" transform="translate(-409.11 -276.847)"/>
            <path id="Path_1269" d="M503.579 281.989h-1.427a.209.209 0 0 1-.189-.1l-.871-1.354-.882 1.354a.209.209 0 0 1-.188.1h-1.427c-.126 0-.178-.083-.1-.189l1.689-2.445-1.605-2.319c-.073-.1-.021-.189.1-.189h1.427a.211.211 0 0 1 .189.1l.8 1.218.787-1.218a.21.21 0 0 1 .188-.1h1.43c.126 0 .178.084.1.189l-1.606 2.319 1.69 2.445c.074.106.021.189-.105.189z" class="cls-8" data-name="Path 1269" transform="translate(-417.052 -276.847)"/>
            <path id="Path_1270" d="M517.692 281.989h-1.428a.21.21 0 0 1-.189-.1l-.871-1.354-.881 1.354a.211.211 0 0 1-.189.1h-1.427c-.126 0-.178-.083-.1-.189l1.689-2.445-1.605-2.319c-.073-.1-.021-.189.105-.189h1.427a.211.211 0 0 1 .189.1l.8 1.218.787-1.218a.21.21 0 0 1 .189-.1h1.427c.126 0 .178.084.1.189l-1.605 2.319 1.69 2.445c.07.106.018.189-.108.189z" class="cls-8" data-name="Path 1270" transform="translate(-424.994 -276.847)"/>
            <path id="Path_1271" d="M529.655 280.7v.955a.149.149 0 0 1-.158.157h-3.158a.149.149 0 0 1-.157-.157v-.955a.149.149 0 0 1 .157-.157h3.161a.149.149 0 0 1 .155.157z" class="cls-8" data-name="Path 1271" transform="translate(-432.655 -278.928)"/>
            <path id="Path_1272" d="M540.227 281.989H538.8a.209.209 0 0 1-.188-.1l-.871-1.354-.881 1.354a.21.21 0 0 1-.189.1h-1.428c-.126 0-.178-.083-.1-.189l1.689-2.445-1.6-2.319c-.073-.1-.021-.189.1-.189h1.427a.211.211 0 0 1 .189.1l.8 1.218.787-1.218a.211.211 0 0 1 .189-.1h1.427c.126 0 .179.084.105.189l-1.606 2.319 1.69 2.445c.065.106.013.189-.113.189z" class="cls-8" data-name="Path 1272" transform="translate(-437.676 -276.847)"/>
        </g>
        <g id="Group_3124" data-name="Group 3124" transform="translate(256.1 196.622)">
            <g id="Group_3123" data-name="Group 3123">
                <path id="Path_1273" d="M376.509 242.643h1.029a.136.136 0 0 1 .144.144v6.445a.136.136 0 0 1-.144.144h-1.029a.136.136 0 0 1-.144-.144v-6.445a.136.136 0 0 1 .144-.144z" class="cls-8" data-name="Path 1273" transform="translate(-376.365 -242.354)"/>
                <path id="Path_1274" d="M387.919 246.01a3.236 3.236 0 0 1-3.531 3.367h-1.9a.136.136 0 0 1-.144-.144v-6.445a.136.136 0 0 1 .144-.144h1.9a3.236 3.236 0 0 1 3.531 3.366zm-1.337 0a1.977 1.977 0 0 0-2.193-2.2h-.722v4.406h.722a1.977 1.977 0 0 0 2.193-2.206z" class="cls-8" data-name="Path 1274" transform="translate(-379.733 -242.354)"/>
                <path id="Path_1275" d="M408.963 242.787v6.445a.136.136 0 0 1-.144.144h-1.183a.183.183 0 0 1-.173-.1l-2.588-4.569v4.521a.136.136 0 0 1-.144.144H403.7a.136.136 0 0 1-.144-.144v-6.445a.136.136 0 0 1 .144-.144h1.184a.182.182 0 0 1 .173.1l2.588 4.569v-4.521a.136.136 0 0 1 .144-.144h1.029a.136.136 0 0 1 .145.144z" class="cls-8" data-name="Path 1275" transform="translate(-391.668 -242.354)"/>
                <path id="Path_1276" d="M423.024 247.407v4.425a.136.136 0 0 1-.144.144h-.943a.141.141 0 0 1-.144-.144l-.039-.529a1.728 1.728 0 0 1-1.4.8 1.768 1.768 0 0 1-1.79-1.992v-2.7a.137.137 0 0 1 .144-.144h.982a.137.137 0 0 1 .144.144v2.472c0 .779.453 1.048.9 1.048a1 1 0 0 0 1.02-.914v-2.607a.137.137 0 0 1 .144-.144h.981a.137.137 0 0 1 .145.141z" class="cls-8" data-name="Path 1276" transform="translate(-400.112 -244.954)"/>
                <path id="Path_1277" d="M438.946 249.013v2.687a.136.136 0 0 1-.145.144h-.981a.136.136 0 0 1-.144-.144v-2.453c0-.779-.423-1.048-.875-1.048a.993.993 0 0 0-1.039.9v2.6a.136.136 0 0 1-.144.144h-.981a.136.136 0 0 1-.144-.144v-2.453c0-.779-.423-1.048-.885-1.048a1.1 1.1 0 0 0-1.039.923v2.579a.136.136 0 0 1-.144.144h-.982a.136.136 0 0 1-.144-.144v-4.425a.137.137 0 0 1 .144-.144h.943a.142.142 0 0 1 .144.144l.038.616v.01a1.719 1.719 0 0 1 1.491-.875 1.588 1.588 0 0 1 1.453.875 1.923 1.923 0 0 1 1.664-.875 1.769 1.769 0 0 1 1.77 1.987z" class="cls-8" data-name="Path 1277" transform="translate(-407.28 -244.818)"/>
                <path id="Path_1278" d="M456.215 246.658a2.307 2.307 0 0 1-2.289 2.415 1.74 1.74 0 0 1-1.424-.673l-.058.462a.141.141 0 0 1-.144.144h-.837a.136.136 0 0 1-.144-.144v-6.734a.137.137 0 0 1 .144-.145h.981a.137.137 0 0 1 .144.145v2.672a1.711 1.711 0 0 1 1.337-.606 2.332 2.332 0 0 1 2.29 2.464zm-1.222-.01a1.212 1.212 0 0 0-1.212-1.3 1.227 1.227 0 0 0-1.2 1.3 1.209 1.209 0 1 0 2.415 0z" class="cls-8" data-name="Path 1278" transform="translate(-418.548 -241.982)"/>
                <path id="Path_1279" d="M468.558 249.939h-3.021a1.235 1.235 0 0 0 1.347.952 1.619 1.619 0 0 0 1-.327c.087-.058.144-.058.212.01l.423.413c.067.068.067.135-.009.212a2.458 2.458 0 0 1-1.751.721 2.4 2.4 0 0 1-2.482-2.444 2.364 2.364 0 0 1 2.376-2.434 2.227 2.227 0 0 1 2.242 2.328c-.001.376-.049.569-.337.569zm-3.04-.828h2.251a1.079 1.079 0 0 0-1.106-.981 1.115 1.115 0 0 0-1.145.981z" class="cls-8" data-name="Path 1279" transform="translate(-425.841 -244.83)"/>
                <path id="Path_1280" d="M480.183 247.435l-.289.712a.151.151 0 0 1-.212.1 1.218 1.218 0 0 0-.394-.067.96.96 0 0 0-.981 1.02v2.5a.136.136 0 0 1-.144.144h-.981a.136.136 0 0 1-.144-.144v-4.425a.136.136 0 0 1 .144-.144h.933a.142.142 0 0 1 .144.144l.038.52a1.336 1.336 0 0 1 1.2-.77 1 1 0 0 1 .635.221.145.145 0 0 1 .051.189z" class="cls-8" data-name="Path 1280" transform="translate(-433.022 -244.818)"/>
            </g>
        </g>
        <g id="Group_3141" data-name="Group 3141" transform="translate(182.044 252.692)">
            <g id="Group_3128" data-name="Group 3128">
                <g id="Group_3127" data-name="Group 3127">
                    <g id="Group_3126" data-name="Group 3126">
                        <g id="Group_3125" data-name="Group 3125">
                            <path id="Rectangle_1670" d="M0 0h34.353v5.024H0z" class="cls-8" data-name="Rectangle 1670"/>
                        </g>
                    </g>
                </g>
            </g>
            <g id="Group_3132" data-name="Group 3132" transform="translate(0 9.672)">
                <g id="Group_3131" data-name="Group 3131">
                    <g id="Group_3130" data-name="Group 3130">
                        <g id="Group_3129" data-name="Group 3129">
                            <path id="Rectangle_1671" d="M0 0h67.937v4.431H0z" class="cls-8" data-name="Rectangle 1671"/>
                        </g>
                    </g>
                </g>
            </g>
            <g id="Group_3136" data-name="Group 3136" transform="translate(0 19.047)">
                <g id="Group_3135" data-name="Group 3135">
                    <g id="Group_3134" data-name="Group 3134">
                        <g id="Group_3133" data-name="Group 3133">
                            <path id="Rectangle_1672" d="M0 0h67.937v4.43H0z" class="cls-8" data-name="Rectangle 1672"/>
                        </g>
                    </g>
                </g>
            </g>
            <g id="Group_3140" data-name="Group 3140" transform="translate(0 28.421)">
                <g id="Group_3139" data-name="Group 3139">
                    <g id="Group_3138" data-name="Group 3138">
                        <g id="Group_3137" data-name="Group 3137">
                            <path id="Rectangle_1673" d="M0 0h67.937v4.431H0z" class="cls-8" data-name="Rectangle 1673"/>
                        </g>
                    </g>
                </g>
            </g>
        </g>
        <g id="Group_3142" data-name="Group 3142" transform="translate(182.044 174.216)">
            <path id="Rectangle_1674" d="M0 0h59.461v3.781H0z" class="cls-8" data-name="Rectangle 1674"/>
            <path id="Rectangle_1675" d="M0 0h59.461v3.781H0z" class="cls-8" data-name="Rectangle 1675" transform="translate(0 6.931)"/>
        </g>
        <g id="Group_3143" data-name="Group 3143" transform="translate(314.073 174.216)">
            <path id="Rectangle_1676" d="M0 0h59.461v3.781H0z" class="cls-8" data-name="Rectangle 1676"/>
            <path id="Rectangle_1677" d="M0 0h59.461v3.781H0z" class="cls-8" data-name="Rectangle 1677" transform="translate(0 6.931)"/>
        </g>
        <path id="Path_1281" d="M206.984 284.369A16.349 16.349 0 1 1 223.31 300.7a16.325 16.325 0 0 1-16.326-16.331zm25.532 0a9.187 9.187 0 1 0-9.206 9.433 9.163 9.163 0 0 0 9.206-9.433z" class="cls-9" data-name="Path 1281" transform="translate(-24.94 -60.001)"/>
    </g>
</svg>
