<svg xmlns="http://www.w3.org/2000/svg" width="33" height="33" viewBox="0 0 33 33">
    <defs>
        <style>
            .cls-1{fill:#3ebbd2}
        </style>
    </defs>
    <g id="Group_6195" transform="translate(-537.001 -55.542)">
        <g id="Group_6189" transform="translate(537.001 55.542)">
            <g id="Group_6188">
                <path id="Path_4310" d="M553.5 57.85a14.193 14.193 0 1 1-14.193 14.193A14.208 14.208 0 0 1 553.5 57.85m0-2.308a16.5 16.5 0 1 0 16.5 16.5 16.5 16.5 0 0 0-16.5-16.5z" class="cls-1" transform="translate(-537.001 -55.542)"/>
            </g>
        </g>
        <g id="Group_6194" transform="translate(543.305 67.104)">
            <g id="Group_6191" transform="translate(0 0.02)">
                <g id="Group_6190">
                    <path id="Path_4311" d="M559.311 86.489h-6.1a2.5 2.5 0 0 0 2.722 1.924 3.274 3.274 0 0 0 2.022-.661c.175-.117.291-.117.427.019l.856.836c.136.136.136.272-.02.427a4.965 4.965 0 0 1-3.538 1.458 4.844 4.844 0 0 1-5.016-4.938 4.778 4.778 0 0 1 4.8-4.919 4.5 4.5 0 0 1 4.53 4.7c-.002.765-.099 1.154-.683 1.154zm-6.143-1.672h4.549a2.18 2.18 0 0 0-2.236-1.983 2.252 2.252 0 0 0-2.313 1.983z" class="cls-1" transform="translate(-550.66 -80.637)"/>
                </g>
            </g>
            <g id="Group_6193" transform="translate(11.372 0)">
                <g id="Group_6192">
                    <path id="Path_4312" d="M584.323 84.619v5.424a.276.276 0 0 1-.292.292h-1.983a.276.276 0 0 1-.292-.292v-4.958c0-1.575-.856-2.119-1.789-2.119a2.212 2.212 0 0 0-2.1 1.866v5.21a.276.276 0 0 1-.292.292h-1.983a.275.275 0 0 1-.292-.292V81.1a.275.275 0 0 1 .292-.292h1.908a.286.286 0 0 1 .292.292l.078 1.244v.019a3.474 3.474 0 0 1 3.013-1.769c1.943 0 3.44 1.478 3.44 4.025z" class="cls-1" transform="translate(-575.302 -80.594)"/>
                </g>
            </g>
        </g>
    </g>
</svg>
