<svg xmlns="http://www.w3.org/2000/svg" width="30" height="30" viewBox="0 0 30 30">
    <g fill="none">
        <path d="M15 0A15 15 0 1 1 0 15 15 15 0 0 1 15 0z" transform="rotate(180 15 15)"/>
        <path fill="#3ebbd2" d="M15 2c-3.472 0-6.737 1.352-9.192 3.808C3.352 8.263 2 11.528 2 15c0 3.472 1.352 6.737 3.808 9.192C8.263 26.648 11.528 28 15 28c3.472 0 6.737-1.352 9.192-3.808C26.648 21.737 28 18.472 28 15c0-3.472-1.352-6.737-3.808-9.192C21.737 3.352 18.472 2 15 2m0-2c8.284 0 15 6.716 15 15 0 8.284-6.716 15-15 15-8.284 0-15-6.716-15-15C0 6.716 6.716 0 15 0z" transform="rotate(180 15 15)"/>
    </g>
    <path fill="rgba(0,0,0,0)" stroke="#3ebbd2" stroke-linecap="round" stroke-linejoin="round" stroke-width="2px" d="M0 11.573l7.85-5.787L0 0" transform="rotate(180 9.029 10.393)"/>
</svg>
