<svg xmlns="http://www.w3.org/2000/svg" id="Layer_2" width="76.906" height="63.081" data-name="Layer 2" viewBox="0 0 76.906 63.081">
    <defs>
        <style>
            .cls-1{fill:none}.cls-2{fill:#575756}.cls-3{fill:#ff5f00}.cls-4{fill:#eb001b}.cls-5{fill:#f79e1b}
        </style>
    </defs>
    <g id="Layer_1" data-name="Layer 1">
        <path id="Rectangle_1404" d="M0 0h76.906v63.081H0z" class="cls-1" data-name="Rectangle 1404"/>
        <path id="Path_886" d="M29.132 98.88v-3.143a1.865 1.865 0 0 0-1.97-1.991 1.938 1.938 0 0 0-1.76.891 1.839 1.839 0 0 0-1.655-.891 1.656 1.656 0 0 0-1.467.744v-.618h-1.09v5.008h1.1v-2.756a1.173 1.173 0 0 1 1.226-1.331c.723 0 1.09.471 1.09 1.32V98.9h1.1v-2.776a1.179 1.179 0 0 1 1.226-1.331c.744 0 1.1.471 1.1 1.32V98.9zm16.277-5.008h-1.791v-1.52h-1.1v1.519h-1v1h1.016v2.305c0 1.163.451 1.855 1.739 1.855a2.557 2.557 0 0 0 1.362-.388l-.314-.933a2.012 2.012 0 0 1-.964.283c-.524 0-.723-.335-.723-.838v-2.288h1.786zm9.294-.126a1.477 1.477 0 0 0-1.32.733v-.608H52.3v5.009h1.09v-2.808c0-.828.356-1.289 1.048-1.289a1.776 1.776 0 0 1 .681.126l.335-1.048a2.331 2.331 0 0 0-.775-.136zm-14.051.524a3.746 3.746 0 0 0-2.043-.524c-1.268 0-2.1.608-2.1 1.6 0 .817.608 1.32 1.729 1.477l.524.073c.6.084.88.241.88.524 0 .388-.4.608-1.142.608a2.667 2.667 0 0 1-1.666-.524l-.524.849a3.615 3.615 0 0 0 2.169.65c1.446 0 2.284-.681 2.284-1.635s-.66-1.341-1.75-1.5l-.524-.073c-.471-.063-.849-.157-.849-.492s.356-.587.953-.587a3.227 3.227 0 0 1 1.572.43zm29.186-.524a1.477 1.477 0 0 0-1.32.733v-.608h-1.079v5.009h1.09v-2.808c0-.828.356-1.289 1.048-1.289a1.776 1.776 0 0 1 .681.126l.335-1.048a2.331 2.331 0 0 0-.775-.136zM55.8 96.365a2.53 2.53 0 0 0 2.672 2.619 2.619 2.619 0 0 0 1.8-.6l-.524-.88a2.2 2.2 0 0 1-1.31.451 1.608 1.608 0 0 1 0-3.206 2.2 2.2 0 0 1 1.31.451l.524-.88a2.619 2.619 0 0 0-1.8-.6 2.53 2.53 0 0 0-2.672 2.624zm10.205 0v-2.493h-1.09v.608a1.9 1.9 0 0 0-1.572-.733 2.619 2.619 0 1 0 0 5.239 1.9 1.9 0 0 0 1.572-.733v.608H66zm-4.055 0a1.5 1.5 0 1 1 .409 1.134 1.514 1.514 0 0 1-.409-1.134zM48.8 93.746a2.62 2.62 0 1 0 .073 5.239 3.044 3.044 0 0 0 2.08-.681l-.524-.807a2.384 2.384 0 0 1-1.456.524 1.388 1.388 0 0 1-1.5-1.226h3.72v-.419a2.381 2.381 0 0 0-2.378-2.619zm0 .974a1.242 1.242 0 0 1 1.268 1.215h-2.621a1.289 1.289 0 0 1 1.331-1.215zm27.3 1.655V91.86h-1.049v2.619a1.9 1.9 0 0 0-1.572-.733 2.619 2.619 0 0 0 0 5.239 1.9 1.9 0 0 0 1.572-.733v.608H76.1zm1.818 1.776a.5.5 0 0 1 .472.3.487.487 0 0 1 0 .388.5.5 0 0 1-.272.262.492.492 0 0 1-.2.042.524.524 0 0 1-.471-.3.492.492 0 0 1 0-.388.508.508 0 0 1 .487-.3zm0 .885a.372.372 0 0 0 .152-.031.393.393 0 0 0 .12-.084.377.377 0 0 0-.12-.608.378.378 0 0 0-.152-.031.394.394 0 0 0-.152.031.382.382 0 0 0-.126.084.38.38 0 0 0 .293.639zm.031-.623a.21.21 0 0 1 .136.042.131.131 0 0 1 .047.11.126.126 0 0 1-.037.094.183.183 0 0 1-.11.047l.152.173h-.12l-.141-.173h-.047v.173h-.1v-.461zm-.115.089v.126h.115a.11.11 0 0 0 .063 0 291.456 291.456 0 0 1 0-.094.11.11 0 0 0-.063 0zm-5.764-2.126a1.5 1.5 0 1 1 .409 1.134 1.514 1.514 0 0 1-.409-1.134zm-36.793 0v-2.5h-1.09v.608a1.9 1.9 0 0 0-1.572-.733 2.619 2.619 0 0 0 0 5.239 1.9 1.9 0 0 0 1.572-.733v.608h1.09zm-4.055 0a.642.642 0 1 1-.01 0z" class="cls-2" data-name="Path 886" transform="translate(-10.089 -43.736)"/>
        <g id="_Group_" data-name="&lt;Group&gt;" transform="translate(7.94 7.937)">
            <path id="Rectangle_1405" d="M0 0h16.502v29.657H0z" class="cls-3" data-name="Rectangle 1405" transform="translate(22.262 4.034)"/>
            <path id="_Path_" d="M38.465 34.017a18.828 18.828 0 0 1 7.2-14.831 18.86 18.86 0 1 0 0 29.657 18.828 18.828 0 0 1-7.2-14.826z" class="cls-4" data-name="&lt;Path&gt;" transform="translate(-15.155 -15.152)"/>
            <path id="Path_887" d="M103.916 34.015A18.86 18.86 0 0 1 73.4 48.841a18.86 18.86 0 0 0 0-29.657 18.86 18.86 0 0 1 30.516 14.826z" class="cls-5" data-name="Path 887" transform="translate(-42.886 -15.151)"/>
            <path id="Path_888" d="M127.867 72.793v-.608h.246v-.125h-.623v.126h.267v.608zm1.21 0v-.733h-.189l-.22.524-.22-.524h-.168v.733h.136v-.55l.2.477h.141l.2-.477v.557z" class="cls-5" data-name="Path 888" transform="translate(-68.639 -42.246)"/>
        </g>
    </g>
</svg>
