<svg xmlns="http://www.w3.org/2000/svg" width="136.603" height="32.854" viewBox="0 0 136.603 32.854">
    <defs>
        <style>
            .cls-1{fill:#3ebbd2}
        </style>
    </defs>
    <g id="Group_6521" transform="translate(-119 -54)">
        <g id="Group_6520">
            <g id="Group_6519">
                <g id="Group_5355" transform="translate(-233.689 -104.4)">
                    <path id="Path_2976" d="M688.8 176.9h-4.615a.567.567 0 0 0-.577.577v2.006a5.639 5.639 0 0 0-4.92-2.581c-5.269 0-9.117 4.235-9.117 9.734 0 5.384 3.846 9.487 9.115 9.487a5.608 5.608 0 0 0 4.922-2.3v1.719a.566.566 0 0 0 .577.577h4.615a.545.545 0 0 0 .577-.577v-18.07a.545.545 0 0 0-.577-.572zm-9.422 14.12a4.183 4.183 0 0 1-4.269-4.423 4.259 4.259 0 1 1 8.5 0 4.131 4.131 0 0 1-4.231 4.418z" class="cls-1" transform="translate(-222.206 -12.969)"/>
                    <path id="Path_2977" d="M363.382 176.9a5.6 5.6 0 0 0-4.91 2.549v-1.972a.566.566 0 0 0-.577-.577h-4.628a.546.546 0 0 0-.577.577v26.173a.545.545 0 0 0 .577.577h4.616a.545.545 0 0 0 .577-.577v-9.357a6.509 6.509 0 0 0 4.923 1.828c5.268 0 9.114-4.136 9.114-9.52.003-5.501-3.847-9.701-9.115-9.701zm-.693 14.086a4.131 4.131 0 0 1-4.23-4.423 4.259 4.259 0 1 1 8.5 0 4.182 4.182 0 0 1-4.27 4.424z" class="cls-1" transform="translate(0 -12.973)"/>
                    <path id="Path_2978" d="M608.4 176.9a5.6 5.6 0 0 0-4.91 2.549v-1.972a.566.566 0 0 0-.577-.577h-4.633a.546.546 0 0 0-.577.577v26.173a.545.545 0 0 0 .577.577h4.62a.545.545 0 0 0 .577-.577v-9.357a6.508 6.508 0 0 0 4.923 1.828c5.269 0 9.114-4.136 9.114-9.52-.004-5.501-3.85-9.701-9.114-9.701zm-.692 14.086a4.131 4.131 0 0 1-4.23-4.423 4.259 4.259 0 1 1 8.5 0 4.182 4.182 0 0 1-4.278 4.424z" class="cls-1" transform="translate(-171.81 -12.973)"/>
                    <path id="Path_2979" d="M434.364 176.9a9.613 9.613 0 1 0 9.845 9.663 9.629 9.629 0 0 0-9.845-9.663zm0 14.124a4.486 4.486 0 1 1 4.268-4.461 4.3 4.3 0 0 1-4.268 4.462z" class="cls-1" transform="translate(-50.396 -12.973)"/>
                    <path id="Path_2980" d="M502.079 182.6c0-.654.538-1.308 1.692-1.308s1.961.461 3.423 1.308c.346.23.615.346.846.038l1.731-2.268a.593.593 0 0 0 .039-.808 8.526 8.526 0 0 0-6.622-2.664c-3.384 0-6.647 1.933-6.647 5.74 0 6.345 8.692 5.153 8.692 7.691 0 1.039-1.117 1.231-2 1.231a8.81 8.81 0 0 1-4.461-1.577c-.346-.192-.653-.269-.884 0l-1.691 2.462a.583.583 0 0 0 0 .769 9.579 9.579 0 0 0 7.229 2.9c3.5 0 7.422-1.867 7.422-5.713-.001-6.952-8.769-5.144-8.769-7.801z" class="cls-1" transform="translate(-100.528 -12.973)"/>
                    <path id="Path_2981" d="M560.863 163.928h-3.077v-4.951a.545.545 0 0 0-.577-.577h-4.615a.545.545 0 0 0-.577.577v4.951h-3.076a.545.545 0 0 0-.577.577V168a.545.545 0 0 0 .577.577h3.076v13.991a.545.545 0 0 0 .577.577h4.615a.545.545 0 0 0 .577-.577v-13.987h3.077a.545.545 0 0 0 .577-.577v-3.5a.546.546 0 0 0-.577-.576z" class="cls-1" transform="translate(-137.212)"/>
                    <path id="Path_2982" d="M761.375 176.9h-4.73a.7.7 0 0 0-.692.462l-4.325 11.856-4.334-11.856a.7.7 0 0 0-.692-.462h-4.653c-.423 0-.615.231-.463.654l7.413 18.567-3.168 7.452c-.23.422.039.653.462.653h4.5a.7.7 0 0 0 .693-.462l10.451-26.211c.154-.421-.037-.653-.462-.653z" class="cls-1" transform="translate(-272.598 -12.973)"/>
                </g>
            </g>
        </g>
    </g>
</svg>
