<svg xmlns="http://www.w3.org/2000/svg" width="1210.832" height="1210.824" viewBox="0 0 1210.832 1210.824">
    <defs>
        <style>
            .cls-1{opacity:.1}.cls-2{fill:#8abbd5}
        </style>
    </defs>
    <g id="Group_1355" class="cls-1" data-name="Group 1355" transform="translate(-53.853 -177.614)">
        <path id="Path_659" d="M53.853 783.839c0-337.531 272.041-606.225 604.564-606.225 334.188 0 606.268 268.695 606.268 606.225 0 335.885-272.08 604.6-606.268 604.6-332.523-.001-604.564-268.715-604.564-604.6zm945.468 0c0-199.831-147.769-350.951-340.9-350.951-191.466 0-339.25 151.12-339.25 350.951 0 196.551 147.785 349.348 339.25 349.348 193.13 0 340.9-152.797 340.9-349.348z" class="cls-2" data-name="Path 659"/>
        <path id="Path_660" d="M216.521 433.563c165.415 11.468 292.541 135.252 312.8 302.747h266.488c-23.355-306.67-272.327-545.968-579.288-558.443z" class="cls-2" data-name="Path 660" transform="translate(467.357 .727)"/>
    </g>
</svg>
