<svg xmlns="http://www.w3.org/2000/svg" width="136.603" height="32.532" viewBox="0 0 136.603 32.532">
    <defs>
        <style>
            .cls-1{fill:#3ebbd2}
        </style>
    </defs>
    <g id="Group_6196" transform="translate(-1504.782 -328.149)">
        <path id="Path_4313" d="M1731.029 349.3h-4.234a.61.61 0 0 0-.613.609v9.615a2.138 2.138 0 0 1-1.654 2.12 2.09 2.09 0 0 1-2.518-2.042v-9.7a.607.607 0 0 0-.607-.607h-4.234a.606.606 0 0 0-.606.607v9.7a2.086 2.086 0 0 1-2.18 2.084 2.177 2.177 0 0 1-1.993-2.22v-9.581a.584.584 0 0 0-.586-.586h-4.276a.584.584 0 0 0-.586.586v9.59a2.73 2.73 0 0 1-2.413 2.762 2.649 2.649 0 0 1-2.886-2.636v-9.716a.584.584 0 0 0-.586-.586h-4.275a.584.584 0 0 0-.586.586v9.33a2.845 2.845 0 0 1-2.827 2.473s-8.416.006-8.461 0a2.847 2.847 0 0 1-2.717-2.846v-5.111a.609.609 0 0 0-.607-.607h-4.234a.609.609 0 0 0-.607.607v5.111c0 5.516 3.03 8.293 7.944 8.293h8.3a8.031 8.031 0 0 0 1.191-.09 7.506 7.506 0 0 0 4.055-2.04.019.019 0 0 1 .028 0 8.105 8.105 0 0 0 11.545.524.019.019 0 0 1 .025 0 7.518 7.518 0 0 0 9.44-.122.019.019 0 0 1 .025 0 7.537 7.537 0 0 0 12.337-5.805v-9.7a.606.606 0 0 0-.604-.602z" class="cls-1" transform="translate(-120.585 -14.832)"/>
        <path id="Path_4314" d="M1899.028 359.589V349.9a.587.587 0 0 0-.587-.587h-4.277a.587.587 0 0 0-.587.587v9.745a2.052 2.052 0 0 1-2.052 2.052h-2.325a.019.019 0 0 1-.019-.018v-3.541a8.644 8.644 0 0 0-8.083-8.714 8.479 8.479 0 0 0-8.9 8.473v.76a8.436 8.436 0 0 0 .457 2.744v.006a8.423 8.423 0 0 0 3.69 4.542 7.942 7.942 0 0 0 2.367.958 8.3 8.3 0 0 0 1.978.241h3.183l.024.029a3.827 3.827 0 0 1-6.754 1.689.585.585 0 0 0-.853-.074l-3.01 2.7a.589.589 0 0 0-.062.81 9.04 9.04 0 0 0 15.931-5.13l.025-.024h2.293a7.558 7.558 0 0 0 7.561-7.559zm-15.061 2.09a.02.02 0 0 1-.021.021h-3.257a3.277 3.277 0 0 1-3.271-3.277v-.29a3.277 3.277 0 0 1 3.947-3.209 3.377 3.377 0 0 1 2.6 3.355z" class="cls-1" transform="translate(-257.644 -14.84)"/>
        <circle id="Ellipse_111" cx="2.725" cy="2.725" r="2.725" class="cls-1" transform="translate(1635.936 355.23)"/>
        <circle id="Ellipse_112" cx="2.725" cy="2.725" r="2.725" class="cls-1" transform="translate(1569.681 328.149)"/>
        <circle id="Ellipse_113" cx="2.725" cy="2.725" r="2.725" class="cls-1" transform="translate(1562.734 328.149)"/>
        <path id="Path_4315" d="M1533.137 349.3h-7a7.621 7.621 0 0 0-5.627 2.473 7.559 7.559 0 0 0-1.468 2.356 7.47 7.47 0 0 0-.515 2.743v4.2a.613.613 0 0 1-.613.613h-4.807a2.88 2.88 0 0 1-2.88-2.88v-5.078a.608.608 0 0 0-.606-.607h-4.234a.608.608 0 0 0-.606.607v5.111c0 .084.006.161.006.245 0 4.844 2.736 8.049 7.587 8.049h10.994a.609.609 0 0 0 .607-.607v-8.195a2.922 2.922 0 0 1 2.6-2.953 2.824 2.824 0 0 1 1.7.4.022.022 0 0 1 .01.019v10.754a.589.589 0 0 0 .592.586h4.254a.608.608 0 0 0 .607-.607v-16.616a.613.613 0 0 0-.601-.613z" class="cls-1" transform="translate(0 -14.832)"/>
        <path id="Path_4316" d="M1628.553 344.77v-9.716a.583.583 0 0 0-.586-.586h-4.275a.584.584 0 0 0-.586.586v9.716a2.086 2.086 0 0 1-2.179 2.084 2.177 2.177 0 0 1-1.993-2.22v-15.9a.589.589 0 0 0-.592-.586h-4.269a.589.589 0 0 0-.592.586v16.036a7.536 7.536 0 0 0 15.073 0z" class="cls-1" transform="translate(-76.222 0)"/>
        <circle id="Ellipse_114" cx="2.725" cy="2.725" r="2.725" class="cls-1" transform="translate(1517.047 355.231)"/>
        <circle id="Ellipse_115" cx="2.725" cy="2.725" r="2.725" class="cls-1" transform="translate(1546.882 355.231)"/>
        <circle id="Ellipse_116" cx="2.725" cy="2.725" r="2.725" class="cls-1" transform="translate(1510.1 355.231)"/>
    </g>
</svg>
