<svg xmlns="http://www.w3.org/2000/svg" viewBox="0 0 587.25 242.3">
  <defs>
    <style>
      .cls-1 {
        fill: #748ac5;
      }

      .cls-2 {
        fill: #fdf9e7;
      }

      .cls-3 {
        fill: #56937f;
      }

      .cls-4 {
        fill: #75aecd;
      }

      .cls-5 {
        fill: #fff;
      }
    </style>
  </defs>
  <g id="Layer_2" data-name="Layer 2">
    <g id="Group_2419" data-name="Group 2419">
      <g id="Group_2406" data-name="Group 2406">
        <path id="Path_1024" data-name="Path 1024" class="cls-1" d="M400.48,226.91c-22.46-14.24-17.9-76.54-13.64-95.39,10.72-47.26,43.5-91,85.75-128.36C511.69,35.54,503.4,75.88,499,114.82c-4.27,37.37-21,71.29-56.48,100C422.92,230.58,409.52,232.63,400.48,226.91Z"/>
      </g>
      <g id="Group_2409" data-name="Group 2409">
        <g id="Group_2408" data-name="Group 2408">
          <g id="Group_2407" data-name="Group 2407">
            <path id="Path_1025" data-name="Path 1025" class="cls-2" d="M474.05,4.51q-2.58,9.3-5.17,18.62L456.14,69.06q-4.84,17.41-9.68,34.86c-.09.33-.18.67-.28,1l-.05.2-5.64,20.32c-9.5,34.26-19.36,69.69-31.05,104.36l0,.06-.66-.11-.63-.11c5.42-16,10.44-32.25,15.21-48.42.11-.37.22-.74.32-1.11,5.42-18.41,10.52-36.79,15.53-54.84l5.41-19.51.29-1a1.6,1.6,0,0,0,.05-.21q4.94-17.7,9.83-35.41c0-.08,0-.16.07-.25l.24-.89,12.5-45q2.63-9.51,5.26-19l.1-.38Z"/>
          </g>
        </g>
      </g>
      <g id="Group_2412" data-name="Group 2412">
        <g id="Group_2411" data-name="Group 2411">
          <g id="Group_2410" data-name="Group 2410">
            <path id="Path_1026" data-name="Path 1026" class="cls-2" d="M454.68,73.72c-5.54-5.93-9.81-10.63-15.36-16.56l-9.91-10.62-1,.9,9.92,10.62,15.32,16.52Z"/>
          </g>
        </g>
      </g>
      <g id="Group_2415" data-name="Group 2415">
        <g id="Group_2414" data-name="Group 2414">
          <g id="Group_2413" data-name="Group 2413">
            <path id="Path_1027" data-name="Path 1027" class="cls-2" d="M444.35,111.65l1.52-.88c18.48-10.75,37.6-21.15,56.85-30.9l-.6-1.17c-19.27,9.75-38.42,20.16-56.9,30.93l-1.53.88Z"/>
          </g>
        </g>
      </g>
      <g id="Group_2418" data-name="Group 2418">
        <g id="Group_2417" data-name="Group 2417">
          <g id="Group_2416" data-name="Group 2416">
            <path id="Path_1028" data-name="Path 1028" class="cls-2" d="M423.36,184.35l.94-.92c-13.51-13.83-26.85-28.2-39.65-42.69l-1,.87C396.48,156.12,409.83,170.5,423.36,184.35Z"/>
          </g>
        </g>
      </g>
    </g>
    <g id="Group_2433" data-name="Group 2433">
      <g id="Group_2420" data-name="Group 2420">
        <path id="Path_1029" data-name="Path 1029" class="cls-3" d="M394.4,220.19c-1.18-21.15,44.8-62.61,60.15-73.71,38.5-27.82,85.49-42.23,132.7-47.43C584,141.21,551.55,165.39,522,190.5c-28.34,24.09-60.47,39.58-98.22,42.06C403,233.93,394.88,228.7,394.4,220.19Z"/>
      </g>
      <g id="Group_2423" data-name="Group 2423">
        <g id="Group_2422" data-name="Group 2422">
          <g id="Group_2421" data-name="Group 2421">
            <path id="Path_1030" data-name="Path 1030" class="cls-2" d="M587.12,100.63l-15.64,10.51L532.9,137,503.63,156.7l-.85.57-.17.12-17.06,11.45c-28.78,19.33-58.55,39.3-88.7,57.82l-.05,0-.24-.41-.25-.38c14-8.57,27.82-17.45,41.56-26.44l.93-.61c15.63-10.24,31.07-20.6,46.23-30.78l16.39-11,.84-.56.18-.12,29.76-20,.2-.13.75-.51L571,110.36l15.94-10.71.32-.21Z"/>
          </g>
        </g>
      </g>
      <g id="Group_2426" data-name="Group 2426">
        <g id="Group_2425" data-name="Group 2425">
          <g id="Group_2424" data-name="Group 2424">
            <path id="Path_1031" data-name="Path 1031" class="cls-2" d="M532.17,136.69l.69.06.21.08,0-.07v-.09l.57-17.12.34-10.22-.92,0-.35,10.21-.57,17.09Z"/>
          </g>
        </g>
      </g>
      <g id="Group_2429" data-name="Group 2429">
        <g id="Group_2428" data-name="Group 2428">
          <g id="Group_2427" data-name="Group 2427">
            <path id="Path_1032" data-name="Path 1032" class="cls-2" d="M502.4,157.34c.4.1-.4-.12,0,0,14.53,3.84,29.21,8.18,43.62,12.9l.29-.88c-14.43-4.73-29.13-9.07-43.67-12.91h0Z"/>
          </g>
        </g>
      </g>
      <g id="Group_2432" data-name="Group 2432">
        <g id="Group_2431" data-name="Group 2431">
          <g id="Group_2430" data-name="Group 2430">
            <path id="Path_1033" data-name="Path 1033" class="cls-2" d="M437.86,199.49h.93c.16-13.6.67-27.37,1.51-41l-.93,0C438.53,172.08,438,185.88,437.86,199.49Z"/>
          </g>
        </g>
      </g>
    </g>
    <path id="Path_1034" data-name="Path 1034" class="cls-4" d="M0,238.94c16.92.79,33.85.71,50.78.67,78.27-.2,156.54-.09,234.81-.09,24.16,0,115.38,9.12,133.48-5.66,17-13.87,14.63-44.41,14.64-66.7,0-34.6.52-69.16-.06-103.75-.34-21-5.27-49.53-22.39-57.58C387.31-5.43,216,2.23,156.07,2.81q-26.19.24-52.4.61c-13.48.17-27-.11-40.46-.11-37.77,0-27.66,66.23-27.4,98.07.29,37.67,7.22,78-14.34,107.39C14.68,218,4.79,227.83,0,238.94Z"/>
    <g id="Group_3981" data-name="Group 3981">
      <g id="Group_2450" data-name="Group 2450">
        <g id="Group_2449" data-name="Group 2449">
          <g id="Group_2448" data-name="Group 2448">
            <g id="Group_2447" data-name="Group 2447">
              <rect id="Rectangle_1464" data-name="Rectangle 1464" class="cls-5" x="98.33" y="181.04" width="286.44" height="8.63"/>
            </g>
          </g>
        </g>
      </g>
      <g id="Group_3978" data-name="Group 3978">
        <g id="Group_2449-2" data-name="Group 2449-2">
          <g id="Group_2448-2" data-name="Group 2448-2">
            <g id="Group_2447-2" data-name="Group 2447-2">
              <rect id="Rectangle_1464-2" data-name="Rectangle 1464-2" class="cls-5" x="98.33" y="140.31" width="286.44" height="8.63"/>
            </g>
          </g>
        </g>
      </g>
      <g id="Group_3979" data-name="Group 3979">
        <g id="Group_2449-3" data-name="Group 2449-3">
          <g id="Group_2448-3" data-name="Group 2448-3">
            <g id="Group_2447-3" data-name="Group 2447-3">
              <rect id="Rectangle_1464-3" data-name="Rectangle 1464-3" class="cls-5" x="98.33" y="99.58" width="286.44" height="8.63"/>
            </g>
          </g>
        </g>
      </g>
      <g id="Group_3980" data-name="Group 3980">
        <g id="Group_2449-4" data-name="Group 2449-4">
          <g id="Group_2448-4" data-name="Group 2448-4">
            <g id="Group_2447-4" data-name="Group 2447-4">
              <rect id="Rectangle_1464-4" data-name="Rectangle 1464-4" class="cls-5" x="98.33" y="58.86" width="153.3" height="8.63"/>
            </g>
          </g>
        </g>
      </g>
    </g>
  </g>
</svg>
