<svg xmlns="http://www.w3.org/2000/svg" viewBox="0 0 106.25 126.49"><defs><style>.cls-1{fill:#fdf9ec;}.cls-2{fill:#262625;}.cls-3{fill:#f4dea2;}.cls-4{fill:#e9aed0;}.cls-5{fill:#8bbbd6;}.cls-6{fill:#fff;}</style></defs><title>Asset 2</title><g id="Layer_2" data-name="Layer 2"><g id="Layer_1-2" data-name="Layer 1"><rect class="cls-1" x="20.96" y="75.28" width="66.25" height="26.29"/><path class="cls-2" d="M58.76,24.64q.59,7.29,1.18,14.58a1.36,1.36,0,0,1,0,.64.88.88,0,0,1-.78.43,110.5,110.5,0,0,1-22.78.35q-.51-5.82-.55-11.68a44.73,44.73,0,0,1,1.44-13.41c2.19-7.23,8.43-12.8,14.68-8.86C57,9.88,58.24,18.24,58.76,24.64Z"/><path class="cls-2" d="M49.92,20.26h0a4.64,4.64,0,0,1-5.53-3.51l-.76-3.41,4.51-1Z"/><polygon class="cls-3" points="54.64 30.5 54.64 17.52 50.03 16.46 47.43 15.86 46.07 30.33 46.13 30.5 54.64 30.5"/><path class="cls-2" d="M49.38,15.16l.26,1.16a7.43,7.43,0,0,0,.85,2.16,7.74,7.74,0,0,0,6.79,3.83l-1.67-7.45-4.73,0Z"/><path class="cls-3" d="M61.52,9a10.49,10.49,0,0,1,.66,1.61c1.28,4.07.46,8.05-3.11,9.9a7.87,7.87,0,0,1-6.56.23,9.63,9.63,0,0,1-4.93-4.54,21.06,21.06,0,0,1-1.07-2.46s0,0,0,0c-1.18-4,.34-8.28,3.86-10.09A7.8,7.8,0,0,1,56.3,3.1l.16.06C58.66,3.89,60.32,6.63,61.52,9Z"/><polygon class="cls-2" points="57.85 13.98 59.88 13.52 58.86 8.94 58.31 9.06 59.22 13.1 57.73 13.44 57.85 13.98"/><path class="cls-2" d="M57.24,16a2.19,2.19,0,0,0,1.08-.63L57.9,15a1.35,1.35,0,0,1-1.33.45.78.78,0,0,1-.54-.67l-.59.08a1.4,1.4,0,0,0,1,1.15A1.63,1.63,0,0,0,57.24,16Z"/><path class="cls-2" d="M60.88,11.12h0a.5.5,0,0,0,.37-.59h0a.49.49,0,0,0-.59-.37h0a.48.48,0,0,0-.37.58h0A.49.49,0,0,0,60.88,11.12Z"/><path class="cls-2" d="M55.2,11.89h0a.5.5,0,0,0,.37-.59h0a.5.5,0,0,0-.59-.38h0a.5.5,0,0,0-.37.59h0A.5.5,0,0,0,55.2,11.89Z"/><path class="cls-2" d="M61.12,3.88c.51-1.52-.9-2.54-2.59-2.45-2,.11-8.75,1.83-10.73,2.21A6.19,6.19,0,0,0,43.11,11l.9,4,2.52-2.19a8,8,0,0,0,.55,1.53,3.88,3.88,0,0,1,3.36.92c.07-.18.15-.36.2-.54a14.33,14.33,0,0,0,0-4.89,2.88,2.88,0,0,1,.12-1.65c1-1.83,8.72-1.7,10-3.65A3.07,3.07,0,0,0,61.12,3.88Z"/><path class="cls-2" d="M44.64,16.65A3.09,3.09,0,1,0,47,13,3.1,3.1,0,0,0,44.64,16.65Z"/><path class="cls-3" d="M45.22,15.63a3.09,3.09,0,1,0,2.34-3.69A3.09,3.09,0,0,0,45.22,15.63Z"/><path class="cls-2" d="M43.66,10.83c-1.25,1-4.13.69-5.44-.21a2.91,2.91,0,0,1-.84-1A6.57,6.57,0,0,1,37.48,3a6.58,6.58,0,0,1,5.94-3A5,5,0,0,1,46.5,1.31a4.63,4.63,0,0,1,.88,5.07,6.11,6.11,0,0,1-4.1,3.33c-1,.26,1.26.61.38,1.12Z"/><path class="cls-3" d="M56.06,99.4l14.3-23.94a11.74,11.74,0,0,0,.45-6.81C69,60.21,60.38,42.77,67.57,35.33a13,13,0,0,1,1.33-1.21l-1.35-4.25a8,8,0,0,1,5.8,2.68c5.58.81,8.33,12.85,8.87,17.87q.12,1.08.21,2.16c1.52,7.5,1.82,15.41,2,23.08.13,4.42-4.7,7.92-7.46,10.8q-8.51,8.9-17,17.78c-1,1.05-2.58.74-3.55-.69a.33.33,0,0,0,0-.06A4.19,4.19,0,0,1,56.06,99.4Z"/><path class="cls-1" d="M35,29.44a32.74,32.74,0,0,1,4.83-.83,106.78,106.78,0,0,1,18.32-.34c4.52.32,10.88-.19,14.68,2.6,2.78,2.05,4.07,5.66,4.12,9.12S76,46.82,75,50.14c-.73,2.42-5.09,25.68-5.12,25.67a222.06,222.06,0,0,0-37.37,0q-3-16.19-6.07-32.39C24.85,35.08,28.43,31.13,35,29.44Z"/><path class="cls-4" d="M28.28,97.11h0a5.51,5.51,0,0,0,5.49-5.49v-.56a5.51,5.51,0,0,0-5.49-5.49h0a4.07,4.07,0,0,0-4.06,4.06v3.43A4.07,4.07,0,0,0,28.28,97.11Z"/><path class="cls-4" d="M72.91,97.11h0a5.51,5.51,0,0,1-5.49-5.49v-.56a5.51,5.51,0,0,1,5.49-5.49h0A4.07,4.07,0,0,1,77,89.63v3.43A4.07,4.07,0,0,1,72.91,97.11Z"/><path class="cls-2" d="M1.6,80.58A12.28,12.28,0,0,0,6.21,97.31a12.6,12.6,0,0,0,2,.93l39,15.84,15.07,5.25,5.75,2,6.61-11.67-5.13-3.11L56.09,98.41,18.67,76.13A12.29,12.29,0,0,0,1.6,80.58Z"/><path class="cls-1" d="M71.24,122.44,82,126.2a5.22,5.22,0,0,0,4.42-9.39l-10.17-6.17-1.61-1L68,121.33Z"/><path class="cls-2" d="M99.59,80.58A12.29,12.29,0,0,1,95,97.31a13.11,13.11,0,0,1-2,.93L54,114.08,38.9,119.33l-5.75,2-6.6-11.67,5.12-3.11L45.1,98.41,82.52,76.13A12.29,12.29,0,0,1,99.59,80.58Z"/><path class="cls-1" d="M30,122.44,19.19,126.2a5.22,5.22,0,0,1-4.42-9.39l10.17-6.17,1.61-1,6.6,11.67Z"/><rect class="cls-5" x="52.18" y="50.99" width="54.08" height="35.49" rx="5.61" transform="translate(158.43 137.47) rotate(180)"/><path class="cls-5" d="M33.33,86.48h50.6V81.37H33.33a2.56,2.56,0,0,0-2.56,2.56h0A2.56,2.56,0,0,0,33.33,86.48Z"/><path class="cls-3" d="M11.56,73.68a11,11,0,0,0,1.13,5c2.61,4.51,10.66,2.32,14.72,2,3.55-.28,7.21-.76,10.87-.92a35.55,35.55,0,0,1,9.27.68c3.52.79,7.24.71,10.81,1.32l.13,0a18.53,18.53,0,0,1,3.38,1.1c.72.29,1.6,1,2.41,1a.23.23,0,0,0,.09-.42A23.31,23.31,0,0,0,58,80.37a.27.27,0,0,1-.2-.31.26.26,0,0,1,.32-.18,25,25,0,0,1,7,3.48.24.24,0,0,0,.27,0,3.72,3.72,0,0,0,.37-.3.23.23,0,0,0,0-.35,27.88,27.88,0,0,0-7.28-3.82.26.26,0,0,1-.16-.33.27.27,0,0,1,.34-.14,29.28,29.28,0,0,1,7.42,3.9.23.23,0,0,0,.35,0,2.39,2.39,0,0,0,.13-.21.23.23,0,0,0-.06-.29,25.12,25.12,0,0,0-7.38-4.29.24.24,0,0,1-.16-.32.25.25,0,0,1,.33-.14,25.57,25.57,0,0,1,7.12,4,.23.23,0,0,0,.39-.2v0a4.15,4.15,0,0,0-1-1.35,27.32,27.32,0,0,0-7.21-4.77c-.78-.36-1.57-.68-2.36-1-2.6-.92-30.5-4.66-30.75-2.87.84-6.07,4-11.52,6.55-17.11,2.05-4.55,7.2-19.91-1.38-21.65-2.54-.52-4.83,1.54-6.48,3.54a55.87,55.87,0,0,0-12.59,38Zm9.82-3.91c.14,0,.28,0,.42,0a1.31,1.31,0,0,1-.28,0Z"/><path class="cls-6" d="M74.65,68.74a5,5,0,1,1,4.94,5A4.94,4.94,0,0,1,74.65,68.74Zm7.73,0a2.78,2.78,0,1,0-2.79,2.86A2.78,2.78,0,0,0,82.38,68.74Z"/></g></g></svg>