<svg id="Layer_1" data-name="Layer 1" xmlns="http://www.w3.org/2000/svg" viewBox="0 0 74.64 100">
  <defs>
    <style>
      .cls-1 {
        fill: #3ebbd2;
      }
    </style>
  </defs>
  <g>
    <path class="cls-1" d="M37.32,49.09a11.77,11.77,0,1,1,8.33-3.44A11.72,11.72,0,0,1,37.32,49.09Zm0-16.53A4.76,4.76,0,1,0,40.68,34,4.79,4.79,0,0,0,37.32,32.56Z"/>
    <path class="cls-1" d="M37.32,7a30.33,30.33,0,0,1,30.3,30.3c0,10.41-5.9,23.51-17,37.89A167.82,167.82,0,0,1,37.19,90.38C27.72,81.29,7,58.94,7,37.32A30.33,30.33,0,0,1,37.32,7m0-7A37.32,37.32,0,0,0,0,37.32C0,68.91,37.32,100,37.32,100S74.64,66.76,74.64,37.32A37.32,37.32,0,0,0,37.32,0Z"/>
  </g>
</svg>
