<svg xmlns="http://www.w3.org/2000/svg" width="30.545" height="53.595" viewBox="0 0 30.545 53.595">
    <defs>
        <style>
            .cls-1{fill:#575756;stroke:#aaa;stroke-width:.5px}
        </style>
    </defs>
    <path id="Path_1153" d="M-5764.049-5895.107c2.012-2.01 3.984-3.984 5.953-5.956q7.285-7.277 14.568-14.555a3.449 3.449 0 0 0 1.046-3.721 3.394 3.394 0 0 0-5.393-1.544 6.118 6.118 0 0 0-.457.413q-11.381 11.383-22.766 22.761a3.426 3.426 0 0 0-.768 4.248 4.1 4.1 0 0 0 .727.926q11.407 11.421 22.839 22.834a3.415 3.415 0 0 0 5.8-1.348 3.436 3.436 0 0 0-1.043-3.545l-11.261-11.247-8.859-8.859c-.119-.12-.237-.243-.386-.407z" class="cls-1" data-name="Path 1153" transform="translate(5772.592 5921.933)"/>
</svg>
