<svg xmlns="http://www.w3.org/2000/svg" width="119.993" height="112.334" viewBox="0 0 119.993 112.334">
    <defs>
        <style>
            .cls-1{fill:#8abbd5}
        </style>
    </defs>
    <g id="Group_3146" data-name="Group 3146" transform="translate(-105.991 -350.928)">
        <g id="Group_3145" data-name="Group 3145" transform="translate(105.991 350.928)">
            <path id="Path_1285" d="M110.821 351.928a3.83 3.83 0 0 0-3.83 3.83v102.121a3.83 3.83 0 0 0 3.83 3.83H220.6a3.83 3.83 0 1 0 0-7.659H114.65v-98.292a3.83 3.83 0 0 0-3.829-3.83zm76.591 24.254a4.139 4.139 0 0 0-4.029 4.029 3.986 3.986 0 0 0 4.029 3.63h10.811l-33.948 31.913-12.206-10.173a3.814 3.814 0 0 0-5.506-.359l-25.53 22.978a3.831 3.831 0 1 0 5.106 5.7l23.1-20.784 12.286 10.253a4 4 0 0 0 5.545.278l36.939-34.7v11.489a3.83 3.83 0 1 0 7.659 0v-20.425a3.98 3.98 0 0 0-3.83-3.83z" class="cls-1" data-name="Path 1285" transform="translate(-105.714 -350.651)"/>
            <path id="Path_1286" d="M220.878 463.262H111.1a5.111 5.111 0 0 1-5.106-5.106V356.034a5.106 5.106 0 0 1 10.212 0v97.016h104.672a5.106 5.106 0 1 1 0 10.212zM111.1 353.481a2.556 2.556 0 0 0-2.553 2.553v102.122a2.557 2.557 0 0 0 2.553 2.553h109.778a2.553 2.553 0 1 0 0-5.106H113.65v-99.569a2.556 2.556 0 0 0-2.55-2.553zm12.672 82.981a5.107 5.107 0 0 1-3.279-8.965l25.5-22.947a5.109 5.109 0 0 1 3.076-1.322 5.055 5.055 0 0 1 4.181 1.716l11.258 9.382 30.777-28.932-7.763.005a5.253 5.253 0 0 1-5.13-4.846 5.089 5.089 0 0 1 1.487-3.689 5.272 5.272 0 0 1 3.817-1.682h20.424a5.239 5.239 0 0 1 5.106 5.106v20.424a5.106 5.106 0 0 1-10.212-.018v-8.521l-34.789 32.685a5.025 5.025 0 0 1-3.487 1.334 5.122 5.122 0 0 1-3.822-1.625l-11.365-9.481-22.282 20.044a5.039 5.039 0 0 1-3.5 1.332zM149.4 405.77l-.16.006a2.585 2.585 0 0 0-1.537.664l-25.539 22.985a2.586 2.586 0 0 0-.88 1.822 2.546 2.546 0 0 0 .578 1.883 2.833 2.833 0 0 0 3.673.129l23.948-21.55 13.283 11.107a2.836 2.836 0 0 0 3.7.188l39.093-36.731v14.44a2.533 2.533 0 0 0 .772 1.79 2.456 2.456 0 0 0 3.564 0 2.524 2.524 0 0 0 .77-1.771v-20.444a2.725 2.725 0 0 0-2.553-2.553h-20.424a2.765 2.765 0 0 0-1.971.894 2.617 2.617 0 0 0-.783 1.8 2.743 2.743 0 0 0 2.58 2.416l.174-.005h14.032l-37.12 34.895-13.233-11.055a2.632 2.632 0 0 0-1.967-.91z" class="cls-1" data-name="Path 1286" transform="translate(-105.991 -350.928)"/>
        </g>
    </g>
</svg>
