<svg xmlns="http://www.w3.org/2000/svg" width="96.063" height="100.058" viewBox="0 0 96.063 100.058">
    <defs>
        <style>
            .cls-1{fill:#3ebbd2}
        </style>
    </defs>
    <g id="Group_2741" data-name="Group 2741" transform="translate(-281.925 -151.751)">
        <path id="Path_1112" d="M432.877 179.635a2.683 2.683 0 1 1-2.682 2.683 2.684 2.684 0 0 1 2.682-2.683z" class="cls-1" data-name="Path 1112" transform="translate(-97.351 -18.308)"/>
        <path id="Path_1113" d="M373.561 305.575a6.984 6.984 0 1 0-6.984 6.983 6.991 6.991 0 0 0 6.984-6.983zm-10.733 0a3.75 3.75 0 1 1 3.75 3.75 3.755 3.755 0 0 1-3.75-3.75z" class="cls-1" data-name="Path 1113" transform="translate(-50.996 -96.413)"/>
        <path id="Path_1114" d="M399.853 359.325a6.984 6.984 0 1 0 6.983 6.985 6.992 6.992 0 0 0-6.983-6.985zm0 10.733a3.75 3.75 0 1 1 3.749-3.751 3.755 3.755 0 0 1-3.749 3.75z" class="cls-1" data-name="Path 1114" transform="translate(-72.843 -136.29)"/>
        <path id="Path_1115" d="M329.349 360.285a6.984 6.984 0 1 0 6.983 6.985 6.991 6.991 0 0 0-6.983-6.985zm0 10.733a3.75 3.75 0 1 1 3.749-3.751 3.754 3.754 0 0 1-3.749 3.751z" class="cls-1" data-name="Path 1115" transform="translate(-26.551 -136.92)"/>
        <path id="Path_1116" d="M374.8 405.475a2.683 2.683 0 1 0 2.683 2.684 2.684 2.684 0 0 0-2.683-2.684z" class="cls-1" data-name="Path 1116" transform="translate(-59.218 -166.591)"/>
        <path id="Path_1117" d="M424.63 322.685a2.683 2.683 0 1 0 2.683 2.684 2.684 2.684 0 0 0-2.683-2.684z" class="cls-1" data-name="Path 1117" transform="translate(-91.936 -112.232)"/>
        <path id="Path_1118" d="M343.8 285.676a2.683 2.683 0 1 0-2.683-2.683 2.682 2.682 0 0 0 2.683 2.683z" class="cls-1" data-name="Path 1118" transform="translate(-38.866 -84.41)"/>
        <path id="Path_1119" d="M325.7 319.046a3.459 3.459 0 1 0-3.459 3.459 3.459 3.459 0 0 0 3.459-3.459z" class="cls-1" data-name="Path 1119" transform="translate(-24.203 -107.573)"/>
        <path id="Path_1120" d="M408.279 200.875a6.984 6.984 0 1 0 6.984 6.984 6.992 6.992 0 0 0-6.984-6.984zm0 10.733a3.75 3.75 0 1 1 3.75-3.75 3.754 3.754 0 0 1-3.75 3.75z" class="cls-1" data-name="Path 1120" transform="translate(-78.376 -32.254)"/>
        <path id="Path_1121" d="M488.929 258.651a6.983 6.983 0 1 0 6.984 6.983 6.991 6.991 0 0 0-6.984-6.983zm0 10.733a3.75 3.75 0 1 1 3.75-3.75 3.75 3.75 0 0 1-3.75 3.75z" class="cls-1" data-name="Path 1121" transform="translate(-131.33 -70.189)"/>
        <path id="Path_1122" d="M503.173 239.245a2.683 2.683 0 1 0-2.682-2.683 2.683 2.683 0 0 0 2.682 2.683z" class="cls-1" data-name="Path 1122" transform="translate(-143.507 -53.923)"/>
        <path id="Path_1123" d="M447.979 254.237a2.683 2.683 0 1 0 2.683 2.683 2.684 2.684 0 0 0-2.683-2.683z" class="cls-1" data-name="Path 1123" transform="translate(-107.266 -67.291)"/>
        <path id="Path_1124" d="M467.521 213.736a3.459 3.459 0 1 0 3.457 3.459 3.458 3.458 0 0 0-3.457-3.459z" class="cls-1" data-name="Path 1124" transform="translate(-119.588 -40.698)"/>
        <path id="Path_1125" d="M377.988 184.489a32.49 32.49 0 0 0-1.445-9.594 30.954 30.954 0 0 0-1.132-3.137c-.582-1.391-2.124.281-2.835.614a6.111 6.111 0 0 1-7.644-1.973 5.113 5.113 0 0 1-.905-1.983 7.847 7.847 0 0 0-.408-2.565c-1.057-1.854-3.687-.787-5.337-1.218a6.051 6.051 0 0 1-3.017-9.928.934.934 0 0 0-.41-1.52 27.8 27.8 0 0 0-3.266-.809 32.367 32.367 0 0 0-6.34-.625 32.773 32.773 0 0 0-32.738 32.807q0 .921.054 1.839A32.739 32.739 0 1 0 347.4 219.07q0-.969-.064-1.907a32.775 32.775 0 0 0 30.652-32.674zM314.657 247.5a28.432 28.432 0 0 1-1.553-56.821 25.158 25.158 0 0 1 1.553-.043 25.313 25.313 0 0 1 2.867.15 28.454 28.454 0 0 1 24.858 21.991 26.727 26.727 0 0 1 .647 4.388q.064.954.064 1.907a28.462 28.462 0 0 1-28.436 28.428zm32.156-34.615a32.6 32.6 0 0 0-.809-3.222c.057 0 .112.017.169.017a2.683 2.683 0 1 0-1.9-4.573 32.758 32.758 0 0 0-27.391-18.7 28.36 28.36 0 0 1-.064-1.919 28.461 28.461 0 0 1 28.436-28.426 29.65 29.65 0 0 1 4.409.334 10.155 10.155 0 0 0-.28 2.371 10.388 10.388 0 0 0 10.37 10.37h.033a10.376 10.376 0 0 0 12.353 7.921c.174-.038.346-.08.517-.127a28.155 28.155 0 0 1 1.024 7.557 28.46 28.46 0 0 1-26.863 28.393z" class="cls-1" data-name="Path 1125"/>
    </g>
</svg>
