<svg xmlns="http://www.w3.org/2000/svg" width="142.309" height="135.361" viewBox="0 0 142.309 135.361">
    <defs>
        <style>
            .cls-1{fill:#8abbd5;stroke:#8abbd5;stroke-miterlimit:10;stroke-width:1.5px}
        </style>
    </defs>
    <g id="Group_3163" data-name="Group 3163" transform="translate(-352.162 -496.432)">
        <path id="Path_1296" d="M416.353 586a6.345 6.345 0 1 0 6.341 6.346 6.342 6.342 0 0 0-6.341-6.346zm0 8.463a2.116 2.116 0 1 1 2.113-2.117 2.12 2.12 0 0 1-2.113 2.121z" class="cls-1" data-name="Path 1296" transform="translate(11.29 23.956)"/>
        <path id="Path_1297" d="M378.413 508.956l31.733 60.733v43.4c.039 9.957 7.872 17.993 17.493 17.949a17.553 17.553 0 0 0 16.8-13.546l49.02-27.9-2.49-4.533-45.983 26.3a20.964 20.964 0 0 0-.82-3.963l39.434-22.974a2.625 2.625 0 0 0 .948-3.5l-22.4-41.209-22.4-41.212a2.442 2.442 0 0 0-3.389-.976l-13.908 8.083h-.225l-3.263 1.961-22.4 13.058a2.624 2.624 0 0 0-.941 3.5l22.394 41.212 16.994 31.48a16.227 16.227 0 0 0-5.942-1.753l-46.315-88.558a12.391 12.391 0 0 0-10.9-6.743h-18.941v5.15h18.957a7.417 7.417 0 0 1 6.544 4.041zm36.709 70.265l8.512 16.332a17.112 17.112 0 0 0-8.512 4.944zm12.443 46.751A12.887 12.887 0 1 1 440 613.093a12.666 12.666 0 0 1-12.435 12.879zm21.054-66.636l-6.446 3.867-3.731-6.778 5.372-3.215 1.093-.648zm-22.4-41.216l-6.446 3.868-3.736-6.774 5.378-3.219 1.093-.648zm-14.563-.329l4.981 9.039a2.432 2.432 0 0 0 3.39.96c.009 0 .009-.006.019-.006l10.774-6.438a2.623 2.623 0 0 0 1.006-3.492.173.173 0 0 0-.04-.062l-4.97-8.866 9.727-5.66 19.911 36.726-11.745 6.829h-.226l-3.262 1.956-2.49 1.472-17.731 10.3-19.915-36.738zm22.4 41.209l4.981 9.041a2.443 2.443 0 0 0 3.394.967l.014-.01 10.774-6.441a2.621 2.621 0 0 0 1.006-3.492.606.606 0 0 0-.034-.066l-4.976-8.857 9.728-5.665 19.9 36.733-35.483 20.6-19.906-36.726z" class="cls-1" data-name="Path 1297"/>
    </g>
</svg>
