<?xml version="1.0" encoding="utf-8"?>
<!-- Generator: Adobe Illustrator 16.0.4, SVG Export Plug-In . SVG Version: 6.00 Build 0)  -->
<!DOCTYPE svg PUBLIC "-//W3C//DTD SVG 1.1//EN" "http://www.w3.org/Graphics/SVG/1.1/DTD/svg11.dtd">
<svg version="1.1" id="Layer_1" xmlns="http://www.w3.org/2000/svg" xmlns:xlink="http://www.w3.org/1999/xlink" x="0px" y="0px"
	 width="841.89px" height="740.962px" viewBox="0 0 841.89 740.962" enable-background="new 0 0 841.89 740.962"
	 xml:space="preserve">
<g>
	<g>
		<circle fill="#EDDB86" cx="435.713" cy="436.69" r="248.654"/>
	</g>
	<g>
		<path fill="#FFFFFF" d="M653.183,218.951l-36.879,0.022v-0.022h-83.973l-104.012,20.625
			c-54.257,14.186-104.887,127.44-175.57,183.67c-25.322,20.139-90.81,65.26-90.81,65.26L272.5,652.715
			c0,0,37.555-33.275,68.841-57.283c20.22-15.524,35.798-25.111,57.597-29.353c19.666-3.821,35.357-6.407,57.481-15.444
			c42.053-17.16,66.69-63.977,85.804-69.496c24.84-7.172,65.597-3.534,65.597-3.534l6.903-210.581l38.497-0.022
			c13.261-0.009,24.014-10.77,24.006-24.038C677.217,229.697,666.454,218.946,653.183,218.951z"/>
	</g>
	<g>
		<path fill="#80B0BF" d="M275.153,655.709l-5.306-5.988c0.377-0.333,38.02-33.645,69.059-57.462
			c20.522-15.757,36.799-25.734,59.268-30.106l4.82-0.93c17.165-3.302,31.989-6.152,51.913-14.291
			c23.464-9.574,41.667-29.074,56.293-44.743c11.606-12.433,20.773-22.253,29.914-24.893c20.791-6.004,51.63-4.718,62.845-3.99
			l6.894-210.279l42.366-0.025c11.038-0.007,20.015-8.995,20.008-20.036c-0.007-11.038-8.994-20.015-20.033-20.015
			c-0.003,0-0.005,0-0.008,0l-40.881,0.024v-0.024h-79.58l-103.506,20.525c-28.69,7.584-57.796,46.072-88.607,86.815
			c-26.286,34.761-53.466,70.704-85.372,96.085c-25.139,19.993-90.375,64.972-91.03,65.424l-4.539-6.588
			c0.654-0.45,65.664-45.273,90.589-65.097c31.114-24.751,57.984-60.285,83.971-94.649c33.089-43.757,61.666-81.546,93.078-89.76
			l0.233-0.054l104.397-20.702h121.242c0.003,0,0.008,0,0.011,0c15.449,0,28.024,12.563,28.034,28.01
			c0.009,15.451-12.553,28.03-28.003,28.041l-34.629,0.02l-6.915,210.942l-4.215-0.375c-0.398-0.035-40.309-3.484-64.132,3.393
			c-7.019,2.027-15.946,11.592-26.284,22.666c-15.161,16.241-34.028,36.453-59.117,46.69c-20.658,8.438-35.843,11.359-53.426,14.74
			l-4.804,0.928c-21.028,4.091-35.877,13.207-55.924,28.599C312.958,622.253,275.527,655.377,275.153,655.709z"/>
	</g>
	<g>
		<g>
			<path fill="#FFFFFF" d="M614.811,482.904H451.455c-13.007,0-23.547-10.54-23.547-23.543V85.575
				c0-12.996,10.54-23.538,23.547-23.538h163.355c12.994,0,23.528,10.542,23.528,23.538v373.786
				C638.339,472.364,627.805,482.904,614.811,482.904z"/>
			<path fill="#80B0BF" d="M614.811,492.904H451.455c-18.498,0-33.547-15.047-33.547-33.543V85.575
				c0-18.493,15.049-33.538,33.547-33.538h163.355c18.487,0,33.528,15.045,33.528,33.538v373.786
				C648.339,477.857,633.298,492.904,614.811,492.904z M451.455,72.037c-7.47,0-13.547,6.073-13.547,13.538v373.786
				c0,7.468,6.077,13.543,13.547,13.543h163.355c7.46,0,13.528-6.075,13.528-13.543V85.575c0-7.465-6.068-13.538-13.528-13.538
				H451.455z"/>
		</g>
	</g>
	<g>
		<path fill="#FFFFFF" d="M675.93,337.954c0.445-17.368-2.666-33.4-8.455-41.865c-9.559-13.972-29.388-17.366-29.388-17.366
			c0,40.081-8.913,42.754-8.913,63.237c0,7.239,2.776,13.076,7.12,17.088c-2.508,15.798-6.834,21.216-6.834,35.245
			c0,7.88,3.456,13.989,8.627,17.827c-0.684,24.553-6.626,18.937-6.626,33.454c0,10.71,8.031,17.398,17.405,17.398
			c10.374,0,17.401-7.357,17.738-20.412c0.338-13.05-4.346-19.217-7.679-23.488c-0.813-1.029-1.771-1.982-2.809-2.873
			c10.868-1.879,18.005-10.941,18.396-25.773c0.317-12.778-1.385-24.748-4.682-33.346
			C673.504,352.496,675.729,346.09,675.93,337.954z"/>
	</g>
	<g>
		<g>
			<path fill="#80B0BF" d="M648.866,466.977c-12.203,0-21.405-9.201-21.405-21.402c0-7.346,1.438-10.258,2.828-13.074
				c1.502-3.043,3.204-6.492,3.558-19.35l7.996,0.219c-0.4,14.608-2.607,19.079-4.381,22.672c-1.161,2.354-2.001,4.055-2.001,9.533
				c0,6.455,4.195,13.402,13.405,13.402c8.461,0,13.469-6.021,13.739-16.52c0.306-11.786-3.823-17.065-6.838-20.921
				c-0.584-0.757-1.322-1.517-2.212-2.28l5.211-6.07c1.322,1.136,2.408,2.263,3.32,3.445c3.315,4.24,8.896,11.374,8.517,26.033
				C670.222,457.434,661.689,466.977,648.866,466.977z"/>
		</g>
		<g>
			<path fill="#80B0BF" d="M652.331,369.117c-15.482,0-27.157-11.675-27.157-27.157c0-9.096,1.704-15.085,3.508-21.426
				c2.534-8.904,5.405-18.997,5.405-41.811v-4.743l4.675,0.8c0.878,0.15,21.618,3.854,32.015,19.05
				c6.218,9.092,9.64,25.626,9.152,44.228C679.439,357.215,668.864,369.117,652.331,369.117z M642.036,283.828
				c-0.414,20.46-3.304,30.615-5.66,38.896c-1.789,6.289-3.202,11.256-3.202,19.236c0,12.577,9.638,19.157,19.157,19.157
				c12.078,0,19.223-8.48,19.6-23.266c0.438-16.73-2.534-31.867-7.758-39.505C658.343,289.825,648.014,285.632,642.036,283.828z"/>
		</g>
		<g>
			<path fill="#80B0BF" d="M651.765,420.599c-14.996,0-26.305-11.309-26.305-26.306c0-8.788,1.645-14.569,3.385-20.69
				c1.013-3.56,2.06-7.239,2.961-11.971l7.859,1.498c-0.969,5.08-2.114,9.107-3.125,12.661c-1.721,6.051-3.08,10.829-3.08,18.502
				c0,9.097,6.287,18.306,18.305,18.306c11.55,0,18.385-8.117,18.75-22.271c0.253-10.323-0.844-20.268-3.088-27.996l7.684-2.23
				c2.466,8.495,3.674,19.3,3.402,30.427C678.033,409.079,667.783,420.599,651.765,420.599z"/>
		</g>
	</g>
	<g>
		<g>
			<path fill="#F8A4C7" d="M533.114,474.219c-27.37,0-49.637-22.269-49.637-49.641c0-27.374,22.267-49.644,49.637-49.644
				c27.379,0,49.653,22.27,49.653,49.644C582.768,451.951,560.493,474.219,533.114,474.219z M533.114,376.935
				c-26.267,0-47.637,21.373-47.637,47.644c0,26.27,21.37,47.641,47.637,47.641c26.276,0,47.653-21.371,47.653-47.641
				C580.768,398.308,559.391,376.935,533.114,376.935z"/>
		</g>
		<g>
			<path fill="#F8A4C7" d="M533.114,466.922c-23.352,0-42.35-18.995-42.35-42.344c0-23.351,18.998-42.348,42.35-42.348
				c23.35,0,42.347,18.997,42.347,42.348C575.461,447.927,556.464,466.922,533.114,466.922z M533.114,384.231
				c-22.249,0-40.35,18.1-40.35,40.348c0,22.246,18.101,40.344,40.35,40.344c22.247,0,40.347-18.098,40.347-40.344
				C573.461,402.331,555.361,384.231,533.114,384.231z"/>
		</g>
		<g>
			<path fill="#F8A4C7" d="M533.114,459.625c-19.325,0-35.047-15.722-35.047-35.047c0-19.328,15.722-35.053,35.047-35.053
				c19.331,0,35.059,15.725,35.059,35.053C568.173,443.904,552.445,459.625,533.114,459.625z M533.114,391.526
				c-18.222,0-33.047,14.827-33.047,33.053c0,18.222,14.825,33.047,33.047,33.047c18.229,0,33.059-14.825,33.059-33.047
				C566.173,406.353,551.343,391.526,533.114,391.526z"/>
		</g>
		<g>
			<path fill="#F8A4C7" d="M533.114,452.331c-15.307,0-27.759-12.449-27.759-27.752c0-15.305,12.452-27.756,27.759-27.756
				c15.304,0,27.754,12.451,27.754,27.756C560.868,439.881,548.418,452.331,533.114,452.331z M533.114,398.823
				c-14.203,0-25.759,11.554-25.759,25.756c0,14.199,11.556,25.752,25.759,25.752c14.201,0,25.754-11.553,25.754-25.752
				C558.868,410.376,547.315,398.823,533.114,398.823z"/>
		</g>
	</g>
	<g>
		<g>
			<path fill="#FFFFFF" stroke="#80B0BF" stroke-width="8" stroke-miterlimit="10" d="M444.672,362.822"/>
		</g>
		<g>
			<path fill="#FFFFFF" d="M310.389,486.381c63.132,4.943,103.664-28.543,111.465-64.297"/>
			<path fill="#80B0BF" d="M322.671,490.869c-4.137,0-8.334-0.166-12.594-0.5l0.624-7.976
				c45.878,3.593,97.449-16.263,107.245-61.161l7.816,1.705c-4.304,19.725-17.347,37.453-36.728,49.921
				C370.587,484.726,347.839,490.869,322.671,490.869z"/>
		</g>
		<g>
			<path fill="#FFFFFF" d="M380.028,336.227c13.645-1.793,31.54-1.329,54.954,18.857c13.001,11.201,37.336,31.535,37.336,31.535
				c28.777,24.655,73.11,47.669,73.11,47.669s-2.676,26.03-32.473,29.986c-29.796,3.959-59.877-21.648-72.518-31.248
				c-16.189-12.293-31.809-17.289-42.68-16.146"/>
			<path fill="#80B0BF" d="M506.715,468.68c-26.775,0.002-52.541-19.966-65.444-29.964c-1.184-0.918-2.271-1.76-3.251-2.505
				c-14.156-10.748-29.049-16.487-39.843-15.354l-0.836-7.957c12.949-1.36,29.546,4.812,45.517,16.939
				c1,0.759,2.106,1.617,3.313,2.552c14.137,10.955,40.438,31.348,66.259,27.917c21.021-2.791,26.955-17.792,28.509-23.871
				c-10.079-5.395-46.135-25.287-71.223-46.782c-0.206-0.171-24.47-20.449-37.345-31.542
				c-21.935-18.912-38.505-19.673-51.821-17.921l-1.043-7.932c14.193-1.865,33.619-1.302,58.088,19.793
				c12.828,11.052,37.045,31.292,37.288,31.495c28.14,24.108,71.949,46.96,72.389,47.188l2.414,1.253l-0.277,2.706
				c-0.03,0.292-3.376,29.221-35.926,33.542C511.226,468.539,508.965,468.68,506.715,468.68z"/>
		</g>
	</g>
	<g>
		<g>
			<path fill="#80B0BF" d="M491.531,181.699l-3.062-20.089c-0.479-3.144-3.199-5.458-6.379-5.422h-19.133
				c-3.523,0-6.379,2.855-6.379,6.379c0,3.521,2.855,6.375,6.379,6.375h13.649c2.039,13.203,2.165,14.224,11.605,75.322
				c-7.713,7.219-8.113,19.328-0.891,27.042c3.601,3.846,8.63,6.04,13.899,6.057h70.154c3.523,0,6.376-2.857,6.376-6.378
				c0-3.522-2.853-6.378-6.376-6.378h-70.154c-3.52,0-6.377-2.856-6.377-6.376c0-3.524,2.857-6.379,6.377-6.379h89.287
				c3.041,0.075,5.709-2.008,6.379-4.974c13.583-61.098,14.224-59.377,11.479-62.821
				C605.622,180.614,611.554,181.699,491.531,181.699z M585.408,239.098h-84.187c-1.271,0,0,4.911-7.716-44.644h102.042
				L585.408,239.098z"/>
			<path fill="#FFFFFF" d="M571.376,279.514h-70.154c-5.842-0.018-11.478-2.474-15.469-6.737c-3.886-4.15-5.923-9.565-5.735-15.247
				c0.175-5.295,2.261-10.23,5.902-14.022c-6.38-41.295-8.436-54.694-9.757-63.31c-0.507-3.304-0.906-5.904-1.399-9.104h-11.806
				c-4.703,0-8.529-3.824-8.529-8.525c0-4.703,3.826-8.529,8.529-8.529h19.133c4.319,0,7.865,3.048,8.505,7.248l2.782,18.263
				c28.143-0.003,49.444-0.065,65.087-0.111c9.672-0.028,17.395-0.051,23.573-0.051c24.849,0,25.746,0.254,27.76,2.999
				c0.077,0.105,0.157,0.215,0.251,0.333l0.092,0.116c2.677,3.349,2.677,3.349-3.812,31.901c-1.902,8.37-4.27,18.787-7.343,32.611
				c-0.886,3.923-4.306,6.659-8.317,6.659c-0.001,0-0.001,0-0.001,0l-0.212-0.002l-89.234,0c-2.331,0-4.227,1.897-4.227,4.229
				c0,2.33,1.896,4.226,4.227,4.226h70.154c4.701,0,8.526,3.826,8.526,8.528C579.902,275.688,576.077,279.514,571.376,279.514z
				 M482.164,158.338l-19.206,0c-2.332,0-4.229,1.897-4.229,4.229c0,2.33,1.896,4.226,4.229,4.226h15.493l0.281,1.822
				c0.633,4.097,1.081,7.021,1.681,10.931c1.333,8.69,3.413,22.25,9.925,64.391l0.173,1.122l-0.829,0.776
				c-3.311,3.099-5.217,7.303-5.366,11.836c-0.149,4.534,1.476,8.855,4.576,12.167c3.186,3.402,7.682,5.361,12.337,5.376h70.147
				c2.33,0,4.226-1.897,4.226-4.228c0-2.332-1.896-4.229-4.226-4.229h-70.154c-4.702,0-8.527-3.825-8.527-8.526
				c0-4.703,3.825-8.529,8.527-8.529l89.446,0.002c1.988,0,3.684-1.356,4.123-3.299c3.073-13.827,5.441-24.249,7.345-32.623
				c6.03-26.533,5.952-26.63,4.646-28.263l-0.097-0.121c-0.131-0.165-0.246-0.321-0.354-0.469c-0.675-0.92-2.826-1.242-24.293-1.242
				c-6.176,0-13.894,0.022-23.561,0.051c-15.986,0.047-37.88,0.111-66.946,0.111h-1.848l-3.339-21.915
				C486.027,159.85,484.27,158.338,482.164,158.338z M500.747,241.382c-2.094,0-2.458-2.046-2.811-4.025
				c-0.341-1.92-0.856-5.327-1.792-11.51c-0.994-6.576-2.498-16.513-4.763-31.062l-0.387-2.48h107.246l-11.116,48.943h-85.592
				C501.334,241.316,501.066,241.382,500.747,241.382z M502.23,236.948h81.461l9.163-40.344h-96.839
				c2.054,13.216,3.443,22.4,4.381,28.599C501.337,231.42,501.9,235.147,502.23,236.948z"/>
		</g>
		<g>
			<path fill="#80B0BF" d="M513.978,283.739c-3.521,0-6.374,2.859-6.374,6.38c0,3.522,2.853,6.381,6.374,6.381
				c3.523,0,6.379-2.858,6.379-6.381C520.356,286.598,517.501,283.739,513.978,283.739z"/>
			<path fill="#FFFFFF" d="M513.978,298.649c-4.7,0-8.524-3.827-8.524-8.531c0-4.704,3.824-8.53,8.524-8.53
				c4.703,0,8.529,3.826,8.529,8.53C522.507,294.823,518.681,298.649,513.978,298.649z M513.978,285.889
				c-2.329,0-4.224,1.897-4.224,4.23c0,2.333,1.895,4.231,4.224,4.231c2.332,0,4.229-1.898,4.229-4.231
				C518.206,287.786,516.31,285.889,513.978,285.889z"/>
		</g>
		<g>
			<path fill="#80B0BF" d="M552.24,283.739c-3.52,0-6.372,2.859-6.372,6.38c0,3.522,2.853,6.381,6.372,6.381
				c3.526,0,6.382-2.858,6.382-6.381C558.622,286.598,555.767,283.739,552.24,283.739z"/>
			<path fill="#FFFFFF" d="M552.24,298.649c-4.699,0-8.522-3.827-8.522-8.531c0-4.704,3.823-8.53,8.522-8.53
				c4.704,0,8.532,3.826,8.532,8.53C560.772,294.823,556.944,298.649,552.24,298.649z M552.24,285.889
				c-2.328,0-4.222,1.897-4.222,4.23c0,2.333,1.894,4.231,4.222,4.231c2.333,0,4.231-1.898,4.231-4.231
				C556.472,287.786,554.573,285.889,552.24,285.889z"/>
		</g>
	</g>
	<g>
		<path fill="#80B0BF" d="M573.227,92.236c0,3.038-2.462,5.5-5.5,5.5h-69.205c-3.037,0-5.5-2.462-5.5-5.5l0,0
			c0-3.038,2.463-5.5,5.5-5.5h69.205C570.765,86.736,573.227,89.199,573.227,92.236L573.227,92.236z"/>
	</g>
</g>
</svg>
