<svg xmlns="http://www.w3.org/2000/svg" width="97.008" height="109.685" viewBox="0 0 97.008 109.685">
    <defs>
        <style>
            .cls-1{fill:#8abbd5}
        </style>
    </defs>
    <path id="Path_1298" d="M420.281 688.348a21.086 21.086 0 0 1-42.172 0 21.087 21.087 0 0 1 42.172 0zm45.88-11.28l-66.269 98.558-12.822-8.03 51.741-76.946 14.531-21.609zm-73.068 11.28a6.207 6.207 0 0 0 6.026 6.337 6.364 6.364 0 0 0 6.331-6.337 6.228 6.228 0 0 0-6.331-6.178 6.067 6.067 0 0 0-6.027 6.178zm82.025 67.972a20.613 20.613 0 0 1-21.007 20.856 20.932 20.932 0 1 1 21.007-20.856zm-27.187 0a6.1 6.1 0 0 0 6.181 6.176 6.2 6.2 0 0 0 6.178-6.176 6.332 6.332 0 0 0-6.178-6.335 6.233 6.233 0 0 0-6.182 6.335z" class="cls-1" data-name="Path 1298" transform="translate(-378.109 -667.492)"/>
</svg>
