<?xml version="1.0" encoding="utf-8"?>
<!-- Generator: Adobe Illustrator 16.0.4, SVG Export Plug-In . SVG Version: 6.00 Build 0)  -->
<!DOCTYPE svg PUBLIC "-//W3C//DTD SVG 1.1//EN" "http://www.w3.org/Graphics/SVG/1.1/DTD/svg11.dtd">
<svg version="1.1" id="Layer_1" xmlns="http://www.w3.org/2000/svg" xmlns:xlink="http://www.w3.org/1999/xlink" x="0px" y="0px"
	 width="841.89px" height="811.459px" viewBox="0 0 841.89 811.459" enable-background="new 0 0 841.89 811.459"
	 xml:space="preserve">
<g>
	<g>
		<circle fill="#EDDB86" cx="345.57" cy="395.832" r="248.654"/>
	</g>
	<g>
		<g>
			<path fill="#FFFFFF" d="M499.006,117.617c-4.708-7.188-12.599-11.481-21.111-11.481c-4.98,0-9.814,1.484-13.977,4.291
				l-25.679,17.303L255.204,243.438c3.231-7.411,6.579-12.617,7.093-13.399l0.525-0.799c6.396-9.734,25.867-39.355,20.479-66.564
				c-4.641-23.396-23.056-30.206-32.148-30.54l-2.864-0.104l-1.15,2.666c-0.175,0.404-17.624,40.658-37.025,66.994
				c-11.573,15.708-20.341,25.037-27.386,32.533c-4.119,4.38-7.673,8.163-10.578,12.017c-9.561,12.682-16.587,32.616-18.798,53.327
				c-0.206,1.957-0.422,4.082-0.651,6.344c-2.248,22.201-6.436,63.525-18.264,76.119c-19.311,20.553-69.445,69.174-69.95,69.663
				l-3.005,2.914l127.56,139.619l3.068-3.752c0.281-0.343,28.327-34.58,51.886-59.572c14.33-15.189,27.312-21.815,46.259-28.729
				c15.068-5.493,33.815-12.332,51.68-25.858c15.718-11.905,26.571-29.358,36.147-44.758c7.266-11.683,14.126-22.716,20.366-25.651
				c19.913-9.369,55.011-16.956,55.361-17.032l3.434-0.735l-5.134-208.081l39.815-26.827
				C503.549,145.395,506.725,129.418,499.006,117.617z"/>
		</g>
		<g>
			<g>
				<path fill="#80B0BF" d="M425.908,193.59c-8.546,0-16.468-4.246-21.19-11.357c-7.745-11.677-4.548-27.477,7.125-35.222
					l54.78-36.368c4.176-2.776,9.027-4.244,14.028-4.244c8.544,0,16.465,4.245,21.188,11.355
					c7.749,11.672,4.561,27.472-7.107,35.221l-54.789,36.373C435.762,192.123,430.909,193.59,425.908,193.59z M480.65,114.399
					c-3.42,0-6.74,1.005-9.603,2.907l-54.782,36.37c-7.999,5.307-10.188,16.133-4.883,24.132c3.235,4.872,8.666,7.781,14.525,7.781
					c3.422,0,6.745-1.005,9.61-2.907l54.788-36.372c7.993-5.309,10.177-16.134,4.868-24.131
					C491.938,117.309,486.508,114.399,480.65,114.399z"/>
			</g>
			<g>
				<path fill="#80B0BF" d="M190.438,590.205l-6.155-5.109c0.287-0.346,28.927-34.798,53.038-59.999
					c15.673-16.373,29.707-23.452,50.123-30.79c15.54-5.585,33.154-11.916,50.29-24.698c14.717-10.985,25.295-27.747,34.628-42.535
					c8.392-13.296,15.639-24.78,24.187-28.741c17.611-8.165,45.238-14.771,54.695-16.901l-6.182-246.863L248.543,256.973
					l-4.229-6.79l208.394-129.804l6.698,267.476l-3.255,0.688c-0.358,0.076-36.004,7.667-56.239,17.047
					c-6.406,2.969-13.069,13.528-20.785,25.752c-9.705,15.376-20.703,32.804-36.61,44.677
					c-18.092,13.497-37.097,20.327-52.368,25.816c-19.267,6.924-32.472,13.563-47.049,28.792
					C219.187,555.622,190.723,589.862,190.438,590.205z"/>
			</g>
			<g>
				<path fill="#80B0BF" d="M66.864,457.61l-5.525-5.785c0.512-0.488,51.393-49.106,70.993-69.66
					c12.069-12.663,16.323-54.046,18.608-76.279c0.232-2.26,0.451-4.383,0.661-6.335c2.235-20.658,9.344-40.538,19.016-53.18
					c2.941-3.839,6.543-7.617,10.715-11.991c7.153-7.5,16.056-16.835,27.813-32.553c19.719-26.375,37.424-66.636,37.601-67.039
					l1.09-2.493l2.719,0.098c0.265,0.01,26.52,1.292,32.358,30.311c5.445,27.092-14.263,56.637-20.739,66.345l-0.532,0.798
					c-6.4,9.621-20.564,38.033-9.405,53.785c7.702,10.859,21.678,33.075,28.74,59.833c9.223,34.948,3.892,65.786-15.845,91.657
					l-6.36-4.852c18.162-23.807,23.031-52.326,14.47-84.764c-6.739-25.537-20.142-46.829-27.531-57.248
					c-6.422-9.064-7.407-21.355-2.929-36.533c3.119-10.572,8.521-20.779,12.198-26.308l0.539-0.809
					c6.021-9.026,24.342-36.492,19.552-60.329c-3.605-17.92-16.634-22.421-22.227-23.535c-4.403,9.705-19.828,42.512-37.292,65.871
					c-12.045,16.102-21.516,26.033-28.431,33.283c-4.177,4.38-7.476,7.839-10.152,11.333c-6.809,8.899-14.96,26.493-17.415,49.174
					c-0.208,1.938-0.425,4.049-0.656,6.296c-2.716,26.416-6.819,66.337-20.777,80.981C118.393,408.374,67.377,457.12,66.864,457.61z
					"/>
			</g>
		</g>
	</g>
	<g>
		<g>
			<path fill="#80B0BF" d="M448.941,415.062H303.373c-17.08,0-30.975-13.895-30.975-30.974V51.004
				c0-17.083,13.895-30.98,30.975-30.98h145.568c17.08,0,30.976,13.897,30.976,30.98v333.084
				C479.917,401.167,466.021,415.062,448.941,415.062z M303.373,40.024c-6.051,0-10.975,4.926-10.975,10.98v333.084
				c0,6.051,4.923,10.973,10.975,10.973h145.568c6.052,0,10.976-4.922,10.976-10.973V51.004c0-6.054-4.924-10.98-10.976-10.98
				H303.373z"/>
		</g>
	</g>
	<g>
		<path fill="#FFFFFF" d="M465.638,384.088c0,9.205-7.489,16.694-16.696,16.694H303.373c-9.205,0-16.696-7.489-16.696-16.694V51.004
			c0-9.209,7.491-16.701,16.696-16.701h145.568c9.207,0,16.696,7.492,16.696,16.701V384.088z"/>
	</g>
	<g>
		<path fill="#F9F9FA" d="M503.869,275.896c0.396-15.476-2.384-29.764-7.545-37.3c-8.516-12.45-26.187-15.479-26.187-15.479
			c0,35.716-7.941,38.098-7.941,56.354c0,6.448,2.481,11.65,6.354,15.227c-2.244,14.08-6.092,18.902-6.092,31.404
			c0,7.026,3.081,12.471,7.686,15.887c-0.607,21.882-5.908,16.875-5.908,29.81c0,9.543,7.157,15.509,15.515,15.509
			c9.242,0,15.502-6.56,15.802-18.194c0.301-11.628-3.871-17.124-6.843-20.929c-0.728-0.915-1.579-1.765-2.496-2.559
			c9.686-1.674,16.046-9.753,16.387-22.966c0.284-11.386-1.225-22.052-4.164-29.72C501.699,288.856,503.689,283.151,503.869,275.896
			z"/>
	</g>
	<g>
		<g>
			<path fill="#80B0BF" d="M479.75,391.307c-11.125,0-19.515-8.387-19.515-19.509c0-6.647,1.304-9.288,2.564-11.841
				c1.318-2.67,2.813-5.697,3.125-17.059l7.996,0.219c-0.359,13.114-2.349,17.144-3.948,20.382
				c-1.046,2.119-1.737,3.519-1.737,8.299c0,7.907,5.969,11.509,11.515,11.509c7.267,0,11.569-5.21,11.803-14.293
				c0.268-10.346-3.353-14.982-5.996-18.367c-0.513-0.655-1.158-1.319-1.917-1.97l5.213-6.069c1.157,0.995,2.17,2.042,3.008,3.114
				c3.005,3.848,8.032,10.285,7.69,23.5C499.204,382.637,491.433,391.307,479.75,391.307z"/>
		</g>
		<g>
			<path fill="#80B0BF" d="M482.832,304.106c-14.045,0-24.636-10.591-24.636-24.636c0-8.168,1.526-13.534,3.143-19.215
				c2.249-7.907,4.799-16.87,4.799-37.138v-4.744l4.676,0.802c0.79,0.135,19.448,3.472,28.812,17.163
				c5.587,8.149,8.669,22.977,8.242,39.661C507.418,293.336,497.825,304.106,482.832,304.106z M474.08,228.251
				c-0.412,17.902-2.963,26.868-5.047,34.193c-1.585,5.572-2.837,9.974-2.837,17.026c0,10.921,8.369,16.636,16.636,16.636
				c10.493,0,16.704-7.404,17.038-20.314c0.381-14.835-2.242-28.222-6.845-34.935C488.072,233.616,479.409,229.925,474.08,228.251z"
				/>
		</g>
		<g>
			<path fill="#80B0BF" d="M482.335,349.98c-13.617,0-23.886-10.266-23.886-23.879c0-7.883,1.473-13.056,3.032-18.533
				c0.901-3.167,1.833-6.442,2.633-10.647l7.859,1.494c-0.866,4.558-1.893,8.163-2.798,11.344
				c-1.523,5.351-2.727,9.577-2.727,16.343c0,10.425,7.991,15.879,15.886,15.879c10.021,0,15.95-7.079,16.266-19.422
				c0.23-9.136-0.74-17.948-2.733-24.812l7.682-2.231c2.218,7.633,3.3,17.309,3.05,27.247
				C506.176,339.297,496.652,349.98,482.335,349.98z"/>
		</g>
	</g>
	<g>
		<g>
			<path fill="#F8A4C7" d="M378.272,401.092c-5.89,0-11.654-1.165-17.132-3.461c-22.548-9.457-33.204-35.495-23.753-58.043
				c6.932-16.53,22.994-27.21,40.92-27.21c5.889,0,11.651,1.164,17.126,3.459c10.925,4.581,19.412,13.142,23.896,24.105
				c4.484,10.963,4.431,23.017-0.151,33.94C412.251,390.412,396.195,401.092,378.272,401.092z M378.307,314.378
				c-17.118,0-32.457,10.199-39.076,25.983c-9.024,21.532,1.151,46.396,22.682,55.425c5.232,2.193,10.736,3.306,16.359,3.306
				c17.115,0,32.447-10.199,39.062-25.982c4.375-10.431,4.427-21.941,0.144-32.41c-4.282-10.47-12.386-18.644-22.818-23.018
				C389.43,315.489,383.928,314.378,378.307,314.378z"/>
		</g>
		<g>
			<path fill="#F8A4C7" d="M378.272,394.588c-5.027,0-9.945-0.994-14.619-2.954c-19.242-8.068-28.332-30.289-20.263-49.535
				c5.914-14.105,19.617-23.22,34.911-23.22c5.026,0,9.945,0.994,14.619,2.955c9.324,3.909,16.568,11.215,20.396,20.572
				c3.828,9.356,3.783,19.644-0.125,28.966C407.276,385.476,393.57,394.588,378.272,394.588z M378.301,320.879
				c-14.486,0-27.466,8.633-33.066,21.993c-7.642,18.229,0.967,39.276,19.192,46.917c4.427,1.857,9.085,2.799,13.845,2.799
				c14.49,0,27.473-8.631,33.074-21.99c3.703-8.83,3.745-18.574,0.119-27.436c-3.626-8.863-10.487-15.782-19.319-19.484
				C387.719,321.821,383.061,320.879,378.301,320.879z"/>
		</g>
		<g>
			<path fill="#F8A4C7" d="M378.279,388.085c-4.163,0-8.235-0.823-12.106-2.446c-7.723-3.237-13.724-9.287-16.896-17.035
				c-3.172-7.748-3.136-16.267,0.101-23.987c4.902-11.683,16.256-19.231,28.925-19.231c4.163,0,8.235,0.823,12.105,2.445
				c7.721,3.238,13.718,9.289,16.888,17.038c3.17,7.75,3.131,16.27-0.11,23.989C402.291,380.538,390.943,388.085,378.279,388.085z
				 M378.303,327.385c-11.862,0-22.491,7.067-27.081,18.005c-3.03,7.228-3.063,15.203-0.094,22.456
				c2.97,7.254,8.587,12.918,15.818,15.948c3.625,1.521,7.437,2.291,11.333,2.291c11.856,0,22.479-7.066,27.063-18.001
				c3.034-7.227,3.071-15.203,0.103-22.458c-2.968-7.255-8.583-12.919-15.811-15.951
				C386.011,328.155,382.198,327.385,378.303,327.385z"/>
		</g>
		<g>
			<path fill="#F8A4C7" d="M378.276,381.581c-3.299,0-6.526-0.652-9.592-1.939c-6.122-2.565-10.876-7.36-13.389-13.502
				c-2.512-6.141-2.481-12.893,0.086-19.013c3.88-9.259,12.875-15.241,22.916-15.241c3.3,0,6.53,0.652,9.6,1.938
				c12.626,5.298,18.592,19.886,13.3,32.52C397.312,375.6,388.314,381.581,378.276,381.581z M378.297,333.886
				c-9.232,0-17.503,5.501-21.071,14.015c-2.361,5.627-2.39,11.836-0.08,17.482c2.31,5.647,6.682,10.056,12.311,12.415
				c2.82,1.184,5.787,1.783,8.819,1.783c9.231,0,17.504-5.499,21.078-14.01c4.866-11.616-0.62-25.03-12.229-29.902
				C384.3,334.485,381.331,333.886,378.297,333.886z"/>
		</g>
	</g>
	<g>
		<g>
			<path fill="#FFFFFF" d="M714.684,642.854c-20.041-19.568-29.379-36.704-35.697-65.484
				c-8.889-40.532-27.318-85.178-37.513-108.186c-5.358-12.084-16.962-23.268-34.492-33.235
				c-12.489-7.112-31.432-3.898-36.888-2.761c-5.94-4.34-12.1-8.034-17.42-9.559c-12.422-3.561-32.101,1.151-38.573,2.9
				c-6.517-5.51-12.92-10.348-18.411-13.444c-16.181-9.126-33.887,1.125-40.719,5.928c-5.635-7.49-10.268-13.686-12.834-17.175
				c-13.226-17.997-21.539-27.912-28.215-35.881l-2.159-2.579c-9.5-11.381-23.966-22.73-38.946-12.17
				c-10.259,7.231-11.41,19.971-3.427,37.864c4.703,10.553,11.963,22.537,23.415,41.213c5.437,8.869,11.965,19.058,18.877,29.845
				c9.935,15.501,20.207,31.529,29.179,46.622c9.77,16.438,20.511,49.662,25.37,65.602l-25.888-12.237
				c-1.366-1.104-2.807-2.3-4.313-3.554c-12.527-10.405-29.682-24.656-52.307-26.768c-30.287-2.812-34.98,25.203-35.025,25.485
				l-0.369,2.409l1.943,1.5c2.481,1.92,6.012,4.332,10.099,7.125c11.77,8.043,29.559,20.197,43.545,35.113l0.258,0.251
				c2.1,1.886,51.674,46.336,73.088,59.511c15.175,9.348,35.014,15.381,60.646,18.444c17.714,2.113,36.048,5.202,48.462,17.45
				c15.586,15.382,91.678,101.635,92.444,102.504l2.932,3.324l100.774-96.585C782.52,706.328,737.87,665.499,714.684,642.854z"/>
		</g>
		<g>
			<g>
				<path fill="#80B0BF" d="M776.588,713.115c-0.417-0.387-41.992-38.921-65.562-62.249c-21.306-21.083-31.716-40.413-38.409-71.32
					c-8.845-40.88-27.272-86.111-37.47-109.435c-5.855-13.381-20.344-23.833-31.467-30.245c-9.728-5.614-26.915-3.079-32.717-1.629
					l-1.939-7.762c0.98-0.244,24.164-5.9,38.653,2.46c17.689,10.198,29.398,21.627,34.799,33.97
					c10.317,23.598,28.968,69.389,37.959,110.948c6.408,29.588,15.886,47.206,36.218,67.327
					c23.477,23.236,64.955,61.68,65.372,62.065L776.588,713.115z"/>
			</g>
			<g>
				<path fill="#80B0BF" d="M589.511,458c-6.744-7.153-26.895-26.486-38.983-29.996c-10.424-3.032-29.854,1.54-36.461,3.555
					l-2.334-7.652c1.062-0.325,26.2-7.895,41.026-3.585c16.655,4.836,41.523,31.076,42.574,32.191L589.511,458z"/>
			</g>
			<g>
				<path fill="#80B0BF" d="M548.164,468.636c-0.363-0.402-36.521-40.439-57.125-52.212c-15.39-8.8-34.471,7.268-34.662,7.432
					l-5.199-6.08c0.953-0.816,23.609-19.86,43.831-8.297c21.717,12.409,57.585,52.122,59.101,53.806L548.164,468.636z"/>
			</g>
			<g>
				<path fill="#80B0BF" d="M680.746,805.609c-0.776-0.893-77.813-89.396-93.601-105.185
					c-12.628-12.629-31.242-15.808-49.225-17.982c-25.913-3.142-45.959-9.318-61.283-18.884
					c-21.656-13.507-71.825-59.095-73.95-61.029l-0.243-0.241c-14.182-15.324-32.203-27.806-44.128-36.064
					c-4.135-2.864-7.706-5.337-10.213-7.302l-1.838-1.44l0.351-2.309c0.043-0.288,4.716-28.789,35.154-25.913
					c22.816,2.158,40.144,16.746,52.796,27.397c1.54,1.296,3.007,2.531,4.4,3.671l26.808,12.844
					c-4.834-16.115-15.865-50.875-25.893-67.974c-9.083-15.485-19.481-31.93-29.537-47.833c-7-11.069-13.61-21.524-19.114-30.625
					c-11.584-19.146-18.927-31.431-23.687-42.254c-8.022-18.221-6.887-31.178,3.375-38.509c8.275-5.912,21.768-8.553,39.051,12.438
					l2.19,2.651c6.757,8.171,15.167,18.341,28.549,36.793c11.4,15.721,63.149,84.89,63.671,85.586l-6.406,4.793
					c-0.521-0.697-52.306-69.913-63.741-85.683c-13.232-18.246-21.552-28.307-28.238-36.392l-2.2-2.664
					c-16.165-19.632-25.243-13.146-28.226-11.015c-9.119,6.514-4.769,19.543-0.703,28.777c4.562,10.372,11.791,22.464,23.209,41.335
					c5.463,9.033,12.053,19.455,19.031,30.49c10.091,15.958,20.525,32.461,29.676,48.062c13.771,23.482,28.575,76.191,29.198,78.424
					l2.372,8.494l-43.701-20.938l-0.368-0.3c-1.534-1.248-3.157-2.614-4.869-4.056c-11.845-9.972-28.068-23.629-48.395-25.552
					c-9.585-0.907-16.911,1.943-21.768,8.459c-2.312,3.101-3.558,6.375-4.181,8.474c2.134,1.564,4.817,3.423,7.801,5.489
					c12.18,8.436,30.569,21.172,45.326,37.08c2.844,2.581,52.138,47.236,72.676,60.044c14.111,8.81,33.629,14.774,58.01,17.73
					c19.369,2.342,39.488,5.836,53.919,20.268c15.983,15.982,90.802,101.938,93.979,105.589L680.746,805.609z"/>
			</g>
		</g>
	</g>
	<g>
		<g>
			<g>
				<path fill="#80B0BF" d="M413.678,189.075c0-0.928-0.753-1.682-1.682-1.682h-7.736v-7.736c0-0.929-0.754-1.683-1.682-1.683
					c-0.931,0-1.684,0.753-1.684,1.683v7.736h-7.736c-0.93,0-1.682,0.754-1.682,1.682c0,0.93,0.752,1.682,1.682,1.682h7.736v7.737
					c0,0.929,0.753,1.683,1.684,1.683c0.928,0,1.682-0.754,1.682-1.683v-7.737h7.736
					C412.924,190.757,413.678,190.004,413.678,189.075z"/>
			</g>
			<g>
				<path fill="#80B0BF" d="M402.578,201.394c-1.6,0-2.9-1.301-2.9-2.899v-6.52h-6.52c-1.598,0-2.899-1.301-2.899-2.899
					c0-1.599,1.302-2.899,2.899-2.899h6.52v-6.519c0-1.598,1.301-2.9,2.9-2.9c1.599,0,2.898,1.302,2.898,2.9v6.519h6.52
					c1.599,0,2.899,1.3,2.899,2.899c0,1.598-1.301,2.899-2.899,2.899h-6.52v6.52C405.477,200.093,404.177,201.394,402.578,201.394z
					 M393.158,188.61c-0.257,0-0.465,0.208-0.465,0.465s0.208,0.465,0.465,0.465h8.954v8.954c0,0.257,0.209,0.465,0.466,0.465
					c0.256,0,0.464-0.208,0.464-0.465v-8.954h8.954c0.257,0,0.466-0.208,0.466-0.465s-0.209-0.465-0.466-0.465h-8.954v-8.953
					c0-0.256-0.208-0.465-0.464-0.465c-0.257,0-0.466,0.209-0.466,0.465v8.953H393.158z"/>
			</g>
		</g>
		<g>
			<g>
				<path fill="#80B0BF" d="M427.516,199.92l-2.6-1.289c1.534-3.221,2.461-6.766,2.461-10.561c0-11.996-8.627-21.983-19.996-24.151
					v-13.573c0-8.343-3.229-16.173-9.09-22.034c-5.931-5.931-13.791-9.189-22.134-9.189c-17.267,0-31.322,14.007-31.322,31.224
					v17.829c0,6.983,2.394,13.367,6.284,18.567l-1.281,0.641v-0.009l-25.037,12.538c-5.39,2.698-8.728,8.097-8.728,14.095v17.418
					v5.404v7.061c0,1.679,1.103,3.04,2.463,3.04c1.359,0,2.462-1.361,2.462-3.04v-7.061l0,0v-22.822
					c0-4.117,2.295-7.821,5.999-9.673l5.112-2.561v0.011l22.329-11.19c5.635,5.428,13.277,8.807,21.719,8.807
					c1.655,0,3.104-0.288,4.581-0.522c4.019,8.146,12.331,13.819,22.015,13.819c8.007,0,15.07-3.912,19.572-9.85l2.992,1.486
					c3.694,1.853,5.999,5.556,5.999,9.673v17.418v5.404v7.061c0,1.679,1.104,3.04,2.465,3.04c1.358,0,2.461-1.361,2.461-3.04v-7.061
					v-5.404v-17.418C436.242,208.008,432.903,202.609,427.516,199.92z M378.985,194.159c-0.946,0.108-1.794,0.315-2.828,0.315
					c-14.558,0-26.397-11.801-26.397-26.299v-17.829c0-14.499,11.84-26.299,26.397-26.299c7.023,0,13.652,2.75,18.646,7.752
					c4.936,4.935,7.654,11.525,7.654,18.547v13.131c-13.436,0.167-24.329,11.121-24.329,24.594
					C378.128,190.18,378.481,192.2,378.985,194.159z M402.753,207.772c-10.864,0-19.7-8.836-19.7-19.702
					c0-10.863,8.836-19.699,19.7-19.699c10.863,0,19.698,8.836,19.698,19.699C422.451,198.936,413.616,207.772,402.753,207.772z"/>
			</g>
			<g>
				<path fill="#80B0BF" d="M433.781,248.146c-2.031,0-3.681-1.91-3.681-4.257v-29.883c0-3.647-2.042-6.937-5.327-8.586
					l-2.104-1.043c-4.968,6.073-12.171,9.537-19.917,9.537c-9.543,0-18.156-5.224-22.692-13.692
					c-1.218,0.199-2.479,0.396-3.903,0.396c-8.14,0-15.896-3.033-21.933-8.555l-23.334,11.691v-0.01l-3.349,1.678
					c-3.286,1.644-5.326,4.933-5.326,8.585l-0.001,29.883c0,2.347-1.65,4.257-3.679,4.257c-2.029,0-3.681-1.91-3.681-4.257v-29.883
					c0-6.463,3.603-12.281,9.4-15.183l25.039-12.54c-3.718-5.435-5.677-11.667-5.677-18.109v-17.829
					c0-17.888,14.597-32.441,32.539-32.441c8.673,0,16.839,3.392,22.995,9.546c6.092,6.093,9.447,14.224,9.447,22.895v12.587
					c11.645,2.693,19.995,13.107,19.995,25.137c0,3.384-0.702,6.739-2.088,9.991l1.55,0.769c5.801,2.896,9.402,8.709,9.402,15.176
					v29.883C437.459,246.236,435.809,248.146,433.781,248.146z M421.965,201.309l3.895,1.934c4.119,2.067,6.676,6.189,6.676,10.764
					v29.883c0,0.988,0.57,1.823,1.246,1.823c0.674,0,1.243-0.834,1.243-1.823v-29.883c0-5.538-3.086-10.518-8.052-12.998
					l-3.671-1.82l0.515-1.082c1.556-3.261,2.344-6.638,2.344-10.037c0-11.201-7.992-20.855-19.007-22.956l-0.988-0.189v-14.58
					c0-8.021-3.102-15.541-8.734-21.173c-5.696-5.696-13.25-8.833-21.273-8.833c-16.6,0-30.104,13.461-30.104,30.007v17.829
					c0,6.387,2.089,12.556,6.04,17.839l0.874,1.165l-4.346,2.174v-0.008L325.346,201c-4.97,2.488-8.056,7.471-8.056,13.007v29.883
					c0,0.988,0.57,1.823,1.246,1.823c0.675,0,1.245-0.834,1.245-1.823v-29.883c0-4.58,2.557-8.703,6.671-10.762l6.873-3.443v0.01
					l21.338-10.692l0.62,0.597c5.667,5.459,13.08,8.466,20.874,8.466c1.306,0,2.476-0.191,3.714-0.397l1.562-0.251l0.397,0.805
					c3.998,8.105,12.015,13.14,20.923,13.14c7.308,0,14.09-3.415,18.603-9.368L421.965,201.309z M402.753,208.989
					c-11.534,0-20.917-9.384-20.917-20.918c0-11.533,9.383-20.916,20.917-20.916c11.532,0,20.917,9.382,20.917,20.916
					C423.67,199.604,414.285,208.989,402.753,208.989z M402.753,169.588c-10.192,0-18.483,8.291-18.483,18.482
					c0,10.193,8.291,18.484,18.483,18.484c10.19,0,18.482-8.291,18.482-18.484C421.235,177.879,412.943,169.588,402.753,169.588z
					 M376.157,195.69c-15.227,0-27.614-12.343-27.614-27.516v-17.829c0-15.171,12.388-27.516,27.614-27.516
					c7.36,0,14.287,2.879,19.507,8.109c5.164,5.164,8.01,12.056,8.01,19.407v14.333l-1.202,0.015
					c-12.752,0.158-23.128,10.646-23.128,23.377c0,1.772,0.261,3.611,0.82,5.786l0.348,1.353l-1.39,0.159
					c-0.293,0.034-0.576,0.078-0.858,0.121C377.617,195.588,376.946,195.69,376.157,195.69z M376.157,125.264
					c-13.884,0-25.181,11.252-25.181,25.082v17.829c0,13.831,11.297,25.082,25.181,25.082c0.464,0,0.896-0.049,1.337-0.113
					c-0.396-1.829-0.584-3.467-0.584-5.073c0-13.654,10.808-24.971,24.329-25.768v-11.957c0-6.701-2.591-12.981-7.296-17.687
					C389.182,127.89,382.865,125.264,376.157,125.264z"/>
			</g>
		</g>
	</g>
	<g>
		<path fill="#80B0BF" d="M415.133,52.234c0,3.038-2.462,5.5-5.5,5.5h-69.205c-3.037,0-5.5-2.462-5.5-5.5l0,0
			c0-3.038,2.463-5.5,5.5-5.5h69.205C412.671,46.734,415.133,49.197,415.133,52.234L415.133,52.234z"/>
	</g>
</g>
</svg>
