<?xml version="1.0" encoding="utf-8"?>
<!-- Generator: Adobe Illustrator 16.0.4, SVG Export Plug-In . SVG Version: 6.00 Build 0)  -->
<!DOCTYPE svg PUBLIC "-//W3C//DTD SVG 1.1//EN" "http://www.w3.org/Graphics/SVG/1.1/DTD/svg11.dtd">
<svg version="1.1" id="Layer_1" xmlns="http://www.w3.org/2000/svg" xmlns:xlink="http://www.w3.org/1999/xlink" x="0px" y="0px"
	 width="841.89px" height="689.965px" viewBox="0 0 841.89 689.965" enable-background="new 0 0 841.89 689.965"
	 xml:space="preserve">
<g>
	<circle fill="#EDDB86" cx="423.717" cy="380.596" r="248.654"/>
	<path fill="#FFFFFF" d="M635.811,139.417c-6.975-10.503-21.141-13.367-31.635-6.393l-28.652,19.021L367.078,281.853
		c3.486-12.263,9.686-23.177,12.666-27.659c5.826-8.771,27.674-40.383,22.049-68.379c-5.633-27.99-30.473-28.893-30.473-28.893
		s-19.016,43.475-40.576,72.313c-20.221,27.047-33.074,37.044-41.1,47.526c-8.018,10.477-16.758,29.963-19.414,54.558
		c-2.652,24.598-6.543,74.661-21.703,90.557c-21.205,22.24-75.824,74.407-75.824,74.407l131.412,141.714
		c0,0,30.436-36.67,56.342-63.738c16.736-17.5,31.938-24.627,51.787-31.762c17.906-6.432,36.512-13.34,54.719-26.924
		c30.49-22.757,44.789-67.584,61.945-75.533c22.277-10.326,60.867-18.479,60.867-18.479l-5.482-220.549l45.135-29.961
		C639.922,164.081,642.783,149.917,635.811,139.417z"/>
	<g>
		<path fill="none" stroke="#80B0BF" stroke-width="8" stroke-miterlimit="10" d="M571.02,209.827
			c-10.502,6.968-24.67,4.11-31.643-6.394c-6.975-10.502-4.109-24.664,6.391-31.638l58.408-38.771
			c10.494-6.974,24.66-4.11,31.635,6.39c6.973,10.503,4.111,24.667-6.393,31.639L571.02,209.827z"/>
		<path fill="none" stroke="#80B0BF" stroke-width="8" stroke-miterlimit="10" d="M304.107,637.998c0,0,30.443-36.67,56.342-63.738
			c16.744-17.5,31.938-24.627,51.795-31.762c17.906-6.432,36.512-13.34,54.719-26.924c30.49-22.757,44.789-67.584,61.945-75.533
			c22.277-10.326,60.867-18.479,60.867-18.479l-6.873-274.147L367.078,281.853"/>
		<path fill="none" stroke="#80B0BF" stroke-width="8" stroke-miterlimit="10" d="M383.625,472.805
			c47.393-62.118,0.312-136.5-13.834-156.445c-14.133-19.949,4.117-53.393,9.953-62.166c5.826-8.771,27.674-40.383,22.049-68.379
			c-5.633-27.995-30.473-28.893-30.473-28.893s-19.016,43.475-40.576,72.313c-20.23,27.047-33.074,37.044-41.1,47.526
			c-8.018,10.477-16.758,29.963-19.42,54.558c-2.646,24.598-6.545,74.661-21.697,90.557c-21.205,22.24-75.824,74.407-75.824,74.407"
			/>
	</g>
	<g>
		<path fill="none" stroke="#80B0BF" stroke-width="20" stroke-miterlimit="10" d="M582.971,443.348H427.785
			c-12.348,0-22.363-10.01-22.363-22.362V65.893c0-12.35,10.016-22.365,22.363-22.365h155.186c12.348,0,22.359,10.016,22.359,22.365
			v355.093C605.33,433.338,595.318,443.348,582.971,443.348z"/>
	</g>
	<path fill="#FFFFFF" d="M601.109,419.662c0,10.004-8.137,18.143-18.139,18.143H427.785c-10.004,0-18.143-8.139-18.143-18.143
		V64.569c0-10.005,8.139-18.145,18.143-18.145h155.186c10.002,0,18.139,8.14,18.139,18.145V419.662z"/>
	<g>
		<path fill="#FFFFFF" d="M641.529,305.645c0.42-16.5-2.543-31.731-8.043-39.764c-9.078-13.272-27.92-16.503-27.92-16.503
			c0,38.075-8.465,40.615-8.465,60.078c0,6.873,2.637,12.418,6.764,16.233c-2.385,15.008-6.494,20.151-6.494,33.479
			c0,7.49,3.293,13.295,8.205,16.938c-0.658,23.326-6.301,17.988-6.301,31.781c0,10.172,7.631,16.53,16.543,16.53
			c9.854,0,16.521-6.993,16.844-19.397c0.318-12.395-4.129-18.254-7.295-22.309c-0.775-0.978-1.684-1.883-2.662-2.727
			c10.326-1.789,17.098-10.4,17.467-24.483c0.305-12.144-1.303-23.512-4.439-31.684C639.213,319.461,641.336,313.38,641.529,305.645
			z"/>
		<g>
			<path fill="none" stroke="#80B0BF" stroke-width="8" stroke-miterlimit="10" d="M622.74,379.998
				c0.975,0.84,1.869,1.744,2.627,2.713c3.166,4.055,7.613,9.914,7.295,22.314c-0.322,12.398-6.99,19.392-16.844,19.392
				c-8.912,0-16.543-6.358-16.543-16.53c0-13.797,5.424-7.334,6.064-30.695"/>
			<path fill="none" stroke="#80B0BF" stroke-width="8" stroke-miterlimit="10" d="M605.566,249.377c0,0,18.842,3.23,27.92,16.503
				c5.508,8.033,8.463,23.264,8.043,39.764c-0.428,16.502-9.307,25.809-22.43,25.809c-11.84,0-21.998-8.463-21.998-21.998
				C597.102,289.992,605.566,287.453,605.566,249.377z"/>
			<path fill="none" stroke="#80B0BF" stroke-width="8" stroke-miterlimit="10" d="M637.092,327.748
				c2.24,7.71,3.342,17.477,3.08,27.753c-0.404,15.89-8.967,24.86-21.602,24.86c-11.412,0-21.199-8.152-21.199-21.193
				c0-12.363,3.555-17.637,5.963-30.312"/>
		</g>
	</g>
	<g>
		<g>
			<g>
				<g>
					<g>
						<path fill="#80B0BF" stroke="#7FB0BF" stroke-miterlimit="10" d="M505.376,312.014c-36.142,0-65.466-29.323-65.466-65.466
							s29.324-65.465,65.466-65.465c36.143,0,65.464,29.323,65.464,65.465S541.519,312.014,505.376,312.014z M505.376,188.312
							c-32.052,0-58.237,26.187-58.237,58.236c0,32.053,26.186,58.237,58.237,58.237c32.05,0,58.237-26.185,58.237-58.237
							C563.613,214.498,537.426,188.312,505.376,188.312z"/>
						<path fill="#80B0BF" stroke="#7FB0BF" stroke-miterlimit="10" d="M505.376,312.354c-36.287,0-65.808-29.52-65.808-65.807
							c0-36.286,29.521-65.808,65.808-65.808c36.285,0,65.808,29.521,65.808,65.808
							C571.184,282.835,541.661,312.354,505.376,312.354z M505.376,181.425c-35.909,0-65.124,29.213-65.124,65.123
							c0,35.91,29.215,65.124,65.124,65.124s65.123-29.214,65.123-65.124C570.499,210.638,541.285,181.425,505.376,181.425z
							 M505.376,305.128c-32.302,0-58.579-26.28-58.579-58.58c0-32.3,26.277-58.579,58.579-58.579
							c32.3,0,58.577,26.279,58.577,58.579C563.953,278.848,537.676,305.128,505.376,305.128z M505.376,188.653
							c-31.925,0-57.896,25.971-57.896,57.895c0,31.924,25.972,57.896,57.896,57.896c31.923,0,57.896-25.971,57.896-57.896
							C563.272,214.624,537.299,188.653,505.376,188.653z"/>
					</g>
				</g>
			</g>
		</g>
		<g>
			<g>
				<path fill="#80B0BF" stroke="#7FB0BF" stroke-miterlimit="10" d="M494.969,263.327l-12.761-13.271
					c-1.787-1.913-1.787-3.572,0-5.358c1.787-1.786,3.445-1.786,5.36,0l10.463,10.337l25.264-25.266
					c1.787-1.786,3.446-1.786,5.232,0c1.787,1.786,1.787,3.444,0.127,5.357l0,0l-28.197,28.201 M500.326,263.327
					c-1.912,1.785-3.571,1.785-5.357,0"/>
				<path fill="#80B0BF" stroke="#7FB0BF" stroke-miterlimit="10" d="M497.598,265.014c-0.961,0-1.908-0.48-2.871-1.444l0.242-0.242
					l-0.248,0.237l-12.76-13.271c-1.921-2.061-1.919-3.914,0.006-5.838c1.924-1.924,3.777-1.928,5.834-0.008l10.229,10.104
					l25.023-25.024c1.94-1.94,3.779-1.939,5.717,0c1.896,1.897,1.943,3.747,0.145,5.823l-28.219,28.219l-0.48-0.483l28.197-28.201
					c1.541-1.777,1.507-3.241-0.126-4.875c-1.669-1.669-3.079-1.669-4.751,0l-25.504,25.505l-10.705-10.575
					c-1.766-1.649-3.227-1.649-4.877-0.001c-1.65,1.649-1.646,3.111,0.008,4.885l12.755,13.263c1.649,1.647,3.109,1.645,4.883-0.009
					l0.466,0.498C499.533,264.535,498.559,265.014,497.598,265.014z"/>
			</g>
		</g>
	</g>
	<path fill="#80B0BF" d="M545.479,69.592c0,3.038-2.463,5.5-5.5,5.5h-69.205c-3.037,0-5.5-2.462-5.5-5.5l0,0
		c0-3.038,2.463-5.5,5.5-5.5h69.205C543.016,64.092,545.479,66.554,545.479,69.592L545.479,69.592z"/>
</g>
</svg>
