<svg xmlns="http://www.w3.org/2000/svg" width="141.962" height="131.335" viewBox="0 0 141.962 131.335">
    <defs>
        <style>
            .cls-1{fill:#8abbd5}
        </style>
    </defs>
    <g id="Group_2882" data-name="Group 2882" transform="translate(-266.455 -234.923)">
        <g id="Group_2876" data-name="Group 2876" transform="translate(296.958 344.881)">
            <path id="Path_1184" d="M302.764 328.618A10.1 10.1 0 1 0 313 338.855a10.141 10.141 0 0 0-10.236-10.237zm0 14.8a4.677 4.677 0 0 1-4.552-4.559 4.692 4.692 0 1 1 9.38 0 4.733 4.733 0 0 1-4.828 4.555z" class="cls-1" data-name="Path 1184" transform="translate(-292.218 -328.028)"/>
            <path id="Path_1185" d="M302.854 349.494a10.689 10.689 0 0 1 0-21.376 10.837 10.837 0 0 1 10.823 10.827 10.7 10.7 0 0 1-10.823 10.549zm0-20.2a9.509 9.509 0 1 0 9.643 9.647 9.656 9.656 0 0 0-9.643-9.641zm0 14.8a5.28 5.28 0 0 1-5.142-5.149 5.5 5.5 0 0 1 5.142-5.422 5.562 5.562 0 0 1 5.418 5.422 5.3 5.3 0 0 1-5.418 5.148zm0-9.391a4.329 4.329 0 0 0-3.962 4.242 4.074 4.074 0 0 0 3.962 3.969 4.166 4.166 0 0 0 4.238-3.969 4.408 4.408 0 0 0-4.238-4.245z" class="cls-1" data-name="Path 1185" transform="translate(-292.308 -328.118)"/>
        </g>
        <g id="Group_2877" data-name="Group 2877" transform="translate(330.234 344.881)">
            <path id="Path_1186" d="M331.255 328.618a10.1 10.1 0 1 0 10.237 10.237 10.2 10.2 0 0 0-10.237-10.237zm0 14.8a4.5 4.5 0 0 1-4.556-4.559 4.559 4.559 0 1 1 9.1 0 4.493 4.493 0 0 1-4.544 4.555z" class="cls-1" data-name="Path 1186" transform="translate(-320.421 -328.028)"/>
            <path id="Path_1187" d="M331.345 349.494a10.706 10.706 0 0 1-10.834-10.549 10.83 10.83 0 0 1 21.66 0 10.7 10.7 0 0 1-10.826 10.549zm0-20.2a9.662 9.662 0 0 0-9.654 9.647 9.654 9.654 0 0 0 19.3 0 9.657 9.657 0 0 0-9.646-9.641zm0 14.8a5.093 5.093 0 0 1-5.145-5.149 5.3 5.3 0 0 1 5.145-5.422 5.356 5.356 0 0 1 5.137 5.422 5.088 5.088 0 0 1-5.137 5.148zm0-9.391a4.166 4.166 0 0 0-3.966 4.242 3.961 3.961 0 1 0 7.923 0 4.163 4.163 0 0 0-3.957-4.245z" class="cls-1" data-name="Path 1187" transform="translate(-320.511 -328.118)"/>
        </g>
        <g id="Group_2878" data-name="Group 2878" transform="translate(266.455 269.511)">
            <path id="Path_1188" d="M355.194 331.3H300.3c-3.982 0-3.982-5.976 0-5.976h54.894a2.773 2.773 0 0 0 2.846-2.27l7.06-24.466a29.788 29.788 0 0 1-5.842-1.785l-6.339 22.549h-50.34l-7.968-36.411h49.7a29.623 29.623 0 0 1-2.311-5.969h-48.809l-2-9.959a3.066 3.066 0 0 0-3.122-2.275h-17.916a2.994 2.994 0 1 0 0 5.974H285.8c.284 1.7 10.24 46.646 10.81 49.2-8.821 3.982-6.262 17.354 3.694 17.354h54.894c3.98 0 3.98-5.966-.004-5.966z" class="cls-1" data-name="Path 1188" transform="translate(-266.365 -264.148)"/>
            <path id="Path_1189" d="M355.284 337.946h-54.893a9.323 9.323 0 0 1-9.443-7.544 9.568 9.568 0 0 1 5.071-10.729c-1.115-5.019-9.584-43.262-10.618-48.282h-15.159a3.583 3.583 0 1 1 0-7.154h17.919a3.651 3.651 0 0 1 3.7 2.75l1.9 9.484h48.774l.118.438a29.228 29.228 0 0 0 2.267 5.846l.445.86h-49.93l7.709 35.231h49.418l6.4-22.763.616.261a29.3 29.3 0 0 0 5.722 1.756l.63.124-7.23 25.076a3.337 3.337 0 0 1-3.412 2.7h-54.897a2.4 2.4 0 0 0 0 4.8h54.894a3.575 3.575 0 1 1 0 7.15zm-85.042-72.528a2.405 2.405 0 1 0 0 4.794h16.144l.081.493c.284 1.7 10.311 46.954 10.8 49.17l.1.467-.439.2a8.416 8.416 0 0 0-4.837 9.614 8.2 8.2 0 0 0 8.29 6.612h54.894a2.4 2.4 0 1 0 0-4.79h-54.884a3.464 3.464 0 0 1-3.577-3.577 3.673 3.673 0 0 1 .9-2.447 3.473 3.473 0 0 1 2.682-1.132h54.894a2.188 2.188 0 0 0 2.268-1.8l6.9-23.9a30.474 30.474 0 0 1-4.709-1.437l-6.282 22.342h-51.272l-8.226-37.591h49.478a30.177 30.177 0 0 1-1.81-4.784H292.8l-2.1-10.432a2.492 2.492 0 0 0-2.544-1.8z" class="cls-1" data-name="Path 1189" transform="translate(-266.455 -264.238)"/>
        </g>
        <g id="Group_2881" data-name="Group 2881" transform="translate(342.637 234.923)">
            <g id="Group_2879" data-name="Group 2879" transform="translate(15.44 15.44)">
                <path id="Path_1190" d="M378.331 265.368a2.554 2.554 0 0 0-2.554-2.553h-11.752v-11.752a2.555 2.555 0 0 0-5.11 0v11.752h-11.752a2.554 2.554 0 0 0 0 5.109h11.752v11.753a2.555 2.555 0 0 0 5.11 0v-11.753h11.752a2.556 2.556 0 0 0 2.554-2.556z" class="cls-1" data-name="Path 1190" transform="translate(-344.019 -247.919)"/>
                <path id="Path_1191" d="M361.56 282.911a3.148 3.148 0 0 1-3.146-3.144V268.6h-11.161a3.144 3.144 0 0 1 0-6.289h11.162v-11.158a3.145 3.145 0 0 1 6.29 0v11.162h11.162a3.144 3.144 0 1 1 0 6.289H364.7v11.163a3.147 3.147 0 0 1-3.14 3.144zm-14.307-19.416a1.964 1.964 0 1 0 0 3.929h12.341v12.343a1.965 1.965 0 0 0 3.93 0v-12.343h12.341a1.964 1.964 0 1 0 0-3.929h-12.34v-12.342a1.965 1.965 0 0 0-3.93 0v12.342z" class="cls-1" data-name="Path 1191" transform="translate(-344.109 -248.009)"/>
            </g>
            <g id="Group_2880" data-name="Group 2880">
                <path id="Path_1192" d="M363.913 300.7a32.89 32.89 0 1 1 32.89-32.89 32.927 32.927 0 0 1-32.89 32.89zm0-59.881a26.991 26.991 0 1 0 26.987 26.994 27.022 27.022 0 0 0-26.987-26.991z" class="cls-1" data-name="Path 1192" transform="translate(-331.023 -234.923)"/>
            </g>
        </g>
    </g>
</svg>
