<svg xmlns="http://www.w3.org/2000/svg" width="19.98" height="17.98" viewBox="0 0 19.98 17.98">
    <defs>
        <style>
            .cls-1{fill:#8abbd5}
        </style>
    </defs>
    <g id="menu_1_" data-name="menu (1)" transform="translate(-33.5 -34.5)">
        <g id="Group_2913" data-name="Group 2913" transform="translate(33.5 33.5)">
            <path id="Path_1205" d="M52.129 33.5h-17.31a1.319 1.319 0 1 0 0 2.638h17.342a1.3 1.3 0 0 0 1.319-1.319 1.353 1.353 0 0 0-1.351-1.319z" class="cls-1" data-name="Path 1205" transform="translate(-33.5 -32.5)"/>
            <path id="Path_1206" d="M52.129 87.4h-17.31a1.319 1.319 0 1 0 0 2.638h17.342a1.3 1.3 0 0 0 1.319-1.319 1.353 1.353 0 0 0-1.351-1.319z" class="cls-1" data-name="Path 1206" transform="translate(-33.5 -71.058)"/>
            <path id="Path_1207" d="M52.129 60.4h-17.31a1.319 1.319 0 1 0 0 2.638h17.342a1.3 1.3 0 0 0 1.319-1.319 1.353 1.353 0 0 0-1.351-1.319z" class="cls-1" data-name="Path 1207" transform="translate(-33.5 -51.745)"/>
        </g>
    </g>
</svg>
