<?xml version="1.0" encoding="utf-8"?>
<!-- Generator: Adobe Illustrator 16.0.4, SVG Export Plug-In . SVG Version: 6.00 Build 0)  -->
<!DOCTYPE svg PUBLIC "-//W3C//DTD SVG 1.1//EN" "http://www.w3.org/Graphics/SVG/1.1/DTD/svg11.dtd">
<svg version="1.1" id="Layer_1" xmlns="http://www.w3.org/2000/svg" xmlns:xlink="http://www.w3.org/1999/xlink" x="0px" y="0px"
	 width="841.89px" height="595.28px" viewBox="0 0 841.89 595.28" enable-background="new 0 0 841.89 595.28" xml:space="preserve">
<g>
	<circle fill="#80B0BF" cx="497.072" cy="256.501" r="209.007"/>
	<g>
		<path fill="#EDDB86" d="M374.324,120.503c-35.467,16.882-64.208,40.307-86.229,67.377c0,0-11.191,13.829-23.402,36.891
			c-11.73,22.146-17.721,40.327-19.582,46.254c-2.795,8.896-7.651,24.639-9.969,46.018c-2.705,24.956-0.379,43.328,0.245,48.144
			c0.614,4.738,1.615,9.86,1.615,9.86c1.297,6.655,1.62,7.159,2.757,10.126c0.062,0.163,0.861,3.531,1.147,4.42
			c0.437,1.345,0.527,2.52,0.534,3.291c-0.072,0.889-0.201,2.133-0.45,3.605c-0.961,5.658-2.856,9.725-3.306,10.668
			c-0.433,0.904-2.054,3.671-5.303,9.207c-0.381,0.651-0.639,1.091-0.695,1.189c-0.696,1.182-12.876,21.94-5.445,31.709
			c0,0,5.557,7.305,24.965,6.117c0.503-0.029,1.187-0.072,2.555-0.15c2.3-0.133,2.563-0.146,2.854-0.149
			c1.26-0.02,2.004,0.112,4.205,0.45c5.34,0.817,4.977,0.658,5.863,0.902c2.271,0.629,3.926,1.49,4.807,1.952
			c0.802,0.423,1.036,0.6,3.811,2.417c3.929,2.572,3.812,2.449,5.5,3.593c1.495,1.011,2.783,1.88,4.508,3.155
			c3.188,2.352,5.037,3.988,6.174,5.041c0.309,0.289,0.533,0.502,0.553,0.52c12.484,11.773,64.78,40.708,134.735,45.046
			c32.191,1.996,54.457-1.736,60.598-2.84c28.562-5.119,48.856-14.315,55.38-17.403c10.323-4.889,18.67-9.873,24.789-13.861
			c4.528-4.938,10.705-12.553,16.104-22.881c6.892-13.191,16.602-38.623,8.049-91.1c-2.476-15.191-13.517-75.804-59.746-141.945
			c-25.615-36.65-49.203-56.708-66.099-70.76c-32.058-26.662-52.971-34.991-73.3-36.864
			C384.974,119.806,378.636,120.108,374.324,120.503z"/>
		<g>
			<path fill="#FFFFFF" d="M558.775,470.388c-43.782,25.248-122.069-28.496-174.86-120.039
				c-52.792-91.541-60.094-186.219-16.313-211.467c43.783-25.248,122.379,25.522,175.168,117.064
				C595.563,347.489,602.559,445.138,558.775,470.388z"/>
			<g>
				<g>
					<g>
						<path fill="#EDDB86" d="M470.963,429.413c3.088-29.661,3.046-62.393-0.529-97.197c-0.566-5.231,4.291-4.421,7.047,1.332
							c18.228,38.182,32.187,77.895,41.739,117.361c1.54,6.393-0.072,9.441-3.147,10.133c-1.163,0.266-2.455,0.142-3.794-0.256
							c-4.329-1.273-9.611-3.223-15.637-6.112c-6.922-3.321-12.892-6.909-17.62-9.979c-0.4-0.261-0.806-0.47-1.209-0.665
							C473.693,442.024,470.391,435.112,470.963,429.413z"/>
						<path fill="#EDDB86" d="M422.841,384.491c11.688-20.574,23.322-41.217,34.901-61.929c1.72-3.143,7.062,1.59,7.642,6.82
							c3.882,34.708,4.216,67.4,1.404,97.073c-0.461,4.795-3.136,5.586-6.573,4.196c-1.303-0.528-2.612-1.357-3.885-2.377
							c-4.119-3.294-9-7.448-14.346-12.534c-6.139-5.838-11.207-11.311-15.175-15.863c-0.339-0.387-0.69-0.736-1.047-1.074
							C422.129,395.37,420.625,388.479,422.841,384.491z"/>
					</g>
					<g>
						<path fill="#EDDB86" d="M564.707,340.981c-27.604-15.89-54.452-26.096-79.733-31.099c-3.774-0.707-2.707,6.5,1.451,10.561
							c27.911,27.343,54.815,61.235,79.136,101.288c3.912,6.465,7.052,7.318,9.301,4.569c0.846-1.04,1.463-2.556,1.875-4.384
							c1.338-5.906,2.5-13.723,2.698-23.906c0.229-11.693-0.936-23.22-2.444-32.809c-0.131-0.814-0.211-1.592-0.286-2.357
							C575.982,354.971,570.025,343.997,564.707,340.981z"/>
						<path fill="#EDDB86" d="M512.504,230.847c-12.188,19.928-24.322,39.927-36.4,59.995c-1.781,3.02,2.444,10.695,6.226,11.395
							c25.364,4.604,52.337,14.406,80.112,29.896c4.479,2.52,5.58-1.191,4.366-8.17c-0.458-2.634-1.245-5.524-2.257-8.505
							c-3.266-9.617-7.801-21.396-14.115-34.627c-7.25-15.193-14.795-27.95-21.199-37.725c-0.543-0.833-1.06-1.681-1.574-2.535
							C522.399,231.776,514.821,226.979,512.504,230.847z"/>
						<path fill="#EDDB86" d="M536.418,464.373c0.345-0.108,0.697-0.198,1.067-0.221c4.212-0.265,9.293-1.169,14.555-3.823
							c5.306-2.691,9.254-6.451,12.146-10.142c0.259-0.324,0.554-0.584,0.85-0.821c3.047-2.383,1.896-12.365-2.635-20.127
							c-23.434-40.257-49.598-74.599-76.942-102.564c-2.034-2.079-3.639-2.243-4.479-1.034c-0.76,1.166-0.656,3.529,0.754,6.393
							c19.005,38.598,33.76,79.011,44.054,119.472C527.761,459.23,532.869,465.429,536.418,464.373z"/>
					</g>
				</g>
				<g>
					<g>
						<path fill="#EDDB86" d="M380.948,315.545c19.041-9.48,40.624-14.856,64.16-15.363c3.543-0.037,2.203-7.064-2.045-10.174
							c-28.202-20.548-56.697-34.542-84.3-42.077c-4.468-1.208-6.211,1.676-6.156,6.326c0.018,1.761,0.313,3.646,0.799,5.556
							c1.559,6.172,3.721,13.642,6.627,22.05c3.338,9.654,6.695,17.867,9.503,24.334c0.239,0.549,0.444,1.107,0.64,1.671
							C372.182,313.611,377.288,317.338,380.948,315.545z"/>
						<path fill="#EDDB86" d="M418.554,379.069c11.622-20.658,23.298-41.248,35.028-61.769c1.785-3.06-2.222-10.156-5.766-10.141
							c-23.524,0.041-45.13,4.977-64.225,14.051c-3.081,1.48-3.158,5.555-1.674,10.394c0.565,1.836,1.329,3.628,2.215,5.338
							c2.854,5.527,6.404,12.04,10.642,19.08c4.869,8.084,9.32,14.654,12.979,19.75c0.312,0.434,0.6,0.896,0.879,1.367
							C411.5,381.927,416.295,383.003,418.554,379.069z"/>
					</g>
					<g>
						<path fill="#EDDB86" d="M423.671,162.569c15.06,38.081,26.248,75.991,33.745,112.455c1.094,5.449-3.835,5.072-7.201-0.385
							c-22.66-36.634-49.471-70.692-79.915-99.913c-4.91-4.698-5.997-9.188-4.556-12.962c0.543-1.421,1.441-2.58,2.579-3.497
							c3.669-2.952,8.628-5.969,15.31-7.951c7.668-2.278,15.461-2.477,22.03-1.84c0.56,0.053,1.086,0.047,1.605,0.027
							C412.579,148.261,420.8,155.224,423.671,162.569z"/>
						<path fill="#EDDB86" d="M504.942,221.282c-11.11,21.29-22.276,42.512-33.501,63.665c-1.694,3.128-7.456-1.831-8.544-7.29
							c-7.25-36.655-18.192-74.815-33.016-113.214c-2.404-6.188-0.141-8.426,4.659-7.798c1.813,0.241,3.852,0.919,5.984,1.917
							c6.879,3.221,15.397,7.955,25.168,15.07c11.222,8.17,20.881,17.183,28.389,25.004c0.64,0.664,1.286,1.286,1.934,1.899
							C502.689,206.839,507.108,217.225,504.942,221.282z"/>
						<path fill="#EDDB86" d="M347.032,224.796c0.015-0.528,0.016-1.059-0.03-1.609c-0.526-6.26-0.777-13.905,0.099-22.104
							c0.895-8.277,2.719-14.726,4.67-19.606c0.172-0.43,0.292-0.913,0.4-1.387c1.066-4.891,7.836-4.849,13.708,0.544
							c30.424,27.881,57.412,60.771,80.387,96.465c1.71,2.656,2.084,4.993,1.426,6.435c-0.643,1.314-2.215,1.554-4.336-0.052
							c-28.604-21.619-57.694-36.674-86.075-45.142C351.861,236.712,346.924,230.207,347.032,224.796z"/>
					</g>
				</g>
			</g>
		</g>
	</g>
</g>
</svg>
