<?xml version="1.0" encoding="utf-8"?>
<!-- Generator: Adobe Illustrator 16.0.4, SVG Export Plug-In . SVG Version: 6.00 Build 0)  -->
<!DOCTYPE svg PUBLIC "-//W3C//DTD SVG 1.1//EN" "http://www.w3.org/Graphics/SVG/1.1/DTD/svg11.dtd">
<svg version="1.1" id="Layer_1" xmlns="http://www.w3.org/2000/svg" xmlns:xlink="http://www.w3.org/1999/xlink" x="0px" y="0px"
	 width="841.89px" height="595.28px" viewBox="0 0 841.89 595.28" enable-background="new 0 0 841.89 595.28" xml:space="preserve">
<g>
	<circle fill="#80B0BF" cx="456.95" cy="298.516" r="209.007"/>
	<g>
		<path fill="#EDDB86" d="M456.626,449.939c2.098-1.926,4.124-3.887,6.071-5.879c33.665-34.407,48.889-82.396,50.393-115.784
			c0.354-7.784,2.088-46.245-9.465-65.295c-1.361-2.248-5.014-7.698-6.805-15.954c-2.224-10.236,0.917-13.309-0.389-23.156
			c-0.42-3.164-2.115-15.476-11.941-24.881c-9.982-9.394-22.298-10.379-25.479-10.633c-9.902-0.788-12.811,2.505-23.148,0.82
			c-8.338-1.357-13.974-4.723-16.288-5.967c-19.63-10.54-57.948-6.798-65.702-6.038c-33.265,3.247-80.392,20.956-112.996,56.371
			c-1.885,2.049-3.736,4.178-5.552,6.37c-2.077,1.909-4.13,3.895-6.079,5.888c-33.664,34.408-48.895,82.404-50.4,115.794
			c-0.351,7.782-2.087,46.244,9.467,65.295c1.361,2.248,5.016,7.701,6.809,15.956c2.221,10.237-0.914,13.312,0.391,23.16
			c0.418,3.162,2.047,15.41,11.949,24.887c9.906,9.321,22.289,10.372,25.469,10.626c9.902,0.788,12.808-2.508,23.146-0.823
			c8.338,1.358,13.973,4.722,16.287,5.965c19.629,10.54,57.946,6.798,65.7,6.04c33.265-3.25,80.4-20.966,113.003-56.383
			C452.953,454.269,454.83,452.113,456.626,449.939z"/>
		<path fill="#5A9575" d="M477.932,194.803c-0.801-0.287-6.961-2.396-10.727,0.703c-4.728,3.891-3.032,13.812,2.334,18.468
			c6.26,5.43,17.812,3.953,20.444-1.659c1.427-3.042-0.06-6.687-1.056-8.612c0.705-3.828,2.318-9.631,6.51-15.229
			c1.792-2.395,3.658-4.219,11.157-10.25c3.69-2.967,8.733-6.941,14.884-11.552c-2.332-2.104-4.664-4.21-6.996-6.313l-21.775,17.417
			c0.192-2.974,0.289-10.771-4.552-18.669c-6.619-10.791-17.528-13.717-19.838-14.283c-5.195-5.952-59.864-66.415-145.628-58.048
			c-88.769,8.659-130.736,83.245-134.029,89.345c24.127,10.571,79.55,30.951,150.72,22.136
			c62.104-7.692,106.291-33.911,127.755-48.722c0.687,0.138,14.793,3.236,19.456,16.511
			C490.128,176.125,486.695,187.729,477.932,194.803z"/>
	</g>
</g>
</svg>
