<?xml version="1.0" encoding="utf-8"?>
<!-- Generator: Adobe Illustrator 16.0.4, SVG Export Plug-In . SVG Version: 6.00 Build 0)  -->
<!DOCTYPE svg PUBLIC "-//W3C//DTD SVG 1.1//EN" "http://www.w3.org/Graphics/SVG/1.1/DTD/svg11.dtd">
<svg version="1.1" id="Layer_1" xmlns="http://www.w3.org/2000/svg" xmlns:xlink="http://www.w3.org/1999/xlink" x="0px" y="0px"
	 width="841.89px" height="595.28px" viewBox="0 0 841.89 595.28" enable-background="new 0 0 841.89 595.28" xml:space="preserve">
<circle fill="#80B0BF" cx="441.928" cy="279.141" r="209.007"/>
<g>
	<path fill="#FFFFFF" d="M259.135,119.766c-7.957,23.388-19.832,69.597-5.766,122.204c12.645,47.295,39.499,74.492,82.526,118.068
		c56.872,57.601,98.256,99.506,162.521,105.749c48.103,4.674,88.036-12.672,110.828-25.272
		C492.541,333.597,375.839,226.681,259.135,119.766z"/>
	<path fill="#EDDB86" d="M247.416,109.029l11.719,10.736c-4.77,17.801-9.639,44.327-6.857,75.965
		c6.777,77.046,53.934,127.411,79.399,154.609c22.521,24.059,104.159,111.251,215.909,103.854
		c26.175-1.73,47.406-8.218,61.658-13.679c4.724,4.323,9.443,8.651,14.164,12.977c-110.188,70.964-253.985,53.576-339.066-36.988
		C208.47,335.741,192.834,211.205,247.416,109.029z"/>
	<g>
		<g>
			<path fill="#EDDB86" d="M289.616,224.353l121.228,45.407c6.05,2.268,9.673,9.9,5.277,11.124l-88.042,24.505
				c-4.739,1.32-10.313-2.056-15.518-7.647c-1.968-2.116-3.692-4.387-5.18-6.696c-4.795-7.455-10.117-16.518-15.046-26.754
				c-5.662-11.755-9.219-21.77-11.51-29.61c-0.195-0.667-0.454-1.351-0.728-2.037C277.296,225.611,281.855,221.445,289.616,224.353z
				"/>
			<path fill="#EDDB86" d="M301.004,155.751l110.338,98.723c5.508,4.926,4.324,10.761-1.729,8.5l-121.204-45.29
				c-6.522-2.437-10.68-7.569-12.813-13.48c-0.806-2.236-1.214-4.387-1.313-6.4c-0.325-6.509-0.115-14.09,1.393-21.957
				c1.732-9.036,4.696-15.925,7.599-20.997c0.249-0.434,0.434-0.907,0.601-1.401C285.595,148.415,293.938,149.427,301.004,155.751z"
				/>
		</g>
		<g>
			<path fill="#EDDB86" d="M510.362,424.024L453.059,307.95c-2.859-5.795-10.815-8.637-11.597-4.143l-15.574,90.051
				c-0.839,4.849,3.077,10.058,9.162,14.677c2.302,1.747,4.733,3.235,7.179,4.483c7.9,4.025,17.451,8.415,28.127,12.295
				c12.263,4.457,22.582,6.998,30.613,8.491c0.684,0.128,1.387,0.313,2.098,0.519C510.344,436.41,514.034,431.459,510.362,424.024z"
				/>
			<path fill="#EDDB86" d="M577.484,405.832l-109.261-99.909c-5.458-4.988-11.142-3.225-8.285,2.567l57.181,116.069
				c3.082,6.247,8.604,9.869,14.697,11.399c2.307,0.579,4.486,0.772,6.5,0.67c6.508-0.329,14.03-1.295,21.705-3.583
				c8.819-2.629,15.372-6.263,20.137-9.661c0.402-0.288,0.858-0.521,1.331-0.738C586.323,420.432,584.481,412.231,577.484,405.832z"
				/>
			<path fill="#EDDB86" d="M338.998,332.985c0.625,0.622,1.244,1.251,1.823,1.903c6.595,7.423,15.208,16.438,25.863,26.081
				c10.766,9.73,20.509,17.324,28.556,23.14c0.708,0.513,1.418,1.085,2.101,1.648c6.996,5.766,15.016,6.121,16.243,0.496
				l19.19-87.821c0.474-2.174-0.929-4.755-3.282-6.902c-2.214-1.984-5.06-3.246-7.177-2.556l-85.45,27.887
				C331.393,318.647,332.558,326.598,338.998,332.985z"/>
		</g>
	</g>
</g>
</svg>
