<svg xmlns="http://www.w3.org/2000/svg" width="213.618" height="54.52" viewBox="0 0 213.618 54.52">
    <path fill="#8abbd5" d="M-201.774 11.656a19.933 19.933 0 0 1-6.58-1.2 13.8 13.8 0 0 1-5.828-3.877 9.97 9.97 0 0 1-2.4-6.909 28.247 28.247 0 0 1 .446-4.512q.447-2.679.87-4.23l7.473 1.222q-.188 1.363-.447 3.5a29.283 29.283 0 0 0-.258 2.984 5.351 5.351 0 0 0 1.715 3.971 6.554 6.554 0 0 0 4.77 1.668l13.348-.047a6.713 6.713 0 0 0 2.162-.259 2.052 2.052 0 0 0 1.1-1.339 11.116 11.116 0 0 0 .4-3.525 1.376 1.376 0 0 0-.729-1.269A11.429 11.429 0 0 0-188-3.055a12.579 12.579 0 0 1-1.739-.564q-5.311-1.786-7.543-4.089a7.972 7.972 0 0 1-2.233-5.781q0-4.935 3.008-7.473t8.178-2.538a28.432 28.432 0 0 1 4.206.306q2.045.306 6.792 1.2l-.658 6.486a88.26 88.26 0 0 0-9.4-.7q-3.854 0-3.854 2.068 0 .705.94 1.222a23.322 23.322 0 0 0 3.008 1.269q1.786.658 2.632 1.034a26.731 26.731 0 0 1 4.841 2.373 6.716 6.716 0 0 1 2.4 2.679 9.729 9.729 0 0 1 .752 4.16q0 7.191-3.079 10.129t-8.436 2.937zm-.94 3.384h5.687v7.144h-5.687zm7.99 0h5.687v7.144h-5.687zm37.13-22.419V0h-12.831v-32.336h8.084v24.957zm15.087-16.121V0h-15.087v-7.379h7V-23.5zm-7.52 27.26h7.285v7.567h-7.285zm58.048-11.139V0h-29.281a40.1 40.1 0 0 1-6.909-.517 9.64 9.64 0 0 1-5.146-2.7q-2.232-2.186-2.232-6.791a24.1 24.1 0 0 1 .447-4.442 33.645 33.645 0 0 1 1.01-4.113l6.58.376q.047-.517-.329 2.867-.329 2.773-.329 3.431a4.715 4.715 0 0 0 1.2 3.078q1.2 1.433 4.488 1.433h15.322V-23.5h8.084v16.121zm-31.678-23.265h5.687v7.144h-5.687zm7.99 0h5.687v7.144h-5.687zm61.382 7.05q1.175 8.794 1.175 10.528V0H-63.4a9.614 9.614 0 0 1-3.27-.564 10.354 10.354 0 0 1-2.186-.987A7.772 7.772 0 0 1-73.649 0h-18.33v-7.379h6.909V-21.15h8.084v13.771h.517a3.081 3.081 0 0 0 2.491-1.128 4.624 4.624 0 0 0 .94-3.055v-9.588h8.084v9.588A19.129 19.129 0 0 1-65.33-7.8a2.805 2.805 0 0 0 1.551.423h2.585v-3.948l.047-2.538q.047-.705.047-2.162 0-2.491-.376-7.238zM-18.048 0h-7.379a18.011 18.011 0 0 1-3.008 8.248q-2.4 3.407-7.8 3.408a56.072 56.072 0 0 1-8.93-1.034V3.29a75.165 75.165 0 0 0 8.131.987 3.224 3.224 0 0 0 2.773-.987A5.622 5.622 0 0 0-33.605 0h-4.512q-4.512 0-6.838-1.739A7.941 7.941 0 0 1-47.987-5.9a19.4 19.4 0 0 1-.7-5.429q0-5.687 1.528-8.554a7.414 7.414 0 0 1 3.9-3.736 16.969 16.969 0 0 1 5.8-.87 51.548 51.548 0 0 1 6.58.423q3.29.423 5.64.94v15.747h7.191zm-22.56-11.844a5.2 5.2 0 0 0 .917 3.337q.916 1.128 3.549 1.128h2.82v-9.635q-1.5-.094-2.773-.094a7.536 7.536 0 0 0-2.162.282 3.018 3.018 0 0 0-1.643 1.434 6.97 6.97 0 0 0-.708 3.548zM-2.961-23.5V0h-15.087v-7.379h7V-23.5zm-7.52 27.26H-3.2v7.567h-7.285z" transform="translate(216.579 32.336)"/>
</svg>
