<svg xmlns="http://www.w3.org/2000/svg" width="134.963" height="124.198" viewBox="0 0 134.963 124.198">
    <defs>
        <style>
            .cls-1{fill:#8abbd5}
        </style>
    </defs>
    <g id="Group_3149" data-name="Group 3149" transform="translate(-483.059 -640.936)">
        <g id="Group_3147" data-name="Group 3147" transform="translate(483.059 640.936)">
            <path id="Path_1287" d="M509.523 718.081a3.7 3.7 0 0 0-3.321 3.875v12.18a56.636 56.636 0 0 1-9.411-31 52.274 52.274 0 0 1 16.054-38.2c16.053-16.607 40.963-20.482 62-9.964 1.66 1.107 3.873 0 4.982-1.661s0-3.873-1.66-4.982c-24.359-11.625-52.59-7.2-70.858 11.625a60.984 60.984 0 0 0-4.983 80.266h-14.392a3.784 3.784 0 0 0-3.875 3.877 3.7 3.7 0 0 0 3.875 3.321h22.142a3.7 3.7 0 0 0 3.876-3.321v-22.142a4.7 4.7 0 0 0-4.429-3.874z" class="cls-1" data-name="Path 1287" transform="translate(-483.006 -640.883)"/>
            <path id="Path_1288" d="M510.129 748.527h-22.142c-2.672 0-4.928-2-4.928-4.375a4.821 4.821 0 0 1 4.928-4.93h12.269a62.08 62.08 0 0 1 6.361-79.957 60.4 60.4 0 0 1 43.743-18.329 66.188 66.188 0 0 1 28.312 6.5l.131.075c2.079 1.387 3.417 4.244 1.953 6.443a5.545 5.545 0 0 1-4.374 2.576 3.661 3.661 0 0 1-2.009-.584 54.083 54.083 0 0 0-24-5.71 53.358 53.358 0 0 0-52.473 52.952 54.671 54.671 0 0 0 7.3 27.231v-8.411c0-2.672 2-4.928 4.375-4.928a5.7 5.7 0 0 1 5.449 4.672l.033.256v22.143c.001 2.372-2.257 4.376-4.928 4.376zm-22.142-7.2a2.73 2.73 0 0 0-2.821 2.823 2.685 2.685 0 0 0 2.821 2.268h22.142a2.686 2.686 0 0 0 2.822-2.268v-22.006a3.631 3.631 0 0 0-3.375-2.956 2.686 2.686 0 0 0-2.268 2.821v15.747l-1.938-2.995a57.364 57.364 0 0 1-9.58-31.573 55.467 55.467 0 0 1 54.584-55.061 56.223 56.223 0 0 1 24.995 5.958l.114.065c1 .668 2.638-.044 3.521-1.367.708-1.063-.1-2.642-1.309-3.482a64.07 64.07 0 0 0-27.334-6.258 59.948 59.948 0 0 0-59.661 60.145 58.965 58.965 0 0 0 12.505 36.434l1.346 1.707z" class="cls-1" data-name="Path 1288" transform="translate(-483.059 -640.936)"/>
        </g>
        <g id="Group_3148" data-name="Group 3148" transform="translate(519.708 657.848)">
            <path id="Path_1289" d="M611.181 657.99h-21.589a4.059 4.059 0 0 0-3.32 1.108 4.214 4.214 0 0 0-1.108 2.768v22.144a3.782 3.782 0 0 0 3.874 3.872 4.694 4.694 0 0 0 3.877-4.427v-12.18a54 54 0 0 1 9.409 31 52.281 52.281 0 0 1-16.051 38.2 53.7 53.7 0 0 1-62 9.964c-1.66-1.108-3.875 0-4.981 1.66s0 3.875 1.66 4.983a62.651 62.651 0 0 0 27.677 6.09 60.763 60.763 0 0 0 48.161-97.982h14.393a3.783 3.783 0 0 0 3.875-3.876c-.002-2.214-1.658-3.324-3.877-3.324z" class="cls-1" data-name="Path 1289" transform="translate(-517.795 -656.937)"/>
            <path id="Path_1290" d="M548.68 764.277a63.749 63.749 0 0 1-28.126-6.191l-.136-.076c-2.08-1.388-3.417-4.246-1.952-6.443a5.54 5.54 0 0 1 4.373-2.577 3.66 3.66 0 0 1 2.009.585 52.35 52.35 0 0 0 23.559 5.566 52.914 52.914 0 0 0 37.173-15.36 50.938 50.938 0 0 0 15.743-37.451 52.91 52.91 0 0 0-7.3-27.4v8.577a5.7 5.7 0 0 1-4.675 5.449l-.255.031a4.819 4.819 0 0 1-4.927-4.926V661.92a5.263 5.263 0 0 1 1.418-3.515 5.069 5.069 0 0 1 4.064-1.415h21.589c2.994 0 4.928 1.717 4.928 4.376a4.821 4.821 0 0 1-4.928 4.929h-12.272a61.725 61.725 0 0 1-50.285 97.982zm-27.153-8.061a61.723 61.723 0 0 0 27.153 5.954 59.709 59.709 0 0 0 47.334-96.275l-1.347-1.707h16.567a2.729 2.729 0 0 0 2.821-2.822c0-1.974-1.768-2.269-2.821-2.269h-21.589a3.064 3.064 0 0 0-2.575.8 3.205 3.205 0 0 0-.8 2.025v22.143a2.721 2.721 0 0 0 2.693 2.817 3.628 3.628 0 0 0 2.951-3.371v-15.576l1.921 2.8a54.735 54.735 0 0 1 9.595 31.6 53 53 0 0 1-16.381 38.96 55.018 55.018 0 0 1-38.641 15.958 54.452 54.452 0 0 1-24.555-5.815l-.114-.066c-1-.669-2.638.046-3.52 1.368-.708 1.06.098 2.635 1.308 3.476z" class="cls-1" data-name="Path 1290" transform="translate(-517.848 -656.99)"/>
        </g>
    </g>
</svg>
