<svg xmlns="http://www.w3.org/2000/svg" width="113.523" height="113.523" viewBox="0 0 113.523 113.523">
    <defs>
        <style>
            .cls-1{fill:#8abbd5}
        </style>
    </defs>
    <path id="Path_1291" d="M613.005 389.008a5.153 5.153 0 0 0-7.3 0l-22.665 22.666a41.232 41.232 0 0 0-57.864 57.865l-22.668 22.668a5.159 5.159 0 1 0 7.3 7.3l22.668-22.669a41.232 41.232 0 0 0 57.865-57.864l22.664-22.674a5.154 5.154 0 0 0 0-7.292zM526.8 444.256a30.91 30.91 0 0 1 48.872-25.207l-43.12 43.117a30.767 30.767 0 0 1-5.752-17.91zm61.922 0a30.908 30.908 0 0 1-48.871 25.2l43.115-43.116a30.752 30.752 0 0 1 5.751 17.916z" class="cls-1" data-name="Path 1291" transform="translate(-500.994 -387.493)"/>
</svg>
