<svg id="Capa_1" data-name="Capa 1" xmlns="http://www.w3.org/2000/svg" viewBox="0 0 200 200"><defs><style>.cls-1{fill:#dd0a2a;}.cls-2{fill:#fff;}</style></defs><title>ASSETS TPAGO</title><rect class="cls-1" x="5.89" y="43.05" width="188.22" height="113.91" rx="10.41" ry="10.41"/><path class="cls-2" d="M99.59,84.26c26.41,0,48.3,10.1,52.68,23.36a15.57,15.57,0,0,0,.85-4.86c0-15.59-24-28.22-53.53-28.22S46.06,87.18,46.06,102.76a15.48,15.48,0,0,0,.85,4.86C51.28,94.35,73.17,84.26,99.59,84.26Zm0-16.79c26.41,0,48.3,10.1,52.68,23.36a15.6,15.6,0,0,0,.85-4.86c0-15.59-24-28.22-53.53-28.22S46.06,70.38,46.06,86a15.51,15.51,0,0,0,.85,4.86C51.28,77.56,73.17,67.46,99.59,67.46Zm22,67.56-11-14h-5.23V141.9h5V128.2l10.84,13.7h5.39V121h-5Zm-82.34,2.56a6.31,6.31,0,0,1-3.69,1.07A6.69,6.69,0,0,1,30.82,137Q29,135.3,29,131.34q0-3.73,1.84-5.4a6.89,6.89,0,0,1,4.81-1.67,6.72,6.72,0,0,1,3.64.94,4.42,4.42,0,0,1,2,2.56l5.34-1a8,8,0,0,0-2.73-3.84,13.06,13.06,0,0,0-8-2.26,13.65,13.65,0,0,0-9.05,2.88,10,10,0,0,0-3.44,8.09,9.55,9.55,0,0,0,3.43,7.77,13.25,13.25,0,0,0,8.74,2.84,13.65,13.65,0,0,0,7.1-1.67,9.23,9.23,0,0,0,4-5.1l-5.22-1.26A5.94,5.94,0,0,1,39.24,137.59ZM155.36,121v3.53h7.94V141.9h5.4V124.56h7.88V121ZM137.73,132.7h13.4v-3.53h-13.4v-4.61h14.39V121H132.33V141.9h20.32v-3.53H137.73Zm-41.67,1.75a12.66,12.66,0,0,0-2.88-1.75,9.58,9.58,0,0,0,5.28-1.93,4.91,4.91,0,0,0,1.76-3.88,5.08,5.08,0,0,0-1.17-3.29,6,6,0,0,0-3.11-2,24.52,24.52,0,0,0-6.23-.56H78.36V141.9h5.4v-8.7h1.1a11.38,11.38,0,0,1,2.72.23,4.38,4.38,0,0,1,1.63.86,31.68,31.68,0,0,1,2.85,3l3.88,4.56h6.46l-3.27-4.07A24.67,24.67,0,0,0,96.06,134.45Zm-8.31-4.58h-4v-5.31H88c2.18,0,3.5,0,3.94.07a3.67,3.67,0,0,1,2,.82,2.2,2.2,0,0,1,.72,1.71,2.31,2.31,0,0,1-.55,1.57,2.94,2.94,0,0,1-1.51.88A26,26,0,0,1,87.75,129.87ZM59,121,48.63,141.9h5.73l2.21-4.73H67.26l2.33,4.73h5.87L64.76,121Zm-.82,12.61,3.62-7.73,3.68,7.73Z"/></svg>