<svg xmlns="http://www.w3.org/2000/svg" width="780" height="500" version="1.1" viewBox="0 0 780 500">
	<path d="M40,0h700c22.092,0,40,17.909,40,40v420c0,22.092-17.908,40-40,40H40c-22.091,0-40-17.908-40-40V40  C0,17.909,17.909,0,40,0z" fill="#000C9D" />
	<rect x="66.908" y="106.91" width="110.32" height="99.679" fill="#9D9400" />
	<path d="m94.714 284.15v-3.795h-5.117v-11.27h-4.198l-0.402 11.27h-11.443l10.58-25.07-3.967-1.725-11.673 27.141v3.449h16.445v9.66h4.658v-9.66h5.117zm19.586-30.589c-4.025 0-7.878 1.381-11.213 4.6l2.588 2.934c2.645-2.473 5.002-3.68 8.395-3.68 4.197 0 7.532 2.357 7.532 6.727 0 4.773-3.737 6.959-7.532 6.959h-2.358l-0.575 3.795h3.335c4.658 0 8.223 1.84 8.223 7.531 0 4.945-3.278 8.107-8.855 8.107-3.22 0-6.555-1.322-8.798-3.967l-3.22 2.645c2.99 3.68 7.705 5.232 12.133 5.232 8.165 0 13.742-5.174 13.742-12.018 0-6.152-4.37-9.371-9.027-9.717 4.197-0.807 7.762-4.43 7.762-9.199 0-5.406-4.715-9.949-12.132-9.949zm34.477 0c-5.347 0-8.912 1.896-12.075 5.693l3.335 2.529c2.53-2.934 ...-4.707 2.598-8.262 2.598-1.223 0-2.473-0.104-3.75-0.311-1.262-0.209-2.57-0.521-3.926-0.939v-3.965c1.172 0.639 2.383 1.113 3.633 1.426 1.25 0.314 2.572 0.469 3.967 0.469 2.252 0 4.035-0.592 5.351-1.775 1.315-1.186 1.973-2.793 1.973-4.824s-0.656-3.641-1.973-4.824c-1.314-1.186-3.099-1.777-5.351-1.777-1.055 0-2.108 0.117-3.164 0.352-1.043 0.234-2.11 0.6-3.203 1.094v-14.65zm25.466 0h15.489v3.32h-11.877v7.146c0.572-0.195 1.146-0.338 1.72-0.43 0.571-0.104 1.146-0.156 1.719-0.156 3.256 0 5.832 0.893 7.733 2.676 1.9 1.785 2.853 4.199 2.853 7.246 0 3.139-0.978 5.58-2.93 7.324-1.953 1.73-4.707 2.598-8.263 2.598-1.225 0-2.475-0.104-3.75-0.311-1.264-0.209-2.571-0.521-3.926-0.939v-3.965c1.172 0.639 2.383 1.113 3.633 1.426 1.25 0.314 2.572 0.469 3.965 0.469 2.252 0 4.037-0.592 5.353-1.775 1.313-1.186 1.973-2.793 1.973-4.824s-0.658-3.641-1.973-4.824c-1.316-1.186-3.101-1.777-5.353-1.777-1.055 0-2.108 0.117-3.164 0.352-1.043 0.234-2.108 0.6-3.202 1.094v-14.65z" fill="#fff" fill-opacity=".784" />
</svg>
