<svg xmlns="http://www.w3.org/2000/svg" width="67.292" height="22.231" viewBox="0 0 67.292 22.231">
    <defs>
        <style>
            .cls-1{fill:#192061}
        </style>
    </defs>
    <g id="Group_1453" data-name="Group 1453">
        <path id="Path_920" d="M145.577 195.433l4.83 18.58h5.606l8.722-21.519h-5.686l-5.495 14.61-2.254-11.432-5.719-.239z" class="cls-1" data-name="Path 920" transform="translate(-139.806 -192.1)"/>
        <path id="Path_921" d="M327.269 191.715l-3.35 21.6h5.3l3.426-21.6z" class="cls-1" data-name="Path 921" transform="translate(-300.215 -191.401)"/>
        <path id="Path_922" d="M428.329 194.122l.778-4.523a15.166 15.166 0 0 0-5.139-.953c-2.805 0-8.88 1.826-8.88 7.143s7.555 5.559 7.555 8.495-6.775 2.622-8.8.718l-.857 4.683a18.623 18.623 0 0 0 5.763 1.192c2.726 0 9.506-.635 9.506-7.542 0-6.037-7.556-4.845-7.556-8.5 0 0 .777-3.652 7.632-.716z" class="cls-1" data-name="Path 922" transform="translate(-380.326 -188.646)"/>
        <path id="Path_923" d="M576.728 194.067h-4.674a3.312 3.312 0 0 0-2.492 2.3c-.74 2-7.868 19.055-7.868 19.055h5.841l1.014-3.1h7.164l.6 3.07h5.063zm-6.622 13.815l2.961-7.94 1.791 7.94z" class="cls-1" data-name="Path 923" transform="translate(-514.082 -193.511)"/>
        <path id="Path_924" d="M101.347 204.169l-1.666-8.442s-.226-3.171-2.442-3.171h-9.048V193a18.982 18.982 0 0 1 13.156 11.172z" class="cls-1" data-name="Path 924" transform="translate(-88.191 -192.156)"/>
    </g>
</svg>
