<svg width="102" height="33" viewBox="0 0 102 33" fill="none" xmlns="http://www.w3.org/2000/svg">
<path d="M59.9928 32.681H57.1427V20.7705H63.6827C64.8639 20.6605 66.0532 20.8601 67.1347 21.3498L67.0899 21.333C67.9661 21.8167 68.5513 22.7392 68.5513 23.7966L68.5457 23.9851V23.9766L68.5485 24.0835C68.5485 25.4503 67.7282 26.6259 66.5523 27.1378L66.5299 27.1462C67.0927 27.3487 67.563 27.6946 67.913 28.1418L67.9186 28.1474C68.3138 28.8047 68.4794 29.5758 68.3889 30.3383L68.3917 30.3214V32.6782H65.5473V31.1876C65.6819 30.3761 65.5198 29.543 65.0909 28.8421L65.0993 28.8561C64.8038 28.6308 64.4658 28.468 64.1059 28.3776C63.746 28.2872 63.3715 28.2711 63.0052 28.3302L63.022 28.3274H59.9928V32.6782V32.681ZM59.9928 23.2313V25.9059H63.4363C63.9226 25.9511 64.412 25.8636 64.8529 25.6528L64.8361 25.6613C65.0163 25.5444 65.1645 25.3841 65.2672 25.195C65.3699 25.0058 65.4238 24.7939 65.4241 24.5785L65.4213 24.5138C65.4352 24.2988 65.3881 24.0871 65.2855 23.898C65.1829 23.7088 65.0291 23.5528 64.8417 23.4479L64.8361 23.4451C64.4113 23.2542 63.9445 23.1767 63.4811 23.2201H63.4923L59.9928 23.2313ZM34.7259 32.6782H23.5078V20.7705H34.9023L38.3879 24.6741L41.991 20.7705H51.0423C54.2563 20.7705 55.8185 22.0558 55.8185 24.6938C55.8185 27.3796 54.2031 28.6846 50.8911 28.6846H47.3496V32.6754H41.8426L38.3543 28.7408L34.7287 32.6782H34.7259ZM44.5275 22.0473L40.1769 26.744L44.5275 31.5926V22.0473ZM26.3326 27.8268V30.1949H33.2981L36.5177 26.7018L33.4213 23.2313H26.3298V25.3969H32.5506V27.824L26.3326 27.8268ZM47.3496 23.2342V26.2659H51.0087C52.1286 26.2659 52.7725 25.6922 52.7725 24.691C52.7725 23.7348 52.1733 23.2313 51.0395 23.2313L47.3496 23.2342ZM97.8496 32.6838H92.3791V30.1245H97.8272C98.2348 30.181 98.6482 30.0739 98.9778 29.8264L98.975 29.8292C99.0802 29.7312 99.1641 29.6124 99.2214 29.4803C99.2788 29.3482 99.3083 29.2056 99.3082 29.0615V29.053V29.0165C99.3084 28.8741 99.2777 28.7334 99.2182 28.6042C99.1588 28.475 99.0719 28.3604 98.9638 28.2684C98.6741 28.058 98.3168 27.9637 97.9616 28.004H97.9672L97.4436 27.9871C94.8848 27.9196 91.9871 27.8409 91.9871 24.3169C91.9871 22.6014 93.0566 20.7705 96.0494 20.7705H101.696V23.3073H96.5309C96.132 23.2624 95.729 23.343 95.3775 23.5379L95.3887 23.5323C95.2505 23.6237 95.1393 23.7507 95.0669 23.9002C94.9945 24.0497 94.9635 24.216 94.9771 24.3816V24.3788V24.4097C94.9771 24.5992 95.0367 24.7839 95.1472 24.9374C95.2578 25.091 95.4139 25.2055 95.5931 25.2647L95.5987 25.2675C95.9536 25.3775 96.3252 25.4232 96.6961 25.4025H96.6877L98.2247 25.4419C99.3833 25.3257 100.541 25.6723 101.447 26.4065L101.439 26.4009C101.523 26.4684 101.595 26.5415 101.66 26.6231L101.663 26.6259L101.696 31.1595C101.225 31.7122 100.627 32.14 99.9523 32.4054C99.2781 32.6707 98.5492 32.7654 97.83 32.681L97.8496 32.6838ZM86.7938 32.6838H81.2729V30.1245H86.7658C87.1768 30.1786 87.5928 30.0719 87.9276 29.8264L87.922 29.8292C88.0266 29.7309 88.1099 29.6119 88.1667 29.4799C88.2235 29.3478 88.2527 29.2053 88.2524 29.0615V29.053V29.0333C88.2523 28.8886 88.2215 28.7455 88.1621 28.6136C88.1027 28.4817 88.0161 28.3641 87.908 28.2684C87.6131 28.0578 87.2513 27.9637 86.8918 28.004H86.8974L86.3766 27.9871C83.8261 27.9196 80.9313 27.8409 80.9313 24.3169C80.9313 22.6014 81.9952 20.7705 84.9824 20.7705H90.6601V23.3073H85.4639C85.0677 23.2629 84.6675 23.3435 84.3189 23.5379L84.3301 23.5323C84.183 23.6339 84.066 23.7736 83.9914 23.9366C83.9169 24.0995 83.8875 24.2797 83.9064 24.458C83.9254 24.6363 83.9919 24.8062 84.099 24.9497C84.2061 25.0932 84.3498 25.2049 84.5149 25.2731L84.5205 25.276C84.8801 25.3867 85.2564 25.4325 85.6319 25.411H85.6235L87.1493 25.4503C88.3141 25.3376 89.4768 25.6846 90.3913 26.4178L90.3829 26.4094C90.6906 26.7501 90.9245 27.1512 91.0701 27.5873C91.2156 28.0235 91.2695 28.4852 91.2284 28.9433V28.9293C91.2368 31.4126 89.739 32.6782 86.7854 32.6782L86.7938 32.6838ZM79.5763 32.6838H70.1135V20.7677H79.5679V23.2285H72.9411V25.3941H79.4139V27.8212H72.9411V30.1892L79.5763 30.2005V32.6754V32.6838ZM85.0916 12.1926H79.3215L78.2185 9.53774H72.3336L71.2641 12.1926H67.9493C66.4607 12.2715 64.9948 11.8003 63.8283 10.868L63.8423 10.8764C63.2881 10.262 62.8674 9.53823 62.6071 8.75136C62.3468 7.96449 62.2526 7.13177 62.3305 6.30629L62.3277 6.32878C62.2556 5.4881 62.3544 4.64148 62.6181 3.84036C62.8819 3.03924 63.305 2.30036 63.8619 1.66863L63.8563 1.67425C64.4442 1.15785 65.1316 0.768513 65.8757 0.530464C66.6199 0.292416 67.4048 0.21075 68.1817 0.29055L68.1593 0.287738H70.903V2.82734H68.2153C67.8221 2.77645 67.4224 2.81333 67.045 2.93534C66.6675 3.05736 66.3215 3.26151 66.0316 3.53325L66.0344 3.53044C65.4358 4.3005 65.1452 5.26745 65.2197 6.2416V6.22754C65.1305 7.22838 65.4104 8.22727 66.0064 9.03432L65.998 9.02307C66.5546 9.47999 67.267 9.70004 67.9829 9.63617H67.9717H69.2428L73.2491 0.270864H77.5045L82.3003 11.5205V0.270864H86.6146L91.5924 8.56184V0.270864H94.504V12.173H90.4613L85.086 3.23514V12.173L85.0916 12.1926ZM75.2956 2.29861L73.3443 7.04595H77.2554L75.2956 2.29861ZM47.8619 12.187H45.0286V0.279301H51.5462C52.736 0.155283 53.9369 0.358457 55.0206 0.867095L54.9786 0.85022C55.4143 1.09228 55.7776 1.44712 56.0306 1.87789C56.2837 2.30866 56.4173 2.79964 56.4176 3.29982L56.412 3.49669V3.48826V3.57544C56.4122 4.22498 56.2258 4.86077 55.8752 5.40653C55.5247 5.95229 55.0247 6.38482 54.4355 6.65221L54.4131 6.66065C54.9758 6.87439 55.4489 7.2175 55.8101 7.65624L55.8157 7.66186C56.2151 8.32159 56.38 9.09794 56.2832 9.86398L56.286 9.8471V12.1842H53.4276L53.4164 10.6824V10.4574C53.5181 9.72307 53.3563 8.97636 52.96 8.35091L52.9684 8.36497C52.6719 8.14613 52.3352 7.98848 51.9777 7.90111C51.6202 7.81374 51.249 7.79838 50.8855 7.85592L50.9023 7.85311H47.8647V12.1842L47.8619 12.187ZM47.8619 2.75703V5.40069H51.2999C51.7855 5.45362 52.2761 5.36579 52.7137 5.14757L52.6997 5.1532C52.879 5.04368 53.0273 4.88967 53.1303 4.70595C53.2332 4.52224 53.2874 4.315 53.2876 4.10417L53.2848 4.02542C53.299 3.81173 53.2507 3.60133 53.1457 3.41491C53.0408 3.2285 52.8837 3.07703 52.6941 2.97921L52.6885 2.9764C52.2624 2.79278 51.7985 2.71558 51.3363 2.7514H51.3447L47.8619 2.75703ZM17.8609 12.187H12.1048L11.0157 9.53211H5.11408L4.01662 12.187H0.937012L6.01277 0.279301H10.2206L15.0388 11.5486V0.279301H19.661L23.3678 8.35372L26.775 0.279301H31.4924V12.1814H28.5807L28.5751 2.86671L24.468 12.1842H21.982L17.8637 2.85265V12.1842L17.8609 12.187ZM8.05091 2.29861L6.12196 7.04595H9.99107L8.05091 2.29861ZM60.9306 12.1842H58.0414V0.279301H60.9334V12.1814L60.9306 12.1842ZM43.0521 12.1842H33.6061V0.279301H43.0689V2.75422H36.4393V4.90008H42.9093V7.34406H36.4337V9.72336H43.0633V12.1814L43.0521 12.1842Z" fill="#4FC1D6"/>
</svg>
