<svg width="129" height="43" viewBox="0 0 129 43" fill="none" xmlns="http://www.w3.org/2000/svg">
<g clip-path="url(#clip0)">
<path d="M118.395 1.76797e-05H10.2498C9.85558 1.76797e-05 9.46611 1.76798e-05 9.07295 0.00216768C8.74383 0.00431768 8.41735 0.0105634 8.08507 0.0158202C7.36323 0.0243146 6.64308 0.0878197 5.93088 0.205783C5.21969 0.326315 4.53077 0.553552 3.88744 0.879808C3.24489 1.20882 2.65777 1.63635 2.14739 2.14687C1.63433 2.65595 1.20665 3.24439 0.880801 3.88954C0.554055 4.53341 0.327489 5.22338 0.208926 5.93561C0.0892368 6.64694 0.0248308 7.36648 0.0162863 8.08776C0.00631025 8.41735 0.00525675 8.74804 0 9.07768V33.9255C0.00525675 34.2593 0.00631025 34.5827 0.0162863 34.9166C0.0248334 35.6378 0.0892394 36.3573 0.208926 37.0686C0.327161 37.7812 0.553741 38.4716 0.880801 39.1157C1.2065 39.7588 1.63424 40.3448 2.14739 40.8511C2.65584 41.3639 3.24333 41.7917 3.88744 42.1182C4.53077 42.4453 5.21961 42.6739 5.93088 42.7963C6.6432 42.9133 7.36327 42.9769 8.08507 42.9864C8.41735 42.9937 8.74383 42.9979 9.07295 42.9979C9.46609 43 9.8556 43 10.2498 43H118.395C118.781 43 119.174 43 119.56 42.9979C119.888 42.9979 120.224 42.9937 120.551 42.9864C121.272 42.9774 121.99 42.9138 122.701 42.7963C123.415 42.6731 124.106 42.4445 124.753 42.1182C125.396 41.7915 125.983 41.3637 126.491 40.8511C127.003 40.3429 127.431 39.7572 127.761 39.1157C128.086 38.4711 128.31 37.7808 128.427 37.0686C128.547 36.3572 128.613 35.6379 128.626 34.9166C128.63 34.5827 128.63 34.2593 128.63 33.9255C128.639 33.535 128.639 33.1466 128.639 32.7497V10.2514C128.639 9.85768 128.639 9.46716 128.63 9.07768C128.63 8.74804 128.63 8.41735 128.626 8.08772C128.613 7.36637 128.547 6.647 128.427 5.93557C128.31 5.22375 128.086 4.53383 127.761 3.8895C127.098 2.59635 126.045 1.54375 124.753 0.879712C124.106 0.554253 123.415 0.327076 122.701 0.205687C121.99 0.0872032 121.272 0.023676 120.551 0.0156697C120.224 0.0104237 119.888 0.00412418 119.56 0.00202793C119.174 -0.00012207 118.781 -0.00012207 118.395 -0.00012207V1.76797e-05Z" fill="#2F2F2F"/>
<path d="M8.11283 41.5479L8.11756 41.548C8.4394 41.5553 8.75522 41.5594 9.07844 41.5594L118.394 41.5616H118.395L119.559 41.5594H119.56C119.876 41.5594 120.202 41.5553 120.514 41.548L120.519 41.5479C121.167 41.5401 121.813 41.4837 122.452 41.3793C123.026 41.2819 123.582 41.0986 124.101 40.8358L8.11283 41.5479ZM8.11283 41.5479C7.46507 41.5395 6.81882 41.4832 6.17937 41.3794M8.11283 41.5479L6.17937 41.3794M6.17937 41.3794C5.60965 41.281 5.05774 41.0984 4.54181 40.8375C4.0337 40.5803 3.57026 40.243 3.16925 39.8387L3.16928 39.8386L3.1646 39.834C2.75839 39.435 2.42021 38.9722 2.16345 38.464L2.16304 38.4632C1.90171 37.9483 1.72085 37.3963 1.62677 36.8265L1.6267 36.8261C1.52025 36.1847 1.46266 35.5362 1.45442 34.886L1.45449 34.886L1.45423 34.8773C1.45097 34.7688 1.44709 34.5279 1.44398 34.3095L1.44018 34.0259L1.43908 33.9376L1.43879 33.9133L1.43872 33.9108V33.9078V9.0809L1.43879 9.07575L1.4391 9.05188L1.44026 8.9649L1.4442 8.68617C1.44738 8.47182 1.45128 8.23537 1.45431 8.13045L1.45437 8.13045L1.45448 8.12213C1.46237 7.47312 1.51961 6.82565 1.62573 6.18532L1.62579 6.18497C1.72009 5.61336 1.90119 5.05951 2.1628 4.5426L2.16323 4.54175C2.41928 4.03341 2.75591 3.56985 3.16004 3.16903L3.16005 3.16904L3.16192 3.16717C3.56659 2.76156 4.03233 2.42188 4.5422 2.16051C5.05651 1.9008 5.60687 1.71973 6.17492 1.62334C6.81653 1.51848 7.46508 1.46179 8.11515 1.45373L8.11573 1.45372L9.08234 1.44064H119.552H119.555L120.53 1.45425L120.531 1.45426C121.175 1.46191 121.817 1.51807 122.452 1.62227C123.027 1.71996 123.583 1.9024 124.104 2.16361C125.125 2.69051 125.956 3.52334 126.481 4.5457C126.738 5.05848 126.916 5.60714 127.009 6.17311L127.009 6.17407C127.116 6.81993 127.177 7.47277 127.189 8.12738C127.192 8.42837 127.192 8.75221 127.192 9.07768L127.192 9.08821C127.201 9.48526 127.201 9.86382 127.201 10.2514V32.7497C127.201 33.1412 127.201 33.5167 127.192 33.8945L127.192 33.8945V33.9055C127.192 34.2554 127.192 34.5723 127.188 34.898C127.176 35.5405 127.117 36.1813 127.011 36.8153L127.011 36.8182C126.918 37.3917 126.739 37.9476 126.478 38.4666C126.219 38.9697 125.882 39.4288 125.48 39.8272L125.476 39.8311C125.075 40.2375 124.611 40.5766 124.102 40.8355L6.17937 41.3794Z" fill="#2F2F2F" stroke="#2F2F2F"/>
<path d="M45.4744 29.1751H40.386L39.164 32.7833H37.0088L41.8284 19.434H44.0677L48.8873 32.7833H46.6953L45.4744 29.1751ZM40.913 27.5101H44.9464L42.9581 21.6543H42.9024L40.913 27.5101Z" fill="#E0FAFF"/>
<path d="M59.2961 27.9175C59.2961 30.942 57.6773 32.8852 55.2345 32.8852C54.6156 32.9175 54.0002 32.775 53.4586 32.4738C52.917 32.1727 52.4712 31.7251 52.1722 31.1824H52.126V36.0031H50.1282V23.0506H52.0619V24.6694H52.0987C52.4114 24.1292 52.8648 23.684 53.4105 23.381C53.9562 23.078 54.5738 22.9286 55.1977 22.9488C57.6679 22.9488 59.2961 24.9014 59.2961 27.9175ZM57.2427 27.9175C57.2427 25.947 56.2244 24.6515 54.6707 24.6515C53.1443 24.6515 52.1176 25.9743 52.1176 27.9175C52.1176 29.8785 53.1443 31.1918 54.6707 31.1918C56.2244 31.1918 57.2427 29.9058 57.2427 27.9175H57.2427Z" fill="#E0FAFF"/>
<path d="M70.0086 27.9175C70.0086 30.942 68.3893 32.8852 65.9464 32.8852C65.3275 32.9175 64.7121 32.775 64.1705 32.4738C63.6289 32.1727 63.1831 31.7251 62.8841 31.1824H62.8379V36.0031H60.8401V23.0506H62.7738V24.6694H62.8106C63.1233 24.1292 63.5767 23.684 64.1224 23.381C64.6681 23.078 65.2857 22.9286 65.9096 22.9488C68.3798 22.9488 70.0086 24.9014 70.0086 27.9175ZM67.9547 27.9175C67.9547 25.947 66.9363 24.6515 65.3826 24.6515C63.8562 24.6515 62.8295 25.9743 62.8295 27.9175C62.8295 29.8785 63.8562 31.1918 65.3826 31.1918C66.9363 31.1918 67.9547 29.9058 67.9547 27.9175Z" fill="#E0FAFF"/>
<path d="M77.0878 29.0639C77.2358 30.3877 78.5218 31.2569 80.2792 31.2569C81.9631 31.2569 83.1746 30.3876 83.1746 29.194C83.1746 28.1578 82.4439 27.5374 80.7138 27.1122L78.9837 26.6955C76.5325 26.1034 75.3945 24.957 75.3945 23.0967C75.3945 20.7935 77.4017 19.2114 80.2509 19.2114C83.0727 19.2114 85.0065 20.7935 85.0716 23.0967H83.0549C82.9342 21.7645 81.8329 20.9604 80.2236 20.9604C78.6142 20.9604 77.513 21.774 77.513 22.9582C77.513 23.9019 78.2163 24.4573 79.937 24.8824L81.4077 25.2435C84.1467 25.8913 85.2836 26.9915 85.2836 28.9441C85.2836 31.4416 83.2953 33.0058 80.1311 33.0058C77.1707 33.0058 75.1719 31.4783 75.0427 29.0638L77.0878 29.0639Z" fill="#E0FAFF"/>
<path d="M89.5972 20.7473V23.0506H91.448V24.6326H89.5972V29.9982C89.5972 30.8317 89.9677 31.2202 90.7813 31.2202C91.0011 31.2163 91.2204 31.2009 91.4385 31.1739V32.7465C91.0727 32.8149 90.7009 32.8458 90.3289 32.8389C88.3584 32.8389 87.5899 32.0988 87.5899 30.2113V24.6326H86.1748V23.0506H87.5899V20.7473H89.5972Z" fill="#E0FAFF"/>
<path d="M92.5186 27.9174C92.5186 24.8552 94.3221 22.9309 97.1346 22.9309C99.9564 22.9309 101.752 24.8551 101.752 27.9174C101.752 30.9881 99.9659 32.904 97.1346 32.904C94.3043 32.904 92.5186 30.9881 92.5186 27.9174ZM99.716 27.9174C99.716 25.8168 98.7533 24.577 97.1345 24.577C95.5157 24.577 94.5531 25.8262 94.5531 27.9174C94.5531 30.0265 95.5157 31.2569 97.1345 31.2569C98.7533 31.2569 99.716 30.0265 99.716 27.9174H99.716Z" fill="#E0FAFF"/>
<path d="M103.399 23.0506H105.304V24.7071H105.351C105.479 24.1898 105.783 23.7325 106.209 23.4123C106.635 23.0921 107.159 22.9284 107.692 22.9487C107.922 22.9479 108.151 22.9729 108.376 23.0233V24.8919C108.085 24.8031 107.782 24.7623 107.478 24.7712C107.188 24.7594 106.899 24.8106 106.63 24.9212C106.362 25.0318 106.12 25.1992 105.923 25.4119C105.725 25.6247 105.575 25.8777 105.485 26.1536C105.394 26.4295 105.364 26.7218 105.397 27.0104V32.7833H103.399L103.399 23.0506Z" fill="#E0FAFF"/>
<path d="M117.587 29.9247C117.318 31.6915 115.598 32.9041 113.396 32.9041C110.565 32.9041 108.808 31.0071 108.808 27.9637C108.808 24.9108 110.574 22.9309 113.312 22.9309C116.005 22.9309 117.698 24.7807 117.698 27.7317V28.4161H110.824V28.5369C110.793 28.8951 110.837 29.2559 110.956 29.5954C111.074 29.935 111.264 30.2454 111.511 30.5061C111.759 30.7669 112.059 30.9719 112.392 31.1077C112.725 31.2435 113.083 31.3069 113.443 31.2936C113.915 31.3379 114.388 31.2285 114.793 30.9819C115.198 30.7352 115.513 30.3645 115.69 29.9247L117.587 29.9247ZM110.834 27.0199H115.7C115.718 26.6978 115.669 26.3755 115.556 26.0732C115.444 25.7709 115.27 25.4952 115.046 25.2632C114.822 25.0313 114.552 24.8481 114.254 24.7254C113.955 24.6026 113.635 24.5428 113.312 24.5497C112.987 24.5478 112.665 24.6103 112.363 24.7336C112.062 24.857 111.789 25.0387 111.558 25.2684C111.328 25.498 111.145 25.771 111.021 26.0717C110.896 26.3723 110.833 26.6946 110.834 27.0199V27.0199Z" fill="#E0FAFF"/>
<path d="M40.6631 9.38582C41.0819 9.35576 41.5022 9.41904 41.8936 9.57108C42.2851 9.72312 42.6379 9.96013 42.9266 10.265C43.2153 10.5699 43.4328 10.9351 43.5633 11.3342C43.6938 11.7333 43.7341 12.1564 43.6813 12.573C43.6813 14.6222 42.5738 15.8002 40.6631 15.8002H38.3462V9.38582H40.6631ZM39.3424 14.893H40.5518C40.8511 14.9109 41.1506 14.8619 41.4285 14.7494C41.7065 14.6369 41.9558 14.4639 42.1585 14.2429C42.3611 14.022 42.5119 13.7586 42.5999 13.472C42.6879 13.1853 42.7109 12.8827 42.6672 12.5861C42.7077 12.2906 42.6824 11.9899 42.593 11.7054C42.5037 11.4209 42.3525 11.1596 42.1503 10.9404C41.9482 10.7212 41.7 10.5494 41.4237 10.4373C41.1473 10.3253 40.8496 10.2757 40.5518 10.2923H39.3424V14.893Z" fill="#E0FAFF"/>
<path d="M44.8065 13.3777C44.776 13.0596 44.8124 12.7386 44.9133 12.4354C45.0142 12.1322 45.1773 11.8534 45.3922 11.6169C45.6072 11.3804 45.8692 11.1915 46.1614 11.0622C46.4537 10.9329 46.7697 10.8661 47.0893 10.8661C47.4088 10.8661 47.7249 10.9329 48.0171 11.0622C48.3093 11.1915 48.5713 11.3804 48.7863 11.6169C49.0012 11.8534 49.1643 12.1322 49.2652 12.4354C49.3661 12.7386 49.4025 13.0596 49.372 13.3777C49.4031 13.6961 49.3671 14.0175 49.2665 14.3213C49.1659 14.625 49.0028 14.9043 48.7878 15.1412C48.5729 15.3782 48.3107 15.5675 48.0181 15.6971C47.7256 15.8267 47.4092 15.8936 47.0893 15.8936C46.7693 15.8936 46.4529 15.8267 46.1604 15.6971C45.8678 15.5675 45.6056 15.3782 45.3907 15.1412C45.1757 14.9043 45.0126 14.625 44.912 14.3213C44.8114 14.0175 44.7754 13.6961 44.8065 13.3777ZM48.3894 13.3777C48.3894 12.3284 47.9181 11.7148 47.0908 11.7148C46.2604 11.7148 45.7933 12.3284 45.7933 13.3777C45.7933 14.4354 46.2605 15.0443 47.0908 15.0443C47.9181 15.0443 48.3894 14.4312 48.3894 13.3777H48.3894Z" fill="#E0FAFF"/>
<path d="M55.4412 15.8001H54.4502L53.4497 12.235H53.3742L52.3779 15.8001H51.3963L50.062 10.9594H51.031L51.8981 14.6531H51.9695L52.9647 10.9594H53.8812L54.8764 14.6531H54.952L55.8149 10.9594H56.7703L55.4412 15.8001Z" fill="#E0FAFF"/>
<path d="M57.8926 10.9595H58.8122V11.7285H58.8836C59.0047 11.4523 59.209 11.2207 59.4679 11.0661C59.7268 10.9116 60.0276 10.8416 60.3281 10.866C60.5637 10.8483 60.8002 10.8838 61.0201 10.9699C61.2401 11.056 61.4378 11.1905 61.5987 11.3634C61.7596 11.5363 61.8796 11.7432 61.9497 11.9688C62.0197 12.1944 62.0382 12.4328 62.0036 12.6664V15.8001H61.0483V12.9063C61.0483 12.1284 60.7103 11.7416 60.0037 11.7416C59.8438 11.7341 59.6842 11.7613 59.5358 11.8214C59.3874 11.8814 59.2537 11.9728 59.1439 12.0893C59.0341 12.2058 58.9508 12.3447 58.8997 12.4964C58.8486 12.6481 58.831 12.8091 58.8479 12.9683V15.8001H57.8926L57.8926 10.9595Z" fill="#E0FAFF"/>
<path d="M63.5256 9.06979H64.481V15.8001H63.5256V9.06979Z" fill="#E0FAFF"/>
<path d="M65.8089 13.3777C65.7785 13.0596 65.8149 12.7386 65.9158 12.4353C66.0167 12.1321 66.1798 11.8533 66.3948 11.6168C66.6098 11.3803 66.8718 11.1914 67.164 11.0621C67.4563 10.9328 67.7723 10.866 68.0919 10.866C68.4115 10.866 68.7276 10.9328 69.0198 11.0621C69.3121 11.1914 69.5741 11.3803 69.7891 11.6168C70.004 11.8533 70.1672 12.1321 70.2681 12.4353C70.369 12.7386 70.4054 13.0596 70.375 13.3777C70.406 13.6961 70.37 14.0176 70.2693 14.3213C70.1687 14.625 70.0056 14.9043 69.7906 15.1412C69.5756 15.3782 69.3134 15.5675 69.0208 15.6971C68.7283 15.8266 68.4119 15.8936 68.0919 15.8936C67.772 15.8936 67.4556 15.8266 67.163 15.6971C66.8705 15.5675 66.6083 15.3782 66.3933 15.1412C66.1782 14.9043 66.0152 14.625 65.9145 14.3213C65.8139 14.0176 65.7779 13.6961 65.8089 13.3777ZM69.3918 13.3777C69.3918 12.3284 68.9205 11.7148 68.0932 11.7148C67.2628 11.7148 66.7957 12.3284 66.7957 13.3777C66.7957 14.4354 67.2629 15.0443 68.0932 15.0443C68.9205 15.0443 69.3918 14.4312 69.3918 13.3777H69.3918Z" fill="#E0FAFF"/>
<path d="M71.3806 14.4312C71.3806 13.5598 72.0294 13.0575 73.181 12.9861L74.4922 12.9105V12.4927C74.4922 11.9814 74.1542 11.6927 73.5012 11.6927C72.9679 11.6927 72.5984 11.8885 72.4924 12.2308H71.5675C71.6651 11.3993 72.4472 10.866 73.5453 10.866C74.7589 10.866 75.4434 11.4702 75.4434 12.4927V15.8001H74.5237V15.1198H74.4481C74.2947 15.3639 74.0793 15.5628 73.8238 15.6963C73.5684 15.8298 73.2821 15.8932 72.9942 15.8799C72.791 15.901 72.5856 15.8793 72.3912 15.8162C72.1969 15.7531 72.018 15.65 71.866 15.5135C71.7139 15.377 71.5922 15.2102 71.5086 15.0238C71.425 14.8373 71.3814 14.6355 71.3806 14.4312ZM74.4922 14.0175V13.6128L73.3102 13.6884C72.6435 13.733 72.3412 13.9598 72.3412 14.3865C72.3412 14.8222 72.7191 15.0757 73.2388 15.0757C73.3911 15.0911 73.5449 15.0758 73.6911 15.0305C73.8373 14.9853 73.9729 14.9111 74.0898 14.8123C74.2068 14.7136 74.3027 14.5924 74.3718 14.4558C74.4409 14.3193 74.4819 14.1702 74.4922 14.0175Z" fill="#E0FAFF"/>
<path d="M76.699 13.3777C76.699 11.8481 77.4853 10.8791 78.7083 10.8791C79.0108 10.8652 79.3111 10.9377 79.5739 11.0881C79.8368 11.2384 80.0514 11.4605 80.1927 11.7284H80.2641V9.06979H81.2195V15.8001H80.304V15.0353H80.2284C80.0762 15.3014 79.8541 15.5207 79.5862 15.6696C79.3182 15.8184 79.0146 15.8912 78.7083 15.8799C77.4769 15.8799 76.699 14.9109 76.699 13.3777ZM77.6858 13.3777C77.6858 14.4044 78.1698 15.0222 78.9792 15.0222C79.7844 15.0222 80.282 14.3955 80.282 13.3819C80.282 12.373 79.7792 11.7374 78.9792 11.7374C78.175 11.7374 77.6858 12.3594 77.6858 13.3777H77.6858Z" fill="#E0FAFF"/>
<path d="M85.1722 13.3777C85.1417 13.0596 85.1781 12.7386 85.279 12.4354C85.3799 12.1322 85.543 11.8534 85.758 11.6169C85.9729 11.3804 86.2349 11.1915 86.5271 11.0622C86.8194 10.9329 87.1354 10.8661 87.455 10.8661C87.7745 10.8661 88.0906 10.9329 88.3828 11.0622C88.6751 11.1915 88.937 11.3804 89.152 11.6169C89.3669 11.8534 89.5301 12.1322 89.6309 12.4354C89.7318 12.7386 89.7682 13.0596 89.7378 13.3777C89.7688 13.6961 89.7328 14.0175 89.6322 14.3213C89.5316 14.625 89.3686 14.9043 89.1536 15.1412C88.9386 15.3782 88.6764 15.5675 88.3839 15.6971C88.0913 15.8267 87.7749 15.8936 87.455 15.8936C87.135 15.8936 86.8186 15.8267 86.5261 15.6971C86.2336 15.5675 85.9714 15.3782 85.7564 15.1412C85.5414 14.9043 85.3783 14.625 85.2777 14.3213C85.1771 14.0175 85.1412 13.6961 85.1722 13.3777ZM88.7552 13.3777C88.7552 12.3284 88.2838 11.7148 87.4566 11.7148C86.6262 11.7148 86.159 12.3284 86.159 13.3777C86.159 14.4354 86.6262 15.0443 87.4566 15.0443C88.2838 15.0443 88.7552 14.4312 88.7552 13.3777Z" fill="#E0FAFF"/>
<path d="M91.0195 10.9595H91.9392V11.7285H92.0106C92.1317 11.4523 92.3359 11.2207 92.5949 11.0661C92.8538 10.9116 93.1545 10.8416 93.4551 10.866C93.6906 10.8483 93.9271 10.8838 94.1471 10.9699C94.367 11.056 94.5648 11.1905 94.7257 11.3634C94.8866 11.5363 95.0065 11.7432 95.0766 11.9688C95.1467 12.1944 95.1652 12.4328 95.1306 12.6664V15.8001H94.1753V12.9063C94.1753 12.1284 93.8372 11.7416 93.1307 11.7416C92.9708 11.7341 92.8112 11.7613 92.6627 11.8214C92.5143 11.8814 92.3806 11.9728 92.2709 12.0893C92.1611 12.2058 92.0778 12.3447 92.0267 12.4964C91.9756 12.6481 91.9579 12.8091 91.9749 12.9683V15.8001H91.0195V10.9595Z" fill="#E0FAFF"/>
<path d="M100.529 9.75424V10.9815H101.578V11.7861H100.529V14.2752C100.529 14.7823 100.738 15.0043 101.213 15.0043C101.335 15.0039 101.457 14.9966 101.578 14.9823V15.778C101.406 15.8087 101.232 15.825 101.058 15.8268C99.9955 15.8268 99.5724 15.4531 99.5724 14.5198V11.7861H98.804V10.9814H99.5724V9.75424H100.529Z" fill="#E0FAFF"/>
<path d="M102.882 9.06979H103.829V11.7374H103.905C104.032 11.4586 104.242 11.2257 104.506 11.0706C104.77 10.9154 105.075 10.8454 105.381 10.8702C105.615 10.8575 105.849 10.8966 106.067 10.9848C106.284 11.073 106.48 11.2081 106.639 11.3804C106.798 11.5528 106.917 11.7582 106.988 11.9819C107.059 12.2057 107.079 12.4423 107.048 12.6748V15.8001H106.092V12.9105C106.092 12.1373 105.731 11.7457 105.057 11.7457C104.892 11.7323 104.727 11.7548 104.573 11.8119C104.418 11.8689 104.278 11.959 104.162 12.0759C104.046 12.1928 103.956 12.3337 103.9 12.4886C103.845 12.6436 103.823 12.8089 103.838 12.973V15.8001H102.882L102.882 9.06979Z" fill="#E0FAFF"/>
<path d="M112.618 14.4931C112.489 14.9355 112.207 15.3181 111.824 15.5742C111.44 15.8302 110.979 15.9432 110.521 15.8935C110.202 15.9019 109.885 15.8408 109.592 15.7145C109.299 15.5881 109.037 15.3996 108.824 15.1618C108.612 14.9241 108.453 14.6429 108.36 14.3378C108.267 14.0327 108.241 13.711 108.285 13.395C108.242 13.078 108.268 12.7555 108.361 12.4495C108.454 12.1435 108.612 11.861 108.824 11.6212C109.035 11.3814 109.296 11.1899 109.588 11.0596C109.88 10.9293 110.197 10.8633 110.517 10.866C111.864 10.866 112.676 11.7862 112.676 13.3062V13.6396H109.258V13.6931C109.243 13.8708 109.265 14.0496 109.324 14.2181C109.382 14.3866 109.474 14.5411 109.596 14.6716C109.717 14.8022 109.865 14.906 110.028 14.9763C110.192 15.0466 110.369 15.0818 110.547 15.0799C110.776 15.1073 111.007 15.0662 111.212 14.9617C111.417 14.8572 111.587 14.694 111.699 14.493L112.618 14.4931ZM109.258 12.933H111.703C111.715 12.7706 111.693 12.6074 111.638 12.454C111.583 12.3006 111.497 12.1603 111.385 12.0422C111.273 11.9241 111.137 11.8308 110.987 11.7682C110.836 11.7057 110.674 11.6753 110.511 11.6791C110.346 11.677 110.182 11.708 110.029 11.7703C109.876 11.8326 109.737 11.9249 109.62 12.0418C109.503 12.1586 109.411 12.2977 109.349 12.4508C109.287 12.6038 109.256 12.7678 109.258 12.933H109.258Z" fill="#E0FAFF"/>
<path d="M25.0341 20.2313C25.045 19.3498 25.2702 18.4854 25.6888 17.7186C26.1075 16.9519 26.7058 16.3077 27.4283 15.8459C26.9694 15.1645 26.3639 14.6037 25.66 14.2081C24.956 13.8125 24.1731 13.593 23.3733 13.5669C21.6672 13.3808 20.0132 14.6283 19.1438 14.6283C18.2576 14.6283 16.919 13.5854 15.4775 13.6163C14.5452 13.6476 13.6365 13.9294 12.8401 14.4344C12.0437 14.9393 11.3867 15.6501 10.9331 16.4975C8.96817 20.0341 10.4338 25.2317 12.316 28.0905C13.2578 29.4904 14.3584 31.054 15.7985 30.9986C17.2078 30.9378 17.7341 30.0644 19.4352 30.0644C21.1205 30.0644 21.6143 30.9986 23.0836 30.9633C24.5958 30.9378 25.5486 29.5573 26.4573 28.1441C27.1339 27.1467 27.6546 26.0443 28 24.8778C27.1215 24.4915 26.3717 23.8449 25.8443 23.0187C25.3169 22.1924 25.0351 21.223 25.0341 20.2313Z" fill="#E0FAFF"/>
<path d="M22.2587 11.6868C23.0832 10.6579 23.4894 9.3353 23.3911 8C22.1314 8.13754 20.9678 8.7634 20.1322 9.75289C19.7236 10.2363 19.4107 10.7986 19.2113 11.4078C19.0119 12.017 18.93 12.6611 18.9701 13.3032C19.6002 13.31 20.2235 13.168 20.7932 12.888C21.3628 12.608 21.8639 12.1973 22.2587 11.6868Z" fill="#E0FAFF"/>
</g>
<defs>
<clipPath id="clip0">
<rect width="128.639" height="43" fill="white"/>
</clipPath>
</defs>
</svg>
