<svg width="139" height="47" viewBox="0 0 139 47" fill="none" xmlns="http://www.w3.org/2000/svg">
<g clip-path="url(#clip0)">
<path d="M8.75355 44.8727L8.75828 44.8727C9.10581 44.8806 9.44691 44.885 9.79602 44.885L127.755 44.8874H127.756L129.013 44.885H129.014C129.355 44.885 129.707 44.8806 130.043 44.8728L130.049 44.8726C130.75 44.8641 131.449 44.8031 132.141 44.6902C132.764 44.5844 133.368 44.3854 133.931 44.0999C134.485 43.8187 134.989 43.4501 135.425 43.0083L135.429 43.0044C135.866 42.5713 136.232 42.072 136.514 41.5249C136.797 40.9616 136.992 40.3582 137.092 39.7357L137.093 39.7328C137.207 39.0463 137.271 38.3525 137.284 37.6567C137.284 37.6563 137.284 37.6559 137.284 37.6555L137.784 37.6649C137.788 37.3092 137.789 36.9637 137.789 36.5864L8.75355 44.8727ZM8.75355 44.8727C8.05255 44.8635 7.3532 44.8026 6.6612 44.6903C6.04249 44.5834 5.44312 44.3851 4.88282 44.1018C4.33075 43.8223 3.82722 43.4559 3.39152 43.0165L3.39155 43.0165L3.38687 43.0119C2.94547 42.5783 2.57798 42.0755 2.29898 41.5232L2.29857 41.5224C2.01474 40.9631 1.81832 40.3637 1.71614 39.7449L1.71607 39.7445C1.60088 39.0504 1.53856 38.3485 1.52964 37.645L1.52971 37.645L1.52945 37.6363C1.52592 37.5188 1.52172 37.2585 1.51838 37.0229L1.51427 36.7169L1.51309 36.6215L1.51277 36.5953L1.5127 36.5921V36.5892M8.75355 44.8727L1.5127 36.5892M1.5127 36.5892V9.79869L1.51277 9.79288L1.51311 9.76711L1.51436 9.67325L1.51862 9.37243C1.52205 9.14122 1.52626 8.88576 1.52953 8.77221L1.5296 8.77221L1.5297 8.76389C1.53824 8.06156 1.60019 7.36089 1.71502 6.66796L1.71508 6.6676C1.8175 6.04682 2.01417 5.44533 2.29828 4.88396L2.29871 4.88311C2.57694 4.33076 2.9427 3.82707 3.38182 3.39156L3.38182 3.39157L3.38369 3.3897C3.82331 2.94906 4.32927 2.58006 4.88317 2.29613C5.44174 2.01406 6.03948 1.8174 6.65642 1.71273C7.35075 1.59924 8.05259 1.53789 8.75608 1.52917L8.75665 1.52916L9.79996 1.51505H129.005H129.008L130.06 1.52973L130.061 1.52974C130.758 1.53802 131.453 1.59878 132.14 1.7115C132.764 1.81757 133.369 2.01577 133.935 2.29961C135.044 2.87195 135.947 3.77663 136.517 4.88716C136.796 5.44414 136.989 6.04008 137.09 6.65482L137.09 6.6558C137.207 7.35498 137.272 8.06171 137.285 8.77036C137.285 8.77102 137.285 8.77168 137.285 8.77234L137.785 8.76292M1.5127 36.5892L137.789 9.79548C137.789 9.4443 137.789 9.09143 137.785 8.76292M137.785 8.76292C137.771 8.02926 137.704 7.29759 137.584 6.57375L137.785 8.76292Z" stroke="#3EBBD2"/>
<path d="M49.0701 31.4812H43.5793L42.2607 35.3747H39.9351L45.1358 20.9698H47.5521L52.7528 35.3747H50.3875L49.0701 31.4812ZM44.148 29.6846H48.5003L46.3548 23.3657H46.2947L44.148 29.6846Z" fill="#3EBBD2"/>
<path d="M63.9847 30.1249C63.9847 33.3885 62.2379 35.4853 59.6018 35.4853C58.9341 35.5203 58.27 35.3664 57.6856 35.0415C57.1012 34.7165 56.6201 34.2336 56.2974 33.6479H56.2475V38.8498H54.0918V24.8731H56.1784V26.6199H56.2181C56.5556 26.0371 57.0448 25.5566 57.6337 25.2297C58.2225 24.9027 58.889 24.7415 59.5621 24.7633C62.2277 24.7633 63.9847 26.8703 63.9847 30.1249ZM61.7689 30.1249C61.7689 27.9986 60.6701 26.6007 58.9935 26.6007C57.3464 26.6007 56.2385 28.028 56.2385 30.1249C56.2385 32.241 57.3464 33.6581 58.9935 33.6581C60.6701 33.6581 61.7689 32.2704 61.7689 30.1249H61.7689Z" fill="#3EBBD2"/>
<path d="M75.5443 30.1249C75.5443 33.3885 73.797 35.4853 71.1609 35.4853C70.4932 35.5203 69.8291 35.3664 69.2447 35.0415C68.6603 34.7165 68.1792 34.2336 67.8565 33.6479H67.8066V38.8498H65.6509V24.8731H67.7375V26.6199H67.7772C68.1147 26.0371 68.6039 25.5566 69.1927 25.2297C69.7816 24.9027 70.4481 24.7415 71.1212 24.7633C73.7868 24.7633 75.5443 26.8703 75.5443 30.1249ZM73.328 30.1249C73.328 27.9986 72.2292 26.6007 70.5526 26.6007C68.9055 26.6007 67.7976 28.028 67.7976 30.1249C67.7976 32.241 68.9055 33.6581 70.5526 33.6581C72.2292 33.6581 73.328 32.2704 73.328 30.1249Z" fill="#3EBBD2"/>
<path d="M83.1831 31.3619C83.3428 32.7904 84.7305 33.7283 86.6268 33.7283C88.4439 33.7283 89.7511 32.7903 89.7511 31.5023C89.7511 30.3842 88.9627 29.7148 87.0958 29.256L85.229 28.8062C82.5838 28.1673 81.3559 26.9303 81.3559 24.9229C81.3559 22.4376 83.5218 20.7304 86.5963 20.7304C89.6413 20.7304 91.7279 22.4376 91.7981 24.9229H89.622C89.4917 23.4854 88.3034 22.6177 86.5668 22.6177C84.8302 22.6177 83.6419 23.4956 83.6419 24.7734C83.6419 25.7918 84.4009 26.3911 86.2575 26.8498L87.8446 27.2395C90.8001 27.9385 92.0269 29.1257 92.0269 31.2327C92.0269 33.9276 89.8814 35.6155 86.4671 35.6155C83.2725 35.6155 81.1157 33.9673 80.9763 31.3618L83.1831 31.3619Z" fill="#3EBBD2"/>
<path d="M96.6817 22.3878V24.8731H98.6789V26.5803H96.6817V32.3701C96.6817 33.2696 97.0816 33.6887 97.9595 33.6887C98.1966 33.6846 98.4333 33.6679 98.6687 33.6388V35.3358C98.274 35.4095 97.8728 35.4429 97.4713 35.4355C95.345 35.4355 94.5158 34.6368 94.5158 32.6V26.5803H92.9888V24.8731H94.5158V22.3878H96.6817Z" fill="#3EBBD2"/>
<path d="M99.8342 30.1249C99.8342 26.8205 101.78 24.744 104.815 24.744C107.86 24.744 109.797 26.8204 109.797 30.1249C109.797 33.4384 107.87 35.5057 104.815 35.5057C101.761 35.5057 99.8342 33.4383 99.8342 30.1249ZM107.601 30.1249C107.601 27.8581 106.562 26.5203 104.815 26.5203C103.068 26.5203 102.03 27.8683 102.03 30.1249C102.03 32.4007 103.068 33.7284 104.815 33.7284C106.562 33.7284 107.601 32.4007 107.601 30.1249H107.601Z" fill="#3EBBD2"/>
<path d="M111.575 24.8731H113.631V26.6607H113.681C113.82 26.1024 114.147 25.609 114.607 25.2635C115.067 24.9179 115.632 24.7413 116.207 24.7632C116.455 24.7624 116.703 24.7894 116.945 24.8437V26.8601C116.632 26.7642 116.305 26.7202 115.977 26.7298C115.664 26.7171 115.351 26.7723 115.062 26.8917C114.772 27.011 114.511 27.1917 114.298 27.4212C114.084 27.6508 113.923 27.9238 113.825 28.2215C113.727 28.5193 113.695 28.8347 113.73 29.1461V35.3754H111.575L111.575 24.8731Z" fill="#3EBBD2"/>
<path d="M126.885 32.2908C126.595 34.1973 124.738 35.5057 122.362 35.5057C119.307 35.5057 117.411 33.4587 117.411 30.1747C117.411 26.8805 119.317 24.744 122.272 24.744C125.177 24.744 127.005 26.74 127.005 29.9244V30.663H119.587V30.7932C119.553 31.1797 119.601 31.5691 119.729 31.9355C119.857 32.3019 120.061 32.6369 120.328 32.9182C120.596 33.1996 120.92 33.4209 121.279 33.5674C121.638 33.7139 122.025 33.7823 122.412 33.768C122.922 33.8157 123.433 33.6977 123.87 33.4316C124.307 33.1654 124.646 32.7653 124.838 32.2908L126.885 32.2908ZM119.597 29.1563H124.848C124.867 28.8088 124.814 28.461 124.693 28.1348C124.572 27.8086 124.384 27.511 124.142 27.2607C123.9 27.0104 123.609 26.8129 123.287 26.6804C122.966 26.5479 122.62 26.4833 122.272 26.4908C121.921 26.4887 121.573 26.5562 121.248 26.6893C120.923 26.8224 120.628 27.0185 120.379 27.2663C120.13 27.5141 119.933 27.8087 119.799 28.1331C119.665 28.4575 119.596 28.8053 119.597 29.1563V29.1563Z" fill="#3EBBD2"/>
<path d="M43.8783 10.128C44.3302 10.0955 44.7838 10.1638 45.2061 10.3279C45.6285 10.4919 46.0092 10.7477 46.3207 11.0767C46.6323 11.4057 46.867 11.7998 47.0078 12.2304C47.1486 12.6611 47.1921 13.1177 47.1351 13.5672C47.1351 15.7784 45.94 17.0495 43.8783 17.0495H41.3782V10.128H43.8783ZM42.4532 16.0707H43.7582C44.0812 16.09 44.4043 16.037 44.7042 15.9157C45.0042 15.7943 45.2732 15.6076 45.4919 15.3691C45.7105 15.1307 45.8733 14.8465 45.9682 14.5372C46.0632 14.2279 46.088 13.9014 46.0408 13.5813C46.0846 13.2625 46.0572 12.9379 45.9608 12.6309C45.8644 12.3239 45.7013 12.042 45.4831 11.8055C45.265 11.5689 44.9972 11.3836 44.699 11.2626C44.4008 11.1417 44.0795 11.0883 43.7582 11.1061H42.4532V16.0707Z" fill="#3EBBD2"/>
<path d="M48.3495 14.4354C48.3167 14.0922 48.356 13.7458 48.4648 13.4186C48.5737 13.0914 48.7497 12.7906 48.9817 12.5354C49.2136 12.2802 49.4963 12.0764 49.8116 11.9368C50.127 11.7973 50.468 11.7253 50.8128 11.7253C51.1577 11.7253 51.4987 11.7973 51.814 11.9368C52.1294 12.0764 52.4121 12.2802 52.644 12.5354C52.876 12.7906 53.052 13.0914 53.1609 13.4186C53.2697 13.7458 53.309 14.0922 53.2761 14.4354C53.3096 14.7791 53.2708 15.1259 53.1622 15.4536C53.0537 15.7813 52.8777 16.0827 52.6457 16.3384C52.4138 16.5941 52.1308 16.7984 51.8152 16.9382C51.4995 17.078 51.1581 17.1503 50.8128 17.1503C50.4676 17.1503 50.1262 17.078 49.8105 16.9382C49.4948 16.7984 49.2119 16.5941 48.9799 16.3384C48.7479 16.0827 48.572 15.7813 48.4634 15.4536C48.3549 15.1259 48.3161 14.7791 48.3495 14.4354ZM52.2158 14.4354C52.2158 13.3032 51.7072 12.6411 50.8145 12.6411C49.9185 12.6411 49.4144 13.3032 49.4144 14.4355C49.4144 15.5768 49.9185 16.2338 50.8145 16.2338C51.7072 16.2338 52.2158 15.5722 52.2158 14.4354H52.2158Z" fill="#3EBBD2"/>
<path d="M59.8248 17.0494H58.7554L57.6759 13.2024H57.5943L56.5193 17.0494H55.4601L54.0203 11.826H55.0659L56.0016 15.8118H56.0786L57.1525 11.826H58.1414L59.2153 15.8118H59.2969L60.2281 11.826H61.2589L59.8248 17.0494Z" fill="#3EBBD2"/>
<path d="M62.47 11.826H63.4623V12.6558H63.5394C63.67 12.3578 63.8904 12.1079 64.1698 11.9411C64.4493 11.7743 64.7738 11.6988 65.0981 11.7252C65.3523 11.7061 65.6075 11.7444 65.8448 11.8373C66.0821 11.9302 66.2955 12.0753 66.4691 12.2619C66.6428 12.4485 66.7722 12.6717 66.8478 12.9151C66.9235 13.1585 66.9434 13.4158 66.9061 13.6679V17.0493H65.8752V13.9268C65.8752 13.0874 65.5105 12.6699 64.7481 12.6699C64.5755 12.6619 64.4032 12.6913 64.2431 12.756C64.083 12.8208 63.9387 12.9194 63.8202 13.0452C63.7018 13.1709 63.6119 13.3207 63.5568 13.4845C63.5016 13.6482 63.4826 13.8219 63.5008 13.9936V17.0494H62.47L62.47 11.826Z" fill="#3EBBD2"/>
<path d="M68.5486 9.78693H69.5795V17.0494H68.5486V9.78693Z" fill="#3EBBD2"/>
<path d="M71.0126 14.4355C70.9798 14.0922 71.0191 13.7458 71.128 13.4186C71.2368 13.0914 71.4129 12.7905 71.6449 12.5354C71.8768 12.2802 72.1596 12.0763 72.4749 11.9368C72.7903 11.7972 73.1313 11.7252 73.4762 11.7252C73.821 11.7252 74.1621 11.7972 74.4775 11.9368C74.7928 12.0763 75.0756 12.2802 75.3075 12.5354C75.5395 12.7905 75.7155 13.0914 75.8244 13.4186C75.9333 13.7458 75.9726 14.0922 75.9398 14.4355C75.9732 14.7791 75.9344 15.1259 75.8258 15.4536C75.7172 15.7814 75.5412 16.0827 75.3092 16.3384C75.0772 16.5941 74.7942 16.7984 74.4785 16.9382C74.1629 17.078 73.8214 17.1503 73.4762 17.1503C73.1309 17.1503 72.7895 17.078 72.4738 16.9382C72.1581 16.7984 71.8752 16.5941 71.6432 16.3384C71.4112 16.0827 71.2352 15.7814 71.1266 15.4536C71.018 15.1259 70.9792 14.7791 71.0126 14.4355ZM74.8789 14.4355C74.8789 13.3032 74.3702 12.6411 73.4776 12.6411C72.5815 12.6411 72.0775 13.3032 72.0775 14.4355C72.0775 15.5768 72.5816 16.2338 73.4776 16.2338C74.3703 16.2338 74.8789 15.5722 74.8789 14.4355H74.8789Z" fill="#3EBBD2"/>
<path d="M77.0249 15.5722C77.0249 14.632 77.725 14.09 78.9677 14.0129L80.3826 13.9314V13.4805C80.3826 12.9288 80.0178 12.6173 79.3132 12.6173C78.7377 12.6173 78.339 12.8286 78.2246 13.1979H77.2265C77.3319 12.3007 78.1758 11.7252 79.3608 11.7252C80.6703 11.7252 81.4089 12.3771 81.4089 13.4805V17.0494H80.4166V16.3154H80.335C80.1694 16.5787 79.937 16.7933 79.6613 16.9374C79.3857 17.0815 79.0767 17.1499 78.766 17.1355C78.5468 17.1583 78.3251 17.1349 78.1154 17.0668C77.9058 16.9987 77.7127 16.8875 77.5486 16.7402C77.3846 16.5929 77.2532 16.4129 77.163 16.2117C77.0728 16.0105 77.0258 15.7927 77.0249 15.5722ZM80.3826 15.1259V14.6892L79.107 14.7708C78.3877 14.8189 78.0614 15.0636 78.0614 15.5241C78.0614 15.9942 78.4692 16.2678 79.03 16.2678C79.1943 16.2844 79.3603 16.2678 79.5181 16.219C79.6758 16.1702 79.8222 16.0901 79.9484 15.9836C80.0746 15.877 80.178 15.7462 80.2526 15.5989C80.3272 15.4515 80.3714 15.2907 80.3826 15.1259Z" fill="#3EBBD2"/>
<path d="M82.7637 14.4354C82.7637 12.7849 83.6122 11.7393 84.9319 11.7393C85.2583 11.7243 85.5823 11.8025 85.866 11.9648C86.1496 12.127 86.3812 12.3667 86.5337 12.6557H86.6107V9.78693H87.6416V17.0494H86.6538V16.2241H86.5722C86.4079 16.5112 86.1683 16.7479 85.8791 16.9085C85.59 17.0692 85.2624 17.1476 84.9319 17.1355C83.6031 17.1355 82.7637 16.0899 82.7637 14.4354ZM83.8286 14.4354C83.8286 15.5433 84.3508 16.21 85.2242 16.21C86.093 16.21 86.63 15.5337 86.63 14.44C86.63 13.3513 86.0874 12.6654 85.2242 12.6654C84.3564 12.6654 83.8285 13.3366 83.8285 14.4354H83.8286Z" fill="#3EBBD2"/>
<path d="M91.9067 14.4354C91.8738 14.0922 91.9131 13.7458 92.022 13.4186C92.1308 13.0914 92.3068 12.7906 92.5388 12.5354C92.7707 12.2802 93.0534 12.0764 93.3688 11.9368C93.6841 11.7973 94.0251 11.7253 94.37 11.7253C94.7148 11.7253 95.0558 11.7973 95.3712 11.9368C95.6865 12.0764 95.9692 12.2802 96.2012 12.5354C96.4331 12.7906 96.6091 13.0914 96.718 13.4186C96.8268 13.7458 96.8661 14.0922 96.8333 14.4354C96.8667 14.7791 96.8279 15.1259 96.7194 15.4536C96.6108 15.7813 96.4349 16.0827 96.2029 16.3384C95.9709 16.5941 95.688 16.7984 95.3723 16.9382C95.0566 17.078 94.7152 17.1503 94.37 17.1503C94.0247 17.1503 93.6833 17.078 93.3676 16.9382C93.052 16.7984 92.7691 16.5941 92.5371 16.3384C92.3051 16.0827 92.1291 15.7813 92.0206 15.4536C91.912 15.1259 91.8732 14.7791 91.9067 14.4354ZM95.773 14.4354C95.773 13.3032 95.2643 12.6411 94.3717 12.6411C93.4756 12.6411 92.9716 13.3032 92.9716 14.4355C92.9716 15.5768 93.4757 16.2338 94.3717 16.2338C95.2643 16.2338 95.773 15.5722 95.773 14.4354Z" fill="#3EBBD2"/>
<path d="M98.2166 11.826H99.2089V12.6558H99.2859C99.4166 12.3578 99.637 12.1079 99.9164 11.9411C100.196 11.7743 100.52 11.6988 100.845 11.7252C101.099 11.7061 101.354 11.7444 101.591 11.8373C101.829 11.9302 102.042 12.0753 102.216 12.2619C102.389 12.4485 102.519 12.6717 102.594 12.9151C102.67 13.1585 102.69 13.4158 102.653 13.6679V17.0493H101.622V13.9268C101.622 13.0874 101.257 12.6699 100.495 12.6699C100.322 12.6619 100.15 12.6913 99.9897 12.756C99.8295 12.8208 99.6853 12.9194 99.5668 13.0452C99.4484 13.1709 99.3585 13.3207 99.3033 13.4845C99.2482 13.6482 99.2291 13.8219 99.2474 13.9936V17.0494H98.2166V11.826Z" fill="#3EBBD2"/>
<path d="M108.477 10.5255V11.8498H109.609V12.7181H108.477V15.404C108.477 15.9511 108.703 16.1907 109.216 16.1907C109.347 16.1903 109.479 16.1823 109.609 16.1669V17.0256C109.424 17.0587 109.236 17.0763 109.048 17.0783C107.902 17.0783 107.445 16.675 107.445 15.6679V12.718H106.616V11.8497H107.445V10.5255H108.477Z" fill="#3EBBD2"/>
<path d="M111.017 9.78693H112.039V12.6654H112.121C112.258 12.3646 112.484 12.1134 112.769 11.9459C113.054 11.7785 113.384 11.703 113.713 11.7297C113.966 11.7159 114.219 11.7582 114.454 11.8533C114.688 11.9485 114.899 12.0943 115.071 12.2803C115.243 12.4663 115.371 12.6879 115.448 12.9293C115.524 13.1708 115.546 13.4261 115.512 13.677V17.0494H114.48V13.9313C114.48 13.097 114.092 12.6745 113.363 12.6745C113.186 12.6599 113.008 12.6843 112.841 12.7458C112.674 12.8074 112.523 12.9046 112.398 13.0307C112.273 13.1569 112.176 13.3089 112.116 13.4761C112.056 13.6433 112.032 13.8216 112.048 13.9987V17.0494H111.017L111.017 9.78693Z" fill="#3EBBD2"/>
<path d="M121.523 15.639C121.383 16.1164 121.079 16.5293 120.666 16.8056C120.252 17.0819 119.754 17.2038 119.26 17.1502C118.915 17.1593 118.574 17.0934 118.257 16.957C117.941 16.8207 117.659 16.6172 117.429 16.3607C117.2 16.1042 117.029 15.8008 116.928 15.4715C116.827 15.1423 116.8 14.7951 116.847 14.4541C116.801 14.112 116.829 13.7641 116.929 13.4339C117.03 13.1037 117.2 12.7989 117.428 12.5401C117.657 12.2813 117.938 12.0747 118.253 11.9341C118.568 11.7935 118.91 11.7222 119.255 11.7252C120.708 11.7252 121.585 12.7181 121.585 14.3584V14.7181H117.897V14.7758C117.881 14.9675 117.905 15.1605 117.968 15.3423C118.03 15.5241 118.13 15.6908 118.261 15.8317C118.392 15.9726 118.551 16.0846 118.728 16.1604C118.905 16.2363 119.096 16.2744 119.288 16.2722C119.535 16.3018 119.784 16.2574 120.006 16.1447C120.227 16.0319 120.41 15.8559 120.531 15.639L121.523 15.639ZM117.897 13.9557H120.535C120.548 13.7804 120.524 13.6043 120.465 13.4387C120.406 13.2732 120.313 13.1218 120.192 12.9944C120.071 12.8669 119.924 12.7662 119.762 12.6988C119.6 12.6313 119.425 12.5985 119.249 12.6025C119.071 12.6003 118.894 12.6338 118.729 12.701C118.564 12.7682 118.414 12.8678 118.288 12.9939C118.162 13.12 118.062 13.2701 117.995 13.4352C117.928 13.6004 117.895 13.7774 117.897 13.9557H117.897Z" fill="#3EBBD2"/>
<path d="M27.5397 22.8267C27.5525 21.8302 27.8153 20.853 28.3037 19.9863C28.792 19.1195 29.4902 18.3912 30.333 17.8693C29.7976 17.099 29.0912 16.465 28.27 16.0178C27.4487 15.5706 26.5353 15.3225 25.6022 15.2931C23.6117 15.0826 21.6821 16.4928 20.6677 16.4928C19.6338 16.4928 18.0721 15.3139 16.3905 15.3488C15.3027 15.3842 14.2426 15.7028 13.3135 16.2736C12.3843 16.8444 11.6178 17.6479 11.0886 18.6058C8.79619 22.6037 10.5061 28.4793 12.7021 31.711C13.8007 33.2934 15.0848 35.061 16.7649 34.9984C18.4091 34.9297 19.0231 33.9423 21.0077 33.9423C22.9739 33.9423 23.55 34.9984 25.2642 34.9585C27.0285 34.9297 28.14 33.369 29.2002 31.7716C29.9896 30.6441 30.597 29.3979 31 28.0792C29.975 27.6426 29.1003 26.9116 28.485 25.9776C27.8697 25.0435 27.5409 23.9477 27.5397 22.8267Z" fill="#3EBBD2"/>
<path d="M24.3018 13.1677C25.2638 12.0045 25.7377 10.5095 25.6229 9C24.1533 9.15548 22.7958 9.86298 21.8209 10.9815C21.3442 11.528 20.9791 12.1637 20.7465 12.8523C20.5139 13.541 20.4183 14.2691 20.4652 14.995C21.2003 15.0026 21.9275 14.8421 22.5921 14.5256C23.2566 14.2091 23.8412 13.7448 24.3018 13.1677Z" fill="#3EBBD2"/>
</g>
<defs>
<clipPath id="clip0">
<rect width="138.81" height="46.4" fill="white"/>
</clipPath>
</defs>
</svg>
