<svg width="35" height="34" viewBox="0 0 35 34" fill="none" xmlns="http://www.w3.org/2000/svg">
<path fill-rule="evenodd" clip-rule="evenodd" d="M17.5833 31.875C21.5283 31.875 25.3119 30.3078 28.1015 27.5182C30.8911 24.7286 32.4582 20.9451 32.4582 17C32.4582 13.0549 30.8911 9.2714 28.1015 6.48179C25.3119 3.69219 21.5283 2.125 17.5833 2.125C13.6382 2.125 9.85464 3.69219 7.06504 6.48179C4.27543 9.27139 2.70825 13.0549 2.70825 17C2.70825 20.9451 4.27543 24.7286 7.06504 27.5182C9.85464 30.3078 13.6382 31.875 17.5833 31.875ZM17.5833 4.01742e-06C22.0919 4.07119e-06 26.4159 1.79107 29.6041 4.97919C32.7922 8.16731 34.5832 12.4913 34.5832 17C34.5832 21.5087 32.7922 25.8327 29.6041 29.0208C26.4159 32.2089 22.0919 34 17.5833 34C13.0746 34 8.75055 32.2089 5.56244 29.0208C2.37432 25.8327 0.583252 21.5087 0.583252 17C0.583252 12.4913 2.37432 8.16731 5.56244 4.97919C8.75055 1.79107 13.0746 3.96365e-06 17.5833 4.01742e-06ZM10.1458 15.9375C9.86396 15.9375 9.59371 16.0494 9.39445 16.2487C9.19519 16.448 9.08325 16.7182 9.08325 17C9.08325 17.2818 9.19519 17.552 9.39445 17.7513C9.59371 17.9506 9.86396 18.0625 10.1458 18.0625L22.4559 18.0625L17.8935 22.6228C17.694 22.8223 17.5819 23.0929 17.5819 23.375C17.5819 23.6571 17.694 23.9277 17.8935 24.1273C18.093 24.3268 18.3636 24.4388 18.6458 24.4388C18.9279 24.4388 19.1985 24.3268 19.398 24.1273L25.773 17.7523C25.8719 17.6536 25.9504 17.5363 26.004 17.4072C26.0576 17.2781 26.0851 17.1398 26.0851 17C26.0851 16.8602 26.0576 16.7219 26.004 16.5928C25.9504 16.4637 25.8719 16.3464 25.773 16.2478L19.398 9.87275C19.1985 9.67324 18.9279 9.56116 18.6458 9.56116C18.3636 9.56116 18.093 9.67324 17.8935 9.87275C17.694 10.0723 17.5819 10.3429 17.5819 10.625C17.5819 10.9072 17.694 11.1777 17.8935 11.3773L22.4559 15.9375L10.1458 15.9375Z" fill="#3EBBD2"/>
</svg>
