<svg width="152" height="45" viewBox="0 0 152 45" fill="none" xmlns="http://www.w3.org/2000/svg">
<rect x="0.75" y="0.750031" width="151.102" height="43.8682" rx="7" fill="#484848"/>
<path d="M70.6085 24.1446C68.4723 24.1446 66.7312 25.7197 66.7312 27.8911C66.7312 30.0484 68.4723 31.6376 70.6085 31.6376C72.7448 31.6376 74.4859 30.0484 74.4859 27.8911C74.4859 25.7197 72.7448 24.1446 70.6085 24.1446ZM70.6085 30.1621C69.4378 30.1621 68.4278 29.2257 68.4278 27.8911C68.4278 26.5425 69.4378 25.6202 70.6085 25.6202C71.7793 25.6202 72.7884 26.5425 72.7884 27.8911C72.7884 29.2248 71.7793 30.1621 70.6085 30.1621ZM62.149 24.1446C60.0127 24.1446 58.2716 25.7197 58.2716 27.8911C58.2716 30.0484 60.0127 31.6376 62.149 31.6376C64.2852 31.6376 66.0263 30.0484 66.0263 27.8911C66.0272 25.7197 64.2852 24.1446 62.149 24.1446ZM62.149 30.1621C60.9782 30.1621 59.9691 29.2257 59.9691 27.8911C59.9691 26.5425 60.9791 25.6202 62.149 25.6202C63.3197 25.6202 64.3288 26.5425 64.3288 27.8911C64.3297 29.2248 63.3197 30.1621 62.149 30.1621ZM52.0872 25.2942V26.8834H56.0091C55.8919 27.7775 55.5849 28.4302 55.1163 28.8848C54.5459 29.438 53.653 30.0484 52.0872 30.0484C49.673 30.0484 47.7856 28.1607 47.7856 25.8192C47.7856 23.4778 49.673 21.59 52.0872 21.59C53.3896 21.59 54.3406 22.0869 55.0427 22.7255L56.1989 21.6041C55.2189 20.6959 53.9164 20 52.0872 20C48.7802 20 46 22.611 46 25.8184C46 29.0257 48.7802 31.6367 52.0872 31.6367C53.8719 31.6367 55.2189 31.0694 56.2725 30.0044C57.3551 28.9544 57.6921 27.478 57.6921 26.2861C57.6921 25.917 57.663 25.5761 57.604 25.2925H52.0872V25.2942ZM93.2389 26.5284C92.9173 25.6906 91.9364 24.1438 89.9319 24.1438C87.9419 24.1438 86.2888 25.6624 86.2888 27.8902C86.2888 29.9903 87.9273 31.6367 90.1226 31.6367C91.8928 31.6367 92.9174 30.5867 93.3415 29.9762L92.0245 29.1244C91.5858 29.7489 90.9855 30.1603 90.1226 30.1603C89.2589 30.1603 88.6449 29.7771 88.2498 29.0248L93.4151 26.953L93.2389 26.5284ZM87.9709 27.7775C87.9273 26.3302 89.1272 25.592 89.99 25.592C90.663 25.592 91.2334 25.9179 91.4242 26.3865L87.9709 27.7775ZM83.7711 31.4103H85.4687V20.3982H83.7711V31.4103ZM80.9909 24.9815H80.9328C80.5522 24.5419 79.8211 24.1438 78.8992 24.1438C76.9673 24.1438 75.1971 25.7902 75.1971 27.9043C75.1971 30.0044 76.9673 31.6367 78.8992 31.6367C79.8211 31.6367 80.5522 31.2394 80.9328 30.7849H80.9909V31.324C80.9909 32.7572 80.2007 33.5236 78.9273 33.5236C77.8883 33.5236 77.2443 32.7995 76.9809 32.1899L75.5032 32.7863C75.9273 33.78 77.0545 35 78.9273 35C80.9173 35 82.6004 33.8645 82.6004 31.0976V24.371H80.9909V24.9815ZM79.0454 30.1621C77.8747 30.1621 76.8946 29.2116 76.8946 27.9052C76.8946 26.5856 77.8747 25.6202 79.0454 25.6202C80.2016 25.6202 81.1081 26.5847 81.1081 27.9052C81.1081 29.2107 80.2016 30.1621 79.0454 30.1621ZM101.19 20.3982H97.129V31.4103H98.8229V27.2384H101.189C103.067 27.2384 104.914 25.9197 104.914 23.8187C104.914 21.7178 103.068 20.3982 101.19 20.3982ZM101.233 25.7056H98.8229V21.9309H101.233C102.5 21.9309 103.22 22.9484 103.22 23.8187C103.22 24.6714 102.5 25.7056 101.233 25.7056ZM111.708 24.1244C110.48 24.1244 109.21 24.6485 108.684 25.8104L110.189 26.42C110.51 25.8104 111.109 25.6122 111.738 25.6122C112.614 25.6122 113.505 26.1223 113.52 27.0287V27.1424C113.213 26.9723 112.555 26.7169 111.752 26.7169C110.131 26.7169 108.48 27.581 108.48 29.1966C108.48 30.6704 109.809 31.6191 111.299 31.6191C112.439 31.6191 113.066 31.1231 113.46 30.5426H113.519V31.3927H115.154V27.1705C115.154 25.2149 113.65 24.1244 111.708 24.1244ZM111.502 30.1594C110.947 30.1594 110.173 29.8899 110.173 29.2248C110.173 28.3747 111.137 28.0488 111.969 28.0488C112.714 28.0488 113.064 28.2047 113.518 28.417C113.387 29.4371 112.481 30.1594 111.502 30.1594ZM121.114 24.3649L119.172 29.1394H119.114L117.098 24.3649H115.272L118.296 31.0377L116.572 34.7498H118.34L123 24.3649H121.114ZM105.849 31.4103H107.544V20.3982H105.849V31.4103Z" fill="white"/>
<path d="M35.3163 21.8625C36.2279 22.368 36.2279 23.632 35.3163 24.1375L16.0511 34.8221C15.1395 35.3276 14 34.6957 14 33.6846L14 12.3155C14 11.3043 15.1395 10.6724 16.0511 11.1779L35.3163 21.8625Z" fill="white"/>
<path d="M52.1152 13.2507H49.3657C49.2829 13.2507 49.2277 13.3082 49.2277 13.3945V14.0082C49.2277 14.0945 49.2829 14.1521 49.3657 14.1521H51.2968C51.26 15.1973 50.4692 15.974 49.2921 15.974C47.9863 15.974 47.0207 14.9192 47.0207 13.5192C47.0207 12.1479 48.0231 11.1027 49.2645 11.1027C49.899 11.1027 50.414 11.3521 50.837 11.726C50.9014 11.7836 50.9749 11.7932 51.0301 11.726L51.4899 11.2274C51.5451 11.1603 51.5451 11.0836 51.4807 11.026C50.9014 10.4603 50.1473 10.0863 49.2737 10.0863C47.4437 10.0863 46 11.611 46 13.5192C46 15.4562 47.4254 17 49.2921 17C51.1313 17 52.2532 15.6 52.2532 13.826V13.3945C52.2532 13.3082 52.198 13.2507 52.1152 13.2507Z" fill="white"/>
<path d="M55.283 12.0808C53.9864 12.0808 53.0485 13.1548 53.0485 14.5068C53.0485 15.8589 53.9956 16.9425 55.375 16.9425C56.0371 16.9425 56.6256 16.674 57.0486 16.2233C57.1222 16.1466 57.1222 16.0795 57.0486 16.0027L56.7544 15.7055C56.69 15.6384 56.6348 15.6575 56.5613 15.7151C56.2578 15.9548 55.9267 16.0986 55.467 16.0986C54.6577 16.0986 54.1244 15.6192 54.0048 14.8904H57.1222C57.3705 14.8904 57.4165 14.7178 57.4165 14.363C57.4165 13.1548 56.5888 12.0808 55.283 12.0808ZM55.2922 12.9534C55.9819 12.9534 56.4877 13.4425 56.5613 14.1904H53.9956C54.0876 13.4425 54.6026 12.9534 55.2922 12.9534Z" fill="white"/>
<path d="M60.686 12.1767H59.9504V10.8822C59.9504 10.7959 59.8952 10.7384 59.8124 10.7384H59.1227C59.04 10.7384 58.9848 10.7959 58.9848 10.8822V12.1767H58.2491C58.1664 12.1767 58.1112 12.2342 58.1112 12.3205V12.8671C58.1112 12.9534 58.1664 13.011 58.2491 13.011H58.9848V16.7315C58.9848 16.8178 59.04 16.8753 59.1227 16.8753H59.8124C59.8952 16.8753 59.9504 16.8178 59.9504 16.7315V13.011H60.686C60.7688 13.011 60.824 12.9534 60.824 12.8671V12.3205C60.824 12.2342 60.7688 12.1767 60.686 12.1767Z" fill="white"/>
<path d="M64.8829 11.1699C65.1956 11.1699 65.4347 10.911 65.4347 10.5849C65.4347 10.2589 65.1956 10 64.8829 10C64.5611 10 64.322 10.2589 64.322 10.5849C64.322 10.911 64.5611 11.1699 64.8829 11.1699ZM64.3955 12.3205V16.7315C64.3955 16.8178 64.4507 16.8753 64.5335 16.8753H65.2232C65.3059 16.8753 65.3611 16.8178 65.3611 16.7315V12.3205C65.3611 12.2342 65.3059 12.1767 65.2232 12.1767H64.5335C64.4507 12.1767 64.3955 12.2342 64.3955 12.3205Z" fill="white"/>
<path d="M68.8401 12.1767H68.1045V10.8822C68.1045 10.7959 68.0493 10.7384 67.9665 10.7384H67.2768C67.1941 10.7384 67.1389 10.7959 67.1389 10.8822V12.1767H66.4032C66.3205 12.1767 66.2653 12.2342 66.2653 12.3205V12.8671C66.2653 12.9534 66.3205 13.011 66.4032 13.011H67.1389V16.7315C67.1389 16.8178 67.1941 16.8753 67.2768 16.8753H67.9665C68.0493 16.8753 68.1045 16.8178 68.1045 16.7315V13.011H68.8401C68.9229 13.011 68.9781 12.9534 68.9781 12.8671V12.3205C68.9781 12.2342 68.9229 12.1767 68.8401 12.1767Z" fill="white"/>
<path d="M74.6463 16.9712C75.9337 16.9712 76.9544 15.8877 76.9544 14.526C76.9544 13.1452 75.9337 12.0712 74.6463 12.0712C73.3497 12.0712 72.3381 13.1452 72.3381 14.526C72.3381 15.8877 73.3497 16.9712 74.6463 16.9712ZM74.6463 16.0411C73.8738 16.0411 73.2669 15.3986 73.2669 14.526C73.2669 13.6342 73.8738 12.9918 74.6463 12.9918C75.4187 12.9918 76.0257 13.6342 76.0257 14.526C76.0257 15.3986 75.4187 16.0411 74.6463 16.0411Z" fill="white"/>
<path d="M80.3999 12.0712C79.7286 12.0712 79.2413 12.4548 78.9286 12.9534L78.8918 12.3205C78.8826 12.2342 78.8366 12.1767 78.7539 12.1767H78.101C78.0182 12.1767 77.963 12.2342 77.963 12.3205V16.7315C77.963 16.8178 78.0182 16.8753 78.101 16.8753H78.7907C78.8734 16.8753 78.9286 16.8178 78.9286 16.7315V13.9986C78.9286 13.7973 79.324 12.9918 80.1057 12.9918C80.639 12.9918 81.0344 13.337 81.0344 14.1425V16.7315C81.0344 16.8178 81.0896 16.8753 81.1724 16.8753H81.8621C81.9448 16.8753 82 16.8178 82 16.7315V13.9986C82 12.7425 81.3287 12.0712 80.3999 12.0712Z" fill="white"/>
</svg>
