<svg width="152" height="45" viewBox="0 0 152 45" fill="none" xmlns="http://www.w3.org/2000/svg">
<rect x="0.125977" y="0.750031" width="151.14" height="43.8069" rx="7" fill="#484848"/>
<path d="M50.3001 29.0227H45.9123L44.8585 32.1362H43L47.1561 20.6171H49.0871L53.2432 32.1362H51.353L50.3001 29.0227ZM46.3667 27.586H49.8448L48.1302 22.533H48.0822L46.3667 27.586Z" fill="white"/>
<path d="M62.2193 27.9375C62.2193 30.5473 60.8233 32.2241 58.7168 32.2241C58.1831 32.252 57.6524 32.129 57.1854 31.8691C56.7184 31.6093 56.3339 31.223 56.0761 30.7547H56.0362V34.9145H54.3135V23.7378H55.981V25.1347H56.0127C56.2824 24.6686 56.6733 24.2844 57.1439 24.0229C57.6145 23.7615 58.1471 23.6326 58.6851 23.6499C60.8152 23.6499 62.2193 25.3349 62.2193 27.9375ZM60.4486 27.9375C60.4486 26.2371 59.5704 25.1193 58.2306 25.1193C56.9144 25.1193 56.029 26.2607 56.029 27.9375C56.029 29.6296 56.9144 30.7629 58.2306 30.7629C59.5704 30.7629 60.4485 29.6532 60.4485 27.9375H60.4486Z" fill="white"/>
<path d="M71.4566 27.9375C71.4566 30.5473 70.0602 32.2241 67.9536 32.2241C67.42 32.252 66.8892 32.129 66.4222 31.8691C65.9552 31.6093 65.5708 31.223 65.3129 30.7547H65.273V34.9145H63.5503V23.7378H65.2178V25.1347H65.2495C65.5192 24.6686 65.9102 24.2844 66.3807 24.0229C66.8513 23.7615 67.3839 23.6326 67.9219 23.6499C70.052 23.6499 71.4566 25.3349 71.4566 27.9375ZM69.6854 27.9375C69.6854 26.2371 68.8073 25.1193 67.4675 25.1193C66.1512 25.1193 65.2658 26.2607 65.2658 27.9375C65.2658 29.6296 66.1512 30.7629 67.4675 30.7629C68.8073 30.7629 69.6854 29.6532 69.6854 27.9375Z" fill="white"/>
<path d="M77.5609 28.9267C77.6885 30.069 78.7975 30.819 80.3129 30.819C81.765 30.819 82.8097 30.069 82.8097 29.039C82.8097 28.1449 82.1796 27.6095 80.6877 27.2426L79.1958 26.883C77.082 26.3721 76.1007 25.3829 76.1007 23.7776C76.1007 21.7902 77.8316 20.425 80.2885 20.425C82.7219 20.425 84.3894 21.7902 84.4455 23.7776H82.7065C82.6023 22.6281 81.6527 21.9342 80.2649 21.9342C78.8771 21.9342 77.9275 22.6363 77.9275 23.6581C77.9275 24.4725 78.534 24.9517 80.0178 25.3185L81.2861 25.6301C83.6479 26.1891 84.6283 27.1384 84.6283 28.8233C84.6283 30.9784 82.9138 32.3282 80.1852 32.3282C77.6324 32.3282 75.9087 31.0101 75.7974 28.9266L77.5609 28.9267Z" fill="white"/>
<path d="M88.3481 21.7503V23.7378H89.9441V25.1029H88.3481V29.7329C88.3481 30.4521 88.6677 30.7873 89.3693 30.7873C89.5587 30.784 89.7479 30.7707 89.936 30.7474V32.1044C89.6205 32.1634 89.2999 32.1901 88.9791 32.1841C87.2799 32.1841 86.6173 31.5455 86.6173 29.9167V25.1029H85.397V23.7378H86.6172V21.7503H88.3481Z" fill="white"/>
<path d="M90.8682 27.9374C90.8682 25.295 92.4234 23.6345 94.8487 23.6345C97.282 23.6345 98.8301 25.295 98.8301 27.9374C98.8301 30.5871 97.2902 32.2403 94.8487 32.2403C92.408 32.2403 90.8682 30.5871 90.8682 27.9374ZM97.0747 27.9374C97.0747 26.1248 96.2446 25.0549 94.8487 25.0549C93.4527 25.0549 92.6226 26.1329 92.6226 27.9374C92.6226 29.7573 93.4527 30.819 94.8487 30.819C96.2446 30.819 97.0747 29.7573 97.0747 27.9374H97.0747Z" fill="white"/>
<path d="M100.25 23.7378H101.893V25.1673H101.933C102.044 24.7208 102.305 24.3263 102.673 24.05C103.041 23.7736 103.492 23.6324 103.952 23.6499C104.15 23.6492 104.348 23.6708 104.542 23.7142V25.3267C104.291 25.2501 104.03 25.2149 103.768 25.2225C103.518 25.2124 103.268 25.2565 103.036 25.352C102.805 25.4474 102.597 25.5919 102.426 25.7754C102.256 25.959 102.127 26.1773 102.048 26.4154C101.97 26.6535 101.944 26.9057 101.973 27.1548V32.1362H100.25L100.25 23.7378Z" fill="white"/>
<path d="M112.484 29.6695C112.252 31.1941 110.768 32.2403 108.87 32.2403C106.429 32.2403 104.913 30.6034 104.913 27.9773C104.913 25.343 106.437 23.6345 108.798 23.6345C111.12 23.6345 112.58 25.2307 112.58 27.7771V28.3677H106.652V28.4719C106.625 28.781 106.663 29.0924 106.766 29.3853C106.868 29.6783 107.031 29.9462 107.245 30.1712C107.458 30.3962 107.717 30.5731 108.004 30.6903C108.291 30.8075 108.6 30.8621 108.91 30.8507C109.317 30.8889 109.726 30.7945 110.075 30.5817C110.424 30.3689 110.695 30.0489 110.848 29.6695L112.484 29.6695ZM106.66 27.1629H110.856C110.872 26.885 110.83 26.6069 110.733 26.346C110.635 26.0852 110.486 25.8472 110.292 25.6471C110.099 25.4469 109.866 25.2889 109.609 25.183C109.352 25.077 109.076 25.0254 108.798 25.0314C108.517 25.0297 108.239 25.0837 107.979 25.1901C107.72 25.2965 107.484 25.4534 107.285 25.6515C107.086 25.8497 106.929 26.0853 106.822 26.3447C106.714 26.6041 106.66 26.8822 106.66 27.1629V27.1629Z" fill="white"/>
<path d="M48.1823 10.2415H46.6987C46.6237 10.2415 46.5737 10.2898 46.5737 10.3622V15.755C46.5737 15.8275 46.6237 15.8758 46.6987 15.8758H48.1823C50.1909 15.8758 51.2327 14.6362 51.2327 13.0586C51.2327 11.473 50.1909 10.2415 48.1823 10.2415ZM48.1823 15.087H47.4822V11.0303H48.1823C49.6075 11.0303 50.3159 11.7869 50.3159 13.0586C50.3159 14.3223 49.6075 15.087 48.1823 15.087Z" fill="white"/>
<path d="M54.1222 15.9563C55.2891 15.9563 56.2142 15.0467 56.2142 13.9038C56.2142 12.7447 55.2891 11.8432 54.1222 11.8432C52.9471 11.8432 52.0303 12.7447 52.0303 13.9038C52.0303 15.0467 52.9471 15.9563 54.1222 15.9563ZM54.1222 15.1755C53.4221 15.1755 52.872 14.6362 52.872 13.9038C52.872 13.1552 53.4221 12.6159 54.1222 12.6159C54.8223 12.6159 55.3724 13.1552 55.3724 13.9038C55.3724 14.6362 54.8223 15.1755 54.1222 15.1755Z" fill="white"/>
<path d="M63.4123 11.9318H62.7955C62.7288 11.9318 62.6705 11.964 62.6455 12.0284L61.587 14.9099L60.4868 12.0284C60.4702 11.9881 60.4452 11.9559 60.4035 11.9479C60.3868 11.9398 60.3618 11.9318 60.3368 11.9318H59.7701C59.7451 11.9318 59.7201 11.9398 59.7034 11.9479C59.6617 11.9559 59.6367 11.9881 59.62 12.0284L58.5282 14.9099L57.4614 12.0284C57.4364 11.964 57.378 11.9318 57.3114 11.9318H56.7029C56.6113 11.9318 56.5696 11.9801 56.6029 12.0686L58.0365 15.7792C58.0615 15.8436 58.1198 15.8758 58.1865 15.8758H58.8199C58.8866 15.8758 58.9449 15.8436 58.9699 15.7792L60.0534 13.0345L61.1453 15.7792C61.1703 15.8436 61.2286 15.8758 61.2953 15.8758H61.9204C61.9871 15.8758 62.0454 15.8436 62.0704 15.7792L63.5123 12.0686C63.5456 11.9801 63.5039 11.9318 63.4123 11.9318Z" fill="white"/>
<path d="M66.5728 11.8432C65.9643 11.8432 65.5226 12.1652 65.2392 12.5837L65.2059 12.0525C65.1975 11.9801 65.1559 11.9318 65.0809 11.9318H64.4891C64.4141 11.9318 64.3641 11.9801 64.3641 12.0525V15.755C64.3641 15.8275 64.4141 15.8758 64.4891 15.8758H65.1142C65.1892 15.8758 65.2392 15.8275 65.2392 15.755V13.4611C65.2392 13.292 65.5976 12.6159 66.306 12.6159C66.7894 12.6159 67.1478 12.9057 67.1478 13.5818V15.755C67.1478 15.8275 67.1978 15.8758 67.2729 15.8758H67.8979C67.973 15.8758 68.023 15.8275 68.023 15.755V13.4611C68.023 12.4067 67.4145 11.8432 66.5728 11.8432Z" fill="white"/>
<path d="M69.0767 10.1207V15.755C69.0767 15.8275 69.1267 15.8758 69.2017 15.8758H69.8268C69.9018 15.8758 69.9518 15.8275 69.9518 15.755V10.1207C69.9518 10.0483 69.9018 10 69.8268 10H69.2017C69.1267 10 69.0767 10.0483 69.0767 10.1207Z" fill="white"/>
<path d="M72.9645 15.9563C74.1313 15.9563 75.0565 15.0467 75.0565 13.9038C75.0565 12.7447 74.1313 11.8432 72.9645 11.8432C71.7893 11.8432 70.8725 12.7447 70.8725 13.9038C70.8725 15.0467 71.7893 15.9563 72.9645 15.9563ZM72.9645 15.1755C72.2644 15.1755 71.7143 14.6362 71.7143 13.9038C71.7143 13.1552 72.2644 12.6159 72.9645 12.6159C73.6646 12.6159 74.2147 13.1552 74.2147 13.9038C74.2147 14.6362 73.6646 15.1755 72.9645 15.1755Z" fill="white"/>
<path d="M79.8388 11.9318H79.2971C79.2221 11.9318 79.1804 11.9801 79.1721 12.0525L79.1387 12.5113C78.8387 12.1169 78.3886 11.8513 77.7969 11.8513C76.6384 11.8513 75.8049 12.7608 75.8049 13.9118C75.8049 15.0306 76.6384 15.9321 77.7969 15.9321C78.3886 15.9321 78.8303 15.6826 79.1304 15.3043L79.1721 15.755C79.1804 15.8275 79.2221 15.8758 79.2971 15.8758H79.8388C79.9138 15.8758 79.9638 15.8275 79.9638 15.755V12.0525C79.9638 11.9801 79.9138 11.9318 79.8388 11.9318ZM77.8802 15.1594C77.1718 15.1594 76.6467 14.6201 76.6467 13.9038C76.6467 13.1633 77.1718 12.6159 77.8802 12.6159C78.6053 12.6159 79.1137 13.1955 79.1137 13.9038C79.1137 14.6121 78.6053 15.1594 77.8802 15.1594Z" fill="white"/>
<path d="M84.9258 10H84.3007C84.2257 10 84.1757 10.0483 84.1757 10.1207V12.455C83.8757 12.0927 83.4423 11.8513 82.8839 11.8513C81.7254 11.8513 80.8919 12.7608 80.8919 13.9118C80.8919 15.0306 81.7254 15.9321 82.8839 15.9321C83.4756 15.9321 83.9173 15.6826 84.2174 15.3043L84.2591 15.755C84.2674 15.8275 84.3091 15.8758 84.3841 15.8758H84.9258C85.0008 15.8758 85.0508 15.8275 85.0508 15.755V10.1207C85.0508 10.0483 85.0008 10 84.9258 10ZM82.9672 15.1594C82.2588 15.1594 81.7337 14.6201 81.7337 13.9038C81.7337 13.1633 82.2588 12.6159 82.9672 12.6159C83.6923 12.6159 84.2007 13.1955 84.2007 13.9038C84.2007 14.6121 83.6923 15.1594 82.9672 15.1594Z" fill="white"/>
<path d="M90.4068 15.9563C91.5737 15.9563 92.4988 15.0467 92.4988 13.9038C92.4988 12.7447 91.5737 11.8432 90.4068 11.8432C89.2317 11.8432 88.3149 12.7447 88.3149 13.9038C88.3149 15.0467 89.2317 15.9563 90.4068 15.9563ZM90.4068 15.1755C89.7067 15.1755 89.1567 14.6362 89.1567 13.9038C89.1567 13.1552 89.7067 12.6159 90.4068 12.6159C91.1069 12.6159 91.657 13.1552 91.657 13.9038C91.657 14.6362 91.1069 15.1755 90.4068 15.1755Z" fill="white"/>
<path d="M95.6216 11.8432C95.0132 11.8432 94.5714 12.1652 94.2881 12.5837L94.2547 12.0525C94.2464 11.9801 94.2047 11.9318 94.1297 11.9318H93.538C93.4629 11.9318 93.4129 11.9801 93.4129 12.0525V15.755C93.4129 15.8275 93.4629 15.8758 93.538 15.8758H94.163C94.2381 15.8758 94.2881 15.8275 94.2881 15.755V13.4611C94.2881 13.292 94.6465 12.6159 95.3549 12.6159C95.8383 12.6159 96.1967 12.9057 96.1967 13.5818V15.755C96.1967 15.8275 96.2467 15.8758 96.3217 15.8758H96.9468C97.0218 15.8758 97.0718 15.8275 97.0718 15.755V13.4611C97.0718 12.4067 96.4634 11.8432 95.6216 11.8432Z" fill="white"/>
<path d="M102.587 11.9318H101.92V10.8451C101.92 10.7727 101.87 10.7244 101.795 10.7244H101.17C101.095 10.7244 101.045 10.7727 101.045 10.8451V11.9318H100.378C100.303 11.9318 100.253 11.9801 100.253 12.0525V12.5113C100.253 12.5837 100.303 12.632 100.378 12.632H101.045V15.755C101.045 15.8275 101.095 15.8758 101.17 15.8758H101.795C101.87 15.8758 101.92 15.8275 101.92 15.755V12.632H102.587C102.662 12.632 102.712 12.5837 102.712 12.5113V12.0525C102.712 11.9801 102.662 11.9318 102.587 11.9318Z" fill="white"/>
<path d="M105.755 11.8432C105.146 11.8432 104.705 12.1652 104.421 12.5837V10.1207C104.421 10.0483 104.371 10 104.296 10H103.671C103.596 10 103.546 10.0483 103.546 10.1207V15.755C103.546 15.8275 103.596 15.8758 103.671 15.8758H104.296C104.371 15.8758 104.421 15.8275 104.421 15.755V13.4611C104.421 13.292 104.78 12.6159 105.488 12.6159C105.972 12.6159 106.33 12.9057 106.33 13.5818V15.755C106.33 15.8275 106.38 15.8758 106.455 15.8758H107.08C107.155 15.8758 107.205 15.8275 107.205 15.755V13.4611C107.205 12.4067 106.597 11.8432 105.755 11.8432Z" fill="white"/>
<path d="M110.159 11.8513C108.984 11.8513 108.134 12.7528 108.134 13.8877C108.134 15.0226 108.992 15.9321 110.242 15.9321C110.843 15.9321 111.376 15.7068 111.759 15.3285C111.826 15.2641 111.826 15.2077 111.759 15.1433L111.493 14.8938C111.434 14.8375 111.384 14.8536 111.318 14.9019C111.043 15.1031 110.743 15.2238 110.326 15.2238C109.592 15.2238 109.109 14.8214 109.001 14.2096H111.826C112.051 14.2096 112.093 14.0648 112.093 13.7669C112.093 12.7528 111.343 11.8513 110.159 11.8513ZM110.167 12.5837C110.793 12.5837 111.251 12.9942 111.318 13.6221H108.992C109.076 12.9942 109.542 12.5837 110.167 12.5837Z" fill="white"/>
<path d="M32.2102 21.0421C32.2241 19.9813 32.512 18.9412 33.0469 18.0185C33.5818 17.0959 34.3464 16.3207 35.2695 15.7651C34.6831 14.9451 33.9094 14.2703 33.0099 13.7943C32.1105 13.3183 31.1101 13.0541 30.0881 13.0228C27.9081 12.7988 25.7946 14.2999 24.6837 14.2999C23.5513 14.2999 21.8409 13.045 19.9991 13.0821C18.8077 13.1198 17.6467 13.459 16.629 14.0665C15.6114 14.6741 14.7719 15.5294 14.1922 16.5491C11.6815 20.8047 13.5543 27.0591 15.9594 30.499C17.1627 32.1834 18.569 34.065 20.4092 33.9983C22.2099 33.9252 22.8825 32.8742 25.0561 32.8742C27.2095 32.8742 27.8405 33.9983 29.718 33.9559C31.6502 33.9252 32.8676 32.2639 34.0288 30.5635C34.8933 29.3633 35.5586 28.0368 36 26.6332C34.8774 26.1683 33.9194 25.3903 33.2455 24.396C32.5716 23.4018 32.2115 22.2353 32.2102 21.0421Z" fill="white"/>
<path d="M28.4521 10.8662C29.565 9.5081 30.1132 7.76245 29.9805 6C28.2803 6.18154 26.7097 7.00761 25.5818 8.31363C25.0304 8.95166 24.608 9.69392 24.3389 10.498C24.0698 11.3021 23.9592 12.1522 24.0134 12.9997C24.8638 13.0086 25.7051 12.8212 26.474 12.4517C27.2428 12.0821 27.9192 11.54 28.4521 10.8662Z" fill="white"/>
</svg>
