<svg width="186" height="34" viewBox="0 0 186 34" fill="none" xmlns="http://www.w3.org/2000/svg">
<path d="M0.536133 17C0.536133 7.84572 7.95717 0.424683 17.1115 0.424683H168.996C178.151 0.424683 185.572 7.84572 185.572 17C185.572 26.1543 178.151 33.5754 168.996 33.5754H17.1115C7.95718 33.5754 0.536133 26.1543 0.536133 17Z" fill="#3EBBD2"/>
<path d="M58.1759 17.3812H51.8541C51.6631 17.3812 51.5358 17.5091 51.5358 17.7009V18.8304C51.5358 19.0222 51.6631 19.1501 51.8541 19.1501H56.6061C56.5 21.7287 54.5271 23.6254 51.6419 23.6254C48.5022 23.6254 46.1262 21.132 46.1262 17.8288C46.1262 14.6108 48.5871 12.1387 51.6207 12.1387C53.1269 12.1387 54.3573 12.7141 55.3968 13.5878C55.5453 13.7157 55.6938 13.737 55.8423 13.5878L56.6909 12.6928C56.8394 12.5436 56.8182 12.3944 56.6697 12.2452C55.3332 11.0518 53.6148 10.1994 51.6207 10.1994C47.3991 10.1994 44.1108 13.6092 44.1108 17.8288C44.1108 22.1336 47.3566 25.5647 51.6631 25.5647C55.8848 25.5647 58.4941 22.4746 58.4941 18.532V17.7009C58.4941 17.5091 58.3668 17.3812 58.1759 17.3812Z" fill="white"/>
<path d="M65.6536 25.5008C68.6448 25.5008 70.9572 23.1139 70.9572 20.0664C70.9572 16.9976 68.6448 14.6108 65.6536 14.6108C62.6836 14.6108 60.3713 16.9976 60.3713 20.0664C60.3713 23.1139 62.6836 25.5008 65.6536 25.5008ZM65.6536 23.7533C63.7231 23.7533 62.1957 22.1976 62.1957 20.0664C62.1957 17.914 63.7231 16.3583 65.6536 16.3583C67.6053 16.3583 69.1115 17.914 69.1115 20.0664C69.1115 22.1976 67.6053 23.7533 65.6536 23.7533Z" fill="white"/>
<path d="M78.2082 25.5008C81.1994 25.5008 83.5117 23.1139 83.5117 20.0664C83.5117 16.9976 81.1994 14.6108 78.2082 14.6108C75.2382 14.6108 72.9258 16.9976 72.9258 20.0664C72.9258 23.1139 75.2382 25.5008 78.2082 25.5008ZM78.2082 23.7533C76.2777 23.7533 74.7502 22.1976 74.7502 20.0664C74.7502 17.914 76.2777 16.3583 78.2082 16.3583C80.1599 16.3583 81.6661 17.914 81.6661 20.0664C81.6661 22.1976 80.1599 23.7533 78.2082 23.7533Z" fill="white"/>
<path d="M95.642 14.8452H94.4752C94.2843 14.8452 94.1782 14.9731 94.157 15.1649L94.0934 16.3796C93.2872 15.3354 92.078 14.6321 90.5506 14.6321C87.6018 14.6321 85.4804 17.0403 85.4804 19.9812C85.4804 22.9221 87.6018 25.3303 90.5506 25.3303C92.1416 25.3303 93.3296 24.5844 94.1358 23.5188V25.0746C94.1358 27.1417 92.1841 27.8663 90.5081 27.8663C89.1292 27.8663 88.1534 27.568 87.2624 27.0991C87.0926 27.0139 86.9441 27.0565 86.8381 27.227L86.435 27.9729C86.3501 28.1434 86.3714 28.3139 86.5411 28.4204C87.5381 29.0811 88.9807 29.5073 90.6354 29.5073C93.0326 29.5073 95.9602 28.3565 95.9602 25.0959V15.1649C95.9602 14.9731 95.8329 14.8452 95.642 14.8452ZM90.7415 23.5828C88.7686 23.5828 87.3048 21.9844 87.3048 19.9599C87.3048 17.9566 88.7686 16.3583 90.7415 16.3583C92.6932 16.3583 94.1358 18.0419 94.1358 19.9599C94.1358 21.8779 92.6932 23.5828 90.7415 23.5828Z" fill="white"/>
<path d="M98.8918 10.0502V24.968C98.8918 25.1598 99.0191 25.2877 99.21 25.2877H100.483C100.674 25.2877 100.801 25.1598 100.801 24.968V10.0502C100.801 9.8584 100.674 9.73053 100.483 9.73053H99.21C99.0191 9.73053 98.8918 9.8584 98.8918 10.0502Z" fill="white"/>
<path d="M108.327 14.6321C105.315 14.6321 103.193 17.0189 103.193 20.0238C103.193 23.0287 105.379 25.4369 108.497 25.4369C110.046 25.4369 111.403 24.8615 112.379 23.8385C112.549 23.668 112.528 23.5188 112.379 23.3484L111.828 22.8369C111.658 22.6877 111.531 22.7303 111.382 22.8582C110.682 23.4123 109.876 23.7746 108.709 23.7746C106.651 23.7746 105.336 22.5385 105.06 20.7697H112.57C113.122 20.7697 113.207 20.4074 113.207 19.6615C113.207 17.0189 111.319 14.6321 108.327 14.6321ZM108.327 16.3157C110.109 16.3157 111.403 17.6157 111.531 19.3845H105.06C105.272 17.573 106.545 16.3157 108.327 16.3157Z" fill="white"/>
<path d="M126.181 10.3699H122.087C121.896 10.3699 121.768 10.4977 121.768 10.6895V24.968C121.768 25.1598 121.896 25.2877 122.087 25.2877H123.423C123.614 25.2877 123.741 25.1598 123.741 24.968V19.7468H126.181C129.469 19.7468 131.251 17.7435 131.251 15.0583C131.251 12.3518 129.469 10.3699 126.181 10.3699ZM126.096 17.9353H123.741V12.1813H126.096C127.857 12.1813 129.342 12.9485 129.342 15.0583C129.342 17.1681 127.857 17.9353 126.096 17.9353Z" fill="white"/>
<path d="M133.551 10.0502V24.968C133.551 25.1598 133.679 25.2877 133.87 25.2877H135.143C135.333 25.2877 135.461 25.1598 135.461 24.968V10.0502C135.461 9.8584 135.333 9.73053 135.143 9.73053H133.87C133.679 9.73053 133.551 9.8584 133.551 10.0502Z" fill="white"/>
<path d="M148.015 14.8452H146.89C146.699 14.8452 146.593 14.9731 146.572 15.1649L146.487 16.4649C145.702 15.3567 144.493 14.6321 142.923 14.6321C139.975 14.6321 137.853 17.0403 137.853 20.0878C137.853 23.0287 139.975 25.4369 142.923 25.4369C144.493 25.4369 145.681 24.7549 146.466 23.7106L146.572 24.968C146.593 25.1598 146.699 25.2877 146.89 25.2877H148.015C148.206 25.2877 148.333 25.1598 148.333 24.968V15.1649C148.333 14.9731 148.206 14.8452 148.015 14.8452ZM143.114 23.6893C141.141 23.6893 139.678 22.1123 139.678 20.0664C139.678 17.9353 141.141 16.3796 143.114 16.3796C145.087 16.3796 146.509 18.0419 146.509 20.0664C146.509 22.1123 145.087 23.6893 143.114 23.6893Z" fill="white"/>
<path d="M160.222 14.8452H158.907C158.737 14.8452 158.588 14.9305 158.525 15.1009L155.512 23.0926L152.5 15.1009C152.436 14.9305 152.288 14.8452 152.118 14.8452H150.824C150.591 14.8452 150.485 14.9731 150.569 15.2075L154.558 25.3303L153.094 28.9745C152.988 29.2089 153.115 29.3368 153.349 29.3368H154.621C154.791 29.3368 154.94 29.2516 155.003 29.0811L160.477 15.2075C160.561 14.9731 160.455 14.8452 160.222 14.8452Z" fill="white"/>
<path d="M35.3437 16.6381C36.0762 17.0621 36.0762 18.122 35.3437 18.546L19.8627 27.5064C19.1301 27.9304 18.2145 27.4004 18.2145 26.5525L18.2145 8.63163C18.2145 7.78366 19.1301 7.25368 19.8627 7.67766L35.3437 16.6381Z" fill="white"/>
</svg>
