<svg width="186" height="34" viewBox="0 0 186 34" fill="none" xmlns="http://www.w3.org/2000/svg">
<path d="M0 17C0 7.84572 7.42103 0.424683 16.5753 0.424683H168.46C177.615 0.424683 185.036 7.84572 185.036 17C185.036 26.1543 177.615 33.5754 168.46 33.5754H16.5754C7.42105 33.5754 0 26.1543 0 17Z" fill="#3EBBD2"/>
<path d="M27.8126 16.4259C27.8211 15.7465 27.9981 15.0804 28.3271 14.4895C28.656 13.8986 29.1261 13.4022 29.6938 13.0463C29.3332 12.5212 28.8574 12.0891 28.3044 11.7842C27.7513 11.4793 27.1361 11.3102 26.5077 11.2901C25.1672 11.1466 23.8676 12.108 23.1845 12.108C22.4881 12.108 21.4364 11.3044 20.3038 11.3281C19.5712 11.3522 18.8573 11.5694 18.2315 11.9586C17.6058 12.3477 17.0895 12.8954 16.7331 13.5485C15.1893 16.2739 16.3408 20.2794 17.8198 22.4824C18.5597 23.5612 19.4245 24.7662 20.556 24.7235C21.6633 24.6766 22.0768 24.0035 23.4134 24.0035C24.7376 24.0035 25.1256 24.7235 26.2801 24.6963C27.4683 24.6766 28.2168 23.6127 28.9308 22.5238C29.4625 21.7551 29.8716 20.9056 30.143 20.0066C29.4527 19.7089 28.8636 19.2106 28.4492 18.5739C28.0348 17.9371 27.8134 17.1901 27.8126 16.4259Z" fill="white"/>
<path d="M25.6317 9.8412C26.2795 9.04824 26.5987 8.02903 26.5214 7C25.5317 7.10599 24.6174 7.58831 23.9609 8.35084C23.6398 8.72336 23.394 9.15673 23.2373 9.6262C23.0806 10.0957 23.0163 10.592 23.0479 11.0868C23.5429 11.092 24.0326 10.9826 24.4802 10.7669C24.9278 10.5511 25.3215 10.2346 25.6317 9.8412Z" fill="white"/>
<path d="M52.7723 23.9253L47.5748 9.62556C47.5111 9.45507 47.3626 9.36983 47.1929 9.36983H45.8564C45.6867 9.36983 45.5382 9.45507 45.4746 9.62556L40.2771 23.9253C40.1922 24.1385 40.2983 24.2876 40.5316 24.2876H41.8894C42.0591 24.2876 42.1864 24.2237 42.25 24.0319L43.3531 20.9205H49.7174L50.7994 24.0319C50.863 24.2237 50.9903 24.2876 51.16 24.2876H52.5177C52.7511 24.2876 52.8571 24.1385 52.7723 23.9253ZM43.9259 19.3008L46.5353 11.8632L49.1446 19.3008H43.9259Z" fill="white"/>
<path d="M60.3871 13.6321C58.8172 13.6321 57.608 14.3566 56.8231 15.4648L56.7382 14.1648C56.717 13.973 56.6109 13.8452 56.42 13.8452H55.2956C55.1047 13.8452 54.9774 13.973 54.9774 14.1648V28.0171C54.9774 28.2089 55.1047 28.3368 55.2956 28.3368H56.5685C56.7594 28.3368 56.8867 28.2089 56.8867 28.0171V22.7532C57.6716 23.7549 58.8384 24.4368 60.3871 24.4368C63.3358 24.4368 65.4573 22.0287 65.4573 19.0877C65.4573 16.0402 63.3358 13.6321 60.3871 13.6321ZM60.1961 22.6893C58.2232 22.6893 56.8018 21.1123 56.8018 19.0664C56.8018 17.0418 58.2232 15.3796 60.1961 15.3796C62.1691 15.3796 63.6328 16.9353 63.6328 19.0664C63.6328 21.1123 62.1691 22.6893 60.1961 22.6893Z" fill="white"/>
<path d="M73.2731 13.6321C71.7032 13.6321 70.494 14.3566 69.7091 15.4648L69.6242 14.1648C69.603 13.973 69.4969 13.8452 69.306 13.8452H68.1816C67.9907 13.8452 67.8634 13.973 67.8634 14.1648V28.0171C67.8634 28.2089 67.9907 28.3368 68.1816 28.3368H69.4545C69.6454 28.3368 69.7727 28.2089 69.7727 28.0171V22.7532C70.5576 23.7549 71.7244 24.4368 73.2731 24.4368C76.2219 24.4368 78.3433 22.0287 78.3433 19.0877C78.3433 16.0402 76.2219 13.6321 73.2731 13.6321ZM73.0821 22.6893C71.1092 22.6893 69.6879 21.1123 69.6879 19.0664C69.6879 17.0418 71.1092 15.3796 73.0821 15.3796C75.0551 15.3796 76.5189 16.9353 76.5189 19.0664C76.5189 21.1123 75.0551 22.6893 73.0821 22.6893Z" fill="white"/>
<path d="M88.6682 13.1206C88.6682 11.8206 89.7289 11.0321 91.1502 11.0321C92.3807 11.0321 93.2929 11.5436 94.2687 12.4599C94.4172 12.6091 94.5658 12.5878 94.7143 12.4173L95.4143 11.6501C95.5628 11.4796 95.5628 11.3518 95.4143 11.2026C94.3536 9.96654 92.7838 9.19934 91.129 9.19934C88.6894 9.19934 86.7589 10.7977 86.7589 13.0993C86.7589 17.9156 94.1415 16.914 94.1415 20.2598C94.1415 21.6237 92.9535 22.6893 91.1927 22.6893C89.7077 22.6893 88.6682 21.9434 87.7348 21.0483C87.5863 20.8992 87.4165 20.8992 87.2892 21.027L86.5043 21.8369C86.3558 21.9647 86.3346 22.0926 86.4407 22.2631C87.2893 23.5844 89.0925 24.5434 91.1927 24.5434C93.8233 24.5434 96.0932 22.7959 96.0932 20.3451C96.0932 15.273 88.6682 16.4025 88.6682 13.1206Z" fill="white"/>
<path d="M103.16 13.8452H101.463V10.9682C101.463 10.7764 101.336 10.6485 101.145 10.6485H99.8721C99.6812 10.6485 99.5539 10.7764 99.5539 10.9682V13.8452H97.8568C97.6659 13.8452 97.5386 13.973 97.5386 14.1648V15.1238C97.5386 15.3156 97.6659 15.4435 97.8568 15.4435H99.5539V23.968C99.5539 24.1598 99.6812 24.2876 99.8721 24.2876H101.145C101.336 24.2876 101.463 24.1598 101.463 23.968V15.4435H103.16C103.351 15.4435 103.479 15.3156 103.479 15.1238V14.1648C103.479 13.973 103.351 13.8452 103.16 13.8452Z" fill="white"/>
<path d="M110.429 24.5007C113.42 24.5007 115.733 22.1139 115.733 19.0664C115.733 15.9976 113.42 13.6107 110.429 13.6107C107.459 13.6107 105.147 15.9976 105.147 19.0664C105.147 22.1139 107.459 24.5007 110.429 24.5007ZM110.429 22.7532C108.499 22.7532 106.971 21.1975 106.971 19.0664C106.971 16.914 108.499 15.3583 110.429 15.3583C112.381 15.3583 113.887 16.914 113.887 19.0664C113.887 21.1975 112.381 22.7532 110.429 22.7532Z" fill="white"/>
<path d="M123.893 13.9944C123.596 13.7599 123.13 13.6107 122.599 13.6107C121.432 13.6107 120.584 14.2288 120.011 15.1238L119.926 14.1648C119.905 13.973 119.799 13.8452 119.608 13.8452H118.441C118.25 13.8452 118.123 13.973 118.123 14.1648V23.968C118.123 24.1598 118.25 24.2876 118.441 24.2876H119.714C119.905 24.2876 120.032 24.1598 120.032 23.968V17.6812C120.032 16.3386 121.008 15.3583 122.302 15.3583C122.727 15.3583 122.939 15.4435 123.13 15.4861C123.342 15.5288 123.469 15.5074 123.554 15.3156L123.957 14.3566C124.042 14.1862 124.021 14.0796 123.893 13.9944Z" fill="white"/>
<path d="M129.982 13.6321C126.97 13.6321 124.849 16.0189 124.849 19.0238C124.849 22.0287 127.034 24.4368 130.152 24.4368C131.701 24.4368 133.059 23.8614 134.034 22.8385C134.204 22.668 134.183 22.5188 134.034 22.3483L133.483 21.8369C133.313 21.6877 133.186 21.7303 133.037 21.8582C132.337 22.4123 131.531 22.7745 130.364 22.7745C128.307 22.7745 126.991 21.5385 126.716 19.7697H134.225C134.777 19.7697 134.862 19.4074 134.862 18.6615C134.862 16.0189 132.974 13.6321 129.982 13.6321ZM129.982 15.3156C131.764 15.3156 133.059 16.6156 133.186 18.3844H126.716C126.928 16.573 128.201 15.3156 129.982 15.3156Z" fill="white"/>
</svg>
