<svg width="146" height="43" viewBox="0 0 146 43" fill="none" xmlns="http://www.w3.org/2000/svg">
<g clip-path="url(#clip0)">
<rect x="0.500244" width="145.125" height="43" rx="5" fill="#2F2F2F"/>
<path d="M140.25 0H5.87417C2.91792 0 0.500244 2.41875 0.500244 5.375V37.625C0.500244 40.5813 2.91792 43 5.87417 43H140.25C143.206 43 145.625 40.5813 145.625 37.625V5.375C145.625 2.41875 143.206 0 140.25 0ZM140.25 0.86C142.74 0.86 144.765 2.8853 144.765 5.375V37.625C144.765 40.1147 142.74 42.1411 140.25 42.1411H5.87417C3.38447 42.1411 1.36024 40.1147 1.36024 37.625V5.375C1.36024 2.8853 3.38447 0.86 5.87417 0.86H140.25Z" fill="#2F2F2F"/>
<path d="M11.4958 9.84137C11.2332 10.125 11.0779 10.5652 11.0779 11.1353V31.5024C11.0779 32.0733 11.2332 32.5126 11.4958 32.7962L11.5626 32.8626L22.7465 21.4533V21.3188V21.1844L11.5626 9.77414L11.4958 9.84137Z" fill="#B0F2FF"/>
<path d="M26.4749 25.2585L22.7476 21.4542V21.3197V21.1853L26.4758 17.3819L26.5598 17.4307L30.9768 19.9908C32.2388 20.722 32.2388 21.9183 30.9768 22.6505L26.5598 25.2106L26.4749 25.2585Z" fill="#BAF4FF"/>
<path d="M26.5597 25.2088L22.7475 21.3188L11.4958 32.7963C11.912 33.2457 12.5981 33.3009 13.3717 32.8524L26.5597 25.2088Z" fill="#7BEAFF"/>
<path d="M26.5598 17.4289L13.3727 9.78521C12.5991 9.33672 11.913 9.3929 11.4968 9.84139L22.7475 21.3188L26.5598 17.4289Z" fill="#E0FAFF"/>
<path opacity="0.2" d="M26.4757 25.1231L13.3726 32.718C12.6396 33.1425 11.9842 33.1149 11.5636 32.7281L11.4958 32.7972L11.5627 32.8635C11.9833 33.2503 12.6387 33.2788 13.3717 32.8534L26.5588 25.2097L26.4757 25.1231Z" fill="#E0FAFF"/>
<path opacity="0.12" d="M11.4958 32.6618C11.2332 32.3781 11.0779 31.9379 11.0779 31.3679V31.5023C11.0779 32.0724 11.2332 32.5126 11.4958 32.7962L11.5635 32.7272L11.4958 32.6618Z" fill="#E0FAFF"/>
<path opacity="0.12" d="M30.9768 22.5142L26.4758 25.1231L26.5598 25.2088L30.9768 22.6486C31.6078 22.283 31.9229 21.8014 31.9229 21.3197C31.8696 21.7553 31.5483 22.1826 30.9768 22.5142Z" fill="#E0FAFF"/>
<path opacity="0.25" d="M13.3717 9.91966L30.9758 20.1235C31.5481 20.455 31.8686 20.8823 31.9219 21.3188C31.9219 20.8372 31.6068 20.3546 30.9758 19.989L13.3717 9.78521C12.1097 9.05399 11.0779 9.66088 11.0779 11.1353V11.2707C11.0779 9.79626 12.1106 9.18845 13.3717 9.91966Z" fill="white"/>
<path d="M73.7015 23.3328C71.1731 23.3328 69.1123 25.2549 69.1123 27.9048C69.1123 30.5375 71.1731 32.4768 73.7015 32.4768C76.2299 32.4768 78.2907 30.5375 78.2907 27.9048C78.2907 25.2549 76.2299 23.3328 73.7015 23.3328ZM73.7015 30.6762C72.3158 30.6762 71.1204 29.5334 71.1204 27.9048C71.1204 26.259 72.3158 25.1335 73.7015 25.1335C75.0872 25.1335 76.2815 26.259 76.2815 27.9048C76.2815 29.5324 75.0872 30.6762 73.7015 30.6762ZM63.6889 23.3328C61.1605 23.3328 59.0998 25.2549 59.0998 27.9048C59.0998 30.5375 61.1605 32.4768 63.6889 32.4768C66.2173 32.4768 68.2781 30.5375 68.2781 27.9048C68.2792 25.2549 66.2173 23.3328 63.6889 23.3328ZM63.6889 30.6762C62.3033 30.6762 61.1089 29.5334 61.1089 27.9048C61.1089 26.259 62.3043 25.1335 63.6889 25.1335C65.0746 25.1335 66.2689 26.259 66.2689 27.9048C66.27 29.5324 65.0746 30.6762 63.6889 30.6762ZM51.7801 24.7357V26.675H56.4219C56.2833 27.7661 55.9199 28.5627 55.3652 29.1174C54.6901 29.7925 53.6334 30.5375 51.7801 30.5375C48.9227 30.5375 46.6889 28.2338 46.6889 25.3764C46.6889 22.5191 48.9227 20.2153 51.7801 20.2153C53.3216 20.2153 54.4472 20.8216 55.2781 21.601L56.6466 20.2325C55.4867 19.1242 53.9451 18.275 51.7801 18.275C47.866 18.275 44.5754 21.4613 44.5754 25.3753C44.5754 29.2894 47.866 32.4757 51.7801 32.4757C53.8925 32.4757 55.4867 31.7834 56.7337 30.4837C58.0151 29.2023 58.4139 27.4006 58.4139 25.9462C58.4139 25.4957 58.3795 25.0797 58.3096 24.7336H51.7801V24.7357ZM100.486 26.2418C100.106 25.2195 98.9447 23.3318 96.5721 23.3318C94.2168 23.3318 92.2603 25.1851 92.2603 27.9037C92.2603 30.4665 94.1996 32.4757 96.7979 32.4757C98.8931 32.4757 100.106 31.1943 100.608 30.4493L99.0489 29.4098C98.5297 30.172 97.8191 30.674 96.7979 30.674C95.7756 30.674 95.0488 30.2064 94.5812 29.2883L100.695 26.7599L100.486 26.2418ZM94.2512 27.7661C94.1996 25.9999 95.6197 25.0991 96.6409 25.0991C97.4375 25.0991 98.1126 25.4968 98.3383 26.0687L94.2512 27.7661ZM89.2804 32.1994H91.2896V18.7609H89.2804V32.1994ZM85.9898 24.3541H85.921C85.4706 23.8177 84.6052 23.3318 83.5141 23.3318C81.2276 23.3318 79.1324 25.3409 79.1324 27.9209C79.1324 30.4837 81.2276 32.4757 83.5141 32.4757C84.6052 32.4757 85.4706 31.9909 85.921 31.4362H85.9898V32.0941C85.9898 33.8431 85.0546 34.7784 83.5474 34.7784C82.3176 34.7784 81.5554 33.8947 81.2437 33.1508L79.4947 33.8786C79.9967 35.0912 81.3308 36.5801 83.5474 36.5801C85.9027 36.5801 87.8947 35.1944 87.8947 31.8178V23.6091H85.9898V24.3541ZM83.6872 30.6762C82.3015 30.6762 81.1416 29.5162 81.1416 27.922C81.1416 26.3117 82.3015 25.1335 83.6872 25.1335C85.0556 25.1335 86.1285 26.3106 86.1285 27.922C86.1285 29.5152 85.0556 30.6762 83.6872 30.6762ZM109.897 18.7609H105.09V32.1994H107.095V27.1082H109.896C112.119 27.1082 114.304 25.499 114.304 22.9351C114.304 20.3712 112.12 18.7609 109.897 18.7609ZM109.948 25.2377H107.095V20.6314H109.948C111.448 20.6314 112.299 21.873 112.299 22.9351C112.299 23.9757 111.448 25.2377 109.948 25.2377ZM122.345 23.3081C120.893 23.3081 119.389 23.9477 118.767 25.3657L120.548 26.1096C120.928 25.3657 121.637 25.1238 122.381 25.1238C123.418 25.1238 124.473 25.7462 124.49 26.8524V26.9911C124.127 26.7836 123.348 26.4718 122.398 26.4718C120.479 26.4718 118.525 27.5264 118.525 29.498C118.525 31.2964 120.098 32.4542 121.861 32.4542C123.211 32.4542 123.953 31.849 124.42 31.1406H124.489V32.1779H126.425V27.0255C126.425 24.639 124.645 23.3081 122.345 23.3081ZM122.102 30.6729C121.445 30.6729 120.529 30.344 120.529 29.5324C120.529 28.495 121.67 28.0972 122.655 28.0972C123.536 28.0972 123.951 28.2875 124.488 28.5466C124.333 29.7914 123.261 30.6729 122.102 30.6729ZM133.479 23.6016L131.18 29.4281H131.111L128.725 23.6016H126.565L130.143 31.7447L128.103 36.2748H130.195L135.711 23.6016H133.479ZM115.411 32.1994H117.417V18.7609H115.411V32.1994Z" fill="#E0FAFF"/>
<path fill-rule="evenodd" clip-rule="evenodd" d="M79.6299 13.1408C78.9956 13.7933 78.2077 14.118 77.2649 14.118C76.3221 14.118 75.5341 13.7922 74.901 13.1408C74.2667 12.4893 73.9507 11.6917 73.9507 10.7489C73.9507 9.80613 74.2667 9.00848 74.901 8.35703C75.5341 7.70451 76.3221 7.37878 77.2649 7.37878C78.2023 7.37878 78.9892 7.70666 79.6256 8.36133C80.262 9.01601 80.5802 9.81151 80.5802 10.7489C80.5802 11.6928 80.2631 12.4904 79.6299 13.1408ZM75.5126 12.6011C75.9899 13.0849 76.5737 13.3257 77.2649 13.3257C77.9561 13.3257 78.5398 13.0838 79.0171 12.6011C79.4944 12.1174 79.7342 11.5003 79.7342 10.75C79.7342 9.99963 79.4944 9.38151 79.0171 8.89883C78.5409 8.41508 77.9561 8.17428 77.2649 8.17428C76.5737 8.17428 75.9899 8.41616 75.5126 8.89883C75.0364 9.38258 74.7967 9.99963 74.7967 10.75C74.7967 11.5003 75.0364 12.1174 75.5126 12.6011Z" fill="#E0FAFF"/>
<path d="M51.4746 11.0112C51.4746 11.9121 51.208 12.6291 50.6737 13.1644C50.0674 13.8008 49.2762 14.119 48.3044 14.119C47.3734 14.119 46.5812 13.7965 45.9308 13.1515C45.2793 12.5055 44.9536 11.7057 44.9536 10.7511C44.9536 9.79538 45.2793 8.99558 45.9308 8.35058C46.5812 7.70451 47.3734 7.38201 48.3044 7.38201C48.7666 7.38201 49.2085 7.47231 49.6277 7.65183C50.048 7.83243 50.3845 8.07216 50.6361 8.37208L50.0695 8.93968C49.6428 8.42906 49.0547 8.17428 48.3033 8.17428C47.6239 8.17428 47.037 8.41293 46.5414 8.89023C46.0469 9.36753 45.7996 9.98673 45.7996 10.75C45.7996 11.5132 46.0469 12.1324 46.5425 12.6108C47.038 13.0881 47.625 13.3268 48.3044 13.3268C49.0246 13.3268 49.6256 13.087 50.1061 12.6065C50.4178 12.2937 50.5984 11.8583 50.6468 11.3004H48.3044V10.5242H51.4294C51.4606 10.693 51.4746 10.8553 51.4746 11.0112Z" fill="#E0FAFF"/>
<path d="M56.4303 8.31726H53.4934V10.3619H56.1422V11.137H53.4934V13.1816H56.4303V13.975H52.6646V7.52499H56.4303V8.31726Z" fill="#E0FAFF"/>
<path d="M59.0952 13.975H59.9241V8.31726H61.7258V7.52499H57.2935V8.31726H59.0952V13.975Z" fill="#E0FAFF"/>
<path d="M64.9336 13.975V7.52499H65.7624V13.975H64.9336Z" fill="#E0FAFF"/>
<path d="M68.6079 13.975H69.4367V8.31726H71.2384V7.52499H66.8062V8.31726H68.6079V13.975Z" fill="#E0FAFF"/>
<path d="M81.7433 7.52499V13.975H82.57V9.95664L82.5345 8.71394H82.57L85.8498 13.975H86.7152V7.52499H85.8864V11.3004L85.9219 12.5431H85.8864L82.7517 7.52499H81.7433Z" fill="#E0FAFF"/>
<path fill-rule="evenodd" clip-rule="evenodd" d="M79.6299 13.1408C78.9956 13.7933 78.2077 14.118 77.2649 14.118C76.3221 14.118 75.5341 13.7922 74.901 13.1408C74.2667 12.4893 73.9507 11.6917 73.9507 10.7489C73.9507 9.80613 74.2667 9.00848 74.901 8.35703C75.5341 7.70451 76.3221 7.37878 77.2649 7.37878C78.2023 7.37878 78.9892 7.70666 79.6256 8.36133C80.262 9.01601 80.5802 9.81151 80.5802 10.7489C80.5802 11.6928 80.2631 12.4904 79.6299 13.1408ZM75.5126 12.6011C75.9899 13.0849 76.5737 13.3257 77.2649 13.3257C77.9561 13.3257 78.5398 13.0838 79.0171 12.6011C79.4944 12.1174 79.7342 11.5003 79.7342 10.75C79.7342 9.99963 79.4944 9.38151 79.0171 8.89883C78.5409 8.41508 77.9561 8.17428 77.2649 8.17428C76.5737 8.17428 75.9899 8.41616 75.5126 8.89883C75.0364 9.38258 74.7967 9.99963 74.7967 10.75C74.7967 11.5003 75.0364 12.1174 75.5126 12.6011Z" stroke="#E0FAFF" stroke-width="0.2" stroke-miterlimit="10"/>
<path d="M51.4746 11.0112C51.4746 11.9121 51.208 12.6291 50.6737 13.1644C50.0674 13.8008 49.2762 14.119 48.3044 14.119C47.3734 14.119 46.5812 13.7965 45.9308 13.1515C45.2793 12.5055 44.9536 11.7057 44.9536 10.7511C44.9536 9.79538 45.2793 8.99558 45.9308 8.35058C46.5812 7.70451 47.3734 7.38201 48.3044 7.38201C48.7666 7.38201 49.2085 7.47231 49.6277 7.65183C50.048 7.83243 50.3845 8.07216 50.6361 8.37208L50.0695 8.93968C49.6428 8.42906 49.0547 8.17428 48.3033 8.17428C47.6239 8.17428 47.037 8.41293 46.5414 8.89023C46.0469 9.36753 45.7996 9.98673 45.7996 10.75C45.7996 11.5132 46.0469 12.1324 46.5425 12.6108C47.038 13.0881 47.625 13.3268 48.3044 13.3268C49.0246 13.3268 49.6256 13.087 50.1061 12.6065C50.4178 12.2937 50.5984 11.8583 50.6468 11.3004H48.3044V10.5242H51.4294C51.4606 10.693 51.4746 10.8553 51.4746 11.0112Z" stroke="#E0FAFF" stroke-width="0.2" stroke-miterlimit="10"/>
<path d="M56.4303 8.31726H53.4934V10.3619H56.1422V11.137H53.4934V13.1816H56.4303V13.975H52.6646V7.52499H56.4303V8.31726Z" stroke="#E0FAFF" stroke-width="0.2" stroke-miterlimit="10"/>
<path d="M59.0952 13.975H59.9241V8.31726H61.7258V7.52499H57.2935V8.31726H59.0952V13.975Z" stroke="#E0FAFF" stroke-width="0.2" stroke-miterlimit="10"/>
<path d="M64.9336 13.975V7.52499H65.7624V13.975H64.9336Z" stroke="#E0FAFF" stroke-width="0.2" stroke-miterlimit="10"/>
<path d="M68.6079 13.975H69.4367V8.31726H71.2384V7.52499H66.8062V8.31726H68.6079V13.975Z" stroke="#E0FAFF" stroke-width="0.2" stroke-miterlimit="10"/>
<path d="M81.7433 7.52499V13.975H82.57V9.95664L82.5345 8.71394H82.57L85.8498 13.975H86.7152V7.52499H85.8864V11.3004L85.9219 12.5431H85.8864L82.7517 7.52499H81.7433Z" stroke="#E0FAFF" stroke-width="0.2" stroke-miterlimit="10"/>
</g>
<defs>
<clipPath id="clip0">
<rect x="0.500244" width="145.125" height="43" rx="5" fill="white"/>
</clipPath>
</defs>
</svg>
