<svg width="157" height="47" viewBox="0 0 157 47" fill="none" xmlns="http://www.w3.org/2000/svg">
<g clip-path="url(#clip0)">
<path d="M151.2 45.4H6.19874C3.56129 45.4 1.3999 43.238 1.3999 40.6V5.8C1.3999 3.16202 3.56129 1 6.19874 1H151.2C153.838 1 156 3.16228 156 5.8V40.6C156 43.2377 153.838 45.4 151.2 45.4Z" stroke="#3EBBD2" stroke-width="2"/>
<path d="M151.2 0H6.19874C3.00874 0 0.399902 2.61 0.399902 5.8V40.6C0.399902 43.79 3.00874 46.4 6.19874 46.4H151.2C154.39 46.4 157 43.79 157 40.6V5.8C157 2.61 154.39 0 151.2 0ZM151.2 0.928C153.886 0.928 156.072 3.11344 156.072 5.8V40.6C156.072 43.2866 153.886 45.4732 151.2 45.4732H6.19874C3.51218 45.4732 1.3279 43.2866 1.3279 40.6V5.8C1.3279 3.11344 3.51218 0.928 6.19874 0.928H151.2Z" fill="white"/>
<path d="M12.448 8.81829C12.1104 9.17557 11.9109 9.73005 11.9109 10.4481V36.1026C11.9109 36.8218 12.1104 37.3752 12.448 37.7324L12.5338 37.816L26.905 23.4447V23.2754V23.106L12.5338 8.73361L12.448 8.81829Z" fill="url(#paint0_linear)"/>
<path d="M31.6959 28.2379L26.9062 23.4459V23.2765V23.1072L31.697 18.3164L31.8049 18.3779L37.4808 21.6027C39.1025 22.5237 39.1025 24.0305 37.4808 24.9527L31.8049 28.1775L31.6959 28.2379Z" fill="url(#paint1_linear)"/>
<path d="M31.8049 28.1752L26.9062 23.2754L12.448 37.7324C12.9828 38.2985 13.8644 38.3681 14.8585 37.8032L31.8049 28.1752Z" fill="url(#paint2_linear)"/>
<path d="M31.805 18.3755L14.8597 8.74754C13.8656 8.18262 12.984 8.25338 12.4492 8.8183L26.9063 23.2754L31.805 18.3755Z" fill="url(#paint3_linear)"/>
<path opacity="0.2" d="M31.697 28.0673L14.8596 37.6338C13.9177 38.1686 13.0756 38.1338 12.535 37.6466L12.448 37.7336L12.5338 37.8171C13.0744 38.3043 13.9166 38.3403 14.8585 37.8044L31.8038 28.1764L31.697 28.0673Z" fill="#3EBBD2"/>
<path opacity="0.12" d="M12.448 37.5631C12.1104 37.2058 11.9109 36.6513 11.9109 35.9333V36.1026C11.9109 36.8207 12.1104 37.3752 12.448 37.7325L12.535 37.6454L12.448 37.5631Z" fill="#3EBBD2"/>
<path opacity="0.12" d="M37.4808 24.781L31.697 28.0673L31.8049 28.1752L37.4808 24.9504C38.2916 24.4899 38.6965 23.8832 38.6965 23.2765C38.628 23.8252 38.2151 24.3634 37.4808 24.781Z" fill="#3EBBD2"/>
<path opacity="0.25" d="M14.8584 8.91689L37.4796 21.7697C38.215 22.1873 38.6268 22.7255 38.6953 23.2754C38.6953 22.6687 38.2904 22.0609 37.4796 21.6003L14.8584 8.74753C13.2368 7.82649 11.9109 8.59093 11.9109 10.4481V10.6186C11.9109 8.76145 13.2379 7.99585 14.8584 8.91689Z" fill="white"/>
<path d="M79.389 25.1778C76.6607 25.1778 74.437 27.2519 74.437 30.1113C74.437 32.9521 76.6607 35.0448 79.389 35.0448C82.1173 35.0448 84.341 32.9521 84.341 30.1113C84.341 27.2519 82.1173 25.1778 79.389 25.1778ZM79.389 33.1018C77.8938 33.1018 76.6038 31.8687 76.6038 30.1113C76.6038 28.3353 77.8938 27.1208 79.389 27.1208C80.8843 27.1208 82.173 28.3353 82.173 30.1113C82.173 31.8675 80.8843 33.1018 79.389 33.1018ZM68.5848 25.1778C65.8564 25.1778 63.6327 27.2519 63.6327 30.1113C63.6327 32.9521 65.8564 35.0448 68.5848 35.0448C71.3131 35.0448 73.5368 32.9521 73.5368 30.1113C73.538 27.2519 71.3131 25.1778 68.5848 25.1778ZM68.5848 33.1018C67.0895 33.1018 65.8008 31.8687 65.8008 30.1113C65.8008 28.3353 67.0907 27.1208 68.5848 27.1208C70.08 27.1208 71.3688 28.3353 71.3688 30.1113C71.3699 31.8675 70.08 33.1018 68.5848 33.1018ZM55.7343 26.6916V28.7843H60.7432C60.5935 29.9617 60.2014 30.8212 59.6029 31.4198C58.8744 32.1483 57.7341 32.9522 55.7343 32.9522C52.651 32.9522 50.2405 30.4663 50.2405 27.383C50.2405 24.2997 52.651 21.8138 55.7343 21.8138C57.3977 21.8138 58.6122 22.4681 59.5089 23.3091L60.9856 21.8324C59.734 20.6364 58.0705 19.72 55.7343 19.72C51.5107 19.72 47.96 23.1583 47.96 27.3818C47.96 31.6054 51.5107 35.0436 55.7343 35.0436C58.0137 35.0436 59.734 34.2966 61.0796 32.8941C62.4623 31.5114 62.8926 29.5673 62.8926 27.9978C62.8926 27.5118 62.8555 27.0628 62.7801 26.6893H55.7343V26.6916ZM108.292 28.3168C107.881 27.2136 106.628 25.1767 104.068 25.1767C101.526 25.1767 99.4153 27.1765 99.4153 30.1102C99.4153 32.8756 101.508 35.0436 104.312 35.0436C106.572 35.0436 107.881 33.6609 108.423 32.857L106.741 31.7353C106.18 32.5578 105.414 33.0995 104.312 33.0995C103.208 33.0995 102.424 32.5949 101.92 31.6042L108.517 28.8759L108.292 28.3168ZM101.564 29.9617C101.508 28.0558 103.04 27.0837 104.142 27.0837C105.002 27.0837 105.73 27.5129 105.974 28.13L101.564 29.9617ZM96.1997 34.7455H98.3678V20.2444H96.1997V34.7455ZM92.649 26.2798H92.5747C92.0887 25.701 91.1549 25.1767 89.9775 25.1767C87.5102 25.1767 85.2493 27.3447 85.2493 30.1287C85.2493 32.8942 87.5102 35.0436 89.9775 35.0436C91.1549 35.0436 92.0887 34.5205 92.5747 33.9219H92.649V34.6318C92.649 36.5191 91.6398 37.5283 90.0134 37.5283C88.6864 37.5283 87.864 36.5748 87.5276 35.7721L85.6403 36.5574C86.182 37.8659 87.6215 39.4725 90.0134 39.4725C92.555 39.4725 94.7045 37.9773 94.7045 34.3337V25.476H92.649V26.2798ZM90.1643 33.1018C88.669 33.1018 87.4174 31.8502 87.4174 30.1299C87.4174 28.3922 88.669 27.1208 90.1643 27.1208C91.6409 27.1208 92.7986 28.391 92.7986 30.1299C92.7986 31.849 91.6409 33.1018 90.1643 33.1018ZM118.446 20.2444H113.26V34.7455H115.423V29.2517H118.445C120.844 29.2517 123.202 27.5152 123.202 24.7486C123.202 21.982 120.845 20.2444 118.446 20.2444ZM118.502 27.2334H115.423V22.2628H118.502C120.12 22.2628 121.039 23.6026 121.039 24.7486C121.039 25.8715 120.12 27.2334 118.502 27.2334ZM131.879 25.1512C130.312 25.1512 128.689 25.8414 128.017 27.3714L129.939 28.1741C130.35 27.3714 131.115 27.1104 131.917 27.1104C133.037 27.1104 134.175 27.782 134.193 28.9757V29.1253C133.801 28.9014 132.961 28.565 131.936 28.565C129.865 28.565 127.756 29.703 127.756 31.8304C127.756 33.7711 129.455 35.0204 131.357 35.0204C132.813 35.0204 133.614 34.3673 134.118 33.6029H134.192V34.7223H136.281V29.1624C136.281 26.5872 134.36 25.1512 131.879 25.1512ZM131.617 33.0983C130.908 33.0983 129.919 32.7433 129.919 31.8675C129.919 30.7481 131.151 30.319 132.213 30.319C133.164 30.319 133.612 30.5243 134.191 30.8038C134.024 32.1471 132.867 33.0983 131.617 33.0983ZM143.893 25.4678L141.412 31.755H141.338L138.764 25.4678H136.432L140.294 34.2548L138.092 39.1431H140.349L146.301 25.4678H143.893ZM124.397 34.7455H126.562V20.2444H124.397V34.7455Z" fill="#3EBBD2"/>
<path fill-rule="evenodd" clip-rule="evenodd" d="M85.7863 14.1798C85.1019 14.8839 84.2516 15.2343 83.2343 15.2343C82.217 15.2343 81.3667 14.8828 80.6834 14.1798C79.999 13.4769 79.658 12.6161 79.658 11.5988C79.658 10.5815 79.999 9.72078 80.6834 9.01782C81.3667 8.3137 82.217 7.96222 83.2343 7.96222C84.2458 7.96222 85.0949 8.31602 85.7817 9.02246C86.4684 9.7289 86.8117 10.5873 86.8117 11.5988C86.8117 12.6173 86.4695 13.478 85.7863 14.1798ZM81.3435 13.5975C81.8585 14.1195 82.4884 14.3793 83.2343 14.3793C83.9802 14.3793 84.6101 14.1183 85.1251 13.5975C85.6401 13.0755 85.8988 12.4097 85.8988 11.6C85.8988 10.7903 85.6401 10.1233 85.1251 9.60246C84.6112 9.08046 83.9802 8.82062 83.2343 8.82062C82.4884 8.82062 81.8585 9.08162 81.3435 9.60246C80.8296 10.1245 80.5709 10.7903 80.5709 11.6C80.5709 12.4097 80.8296 13.0755 81.3435 13.5975Z" fill="#3EBBD2"/>
<path d="M55.4047 11.8819C55.4047 12.8539 55.117 13.6277 54.5405 14.2053C53.8863 14.8921 53.0325 15.2354 51.9839 15.2354C50.9793 15.2354 50.1244 14.8874 49.4226 14.1914C48.7196 13.4943 48.3682 12.6312 48.3682 11.6011C48.3682 10.5699 48.7196 9.70686 49.4226 9.01086C50.1244 8.3137 50.9793 7.9657 51.9839 7.9657C52.4827 7.9657 52.9594 8.06314 53.4118 8.25686C53.8654 8.45174 54.2285 8.71042 54.4999 9.03406L53.8886 9.64654C53.4281 9.09554 52.7936 8.82062 51.9827 8.82062C51.2496 8.82062 50.6162 9.07814 50.0815 9.59318C49.5479 10.1082 49.2811 10.7764 49.2811 11.6C49.2811 12.4236 49.5479 13.0917 50.0826 13.6079C50.6174 14.123 51.2508 14.3805 51.9839 14.3805C52.7611 14.3805 53.4095 14.1218 53.928 13.6033C54.2644 13.2657 54.4593 12.7959 54.5115 12.1939H51.9839V11.3564H55.356C55.3896 11.5385 55.4047 11.7137 55.4047 11.8819Z" fill="#3EBBD2"/>
<path d="M60.7523 8.9749H57.5832V11.1812H60.4414V12.0176H57.5832V14.2239H60.7523V15.08H56.6888V8.11998H60.7523V8.9749Z" fill="#3EBBD2"/>
<path d="M63.628 15.08H64.5223V8.9749H66.4665V8.11998H61.6838V8.9749H63.628V15.08Z" fill="#3EBBD2"/>
<path d="M69.9279 15.08V8.11998H70.8223V15.08H69.9279Z" fill="#3EBBD2"/>
<path d="M73.8928 15.08H74.7872V8.9749H76.7313V8.11998H71.9486V8.9749H73.8928V15.08Z" fill="#3EBBD2"/>
<path d="M88.0668 8.11998V15.08H88.9589V10.7439L88.9206 9.40294H88.9589L92.498 15.08H93.4318V8.11998H92.5375V12.1939L92.5758 13.5349H92.5375L89.1549 8.11998H88.0668Z" fill="#3EBBD2"/>
<path fill-rule="evenodd" clip-rule="evenodd" d="M85.7863 14.1798C85.1019 14.8839 84.2516 15.2343 83.2343 15.2343C82.217 15.2343 81.3667 14.8828 80.6834 14.1798C79.999 13.4769 79.658 12.6161 79.658 11.5988C79.658 10.5815 79.999 9.72078 80.6834 9.01782C81.3667 8.3137 82.217 7.96222 83.2343 7.96222C84.2458 7.96222 85.0949 8.31602 85.7817 9.02246C86.4684 9.7289 86.8117 10.5873 86.8117 11.5988C86.8117 12.6173 86.4695 13.478 85.7863 14.1798ZM81.3435 13.5975C81.8585 14.1195 82.4884 14.3793 83.2343 14.3793C83.9802 14.3793 84.6101 14.1183 85.1251 13.5975C85.6401 13.0755 85.8988 12.4097 85.8988 11.6C85.8988 10.7903 85.6401 10.1233 85.1251 9.60246C84.6112 9.08046 83.9802 8.82062 83.2343 8.82062C82.4884 8.82062 81.8585 9.08162 81.3435 9.60246C80.8296 10.1245 80.5709 10.7903 80.5709 11.6C80.5709 12.4097 80.8296 13.0755 81.3435 13.5975Z" stroke="#3EBBD2" stroke-width="0.2" stroke-miterlimit="10"/>
<path d="M55.4047 11.8819C55.4047 12.8539 55.117 13.6277 54.5405 14.2053C53.8863 14.8921 53.0325 15.2354 51.9839 15.2354C50.9793 15.2354 50.1244 14.8874 49.4226 14.1914C48.7196 13.4943 48.3682 12.6312 48.3682 11.6011C48.3682 10.5699 48.7196 9.70686 49.4226 9.01086C50.1244 8.3137 50.9793 7.9657 51.9839 7.9657C52.4827 7.9657 52.9594 8.06314 53.4118 8.25686C53.8654 8.45174 54.2285 8.71042 54.4999 9.03406L53.8886 9.64654C53.4281 9.09554 52.7936 8.82062 51.9827 8.82062C51.2496 8.82062 50.6162 9.07814 50.0815 9.59318C49.5479 10.1082 49.2811 10.7764 49.2811 11.6C49.2811 12.4236 49.5479 13.0917 50.0826 13.6079C50.6174 14.123 51.2508 14.3805 51.9839 14.3805C52.7611 14.3805 53.4095 14.1218 53.928 13.6033C54.2644 13.2657 54.4593 12.7959 54.5115 12.1939H51.9839V11.3564H55.356C55.3896 11.5385 55.4047 11.7137 55.4047 11.8819Z" stroke="#3EBBD2" stroke-width="0.2" stroke-miterlimit="10"/>
<path d="M60.7523 8.9749H57.5832V11.1812H60.4414V12.0176H57.5832V14.2239H60.7523V15.08H56.6888V8.11998H60.7523V8.9749Z" stroke="#3EBBD2" stroke-width="0.2" stroke-miterlimit="10"/>
<path d="M63.628 15.08H64.5223V8.9749H66.4665V8.11998H61.6838V8.9749H63.628V15.08Z" stroke="#3EBBD2" stroke-width="0.2" stroke-miterlimit="10"/>
<path d="M69.9279 15.08V8.11998H70.8223V15.08H69.9279Z" stroke="#3EBBD2" stroke-width="0.2" stroke-miterlimit="10"/>
<path d="M73.8928 15.08H74.7872V8.9749H76.7313V8.11998H71.9486V8.9749H73.8928V15.08Z" stroke="#3EBBD2" stroke-width="0.2" stroke-miterlimit="10"/>
<path d="M88.0668 8.11998V15.08H88.9589V10.7439L88.9206 9.40294H88.9589L92.498 15.08H93.4318V8.11998H92.5375V12.1939L92.5758 13.5349H92.5375L89.1549 8.11998H88.0668Z" stroke="#3EBBD2" stroke-width="0.2" stroke-miterlimit="10"/>
</g>
<defs>
<linearGradient id="paint0_linear" x1="25.6309" y1="10.1776" x2="6.16332" y2="29.6452" gradientUnits="userSpaceOnUse">
<stop stop-color="#00A0FF"/>
<stop offset="0.0066" stop-color="#00A1FF"/>
<stop offset="0.2601" stop-color="#00BEFF"/>
<stop offset="0.5122" stop-color="#00D2FF"/>
<stop offset="0.7604" stop-color="#00DFFF"/>
<stop offset="1" stop-color="#00E3FF"/>
</linearGradient>
<linearGradient id="paint1_linear" x1="39.5912" y1="23.276" x2="11.5228" y2="23.276" gradientUnits="userSpaceOnUse">
<stop stop-color="#FFE000"/>
<stop offset="0.4087" stop-color="#FFBD00"/>
<stop offset="0.7754" stop-color="#FFA500"/>
<stop offset="1" stop-color="#FF9C00"/>
</linearGradient>
<linearGradient id="paint2_linear" x1="29.1426" y1="25.9378" x2="2.74297" y2="52.3374" gradientUnits="userSpaceOnUse">
<stop stop-color="#FF3A44"/>
<stop offset="1" stop-color="#C31162"/>
</linearGradient>
<linearGradient id="paint3_linear" x1="8.80821" y1="0.278731" x2="20.5968" y2="12.0672" gradientUnits="userSpaceOnUse">
<stop stop-color="#32A071"/>
<stop offset="0.0685" stop-color="#2DA771"/>
<stop offset="0.4762" stop-color="#15CF74"/>
<stop offset="0.8009" stop-color="#06E775"/>
<stop offset="1" stop-color="#00F076"/>
</linearGradient>
<clipPath id="clip0">
<rect x="0.399902" width="156.6" height="46.4" rx="5" fill="white"/>
</clipPath>
</defs>
</svg>
