<svg width="48" height="38" viewBox="0 0 48 38" fill="none" xmlns="http://www.w3.org/2000/svg">
<g clip-path="url(#clip0)">
<path d="M9.4818 37.0491V34.6038C9.4818 33.6663 8.91718 33.0551 7.94939 33.0551C7.46559 33.0551 6.94138 33.2181 6.57844 33.748C6.29631 33.2996 5.89314 33.0551 5.2883 33.0551C4.88495 33.0551 4.48196 33.1773 4.15925 33.6256V33.1366H3.3125V37.0491H4.15925V34.889C4.15925 34.1963 4.52219 33.8701 5.08681 33.8701C5.65106 33.8701 5.93355 34.237 5.93355 34.889V37.0491H6.7803V34.889C6.7803 34.1963 7.18328 33.8701 7.70749 33.8701C8.27211 33.8701 8.55424 34.237 8.55424 34.889V37.0491H9.4818ZM22.0215 33.1366H20.6508V31.9547H19.804V33.1366H19.0379V33.9108H19.8038V35.7042C19.8038 36.6009 20.1668 37.1306 21.1346 37.1306C21.4975 37.1306 21.9005 37.0084 22.183 36.8454L21.9409 36.1117C21.699 36.2747 21.4169 36.3156 21.2152 36.3156C20.812 36.3156 20.6508 36.0711 20.6508 35.6634V33.9108H22.0215V33.1366ZM29.1988 33.0549C28.715 33.0549 28.3925 33.2996 28.1908 33.6256V33.1366H27.3441V37.0491H28.1908V34.8483C28.1908 34.1963 28.473 33.8295 28.9972 33.8295C29.1584 33.8295 29.3601 33.8703 29.5214 33.911L29.7633 33.096C29.602 33.0551 29.3601 33.0551 29.1988 33.0551V33.0549ZM18.3524 33.4626C17.9491 33.1773 17.3846 33.0551 16.7798 33.0551C15.8122 33.0551 15.1671 33.5441 15.1671 34.3185C15.1671 34.9707 15.6509 35.3374 16.4977 35.4597L16.9008 35.5005C17.3444 35.5819 17.5863 35.7042 17.5863 35.9081C17.5863 36.1932 17.2638 36.3971 16.6992 36.3971C16.1347 36.3971 15.6911 36.1932 15.4088 35.9896L15.0057 36.6416C15.4492 36.9676 16.0541 37.1306 16.6588 37.1306C17.7878 37.1306 18.4331 36.6009 18.4331 35.8672C18.4331 35.1743 17.9088 34.8075 17.1023 34.6853L16.6992 34.6445C16.3362 34.6037 16.0541 34.5223 16.0541 34.2778C16.0541 33.9925 16.3362 33.8295 16.7798 33.8295C17.2638 33.8295 17.7476 34.0331 17.9895 34.1555L18.3524 33.4626ZM40.8518 33.0551C40.3678 33.0551 40.0453 33.2996 39.8436 33.6256V33.1366H38.9968V37.0491H39.8436V34.8483C39.8436 34.1963 40.1259 33.8295 40.6499 33.8295C40.8114 33.8295 41.0131 33.8703 41.1743 33.911L41.4162 33.096C41.255 33.0551 41.0131 33.0551 40.8518 33.0551ZM30.0456 35.0928C30.0456 36.2747 30.8519 37.1306 32.102 37.1306C32.6665 37.1306 33.0696 37.0084 33.4728 36.6824L33.0696 35.9896C32.7471 36.2341 32.4246 36.3562 32.0616 36.3562C31.3761 36.3562 30.8923 35.8672 30.8923 35.0928C30.8923 34.3593 31.3761 33.8701 32.0616 33.8295C32.4246 33.8295 32.7471 33.9516 33.0696 34.1963L33.4728 33.5035C33.0696 33.1773 32.6665 33.0551 32.102 33.0551C30.8519 33.0551 30.0456 33.911 30.0456 35.0928ZM37.868 35.0928V33.1366H37.0212V33.6256C36.7389 33.259 36.3358 33.0551 35.8115 33.0551C34.7229 33.0551 33.8762 33.911 33.8762 35.0928C33.8762 36.2747 34.7229 37.1306 35.8115 37.1306C36.376 37.1306 36.7793 36.9269 37.0212 36.5601V37.0491H37.868V35.0928ZM34.7631 35.0928C34.7631 34.4 35.2067 33.8295 35.9324 33.8295C36.6179 33.8295 37.1019 34.3593 37.1019 35.0928C37.1019 35.7857 36.6179 36.3562 35.9324 36.3562C35.2067 36.3154 34.7631 35.7857 34.7631 35.0928ZM24.6426 33.0551C23.5135 33.0551 22.707 33.8701 22.707 35.0928C22.707 36.3156 23.5133 37.1306 24.6828 37.1306C25.2472 37.1306 25.8119 36.9676 26.2554 36.6009L25.8521 35.9896C25.5296 36.2341 25.1264 36.3971 24.7232 36.3971C24.199 36.3971 23.6748 36.1526 23.5538 35.4595H26.4167V35.1337C26.4571 33.8701 25.7312 33.0551 24.6424 33.0551H24.6426ZM24.6426 33.7886C25.1666 33.7886 25.5297 34.1148 25.6102 34.7262H23.5942C23.6748 34.1963 24.0377 33.7886 24.6426 33.7886ZM45.65 35.0928V31.5879H44.8032V33.6256C44.5209 33.259 44.1177 33.0551 43.5935 33.0551C42.5049 33.0551 41.6581 33.911 41.6581 35.0928C41.6581 36.2747 42.5049 37.1306 43.5935 37.1306C44.1581 37.1306 44.5613 36.9269 44.8032 36.5601V37.0491H45.65V35.0928ZM42.5453 35.0928C42.5453 34.4 42.9887 33.8295 43.7146 33.8295C44.4 33.8295 44.8838 34.3593 44.8838 35.0928C44.8838 35.7857 44.4 36.3562 43.7146 36.3562C42.9887 36.3154 42.5453 35.7857 42.5453 35.0928ZM14.2396 35.0928V33.1366H13.3928V33.6256C13.1105 33.259 12.7073 33.0551 12.1831 33.0551C11.0945 33.0551 10.2477 33.911 10.2477 35.0928C10.2477 36.2747 11.0945 37.1306 12.1831 37.1306C12.7477 37.1306 13.1509 36.9269 13.3928 36.5601V37.0491H14.2396V35.0928ZM11.0945 35.0928C11.0945 34.4 11.5381 33.8295 12.2638 33.8295C12.9492 33.8295 13.4332 34.3593 13.4332 35.0928C13.4332 35.7857 12.9492 36.3562 12.2638 36.3562C11.5381 36.3154 11.0945 35.7857 11.0945 35.0928Z" fill="#4FC1D6"/>
<path d="M18.0703 3.42578H30.7715V26.4934H18.0703V3.42578Z" fill="#3CA2B5"/>
<path d="M18.8767 14.9596C18.8767 10.2728 21.054 6.11564 24.4006 3.4257C21.9411 1.46947 18.8365 0.287598 15.4495 0.287598C7.42525 0.287598 0.933594 6.84915 0.933594 14.9596C0.933594 23.0699 7.42525 29.6316 15.4493 29.6316C18.8363 29.6316 21.941 28.4498 24.4006 26.4933C21.054 23.8443 18.8767 19.6464 18.8767 14.9596Z" fill="#8EE3F2"/>
<path d="M47.9079 14.9596C47.9079 23.0699 41.4162 29.6316 33.3922 29.6316C30.0052 29.6316 26.9005 28.4498 24.4409 26.4933C27.8279 23.8036 29.965 19.6464 29.965 14.9596C29.965 10.2728 27.7875 6.11564 24.4409 3.4257C26.9003 1.46947 30.0052 0.287598 33.3922 0.287598C41.4162 0.287598 47.9081 6.89 47.9081 14.9596H47.9079Z" fill="#4FC1D6"/>
</g>
<defs>
<clipPath id="clip0">
<rect width="47.021" height="36.9451" fill="white" transform="translate(0.933594 0.287598)"/>
</clipPath>
</defs>
</svg>
