<svg width="107" height="30" viewBox="0 0 107 30" fill="none" xmlns="http://www.w3.org/2000/svg">
<path fill-rule="evenodd" clip-rule="evenodd" d="M27.7193 20.4356C30.2742 20.4356 32.289 18.464 32.289 15.8775C32.289 13.7999 30.835 12.5915 28.9033 12.5915C26.3692 12.5915 24.3959 14.6691 24.3959 17.2556C24.3959 19.3332 25.8084 20.4356 27.7193 20.4356ZM8.67206 6.16771C8.7136 5.80731 9.02517 5.5953 9.33674 5.5953H10.313C12.6601 5.5953 14.4257 5.91331 13.948 8.75417C13.5325 11.4466 11.767 11.7646 9.48214 11.7646L7.77889 11.8282L8.67206 6.16771ZM13.034 0.867599C16.8767 0.867599 20.2417 2.35163 20.2417 6.80373C20.2417 12.9095 16.6067 16.5135 10.6661 16.5135C10.4861 16.5135 10.256 16.4963 9.99849 16.4769C8.82986 16.3892 7.09748 16.2591 6.92727 17.51L5.99256 23.1493C5.93025 23.7429 5.41096 24.3577 4.85014 24.3577H0.903592C0.488165 24.3577 0.176596 23.9337 0.23891 23.5097L3.6454 1.86402C3.68695 1.29161 4.20623 0.867599 4.72551 0.867599H13.034ZM33.7846 8.66937H37.7311C38.1465 8.66937 38.4581 9.09338 38.3958 9.49619L36.2771 23.1281C36.1733 23.7217 35.6955 24.3365 35.1347 24.3365H31.562C31.1051 24.3365 30.8974 23.9761 30.8974 23.4885C30.8974 23.1705 31.0012 22.4921 31.1051 22.1741C29.7965 23.6581 27.4701 24.6969 25.6007 24.6969C21.5503 24.6969 19.0162 22.0045 19.0162 17.8704C19.0162 12.8459 22.9004 8.28776 27.9894 8.28776C29.9626 8.28776 31.7074 8.60577 32.9122 10.4078L32.9181 10.3229C32.9593 9.72784 33.0325 8.66937 33.7846 8.66937ZM59.3748 9.793L46.1435 29.4246C45.9358 29.7426 45.5827 29.9546 45.2088 29.9758H41.2207C40.8676 29.9758 40.556 29.679 40.556 29.2974C40.556 28.6975 43.8459 23.9851 44.6897 22.7764L44.8141 22.5981C44.6856 22.1891 44.0673 20.3675 43.3328 18.2035C42.0492 14.4218 40.4106 9.5944 40.4106 9.43259C40.4106 9.07218 40.7222 8.69057 41.0753 8.69057H44.9595C45.4788 8.69057 45.9358 9.07218 46.1019 9.53859L48.3868 17.4888L53.8912 9.22058C54.0989 8.90258 54.4728 8.69057 54.8259 8.69057H58.814C59.1671 8.69057 59.4787 9.07218 59.4787 9.43259C59.4787 9.58099 59.4787 9.68699 59.3748 9.793ZM72.0245 0.867599C75.8672 0.867599 79.2322 2.35163 79.2322 6.80373C79.2322 12.9095 75.5972 16.5135 69.6981 16.5135C69.5181 16.5135 69.288 16.4963 69.0305 16.4769C67.8619 16.3892 66.1295 16.2591 65.9593 17.51L65.0246 23.6581C64.9207 24.0185 64.6092 24.3365 64.1938 24.3365H59.9356C59.541 24.3365 59.2294 23.9125 59.271 23.4885L62.6359 1.86402C62.6982 1.29161 63.2175 0.867599 63.7783 0.867599H72.0245ZM92.7751 8.66937H96.7216C97.137 8.66937 97.4486 9.09338 97.3863 9.49619L95.2676 23.1281C95.1638 23.7217 94.686 24.3365 94.1252 24.3365H90.5318C90.0748 24.3365 89.8671 23.9761 89.8671 23.4885C89.8671 23.2116 89.9773 22.6616 90.0469 22.314L90.0748 22.1741C88.8285 23.6581 86.5021 24.6969 84.5704 24.6969C80.52 24.6969 77.9859 22.0045 77.9859 17.8704C77.9859 12.8459 81.8701 8.28776 86.9591 8.28776C88.9739 8.28776 90.7395 8.60577 91.8819 10.4078C91.8871 10.36 91.8922 10.3079 91.8975 10.2528C91.9564 9.64857 92.0517 8.66937 92.7751 8.66937ZM105.923 0.867599C106.276 0.867599 106.588 1.18561 106.588 1.60962V1.67322L103.223 23.1281C103.181 23.7217 102.662 24.3365 102.143 24.3365H98.7157C98.3002 24.3365 97.9887 23.9761 97.9887 23.5945L98.051 23.4885L101.416 1.44001C101.457 1.12201 101.769 0.867599 102.081 0.867599H105.923ZM69.3035 5.5953H68.3688C67.9949 5.5953 67.7456 5.80731 67.7041 6.16771L66.8317 11.8282L68.4934 11.7646C71.1937 11.7646 73.0631 11.1286 73.0631 7.94856C73.0423 5.70131 71.069 5.5953 69.3035 5.5953ZM83.3864 17.2556C83.3864 14.6479 85.3597 12.5915 87.8938 12.5915C89.8255 12.5915 91.2795 13.7999 91.2588 15.8775C91.2588 18.4852 89.2439 20.4356 86.7514 20.4356C84.8404 20.4356 83.3864 19.312 83.3864 17.2556Z" fill="#4FC1D6"/>
</svg>
