<svg width="43" height="43" viewBox="0 0 43 43" fill="none" xmlns="http://www.w3.org/2000/svg">
<path d="M21.5 40.3125C16.5106 40.3125 11.7256 38.3305 8.19755 34.8024C4.66953 31.2744 2.6875 26.4894 2.6875 21.5C2.6875 16.5106 4.66953 11.7256 8.19755 8.19755C11.7256 4.66953 16.5106 2.6875 21.5 2.6875C26.4894 2.6875 31.2744 4.66953 34.8024 8.19755C38.3305 11.7256 40.3125 16.5106 40.3125 21.5C40.3125 26.4894 38.3305 31.2744 34.8024 34.8024C31.2744 38.3305 26.4894 40.3125 21.5 40.3125ZM21.5 43C27.2022 43 32.6708 40.7348 36.7028 36.7028C40.7348 32.6708 43 27.2022 43 21.5C43 15.7978 40.7348 10.3292 36.7028 6.2972C32.6708 2.26517 27.2022 0 21.5 0C15.7978 0 10.3292 2.26517 6.2972 6.2972C2.26517 10.3292 0 15.7978 0 21.5C0 27.2022 2.26517 32.6708 6.2972 36.7028C10.3292 40.7348 15.7978 43 21.5 43Z" fill="#3EBBD2"/>
<path d="M11.5161 25.7113C11.8247 25.5331 12.1915 25.4848 12.5357 25.5771C12.8799 25.6693 13.1734 25.8945 13.3516 26.2031C14.177 27.6338 15.3647 28.8217 16.7952 29.6474C18.2257 30.473 19.8485 30.9072 21.5001 30.9062C23.1518 30.9072 24.7746 30.473 26.2051 29.6474C27.6356 28.8217 28.8233 27.6338 29.6486 26.2031C29.7362 26.0491 29.8534 25.9139 29.9935 25.8053C30.1335 25.6967 30.2937 25.6169 30.4647 25.5705C30.6357 25.524 30.8143 25.5119 30.99 25.5347C31.1657 25.5576 31.3352 25.615 31.4887 25.7036C31.6421 25.7922 31.7766 25.9103 31.8842 26.051C31.9919 26.1918 32.0706 26.3525 32.1159 26.5238C32.1612 26.6951 32.1722 26.8737 32.1481 27.0493C32.1241 27.2249 32.0656 27.394 31.976 27.5469C30.9148 29.3861 29.3878 30.9133 27.5488 31.9748C25.7098 33.0363 23.6235 33.5947 21.5001 33.5937C19.3767 33.5947 17.2905 33.0363 15.4515 31.9748C13.6125 30.9133 12.0855 29.3861 11.0243 27.5469C10.8461 27.2382 10.7978 26.8715 10.89 26.5272C10.9823 26.183 11.2075 25.8895 11.5161 25.7113ZM18.8126 17.4687C18.8126 19.694 17.6086 21.5 16.1251 21.5C14.6416 21.5 13.4376 19.694 13.4376 17.4687C13.4376 15.2435 14.6416 13.4375 16.1251 13.4375C17.6086 13.4375 18.8126 15.2435 18.8126 17.4687ZM29.5626 17.4687C29.5626 19.694 28.3586 21.5 26.8751 21.5C25.3916 21.5 24.1876 19.694 24.1876 17.4687C24.1876 15.2435 25.3916 13.4375 26.8751 13.4375C28.3586 13.4375 29.5626 15.2435 29.5626 17.4687Z" fill="#3EBBD2"/>
</svg>
