<svg width="86" height="27" viewBox="0 0 86 27" fill="none" xmlns="http://www.w3.org/2000/svg">
<path d="M62.1204 2.025C60.147 1.30595 58.0612 0.945126 55.9609 0.959521C49.169 0.959521 44.3722 4.38095 44.3383 9.29236C44.2958 12.9006 47.747 14.9339 50.3576 16.1395C53.0362 17.379 53.9319 18.1601 53.9234 19.268C53.9064 20.9532 51.7839 21.7173 49.81 21.7173C47.0975 21.7173 45.616 21.3395 43.3365 20.3929L42.4917 19.9981L41.5281 25.6524C43.1794 26.3401 46.1551 26.9301 49.2285 26.9811C56.4491 26.9811 61.1695 23.5809 61.2247 18.3553C61.2841 15.473 59.4163 13.2953 55.4855 11.4955C53.0956 10.3281 51.6141 9.54706 51.6141 8.36271C51.6141 7.31421 52.8834 6.19354 55.5365 6.19354C57.3022 6.15082 59.057 6.48211 60.6856 7.16564L61.3223 7.45005L62.2859 1.9868L62.1204 2.025ZM79.7454 1.41797H74.4392C72.7879 1.41797 71.5442 1.87218 70.8225 3.51074L60.6177 26.6287H67.8383L69.2816 22.838L78.0941 22.8465C78.3021 23.7337 78.9389 26.6287 78.9389 26.6287H85.3063L79.7454 1.41797ZM34.5706 1.20573H41.4517L37.1473 26.4292H30.2747L34.5706 1.19724V1.20573ZM17.1027 15.1079L17.8158 18.61L24.5398 1.41797H31.8284L20.9995 26.5948H13.7279L7.78499 5.27663C7.68874 4.92512 7.46269 4.62322 7.15249 4.43189C5.0105 3.32539 2.74091 2.4857 0.394531 1.93161L0.48792 1.40099H11.563C13.0657 1.46042 14.2755 1.93161 14.6788 3.5362L17.0984 15.1207V15.1079H17.1027ZM71.2555 17.6804L73.9977 10.6253C73.9638 10.7017 74.5623 9.16925 74.9104 8.22263L75.3816 10.4003L76.9735 17.6761H71.2513V17.6804H71.2555Z" fill="#4FC1D6"/>
</svg>
