<svg width="157" height="28" viewBox="0 0 157 28" fill="none" xmlns="http://www.w3.org/2000/svg">
<path d="M0 14C0 6.26801 6.26801 0 14 0H143C150.732 0 157 6.26801 157 14C157 21.732 150.732 28 143 28H14C6.26801 28 0 21.732 0 14Z" fill="white"/>
<path d="M48.906 14.322H43.542C43.38 14.322 43.272 14.43 43.272 14.592V15.546C43.272 15.708 43.38 15.816 43.542 15.816H47.574C47.484 17.994 45.81 19.596 43.362 19.596C40.698 19.596 38.682 17.49 38.682 14.7C38.682 11.982 40.77 9.894 43.344 9.894C44.622 9.894 45.666 10.38 46.548 11.118C46.674 11.226 46.8 11.244 46.926 11.118L47.646 10.362C47.772 10.236 47.754 10.11 47.628 9.984C46.494 8.976 45.036 8.256 43.344 8.256C39.762 8.256 36.972 11.136 36.972 14.7C36.972 18.336 39.726 21.234 43.38 21.234C46.962 21.234 49.176 18.624 49.176 15.294V14.592C49.176 14.43 49.068 14.322 48.906 14.322ZM55.2507 21.18C57.7887 21.18 59.7507 19.164 59.7507 16.59C59.7507 13.998 57.7887 11.982 55.2507 11.982C52.7307 11.982 50.7687 13.998 50.7687 16.59C50.7687 19.164 52.7307 21.18 55.2507 21.18ZM55.2507 19.704C53.6127 19.704 52.3167 18.39 52.3167 16.59C52.3167 14.772 53.6127 13.458 55.2507 13.458C56.9067 13.458 58.1847 14.772 58.1847 16.59C58.1847 18.39 56.9067 19.704 55.2507 19.704ZM65.9031 21.18C68.4411 21.18 70.4031 19.164 70.4031 16.59C70.4031 13.998 68.4411 11.982 65.9031 11.982C63.3831 11.982 61.4211 13.998 61.4211 16.59C61.4211 19.164 63.3831 21.18 65.9031 21.18ZM65.9031 19.704C64.2651 19.704 62.9691 18.39 62.9691 16.59C62.9691 14.772 64.2651 13.458 65.9031 13.458C67.5591 13.458 68.8371 14.772 68.8371 16.59C68.8371 18.39 67.5591 19.704 65.9031 19.704ZM80.6954 12.18H79.7054C79.5434 12.18 79.4534 12.288 79.4354 12.45L79.3814 13.476C78.6974 12.594 77.6714 12 76.3754 12C73.8734 12 72.0734 14.034 72.0734 16.518C72.0734 19.002 73.8734 21.036 76.3754 21.036C77.7254 21.036 78.7334 20.406 79.4174 19.506V20.82C79.4174 22.566 77.7614 23.178 76.3394 23.178C75.1694 23.178 74.3414 22.926 73.5854 22.53C73.4414 22.458 73.3154 22.494 73.2254 22.638L72.8834 23.268C72.8114 23.412 72.8294 23.556 72.9734 23.646C73.8194 24.204 75.0434 24.564 76.4474 24.564C78.4814 24.564 80.9654 23.592 80.9654 20.838V12.45C80.9654 12.288 80.8574 12.18 80.6954 12.18ZM76.5374 19.56C74.8634 19.56 73.6214 18.21 73.6214 16.5C73.6214 14.808 74.8634 13.458 76.5374 13.458C78.1934 13.458 79.4174 14.88 79.4174 16.5C79.4174 18.12 78.1934 19.56 76.5374 19.56ZM83.4528 8.13V20.73C83.4528 20.892 83.5608 21 83.7228 21H84.8028C84.9648 21 85.0728 20.892 85.0728 20.73V8.13C85.0728 7.968 84.9648 7.86 84.8028 7.86H83.7228C83.5608 7.86 83.4528 7.968 83.4528 8.13ZM91.4587 12C88.9027 12 87.1027 14.016 87.1027 16.554C87.1027 19.092 88.9567 21.126 91.6027 21.126C92.9167 21.126 94.0687 20.64 94.8967 19.776C95.0407 19.632 95.0227 19.506 94.8967 19.362L94.4287 18.93C94.2847 18.804 94.1767 18.84 94.0507 18.948C93.4567 19.416 92.7727 19.722 91.7827 19.722C90.0367 19.722 88.9207 18.678 88.6867 17.184H95.0587C95.5267 17.184 95.5987 16.878 95.5987 16.248C95.5987 14.016 93.9967 12 91.4587 12ZM91.4587 13.422C92.9707 13.422 94.0687 14.52 94.1767 16.014H88.6867C88.8667 14.484 89.9467 13.422 91.4587 13.422ZM106.607 8.4H103.133C102.971 8.4 102.863 8.508 102.863 8.67V20.73C102.863 20.892 102.971 21 103.133 21H104.267C104.429 21 104.537 20.892 104.537 20.73V16.32H106.607C109.397 16.32 110.909 14.628 110.909 12.36C110.909 10.074 109.397 8.4 106.607 8.4ZM106.535 14.79H104.537V9.93H106.535C108.029 9.93 109.289 10.578 109.289 12.36C109.289 14.142 108.029 14.79 106.535 14.79ZM112.861 8.13V20.73C112.861 20.892 112.969 21 113.131 21H114.211C114.373 21 114.481 20.892 114.481 20.73V8.13C114.481 7.968 114.373 7.86 114.211 7.86H113.131C112.969 7.86 112.861 7.968 112.861 8.13ZM125.133 12.18H124.179C124.017 12.18 123.927 12.288 123.909 12.45L123.837 13.548C123.171 12.612 122.145 12 120.813 12C118.311 12 116.511 14.034 116.511 16.608C116.511 19.092 118.311 21.126 120.813 21.126C122.145 21.126 123.153 20.55 123.819 19.668L123.909 20.73C123.927 20.892 124.017 21 124.179 21H125.133C125.295 21 125.403 20.892 125.403 20.73V12.45C125.403 12.288 125.295 12.18 125.133 12.18ZM120.975 19.65C119.301 19.65 118.059 18.318 118.059 16.59C118.059 14.79 119.301 13.476 120.975 13.476C122.649 13.476 123.855 14.88 123.855 16.59C123.855 18.318 122.649 19.65 120.975 19.65ZM135.491 12.18H134.375C134.231 12.18 134.105 12.252 134.051 12.396L131.495 19.146L128.938 12.396C128.885 12.252 128.759 12.18 128.615 12.18H127.517C127.319 12.18 127.229 12.288 127.301 12.486L130.685 21.036L129.443 24.114C129.353 24.312 129.461 24.42 129.659 24.42H130.739C130.883 24.42 131.009 24.348 131.062 24.204L135.707 12.486C135.779 12.288 135.689 12.18 135.491 12.18Z" fill="#3EBBD2"/>
<path d="M29.5339 13.6943C30.1554 14.0524 30.1554 14.9476 29.5339 15.3057L16.3984 22.874C15.7769 23.2321 15 22.7844 15 22.0682L15 6.93178C15 6.21556 15.7769 5.76793 16.3984 6.12604L29.5339 13.6943Z" fill="#3EBBD2"/>
</svg>
