<svg width="157" height="28" viewBox="0 0 157 28" fill="none" xmlns="http://www.w3.org/2000/svg">
<path d="M0 14C0 6.26801 6.26801 0 14 0H143C150.732 0 157 6.26801 157 14C157 21.732 150.732 28 143 28H14C6.26801 28 0 21.732 0 14Z" fill="white"/>
<path d="M27.3636 13.6358C27.3733 12.8692 27.5735 12.1176 27.9456 11.4509C28.3177 10.7841 28.8496 10.2239 29.4918 9.82239C29.0839 9.22985 28.5457 8.74221 27.92 8.39821C27.2943 8.0542 26.5983 7.86331 25.8874 7.84069C24.3708 7.6788 22.9006 8.76357 22.1278 8.76357C21.34 8.76357 20.1502 7.85676 18.8689 7.88357C18.0402 7.9108 17.2325 8.15589 16.5245 8.59496C15.8166 9.03403 15.2326 9.6521 14.8294 10.389C13.0828 13.4643 14.3856 17.984 16.0587 20.4699C16.8958 21.6871 17.8741 23.0468 19.1542 22.9986C20.4069 22.9458 20.8748 22.1863 22.3868 22.1863C23.8849 22.1863 24.3238 22.9986 25.6299 22.968C26.9741 22.9458 27.821 21.7453 28.6287 20.5165C29.2302 19.6492 29.693 18.6906 30 17.6762C29.2191 17.3403 28.5526 16.7781 28.0838 16.0596C27.615 15.3411 27.3645 14.4981 27.3636 13.6358Z" fill="#3EBBD2"/>
<path d="M24.8968 6.20594C25.6297 5.31119 25.9908 4.16113 25.9034 3C24.7837 3.1196 23.7494 3.66383 23.0066 4.52425C22.6434 4.94459 22.3652 5.43361 22.188 5.96334C22.0108 6.49307 21.938 7.05313 21.9737 7.6115C22.5337 7.61736 23.0878 7.49391 23.5941 7.25045C24.1005 7.00698 24.5459 6.64985 24.8968 6.20594Z" fill="#3EBBD2"/>
<path d="M47.322 20.694L42.912 8.616C42.858 8.472 42.732 8.4 42.588 8.4H41.454C41.31 8.4 41.184 8.472 41.13 8.616L36.72 20.694C36.648 20.874 36.738 21 36.936 21H38.088C38.232 21 38.34 20.946 38.394 20.784L39.33 18.156H44.73L45.648 20.784C45.702 20.946 45.81 21 45.954 21H47.106C47.304 21 47.394 20.874 47.322 20.694ZM39.816 16.788L42.03 10.506L44.244 16.788H39.816ZM53.783 12C52.451 12 51.425 12.612 50.759 13.548L50.687 12.45C50.669 12.288 50.579 12.18 50.417 12.18H49.463C49.301 12.18 49.193 12.288 49.193 12.45V24.15C49.193 24.312 49.301 24.42 49.463 24.42H50.543C50.705 24.42 50.813 24.312 50.813 24.15V19.704C51.479 20.55 52.469 21.126 53.783 21.126C56.285 21.126 58.085 19.092 58.085 16.608C58.085 14.034 56.285 12 53.783 12ZM53.621 19.65C51.947 19.65 50.741 18.318 50.741 16.59C50.741 14.88 51.947 13.476 53.621 13.476C55.295 13.476 56.537 14.79 56.537 16.59C56.537 18.318 55.295 19.65 53.621 19.65ZM64.7166 12C63.3846 12 62.3586 12.612 61.6926 13.548L61.6206 12.45C61.6026 12.288 61.5126 12.18 61.3506 12.18H60.3966C60.2346 12.18 60.1266 12.288 60.1266 12.45V24.15C60.1266 24.312 60.2346 24.42 60.3966 24.42H61.4766C61.6386 24.42 61.7466 24.312 61.7466 24.15V19.704C62.4126 20.55 63.4026 21.126 64.7166 21.126C67.2186 21.126 69.0186 19.092 69.0186 16.608C69.0186 14.034 67.2186 12 64.7166 12ZM64.5546 19.65C62.8806 19.65 61.6746 18.318 61.6746 16.59C61.6746 14.88 62.8806 13.476 64.5546 13.476C66.2286 13.476 67.4706 14.79 67.4706 16.59C67.4706 18.318 66.2286 19.65 64.5546 19.65ZM77.7791 11.568C77.7791 10.47 78.6791 9.804 79.8851 9.804C80.9291 9.804 81.7031 10.236 82.5311 11.01C82.6571 11.136 82.7831 11.118 82.9091 10.974L83.5031 10.326C83.6291 10.182 83.6291 10.074 83.5031 9.948C82.6031 8.904 81.2711 8.256 79.8671 8.256C77.7971 8.256 76.1591 9.606 76.1591 11.55C76.1591 15.618 82.4231 14.772 82.4231 17.598C82.4231 18.75 81.4151 19.65 79.9211 19.65C78.6611 19.65 77.7791 19.02 76.9871 18.264C76.8611 18.138 76.7171 18.138 76.6091 18.246L75.9431 18.93C75.8171 19.038 75.7991 19.146 75.8891 19.29C76.6091 20.406 78.1391 21.216 79.9211 21.216C82.1531 21.216 84.0791 19.74 84.0791 17.67C84.0791 13.386 77.7791 14.34 77.7791 11.568ZM90.0755 12.18H88.6355V9.75C88.6355 9.588 88.5275 9.48 88.3655 9.48H87.2855C87.1235 9.48 87.0155 9.588 87.0155 9.75V12.18H85.5755C85.4135 12.18 85.3055 12.288 85.3055 12.45V13.26C85.3055 13.422 85.4135 13.53 85.5755 13.53H87.0155V20.73C87.0155 20.892 87.1235 21 87.2855 21H88.3655C88.5275 21 88.6355 20.892 88.6355 20.73V13.53H90.0755C90.2375 13.53 90.3455 13.422 90.3455 13.26V12.45C90.3455 12.288 90.2375 12.18 90.0755 12.18ZM96.2429 21.18C98.7809 21.18 100.743 19.164 100.743 16.59C100.743 13.998 98.7809 11.982 96.2429 11.982C93.7229 11.982 91.7609 13.998 91.7609 16.59C91.7609 19.164 93.7229 21.18 96.2429 21.18ZM96.2429 19.704C94.6049 19.704 93.3089 18.39 93.3089 16.59C93.3089 14.772 94.6049 13.458 96.2429 13.458C97.8989 13.458 99.1769 14.772 99.1769 16.59C99.1769 18.39 97.8989 19.704 96.2429 19.704ZM107.667 12.306C107.415 12.108 107.019 11.982 106.569 11.982C105.579 11.982 104.859 12.504 104.373 13.26L104.301 12.45C104.283 12.288 104.193 12.18 104.031 12.18H103.041C102.879 12.18 102.771 12.288 102.771 12.45V20.73C102.771 20.892 102.879 21 103.041 21H104.121C104.283 21 104.391 20.892 104.391 20.73V15.42C104.391 14.286 105.219 13.458 106.317 13.458C106.677 13.458 106.857 13.53 107.019 13.566C107.199 13.602 107.307 13.584 107.379 13.422L107.721 12.612C107.793 12.468 107.775 12.378 107.667 12.306ZM112.834 12C110.278 12 108.478 14.016 108.478 16.554C108.478 19.092 110.332 21.126 112.978 21.126C114.292 21.126 115.444 20.64 116.272 19.776C116.416 19.632 116.398 19.506 116.272 19.362L115.804 18.93C115.66 18.804 115.552 18.84 115.426 18.948C114.832 19.416 114.148 19.722 113.158 19.722C111.412 19.722 110.296 18.678 110.062 17.184H116.434C116.902 17.184 116.974 16.878 116.974 16.248C116.974 14.016 115.372 12 112.834 12ZM112.834 13.422C114.346 13.422 115.444 14.52 115.552 16.014H110.062C110.242 14.484 111.322 13.422 112.834 13.422Z" fill="#3EBBD2"/>
</svg>
