<svg xmlns="http://www.w3.org/2000/svg" width="31.241" height="20" viewBox="0 0 31.241 20">
    <path d="M28.443 0H2.207a3.923 3.923 0 0 0-.587.056 1.984 1.984 0 0 0-.559.184 1.877 1.877 0 0 0-.821.821 1.975 1.975 0 0 0-.184.559A3.9 3.9 0 0 0 0 2.208V17.791a3.9 3.9 0 0 0 .052.587 1.974 1.974 0 0 0 .184.559 1.877 1.877 0 0 0 .821.821 1.976 1.976 0 0 0 .558.184 3.953 3.953 0 0 0 .592.058h26.826a3.964 3.964 0 0 0 .588-.052 1.978 1.978 0 0 0 .558-.184 1.877 1.877 0 0 0 .821-.826 1.962 1.962 0 0 0 .184-.559 3.894 3.894 0 0 0 .052-.587V2.209a3.9 3.9 0 0 0-.052-.587 1.963 1.963 0 0 0-.184-.56 1.877 1.877 0 0 0-.821-.822 1.985 1.985 0 0 0-.558-.184A3.933 3.933 0 0 0 29.033 0h-.27z"/>
    <path d="M31.308 3.532H31.88a3.333 3.333 0 0 1 .487.041 1.316 1.316 0 0 1 .375.122 1.21 1.21 0 0 1 .529.53 1.3 1.3 0 0 1 .122.374 3.315 3.315 0 0 1 .041.487V20.631a3.31 3.31 0 0 1-.042.489 1.294 1.294 0 0 1-.122.373 1.21 1.21 0 0 1-.53.53 1.305 1.305 0 0 1-.372.122 3.39 3.39 0 0 1-.486.042H5.091a3.4 3.4 0 0 1-.488-.041 1.309 1.309 0 0 1-.375-.123A1.21 1.21 0 0 1 3.7 21.5a1.309 1.309 0 0 1-.122-.375 3.3 3.3 0 0 1-.042-.487V5.091a3.3 3.3 0 0 1 .042-.491 1.307 1.307 0 0 1 .122-.371 1.21 1.21 0 0 1 .529-.529 1.313 1.313 0 0 1 .371-.122 3.328 3.328 0 0 1 .488-.041h26.22" transform="translate(-2.865 -2.865)" style="fill:#fff"/>
    <g data-name="Group 8857">
        <g data-name="Group 8855">
            <path data-name="Path 4482" d="M8.528 6.729a1.744 1.744 0 0 0 .4-1.243 1.729 1.729 0 0 0-1.146.593 1.632 1.632 0 0 0-.411 1.195 1.443 1.443 0 0 0 1.156-.545"/>
            <path data-name="Path 4483" d="M8.925 7.358c-.638-.038-1.181.362-1.486.362s-.772-.343-1.277-.334a1.882 1.882 0 0 0-1.6.972 4.013 4.013 0 0 0 .486 3.9c.324.476.714 1 1.229.982.486-.019.676-.315 1.267-.315s.762.315 1.276.305c.534-.01.867-.477 1.191-.953a4.231 4.231 0 0 0 .533-1.1 1.731 1.731 0 0 1-1.038-1.573 1.765 1.765 0 0 1 .838-1.478 1.825 1.825 0 0 0-1.42-.772"/>
        </g>
        <g data-name="Group 8856">
            <path data-name="Path 4484" d="M14.483 6.029a2.243 2.243 0 0 1 2.354 2.349 2.268 2.268 0 0 1-2.388 2.359h-1.537v2.443h-1.11V6.03zm-1.571 3.776h1.274a1.423 1.423 0 1 0 0-2.839h-1.274z"/>
            <path data-name="Path 4485" d="M17.126 11.698c0-.912.7-1.472 1.938-1.541l1.422-.085v-.4c0-.58-.391-.927-1.045-.927a1 1 0 0 0-1.1.763h-1.007c.059-.942.862-1.635 2.151-1.635 1.264 0 2.071.669 2.071 1.715v3.593H20.53v-.859h-.025a1.863 1.863 0 0 1-1.645.946 1.58 1.58 0 0 1-1.734-1.57zm3.365-.471v-.411l-1.283.079c-.639.045-1 .327-1 .773s.377.753.951.753a1.249 1.249 0 0 0 1.327-1.194z"/>
            <path data-name="Path 4486" d="M22.524 15.097v-.867a1.981 1.981 0 0 0 .347.02.868.868 0 0 0 .927-.743c0-.01.094-.317.094-.322l-1.883-5.218h1.159l1.318 4.242h.02l1.318-4.242h1.13l-1.956 5.485c-.446 1.264-.961 1.67-2.041 1.67a4.14 4.14 0 0 1-.433-.025z"/>
        </g>
    </g>
</svg>
