<svg xmlns="http://www.w3.org/2000/svg" width="67.208" height="55.412" viewBox="0 0 67.208 55.412">
    <defs>
        <style>
            .cls-1{fill:#2dafc9}
        </style>
    </defs>
    <g id="Group_6550" transform="translate(0 0)">
        <path id="Path_4486" d="M648.688 258.045a1.9 1.9 0 0 1-.339-.03 1.973 1.973 0 0 1-1.611-2.273 23.74 23.74 0 0 0-35.718-24.394 1.97 1.97 0 1 1-2.041-3.371 27.669 27.669 0 0 1 42.047 23.677 28.2 28.2 0 0 1-.4 4.752 1.974 1.974 0 0 1-1.938 1.639z" class="cls-1" transform="translate(-589.709 -223.949)"/>
        <path id="Path_4487" d="M625.823 250.511c-.052-4.775-.844-10.961-2.507-15.215l6.14 5.082 7.971-.02c-3.988 2.227-8.527 6.497-11.604 10.153z" class="cls-1" transform="translate(-570.22 -209.483)"/>
        <path id="Path_4488" d="M630.277 267.288a27.737 27.737 0 0 1-27.7-27.706 28.086 28.086 0 0 1 .362-4.511 1.97 1.97 0 1 1 3.888.635 24.15 24.15 0 0 0-.307 3.876 23.792 23.792 0 0 0 23.761 23.766A23.468 23.468 0 0 0 642.384 260a1.97 1.97 0 1 1 2.034 3.374 27.4 27.4 0 0 1-14.141 3.914z" class="cls-1" transform="translate(-596.665 -211.876)"/>
        <path id="Path_4489" d="M611.48 230.359c-3.039 3.685-7.537 8-11.5 10.269l7.974-.1 6.19 5.021c-1.711-4.239-2.566-10.417-2.664-15.19z" class="cls-1" transform="translate(-599.976 -215.777)"/>
    </g>
</svg>
