<svg xmlns="http://www.w3.org/2000/svg" width="18.566" height="24.875" viewBox="0 0 18.566 24.875">
    <defs>
        <style>
            .cls-1{fill:#3ebbd2}
        </style>
    </defs>
    <g id="Group_6690" transform="translate(-167.086 -190.805)">
        <g id="Group_6687" transform="translate(173.44 197.159)">
            <g id="Group_6686" transform="translate(0)">
                <path id="Path_4548" d="M188.207 214.855a2.929 2.929 0 1 1 2.072-.857 2.921 2.921 0 0 1-2.072.857zm0-4.112a1.184 1.184 0 1 0 .837.346 1.183 1.183 0 0 0-.837-.346z" class="cls-1" transform="translate(-185.278 -208.997)"/>
            </g>
        </g>
        <g id="Group_6689" transform="translate(167.086 190.805)">
            <g id="Group_6688" transform="translate(0)">
                <path id="Path_4549" d="M176.369 192.551a7.545 7.545 0 0 1 7.537 7.537c0 2.59-1.466 5.849-4.239 9.425a41.91 41.91 0 0 1-3.33 3.775c-2.355-2.262-7.5-7.823-7.5-13.2a7.545 7.545 0 0 1 7.536-7.537m0-1.746a9.283 9.283 0 0 0-9.283 9.283c0 7.857 9.283 15.592 9.283 15.592s9.283-8.269 9.283-15.592a9.283 9.283 0 0 0-9.283-9.283z" class="cls-1" transform="translate(-167.086 -190.805)"/>
            </g>
        </g>
    </g>
</svg>
