<svg xmlns="http://www.w3.org/2000/svg" width="72.039" height="36.417" viewBox="0 0 72.039 36.417">
    <defs>
        <style>
            .cls-1{fill:#2dafc9}
        </style>
    </defs>
    <g id="Group_6560" transform="translate(-18.292 0)">
        <path id="Path_4497" d="M769.975 259.456h-44.654a2.68 2.68 0 0 1 0-5.36h44.654a9.093 9.093 0 0 0 0-18.186H751.73a2.68 2.68 0 1 1 0-5.36h18.245a14.453 14.453 0 0 1 0 28.905z" class="cls-1" transform="translate(-694.092 -230.551)"/>
        <path id="Path_4498" d="M718.134 247.792c6.085-2.259 13.64-6.113 18.322-10.194l-3.688 10.194 3.688 10.192c-4.682-4.084-12.237-7.935-18.322-10.192z" class="cls-1" transform="translate(-699.842 -221.566)"/>
    </g>
</svg>
