<svg xmlns="http://www.w3.org/2000/svg" width="41.4" height="61.957" viewBox="0 0 41.4 61.957">
    <defs>
        <style>
            .cls-1{fill:#2dafc9}
        </style>
    </defs>
    <g id="Group_6553" transform="translate(0 0)">
        <path id="Path_4493" d="M645.262 159.432h-37.827a1.793 1.793 0 0 1-1.777-1.977l4.47-42.486a1.788 1.788 0 0 1 1.777-1.6h28.887a1.788 1.788 0 0 1 1.777 1.6l4.47 42.486a1.793 1.793 0 0 1-1.777 1.977zm-35.841-3.581h33.855l-4.095-38.9h-25.665z" class="cls-1" transform="translate(-605.649 -97.474)"/>
        <path id="Path_4494" d="M612.608 125.854a1.794 1.794 0 0 1-1.79-1.79v-8.74a8.94 8.94 0 1 1 17.881 0v8.308a1.79 1.79 0 0 1-3.581 0v-8.308a5.36 5.36 0 1 0-10.719 0v8.74a1.794 1.794 0 0 1-1.791 1.79z" class="cls-1" transform="translate(-599.058 -106.381)"/>
        <path id="Path_4495" d="M615.751 136.869a1.792 1.792 0 0 1-1.79-1.79v-13.27a1.79 1.79 0 1 1 3.581 0v13.27a1.792 1.792 0 0 1-1.791 1.79z" class="cls-1" transform="translate(-595.051 -88.994)"/>
        <path id="Path_4496" d="M626.1 126.514h-13.27a1.789 1.789 0 0 1 0-3.578h13.27a1.789 1.789 0 1 1 0 3.578z" class="cls-1" transform="translate(-598.769 -85.275)"/>
    </g>
</svg>
