<svg xmlns="http://www.w3.org/2000/svg" id="Group_72" width="52.692" height="52.692" viewBox="0 0 52.692 52.692">
    <defs>
        <style>
            .cls-1{fill:#3ebbd2}
        </style>
    </defs>
    <g id="Group_70" transform="translate(12.055 9.843)">
        <g id="Group_65" transform="translate(4.464)">
            <path id="Path_119" d="M229.1 293.845a10.032 10.032 0 1 1 10.032-10.033 10.044 10.044 0 0 1-10.032 10.033zm0-16.942a6.91 6.91 0 1 0 6.909 6.909 6.918 6.918 0 0 0-6.909-6.912z" class="cls-1" transform="translate(-219.066 -273.78)"/>
        </g>
        <g id="Group_66" transform="translate(0 16.942)">
            <path id="Path_120" d="M213.479 316.966a1.561 1.561 0 0 1-1.561-1.561 14.512 14.512 0 0 1 14.5-14.5 1.561 1.561 0 0 1 0 3.122A11.386 11.386 0 0 0 215.04 315.4a1.561 1.561 0 0 1-1.561 1.566z" class="cls-1" transform="translate(-211.918 -300.909)"/>
        </g>
        <g id="Group_69" transform="translate(17.334 19.775)">
            <g id="Group_67" transform="translate(0 4.536)">
                <path id="Path_121" d="M250.309 315.833h-9.073a1.561 1.561 0 1 1 0-3.122h9.073a1.561 1.561 0 0 1 0 3.122z" class="cls-1" transform="translate(-239.675 -312.71)"/>
            </g>
            <g id="Group_68" transform="translate(4.536)">
                <path id="Path_122" d="M248.5 317.641a1.561 1.561 0 0 1-1.561-1.561v-9.072a1.561 1.561 0 1 1 3.123 0v9.072a1.561 1.561 0 0 1-1.562 1.561z" class="cls-1" transform="translate(-246.939 -305.446)"/>
            </g>
        </g>
    </g>
    <g id="Group_71">
        <path id="Path_123" d="M218.96 261.141a23.224 23.224 0 1 1-23.224 23.224 23.25 23.25 0 0 1 23.224-23.224m0-3.123a26.346 26.346 0 1 0 26.346 26.346 26.346 26.346 0 0 0-26.346-26.346z" class="cls-1" transform="translate(-192.614 -258.018)"/>
    </g>
</svg>
