<svg width="171" height="50" viewBox="0 0 171 50" fill="none" xmlns="http://www.w3.org/2000/svg">
<rect x="1.07482" y="0.371693" width="169.554" height="48.616" rx="10.7791" stroke="white" stroke-width="0.743386"/>
<path d="M63.4877 34.4525H57.954L56.6251 38.3764H54.2812L59.5227 23.8589H61.9578L67.1992 38.3764H64.8154L63.4877 34.4525ZM58.5271 32.6418H62.9135L60.7511 26.2735H60.6906L58.5271 32.6418Z" fill="white"/>
<path d="M78.5191 33.0847C78.5191 36.3738 76.7586 38.4871 74.1019 38.4871C73.429 38.5223 72.7597 38.3672 72.1707 38.0397C71.5817 37.7122 71.0969 37.2255 70.7717 36.6353H70.7214V41.8778H68.5488V27.7919H70.6518V29.5524H70.6917C71.0319 28.9649 71.5249 28.4807 72.1184 28.1512C72.7118 27.8217 73.3835 27.6593 74.062 27.6812C76.7483 27.6812 78.5191 29.8047 78.5191 33.0847ZM76.286 33.0847C76.286 30.9418 75.1785 29.5329 73.4889 29.5329C71.8289 29.5329 70.7123 30.9715 70.7123 33.0847C70.7123 35.2173 71.8289 36.6456 73.4889 36.6456C75.1785 36.6456 76.2859 35.247 76.2859 33.0847H76.286Z" fill="white"/>
<path d="M90.1691 33.0847C90.1691 36.3738 88.408 38.4871 85.7514 38.4871C85.0784 38.5223 84.4091 38.3672 83.8201 38.0397C83.2311 37.7122 82.7463 37.2255 82.4211 36.6353H82.3708V41.8778H80.1982V27.7919H82.3012V29.5524H82.3412C82.6813 28.9649 83.1743 28.4807 83.7678 28.1512C84.3612 27.8217 85.0329 27.6593 85.7114 27.6812C88.3978 27.6812 90.1691 29.8047 90.1691 33.0847ZM87.9354 33.0847C87.9354 30.9418 86.828 29.5329 85.1383 29.5329C83.4783 29.5329 82.3617 30.9715 82.3617 33.0847C82.3617 35.2173 83.4783 36.6456 85.1383 36.6456C86.828 36.6456 87.9354 35.247 87.9354 33.0847Z" fill="white"/>
<path d="M97.8671 34.3313C98.0281 35.771 99.4266 36.7162 101.338 36.7162C103.169 36.7162 104.486 35.7709 104.486 34.4729C104.486 33.346 103.692 32.6713 101.81 32.2089L99.929 31.7557C97.2632 31.1118 96.0256 29.8651 96.0256 27.842C96.0256 25.3372 98.2085 23.6167 101.307 23.6167C104.376 23.6167 106.479 25.3372 106.55 27.842H104.356C104.225 26.3932 103.027 25.5187 101.277 25.5187C99.5271 25.5187 98.3295 26.4035 98.3295 27.6913C98.3295 28.7177 99.0944 29.3216 100.966 29.784L102.565 30.1767C105.544 30.8811 106.78 32.0776 106.78 34.2011C106.78 36.9171 104.618 38.6182 101.177 38.6182C97.9572 38.6182 95.7835 36.9571 95.6431 34.3312L97.8671 34.3313Z" fill="white"/>
<path d="M111.472 25.2871V27.7919H113.484V29.5124H111.472V35.3475C111.472 36.254 111.875 36.6764 112.759 36.6764C112.998 36.6722 113.237 36.6555 113.474 36.6261V38.3364C113.076 38.4107 112.672 38.4444 112.267 38.4368C110.124 38.4368 109.289 37.632 109.289 35.5792V29.5124H107.75V27.7919H109.289V25.2871H111.472Z" fill="white"/>
<path d="M114.649 33.0846C114.649 29.7543 116.611 27.6616 119.669 27.6616C122.738 27.6616 124.69 29.7543 124.69 33.0846C124.69 36.4239 122.748 38.5075 119.669 38.5075C116.591 38.5075 114.649 36.4239 114.649 33.0846ZM122.476 33.0846C122.476 30.8001 121.43 29.4518 119.669 29.4518C117.909 29.4518 116.862 30.8103 116.862 33.0846C116.862 35.3782 117.909 36.7162 119.669 36.7162C121.43 36.7162 122.476 35.3782 122.476 33.0846H122.476Z" fill="white"/>
<path d="M126.481 27.7918H128.553V29.5933H128.603C128.743 29.0307 129.073 28.5334 129.537 28.1852C130 27.8369 130.57 27.6589 131.149 27.681C131.399 27.6802 131.649 27.7074 131.893 27.7621V29.7943C131.577 29.6977 131.248 29.6533 130.917 29.663C130.602 29.6502 130.287 29.7058 129.995 29.8261C129.703 29.9464 129.44 30.1285 129.225 30.3598C129.01 30.5912 128.848 30.8663 128.749 31.1664C128.65 31.4664 128.618 31.7843 128.653 32.0982V38.3762H126.481L126.481 27.7918Z" fill="white"/>
<path d="M141.91 35.2674C141.618 37.1889 139.747 38.5075 137.353 38.5075C134.274 38.5075 132.363 36.4445 132.363 33.1348C132.363 29.8148 134.284 27.6616 137.261 27.6616C140.19 27.6616 142.031 29.6732 142.031 32.8825V33.6269H134.556V33.7581C134.521 34.1477 134.57 34.5401 134.699 34.9093C134.828 35.2786 135.033 35.6162 135.303 35.8997C135.572 36.1833 135.899 36.4063 136.261 36.554C136.623 36.7016 137.012 36.7705 137.403 36.7562C137.916 36.8043 138.432 36.6854 138.872 36.4171C139.312 36.1489 139.655 35.7457 139.847 35.2674L141.91 35.2674ZM134.566 32.1084H139.858C139.877 31.7582 139.824 31.4077 139.702 31.0789C139.579 30.7502 139.39 30.4503 139.146 30.198C138.903 29.9458 138.609 29.7466 138.285 29.6131C137.961 29.4796 137.612 29.4145 137.261 29.4221C136.908 29.42 136.557 29.4879 136.23 29.6221C135.902 29.7562 135.605 29.9539 135.354 30.2036C135.103 30.4534 134.905 30.7503 134.769 31.0772C134.634 31.4042 134.565 31.7546 134.566 32.1084V32.1084Z" fill="white"/>
<path d="M57.923 12.0654H56.5212C56.4503 12.0654 56.4031 12.1126 56.4031 12.1835V17.4597C56.4031 17.5306 56.4503 17.5779 56.5212 17.5779H57.923C59.8208 17.5779 60.8052 16.3651 60.8052 14.8216C60.8052 13.2702 59.8208 12.0654 57.923 12.0654ZM57.923 16.8061H57.2615V12.8371H57.923C59.2696 12.8371 59.939 13.5774 59.939 14.8216C59.939 16.058 59.2696 16.8061 57.923 16.8061Z" fill="white"/>
<path d="M63.5354 17.6566C64.6379 17.6566 65.512 16.7667 65.512 15.6485C65.512 14.5145 64.6379 13.6325 63.5354 13.6325C62.425 13.6325 61.5587 14.5145 61.5587 15.6485C61.5587 16.7667 62.425 17.6566 63.5354 17.6566ZM63.5354 16.8927C62.8739 16.8927 62.3541 16.3651 62.3541 15.6485C62.3541 14.9161 62.8739 14.3885 63.5354 14.3885C64.1969 14.3885 64.7166 14.9161 64.7166 15.6485C64.7166 16.3651 64.1969 16.8927 63.5354 16.8927Z" fill="white"/>
<path d="M72.3132 13.7191H71.7304C71.6674 13.7191 71.6123 13.7506 71.5887 13.8136L70.5885 16.6329L69.549 13.8136C69.5333 13.7742 69.5097 13.7427 69.4703 13.7349C69.4545 13.727 69.4309 13.7191 69.4073 13.7191H68.8718C68.8482 13.7191 68.8245 13.727 68.8088 13.7349C68.7694 13.7427 68.7458 13.7742 68.73 13.8136L67.6984 16.6329L66.6904 13.8136C66.6668 13.7506 66.6117 13.7191 66.5487 13.7191H65.9738C65.8872 13.7191 65.8478 13.7664 65.8793 13.853L67.2338 17.4834C67.2574 17.5464 67.3125 17.5779 67.3755 17.5779H67.974C68.037 17.5779 68.0922 17.5464 68.1158 17.4834L69.1395 14.798L70.1712 17.4834C70.1948 17.5464 70.2499 17.5779 70.3129 17.5779H70.9035C70.9665 17.5779 71.0217 17.5464 71.0453 17.4834L72.4077 13.853C72.4392 13.7664 72.3998 13.7191 72.3132 13.7191Z" fill="white"/>
<path d="M75.2994 13.6325C74.7245 13.6325 74.3071 13.9475 74.0394 14.357L74.0079 13.8372C74 13.7664 73.9606 13.7191 73.8898 13.7191H73.3306C73.2598 13.7191 73.2125 13.7664 73.2125 13.8372V17.4597C73.2125 17.5306 73.2598 17.5779 73.3306 17.5779H73.9213C73.9921 17.5779 74.0394 17.5306 74.0394 17.4597V15.2154C74.0394 15.05 74.378 14.3885 75.0474 14.3885C75.5041 14.3885 75.8428 14.672 75.8428 15.3335V17.4597C75.8428 17.5306 75.89 17.5779 75.9609 17.5779H76.5515C76.6224 17.5779 76.6696 17.5306 76.6696 17.4597V15.2154C76.6696 14.1837 76.0948 13.6325 75.2994 13.6325Z" fill="white"/>
<path d="M77.6653 11.9472V17.4597C77.6653 17.5306 77.7125 17.5779 77.7834 17.5779H78.374C78.4449 17.5779 78.4922 17.5306 78.4922 17.4597V11.9472C78.4922 11.8764 78.4449 11.8291 78.374 11.8291H77.7834C77.7125 11.8291 77.6653 11.8764 77.6653 11.9472Z" fill="white"/>
<path d="M81.3387 17.6566C82.4412 17.6566 83.3153 16.7667 83.3153 15.6485C83.3153 14.5145 82.4412 13.6325 81.3387 13.6325C80.2283 13.6325 79.3621 14.5145 79.3621 15.6485C79.3621 16.7667 80.2283 17.6566 81.3387 17.6566ZM81.3387 16.8927C80.6772 16.8927 80.1575 16.3651 80.1575 15.6485C80.1575 14.9161 80.6772 14.3885 81.3387 14.3885C82.0002 14.3885 82.52 14.9161 82.52 15.6485C82.52 16.3651 82.0002 16.8927 81.3387 16.8927Z" fill="white"/>
<path d="M87.834 13.7191H87.3221C87.2512 13.7191 87.2119 13.7664 87.204 13.8372L87.1725 14.2861C86.889 13.9002 86.4637 13.6404 85.9046 13.6404C84.81 13.6404 84.0225 14.5302 84.0225 15.6564C84.0225 16.751 84.81 17.633 85.9046 17.633C86.4637 17.633 86.8811 17.3889 87.1646 17.0187L87.204 17.4597C87.2119 17.5306 87.2512 17.5779 87.3221 17.5779H87.834C87.9049 17.5779 87.9521 17.5306 87.9521 17.4597V13.8372C87.9521 13.7664 87.9049 13.7191 87.834 13.7191ZM85.9834 16.877C85.314 16.877 84.8179 16.3494 84.8179 15.6485C84.8179 14.924 85.314 14.3885 85.9834 14.3885C86.6685 14.3885 87.1489 14.9555 87.1489 15.6485C87.1489 16.3415 86.6685 16.877 85.9834 16.877Z" fill="white"/>
<path d="M92.6405 11.8291H92.0499C91.979 11.8291 91.9318 11.8764 91.9318 11.9472V14.231C91.6483 13.8766 91.2388 13.6404 90.7111 13.6404C89.6165 13.6404 88.829 14.5302 88.829 15.6564C88.829 16.751 89.6165 17.633 90.7111 17.633C91.2703 17.633 91.6876 17.3889 91.9711 17.0187L92.0105 17.4597C92.0184 17.5306 92.0578 17.5779 92.1286 17.5779H92.6405C92.7114 17.5779 92.7586 17.5306 92.7586 17.4597V11.9472C92.7586 11.8764 92.7114 11.8291 92.6405 11.8291ZM90.7899 16.877C90.1205 16.877 89.6244 16.3494 89.6244 15.6485C89.6244 14.924 90.1205 14.3885 90.7899 14.3885C91.475 14.3885 91.9554 14.9555 91.9554 15.6485C91.9554 16.3415 91.475 16.877 90.7899 16.877Z" fill="white"/>
<path d="M97.8193 17.6566C98.9218 17.6566 99.7959 16.7667 99.7959 15.6485C99.7959 14.5145 98.9218 13.6325 97.8193 13.6325C96.7089 13.6325 95.8427 14.5145 95.8427 15.6485C95.8427 16.7667 96.7089 17.6566 97.8193 17.6566ZM97.8193 16.8927C97.1578 16.8927 96.6381 16.3651 96.6381 15.6485C96.6381 14.9161 97.1578 14.3885 97.8193 14.3885C98.4808 14.3885 99.0006 14.9161 99.0006 15.6485C99.0006 16.3651 98.4808 16.8927 97.8193 16.8927Z" fill="white"/>
<path d="M102.747 13.6325C102.172 13.6325 101.754 13.9475 101.487 14.357L101.455 13.8372C101.447 13.7664 101.408 13.7191 101.337 13.7191H100.778C100.707 13.7191 100.66 13.7664 100.66 13.8372V17.4597C100.66 17.5306 100.707 17.5779 100.778 17.5779H101.368C101.439 17.5779 101.487 17.5306 101.487 17.4597V15.2154C101.487 15.05 101.825 14.3885 102.495 14.3885C102.951 14.3885 103.29 14.672 103.29 15.3335V17.4597C103.29 17.5306 103.337 17.5779 103.408 17.5779H103.999C104.07 17.5779 104.117 17.5306 104.117 17.4597V15.2154C104.117 14.1837 103.542 13.6325 102.747 13.6325Z" fill="white"/>
<path d="M109.328 13.7191H108.698V12.656C108.698 12.5851 108.65 12.5379 108.58 12.5379H107.989C107.918 12.5379 107.871 12.5851 107.871 12.656V13.7191H107.241C107.17 13.7191 107.123 13.7664 107.123 13.8372V14.2861C107.123 14.357 107.17 14.4042 107.241 14.4042H107.871V17.4597C107.871 17.5306 107.918 17.5779 107.989 17.5779H108.58C108.65 17.5779 108.698 17.5306 108.698 17.4597V14.4042H109.328C109.399 14.4042 109.446 14.357 109.446 14.2861V13.8372C109.446 13.7664 109.399 13.7191 109.328 13.7191Z" fill="white"/>
<path d="M112.321 13.6325C111.746 13.6325 111.329 13.9475 111.061 14.357V11.9472C111.061 11.8764 111.014 11.8291 110.943 11.8291H110.352C110.282 11.8291 110.234 11.8764 110.234 11.9472V17.4597C110.234 17.5306 110.282 17.5779 110.352 17.5779H110.943C111.014 17.5779 111.061 17.5306 111.061 17.4597V15.2154C111.061 15.05 111.4 14.3885 112.069 14.3885C112.526 14.3885 112.865 14.672 112.865 15.3335V17.4597C112.865 17.5306 112.912 17.5779 112.983 17.5779H113.573C113.644 17.5779 113.691 17.5306 113.691 17.4597V15.2154C113.691 14.1837 113.117 13.6325 112.321 13.6325Z" fill="white"/>
<path d="M116.483 13.6404C115.372 13.6404 114.569 14.5224 114.569 15.6327C114.569 16.7431 115.38 17.633 116.561 17.633C117.128 17.633 117.632 17.4125 117.995 17.0424C118.058 16.9794 118.058 16.9242 117.995 16.8612L117.743 16.6171C117.687 16.562 117.64 16.5777 117.577 16.625C117.317 16.8219 117.034 16.94 116.64 16.94C115.947 16.94 115.49 16.5462 115.388 15.9477H118.058C118.27 15.9477 118.31 15.806 118.31 15.5146C118.31 14.5224 117.601 13.6404 116.483 13.6404ZM116.49 14.357C117.081 14.357 117.514 14.7586 117.577 15.3729H115.38C115.459 14.7586 115.9 14.357 116.49 14.357Z" fill="white"/>
<path d="M38.2458 25.3765C38.2635 23.9731 38.6301 22.5971 39.3113 21.3765C39.9925 20.1559 40.9662 19.1304 42.1419 18.3953C41.395 17.3106 40.4097 16.4179 39.2643 15.7881C38.1188 15.1583 36.8448 14.8089 35.5433 14.7675C32.767 14.4711 30.0755 16.457 28.6607 16.457C27.2186 16.457 25.0403 14.7969 22.6947 14.846C21.1775 14.8958 19.6989 15.3445 18.4029 16.1483C17.1069 16.9521 16.0377 18.0836 15.2996 19.4325C12.1022 25.0625 14.4872 33.3366 17.5501 37.8875C19.0825 40.1159 20.8735 42.6051 23.217 42.5168C25.5103 42.4201 26.3667 41.0297 29.1349 41.0297C31.8773 41.0297 32.6809 42.5168 35.0719 42.4607C37.5327 42.4201 39.083 40.2224 40.5618 37.9729C41.6628 36.385 42.5101 34.6302 43.0722 32.7732C41.6425 32.1583 40.4225 31.129 39.5643 29.8136C38.706 28.4983 38.2474 26.9551 38.2458 25.3765Z" fill="white"/>
<path d="M33.7296 11.7748C35.0713 10.1368 35.7323 8.03142 35.5723 5.90576C33.5224 6.12471 31.629 7.12102 30.2691 8.69619C29.6043 9.4657 29.0951 10.3609 28.7706 11.3307C28.4462 12.3005 28.3128 13.3258 28.3782 14.348C29.4035 14.3587 30.4178 14.1327 31.3448 13.687C32.2717 13.2413 33.0871 12.5875 33.7296 11.7748Z" fill="white"/>
</svg>
