<svg width="166" height="54" viewBox="0 0 166 54" fill="none" xmlns="http://www.w3.org/2000/svg">
<rect width="166" height="54" rx="7" fill="white"/>
<path d="M62.3634 37.6124H56.1343L54.6384 42.0294H52L57.9001 25.6875H60.6413L66.5414 42.0294H63.858L62.3634 37.6124ZM56.7794 35.5741H61.717L59.2829 28.4056H59.2148L56.7794 35.5741Z" fill="#3EBBD2"/>
<path d="M79.2837 36.0728C79.2837 39.7753 77.302 42.1541 74.3115 42.1541C73.554 42.1937 72.8006 42.0192 72.1376 41.6506C71.4746 41.2819 70.9288 40.734 70.5628 40.0696H70.5062V45.9709H68.0605V30.1149H70.4278V32.0966H70.4728C70.8556 31.4353 71.4106 30.8903 72.0787 30.5194C72.7467 30.1485 73.5028 29.9656 74.2665 29.9902C77.2905 29.9902 79.2837 32.3806 79.2837 36.0728ZM76.77 36.0728C76.77 33.6606 75.5234 32.0747 73.6214 32.0747C71.7528 32.0747 70.4959 33.694 70.4959 36.0728C70.4959 38.4735 71.7528 40.0812 73.6214 40.0812C75.5234 40.0812 76.7699 38.5069 76.7699 36.0728H76.77Z" fill="#3EBBD2"/>
<path d="M92.3976 36.0728C92.3976 39.7753 90.4153 42.1541 87.4248 42.1541C86.6672 42.1937 85.9138 42.0192 85.2509 41.6506C84.5879 41.2819 84.0421 40.734 83.676 40.0696H83.6195V45.9709H81.1738V30.1149H83.5411V32.0966H83.586C83.9689 31.4353 84.5239 30.8903 85.192 30.5194C85.86 30.1485 86.6161 29.9656 87.3798 29.9902C90.4038 29.9902 92.3976 32.3806 92.3976 36.0728ZM89.8833 36.0728C89.8833 33.6606 88.6367 32.0747 86.7347 32.0747C84.8661 32.0747 83.6092 33.694 83.6092 36.0728C83.6092 38.4735 84.8661 40.0812 86.7347 40.0812C88.6367 40.0812 89.8833 38.5069 89.8833 36.0728V36.0728Z" fill="#3EBBD2"/>
<path d="M101.063 37.4762C101.244 39.0967 102.819 40.1608 104.97 40.1608C107.031 40.1608 108.514 39.0967 108.514 37.6355C108.514 36.367 107.62 35.6075 105.502 35.087L103.384 34.5768C100.383 33.852 98.9902 32.4486 98.9902 30.1713C98.9902 27.3517 101.447 25.415 104.935 25.415C108.39 25.415 110.757 27.3517 110.837 30.1713H108.368C108.22 28.5405 106.872 27.5561 104.902 27.5561C102.932 27.5561 101.584 28.5521 101.584 30.0017C101.584 31.1571 102.445 31.8369 104.551 32.3573L106.351 32.7994C109.704 33.5924 111.096 34.9392 111.096 37.3295C111.096 40.3869 108.662 42.3017 104.789 42.3017C101.165 42.3017 98.7176 40.4319 98.5596 37.476L101.063 37.4762Z" fill="#3EBBD2"/>
<path d="M116.377 27.2952V30.1148H118.643V32.0515H116.377V38.6198C116.377 39.6402 116.831 40.1157 117.827 40.1157C118.096 40.111 118.364 40.0921 118.631 40.0591V41.9843C118.183 42.068 117.728 42.1058 117.273 42.0974C114.861 42.0974 113.92 41.1913 113.92 38.8807V32.0515H112.188V30.1148H113.92V27.2952H116.377Z" fill="#3EBBD2"/>
<path d="M119.954 36.0727C119.954 32.3239 122.162 29.9683 125.605 29.9683C129.059 29.9683 131.257 32.3239 131.257 36.0727C131.257 39.8317 129.071 42.1771 125.605 42.1771C122.14 42.1771 119.954 39.8317 119.954 36.0727ZM128.765 36.0727C128.765 33.5011 127.587 31.9834 125.605 31.9834C123.623 31.9834 122.445 33.5127 122.445 36.0727C122.445 38.6545 123.623 40.1607 125.605 40.1607C127.587 40.1607 128.765 38.6545 128.765 36.0727H128.765Z" fill="#3EBBD2"/>
<path d="M133.272 30.1149H135.605V32.1428H135.662C135.819 31.5095 136.19 30.9497 136.712 30.5577C137.234 30.1657 137.875 29.9653 138.527 29.9902C138.809 29.9892 139.09 30.0199 139.365 30.0815V32.369C139.01 32.2603 138.638 32.2104 138.267 32.2212C137.911 32.2068 137.557 32.2695 137.228 32.4049C136.899 32.5403 136.604 32.7452 136.362 33.0056C136.12 33.2661 135.937 33.5758 135.826 33.9136C135.715 34.2513 135.678 34.6091 135.718 34.9624V42.0294H133.272L133.272 30.1149Z" fill="#3EBBD2"/>
<path d="M150.641 38.5299C150.312 40.6928 148.206 42.1771 145.511 42.1771C142.045 42.1771 139.894 39.8548 139.894 36.1292C139.894 32.392 142.056 29.9683 145.408 29.9683C148.704 29.9683 150.777 32.2327 150.777 35.8452V36.6831H142.362V36.8309C142.323 37.2694 142.378 37.7111 142.523 38.1268C142.668 38.5424 142.9 38.9224 143.203 39.2416C143.506 39.5608 143.874 39.8119 144.282 39.9781C144.689 40.1443 145.128 40.2219 145.567 40.2057C146.145 40.2598 146.725 40.126 147.221 39.824C147.717 39.5221 148.102 39.0682 148.319 38.5299L150.641 38.5299ZM142.374 34.9739H148.331C148.352 34.5796 148.293 34.1851 148.155 33.815C148.017 33.4449 147.804 33.1073 147.53 32.8234C147.256 32.5395 146.925 32.3153 146.56 32.165C146.195 32.0147 145.803 31.9415 145.408 31.9499C145.01 31.9476 144.615 32.0241 144.247 32.1751C143.878 32.3261 143.543 32.5486 143.261 32.8297C142.979 33.1109 142.755 33.4451 142.603 33.8131C142.451 34.1811 142.373 34.5756 142.374 34.9739V34.9739Z" fill="#3EBBD2"/>
<path d="M56.473 13.387C56.9857 13.3502 57.5002 13.4276 57.9794 13.6138C58.4586 13.7999 58.8905 14.09 59.2439 14.4633C59.5974 14.8365 59.8636 15.2836 60.0233 15.7721C60.1831 16.2607 60.2324 16.7787 60.1678 17.2886C60.1678 19.7972 58.812 21.2392 56.473 21.2392H53.6367V13.387H56.473ZM54.8563 20.1287H56.3368C56.7032 20.1506 57.0698 20.0906 57.41 19.9529C57.7503 19.8152 58.0555 19.6034 58.3036 19.3329C58.5516 19.0624 58.7363 18.74 58.844 18.3891C58.9517 18.0382 58.9798 17.6678 58.9263 17.3046C58.976 16.943 58.945 16.5748 58.8356 16.2265C58.7262 15.8782 58.5411 15.5584 58.2937 15.2901C58.0462 15.0217 57.7424 14.8114 57.4041 14.6742C57.0658 14.537 56.7013 14.4764 56.3368 14.4966H54.8563V20.1287Z" fill="#3EBBD2"/>
<path d="M61.5454 18.2736C61.5082 17.8842 61.5527 17.4913 61.6762 17.1201C61.7997 16.7489 61.9994 16.4076 62.2626 16.1181C62.5257 15.8286 62.8464 15.5973 63.2041 15.439C63.5619 15.2807 63.9488 15.199 64.34 15.199C64.7312 15.199 65.1181 15.2807 65.4758 15.439C65.8336 15.5973 66.1543 15.8286 66.4174 16.1181C66.6805 16.4076 66.8802 16.7489 67.0037 17.1201C67.1272 17.4913 67.1718 17.8842 67.1345 18.2736C67.1725 18.6634 67.1285 19.0569 67.0053 19.4287C66.8821 19.8005 66.6825 20.1424 66.4194 20.4325C66.1562 20.7225 65.8352 20.9543 65.4771 21.1129C65.119 21.2716 64.7316 21.3535 64.34 21.3535C63.9483 21.3535 63.561 21.2716 63.2029 21.1129C62.8448 20.9543 62.5238 20.7225 62.2606 20.4325C61.9974 20.1424 61.7978 19.8005 61.6747 19.4287C61.5515 19.0569 61.5075 18.6634 61.5454 18.2736V18.2736ZM65.9316 18.2736C65.9316 16.9891 65.3546 16.238 64.3419 16.238C63.3254 16.238 62.7535 16.9891 62.7535 18.2736C62.7535 19.5684 63.3254 20.3138 64.3419 20.3138C65.3546 20.3138 65.9316 19.5632 65.9316 18.2736H65.9316Z" fill="#3EBBD2"/>
<path d="M74.5636 21.239H73.3504L72.1257 16.8747H72.0331L70.8135 21.239H69.6119L67.9785 15.3132H69.1647L70.2262 19.835H70.3136L71.5319 15.3132H72.6539L73.8722 19.835H73.9647L75.0211 15.3132H76.1906L74.5636 21.239Z" fill="#3EBBD2"/>
<path d="M77.5645 15.3133H78.6902V16.2547H78.7776C78.9259 15.9166 79.1759 15.6332 79.4929 15.4439C79.8099 15.2547 80.178 15.169 80.546 15.1989C80.8343 15.1773 81.1238 15.2207 81.3931 15.3261C81.6623 15.4316 81.9044 15.5962 82.1014 15.8079C82.2984 16.0195 82.4452 16.2728 82.531 16.5489C82.6168 16.825 82.6394 17.1169 82.5971 17.403V21.2391H81.4276V17.6966C81.4276 16.7443 81.0138 16.2708 80.1489 16.2708C79.9531 16.2616 79.7577 16.295 79.576 16.3684C79.3943 16.4419 79.2307 16.5538 79.0963 16.6964C78.9619 16.8391 78.8599 17.0091 78.7974 17.1948C78.7348 17.3805 78.7132 17.5776 78.7339 17.7724V21.2391H77.5645L77.5645 15.3133Z" fill="#3EBBD2"/>
<path d="M84.4609 13H85.6304V21.239H84.4609V13Z" fill="#3EBBD2"/>
<path d="M87.2564 18.2736C87.2191 17.8841 87.2637 17.4912 87.3872 17.12C87.5107 16.7488 87.7105 16.4075 87.9736 16.118C88.2368 15.8285 88.5575 15.5972 88.9153 15.4389C89.2731 15.2806 89.66 15.1989 90.0512 15.1989C90.4424 15.1989 90.8293 15.2806 91.1871 15.4389C91.5449 15.5972 91.8656 15.8285 92.1288 16.118C92.3919 16.4075 92.5917 16.7488 92.7152 17.12C92.8387 17.4912 92.8833 17.8841 92.8461 18.2736C92.884 18.6634 92.8399 19.0569 92.7167 19.4287C92.5935 19.8005 92.3939 20.1424 92.1307 20.4325C91.8675 20.7225 91.5465 20.9543 91.1884 21.1129C90.8302 21.2715 90.4429 21.3535 90.0512 21.3535C89.6595 21.3535 89.2722 21.2715 88.9141 21.1129C88.5559 20.9543 88.235 20.7225 87.9717 20.4325C87.7085 20.1424 87.5089 19.8005 87.3857 19.4287C87.2625 19.0569 87.2184 18.6634 87.2564 18.2736V18.2736ZM91.6425 18.2736C91.6425 16.9891 91.0655 16.2379 90.0528 16.2379C89.0363 16.2379 88.4644 16.9891 88.4644 18.2736C88.4644 19.5684 89.0363 20.3138 90.0528 20.3138C91.0655 20.3138 91.6425 19.5632 91.6425 18.2736H91.6425Z" fill="#3EBBD2"/>
<path d="M94.0771 19.5633C94.0771 18.4966 94.8714 17.8817 96.2812 17.7943L97.8863 17.7018V17.1903C97.8863 16.5644 97.4725 16.211 96.6731 16.211C96.0203 16.211 95.5679 16.4507 95.4381 16.8697H94.3059C94.4254 15.8518 95.3829 15.199 96.7271 15.199C98.2127 15.199 99.0506 15.9386 99.0506 17.1903V21.2391H97.9249V20.4064H97.8323C97.6445 20.7051 97.3808 20.9486 97.0681 21.1121C96.7554 21.2755 96.4049 21.3531 96.0524 21.3368C95.8036 21.3626 95.5522 21.3361 95.3143 21.2589C95.0765 21.1816 94.8574 21.0554 94.6713 20.8883C94.4852 20.7212 94.3362 20.517 94.2338 20.2887C94.1315 20.0605 94.0781 19.8134 94.0771 19.5633V19.5633ZM97.8863 19.057V18.5615L96.4392 18.6541C95.6232 18.7087 95.253 18.9863 95.253 19.5087C95.253 20.042 95.7157 20.3524 96.3519 20.3524C96.5383 20.3712 96.7266 20.3524 96.9056 20.297C97.0845 20.2416 97.2506 20.1508 97.3937 20.0299C97.5369 19.9091 97.6543 19.7607 97.7389 19.5935C97.8235 19.4263 97.8736 19.2439 97.8863 19.057V19.057Z" fill="#3EBBD2"/>
<path d="M100.587 18.2736C100.587 16.4011 101.549 15.215 103.047 15.215C103.417 15.1979 103.785 15.2866 104.106 15.4707C104.428 15.6548 104.691 15.9267 104.864 16.2546H104.951V13H106.121V21.239H105V20.3028H104.908C104.721 20.6285 104.449 20.897 104.121 21.0792C103.793 21.2615 103.422 21.3505 103.047 21.3367C101.539 21.3368 100.587 20.1505 100.587 18.2736ZM101.795 18.2736C101.795 19.5305 102.387 20.2868 103.378 20.2868C104.364 20.2868 104.973 19.5196 104.973 18.2787C104.973 17.0437 104.358 16.2656 103.378 16.2656C102.394 16.2656 101.795 17.027 101.795 18.2736H101.795Z" fill="#3EBBD2"/>
<path d="M110.96 18.2736C110.922 17.8842 110.967 17.4913 111.09 17.1201C111.214 16.7489 111.413 16.4076 111.677 16.1181C111.94 15.8286 112.26 15.5973 112.618 15.439C112.976 15.2807 113.363 15.199 113.754 15.199C114.145 15.199 114.532 15.2807 114.89 15.439C115.248 15.5973 115.568 15.8286 115.831 16.1181C116.095 16.4076 116.294 16.7489 116.418 17.1201C116.541 17.4913 116.586 17.8842 116.549 18.2736C116.587 18.6634 116.543 19.0569 116.419 19.4287C116.296 19.8005 116.097 20.1424 115.833 20.4325C115.57 20.7225 115.249 20.9543 114.891 21.1129C114.533 21.2716 114.146 21.3535 113.754 21.3535C113.362 21.3535 112.975 21.2716 112.617 21.1129C112.259 20.9543 111.938 20.7225 111.675 20.4325C111.411 20.1424 111.212 19.8005 111.089 19.4287C110.966 19.0569 110.922 18.6634 110.96 18.2736V18.2736ZM115.346 18.2736C115.346 16.9891 114.769 16.238 113.756 16.238C112.739 16.238 112.168 16.9891 112.168 18.2736C112.168 19.5684 112.739 20.3138 113.756 20.3138C114.769 20.3138 115.346 19.5632 115.346 18.2736Z" fill="#3EBBD2"/>
<path d="M118.118 15.3133H119.244V16.2547H119.331C119.48 15.9166 119.73 15.6332 120.047 15.4439C120.364 15.2547 120.732 15.169 121.1 15.1989C121.388 15.1773 121.678 15.2207 121.947 15.3261C122.216 15.4316 122.458 15.5962 122.655 15.8079C122.852 16.0195 122.999 16.2728 123.085 16.5489C123.171 16.825 123.193 17.1169 123.151 17.403V21.2391H121.981V17.6966C121.981 16.7443 121.568 16.2708 120.703 16.2708C120.507 16.2616 120.311 16.295 120.13 16.3684C119.948 16.4419 119.784 16.5538 119.65 16.6964C119.516 16.8391 119.414 17.0091 119.351 17.1948C119.289 17.3805 119.267 17.5776 119.288 17.7724V21.2391H118.118V15.3133Z" fill="#3EBBD2"/>
<path d="M129.759 13.8379V15.3402H131.043V16.3253H129.759V19.3724C129.759 19.9931 130.015 20.2649 130.597 20.2649C130.746 20.2644 130.895 20.2554 131.043 20.2379V21.212C130.833 21.2496 130.62 21.2696 130.407 21.2718C129.106 21.2718 128.588 20.8143 128.588 19.6718V16.3252H127.647V15.3402H128.588V13.8379H129.759Z" fill="#3EBBD2"/>
<path d="M132.64 13H133.799V16.2655H133.891C134.047 15.9243 134.304 15.6393 134.627 15.4493C134.95 15.2593 135.324 15.1737 135.698 15.204C135.985 15.1884 136.272 15.2363 136.538 15.3443C136.804 15.4522 137.043 15.6176 137.238 15.8286C137.433 16.0396 137.579 16.291 137.666 16.5649C137.752 16.8388 137.777 17.1285 137.739 17.4132V21.239H136.568V17.7017C136.568 16.7552 136.128 16.2758 135.301 16.2758C135.1 16.2593 134.898 16.287 134.709 16.3568C134.52 16.4266 134.348 16.5369 134.206 16.68C134.064 16.8231 133.955 16.9955 133.886 17.1852C133.818 17.3749 133.791 17.5773 133.809 17.7781V21.239H132.64L132.64 13Z" fill="#3EBBD2"/>
<path d="M144.559 19.6391C144.4 20.1807 144.056 20.6492 143.586 20.9626C143.117 21.276 142.552 21.4143 141.991 21.3535C141.601 21.3638 141.213 21.289 140.854 21.1343C140.496 20.9797 140.175 20.7488 139.914 20.4578C139.654 20.1668 139.46 19.8226 139.346 19.4491C139.232 19.0756 139.2 18.6817 139.254 18.2949C139.202 17.9068 139.234 17.5121 139.348 17.1375C139.461 16.7628 139.654 16.417 139.913 16.1235C140.173 15.8299 140.492 15.5954 140.849 15.4359C141.207 15.2764 141.594 15.1956 141.986 15.199C143.635 15.199 144.63 16.3254 144.63 18.1862V18.5943H140.445V18.6598C140.427 18.8773 140.454 19.0962 140.525 19.3025C140.597 19.5088 140.71 19.6979 140.859 19.8577C141.007 20.0175 141.188 20.1446 141.388 20.2306C141.589 20.3167 141.805 20.3599 142.023 20.3575C142.303 20.391 142.586 20.3407 142.837 20.2128C143.088 20.0848 143.296 19.8851 143.433 19.6391L144.559 19.6391ZM140.445 17.7294H143.438C143.453 17.5305 143.426 17.3307 143.359 17.1429C143.292 16.9551 143.186 16.7834 143.049 16.6388C142.911 16.4943 142.745 16.38 142.561 16.3035C142.377 16.2269 142.179 16.1897 141.98 16.1943C141.777 16.1918 141.577 16.2297 141.389 16.306C141.202 16.3822 141.032 16.4952 140.889 16.6383C140.746 16.7814 140.633 16.9516 140.557 17.139C140.48 17.3264 140.442 17.5271 140.445 17.7294H140.445Z" fill="#3EBBD2"/>
<path d="M36.7272 26.2719C36.7466 24.7387 37.1471 23.2354 37.8913 21.9019C38.6355 20.5685 39.6993 19.4481 40.9837 18.645C40.1677 17.4599 39.0913 16.4847 37.8399 15.7967C36.5885 15.1087 35.1966 14.7269 33.7748 14.6816C30.7417 14.3578 27.8012 16.5274 26.2556 16.5274C24.6801 16.5274 22.3004 14.7138 19.7379 14.7674C18.0803 14.8218 16.4649 15.312 15.0491 16.1902C13.6332 17.0683 12.4652 18.3045 11.6588 19.7782C8.16563 25.9288 10.7712 34.9682 14.1174 39.94C15.7916 42.3745 17.7482 45.0939 20.3085 44.9975C22.8138 44.8918 23.7495 43.3728 26.7736 43.3728C29.7697 43.3728 30.6476 44.9975 33.2598 44.9362C35.9482 44.8918 37.6419 42.4908 39.2574 40.0333C40.4603 38.2986 41.3859 36.3814 42 34.3527C40.4381 33.6809 39.1053 32.5564 38.1676 31.1194C37.23 29.6824 36.729 27.9965 36.7272 26.2719Z" fill="#3EBBD2"/>
<path d="M31.7937 11.4119C33.2595 9.62238 33.9816 7.32226 33.8068 5C31.5673 5.2392 29.4988 6.32766 28.0132 8.04851C27.2868 8.88919 26.7305 9.86722 26.376 10.9267C26.0216 11.9861 25.8759 13.1063 25.9474 14.223C27.0675 14.2347 28.1756 13.9878 29.1883 13.5009C30.2009 13.014 31.0918 12.2997 31.7937 11.4119V11.4119Z" fill="#3EBBD2"/>
</svg>
