<svg width="168" height="49" viewBox="0 0 168 49" fill="none" xmlns="http://www.w3.org/2000/svg">
<rect x="0.11377" width="167.856" height="48.652" rx="7" fill="#3EBBD2"/>
<path d="M61.9983 33.9593H56.5439L55.2341 37.827H52.9238L58.0901 23.5176H60.4904L65.6567 37.827H63.307L61.9983 33.9593ZM57.1089 32.1746H61.4323L59.301 25.8976H59.2413L57.1089 32.1746Z" fill="white"/>
<path d="M76.8142 32.6112C76.8142 35.8532 75.0789 37.9362 72.4603 37.9362C71.797 37.9709 71.1373 37.8181 70.5568 37.4953C69.9763 37.1725 69.4984 36.6927 69.1778 36.1109H69.1283V41.2783H66.9868V27.3943H69.0596V29.1295H69.099C69.4343 28.5505 69.9203 28.0732 70.5052 27.7485C71.0902 27.4237 71.7522 27.2636 72.4209 27.2851C75.0688 27.2851 76.8142 29.3782 76.8142 32.6112ZM74.6131 32.6112C74.6131 30.499 73.5215 29.1104 71.8561 29.1104C70.2199 29.1104 69.1193 30.5283 69.1193 32.6112C69.1193 34.7133 70.2199 36.1211 71.8561 36.1211C73.5215 36.1211 74.613 34.7426 74.613 32.6112H74.6131Z" fill="white"/>
<path d="M88.2979 32.6112C88.2979 35.8532 86.5621 37.9362 83.9435 37.9362C83.2802 37.9709 82.6205 37.8181 82.0399 37.4953C81.4594 37.1725 80.9815 36.6927 80.661 36.1109H80.6114V41.2783H78.47V27.3943H80.5428V29.1295H80.5822C80.9174 28.5505 81.4034 28.0732 81.9884 27.7485C82.5733 27.4237 83.2354 27.2636 83.9041 27.2851C86.552 27.2851 88.2979 29.3782 88.2979 32.6112ZM86.0962 32.6112C86.0962 30.499 85.0047 29.1104 83.3392 29.1104C81.703 29.1104 80.6025 30.5283 80.6025 32.6112C80.6025 34.7133 81.703 36.1211 83.3392 36.1211C85.0047 36.1211 86.0962 34.7426 86.0962 32.6112Z" fill="white"/>
<path d="M95.8848 33.8404C96.0435 35.2594 97.422 36.1911 99.3057 36.1911C101.111 36.1911 102.409 35.2593 102.409 33.9799C102.409 32.8692 101.626 32.2041 99.7716 31.7484L97.9171 31.3016C95.2895 30.667 94.0697 29.4381 94.0697 27.4441C94.0697 24.9751 96.2213 23.2793 99.2753 23.2793C102.3 23.2793 104.373 24.9751 104.443 27.4441H102.281C102.152 26.016 100.971 25.1541 99.2461 25.1541C97.521 25.1541 96.3405 26.0262 96.3405 27.2955C96.3405 28.3072 97.0945 28.9025 98.9389 29.3582L100.515 29.7453C103.451 30.4396 104.67 31.6189 104.67 33.712C104.67 36.3891 102.539 38.0658 99.147 38.0658C95.9736 38.0658 93.831 36.4285 93.6926 33.8403L95.8848 33.8404Z" fill="white"/>
<path d="M109.294 24.9253V27.3942H111.278V29.0901H109.294V34.8415C109.294 35.735 109.692 36.1514 110.564 36.1514C110.799 36.1473 111.034 36.1307 111.268 36.1018V37.7875C110.876 37.8608 110.478 37.894 110.079 37.8866C107.967 37.8866 107.143 37.0932 107.143 35.0699V29.0901H105.626V27.3942H107.143V24.9253H109.294Z" fill="white"/>
<path d="M112.426 32.6108C112.426 29.3283 114.36 27.2656 117.374 27.2656C120.399 27.2656 122.323 29.3283 122.323 32.6108C122.323 35.9024 120.409 37.956 117.374 37.956C114.34 37.956 112.426 35.9024 112.426 32.6108ZM120.141 32.6108C120.141 30.3591 119.109 29.0301 117.374 29.0301C115.639 29.0301 114.607 30.3692 114.607 32.6108C114.607 34.8716 115.639 36.1904 117.374 36.1904C119.109 36.1904 120.141 34.8716 120.141 32.6108H120.141Z" fill="white"/>
<path d="M124.089 27.3942H126.131V29.1699H126.181C126.319 28.6153 126.644 28.1252 127.101 27.7819C127.558 27.4387 128.119 27.2632 128.69 27.285C128.937 27.2842 129.183 27.311 129.424 27.3649V29.368C129.112 29.2728 128.787 29.2291 128.462 29.2386C128.15 29.2259 127.84 29.2808 127.552 29.3993C127.265 29.5179 127.006 29.6974 126.794 29.9254C126.582 30.1534 126.422 30.4246 126.324 30.7204C126.227 31.0162 126.195 31.3295 126.23 31.6388V37.8269H124.089L124.089 27.3942Z" fill="white"/>
<path d="M139.298 34.7624C139.01 36.6563 137.165 37.956 134.805 37.956C131.77 37.956 129.887 35.9226 129.887 32.6603C129.887 29.388 131.781 27.2656 134.715 27.2656C137.602 27.2656 139.417 29.2484 139.417 32.4117V33.1454H132.048V33.2748C132.014 33.6587 132.063 34.0455 132.189 34.4095C132.316 34.7734 132.519 35.1062 132.785 35.3857C133.05 35.6652 133.372 35.885 133.729 36.0305C134.086 36.1761 134.47 36.244 134.855 36.2298C135.361 36.2772 135.869 36.16 136.303 35.8956C136.737 35.6313 137.074 35.2338 137.264 34.7624L139.298 34.7624ZM132.059 31.6487H137.274C137.294 31.3035 137.241 30.958 137.121 30.634C137 30.3099 136.814 30.0143 136.573 29.7657C136.333 29.517 136.044 29.3208 135.724 29.1891C135.405 29.0575 135.061 28.9934 134.715 29.0009C134.367 28.9988 134.021 29.0658 133.698 29.198C133.376 29.3302 133.082 29.525 132.835 29.7712C132.588 30.0174 132.392 30.31 132.259 30.6323C132.126 30.9545 132.058 31.3 132.059 31.6487V31.6487Z" fill="white"/>
<path d="M56.513 11.893H55.1313C55.0615 11.893 55.0149 11.9396 55.0149 12.0095V17.2101C55.0149 17.2799 55.0615 17.3265 55.1313 17.3265H56.513C58.3837 17.3265 59.3539 16.1311 59.3539 14.6098C59.3539 13.0806 58.3837 11.893 56.513 11.893ZM56.513 16.5658H55.861V12.6537H56.513C57.8403 12.6537 58.5001 13.3834 58.5001 14.6098C58.5001 15.8284 57.8403 16.5658 56.513 16.5658Z" fill="white"/>
<path d="M62.045 17.4041C63.1317 17.4041 63.9933 16.527 63.9933 15.4248C63.9933 14.307 63.1317 13.4377 62.045 13.4377C60.9505 13.4377 60.0967 14.307 60.0967 15.4248C60.0967 16.527 60.9505 17.4041 62.045 17.4041ZM62.045 16.6512C61.3929 16.6512 60.8806 16.1311 60.8806 15.4248C60.8806 14.7029 61.3929 14.1829 62.045 14.1829C62.697 14.1829 63.2093 14.7029 63.2093 15.4248C63.2093 16.1311 62.697 16.6512 62.045 16.6512Z" fill="white"/>
<path d="M70.697 13.5231H70.1226C70.0605 13.5231 70.0061 13.5541 69.9828 13.6162L68.9971 16.3951L67.9724 13.6162C67.9569 13.5774 67.9336 13.5464 67.8948 13.5386C67.8793 13.5308 67.856 13.5231 67.8327 13.5231H67.3049C67.2816 13.5231 67.2583 13.5308 67.2428 13.5386C67.204 13.5464 67.1807 13.5774 67.1652 13.6162L66.1483 16.3951L65.1548 13.6162C65.1315 13.5541 65.0772 13.5231 65.0151 13.5231H64.4484C64.3631 13.5231 64.3242 13.5696 64.3553 13.655L65.6904 17.2334C65.7137 17.2955 65.768 17.3265 65.8301 17.3265H66.42C66.4821 17.3265 66.5365 17.2955 66.5597 17.2334L67.5688 14.5865L68.5857 17.2334C68.6089 17.2955 68.6633 17.3265 68.7254 17.3265H69.3075C69.3696 17.3265 69.424 17.2955 69.4473 17.2334L70.7901 13.655C70.8212 13.5696 70.7823 13.5231 70.697 13.5231Z" fill="white"/>
<path d="M73.6404 13.4377C73.0738 13.4377 72.6624 13.7482 72.3984 14.1518L72.3674 13.6395C72.3596 13.5696 72.3208 13.5231 72.251 13.5231H71.6999C71.63 13.5231 71.5834 13.5696 71.5834 13.6395V17.2101C71.5834 17.2799 71.63 17.3265 71.6999 17.3265H72.282C72.3519 17.3265 72.3984 17.2799 72.3984 17.2101V14.9979C72.3984 14.8349 72.7322 14.1829 73.392 14.1829C73.8422 14.1829 74.176 14.4623 74.176 15.1143V17.2101C74.176 17.2799 74.2225 17.3265 74.2924 17.3265H74.8746C74.9444 17.3265 74.991 17.2799 74.991 17.2101V14.9979C74.991 13.981 74.4244 13.4377 73.6404 13.4377Z" fill="white"/>
<path d="M75.9724 11.7766V17.2101C75.9724 17.2799 76.0189 17.3265 76.0888 17.3265H76.671C76.7408 17.3265 76.7874 17.2799 76.7874 17.2101V11.7766C76.7874 11.7067 76.7408 11.6602 76.671 11.6602H76.0888C76.0189 11.6602 75.9724 11.7067 75.9724 11.7766Z" fill="white"/>
<path d="M79.5932 17.4041C80.6799 17.4041 81.5415 16.527 81.5415 15.4248C81.5415 14.307 80.6799 13.4377 79.5932 13.4377C78.4987 13.4377 77.6449 14.307 77.6449 15.4248C77.6449 16.527 78.4987 17.4041 79.5932 17.4041ZM79.5932 16.6512C78.9411 16.6512 78.4288 16.1311 78.4288 15.4248C78.4288 14.7029 78.9411 14.1829 79.5932 14.1829C80.2452 14.1829 80.7575 14.7029 80.7575 15.4248C80.7575 16.1311 80.2452 16.6512 79.5932 16.6512Z" fill="white"/>
<path d="M85.9953 13.5231H85.4908C85.4209 13.5231 85.3821 13.5696 85.3744 13.6395L85.3433 14.0819C85.0639 13.7016 84.6447 13.4454 84.0936 13.4454C83.0147 13.4454 82.2385 14.3226 82.2385 15.4326C82.2385 16.5115 83.0147 17.3809 84.0936 17.3809C84.6447 17.3809 85.0561 17.1402 85.3356 16.7754L85.3744 17.2101C85.3821 17.2799 85.4209 17.3265 85.4908 17.3265H85.9953C86.0652 17.3265 86.1118 17.2799 86.1118 17.2101V13.6395C86.1118 13.5696 86.0652 13.5231 85.9953 13.5231ZM84.1712 16.6357C83.5115 16.6357 83.0224 16.1156 83.0224 15.4248C83.0224 14.7107 83.5115 14.1829 84.1712 14.1829C84.8465 14.1829 85.32 14.7417 85.32 15.4248C85.32 16.1079 84.8465 16.6357 84.1712 16.6357Z" fill="white"/>
<path d="M90.733 11.6602H90.1508C90.081 11.6602 90.0344 11.7067 90.0344 11.7766V14.0276C89.755 13.6783 89.3513 13.4454 88.8313 13.4454C87.7523 13.4454 86.9761 14.3226 86.9761 15.4326C86.9761 16.5115 87.7523 17.3809 88.8313 17.3809C89.3824 17.3809 89.7938 17.1402 90.0732 16.7754L90.112 17.2101C90.1198 17.2799 90.1586 17.3265 90.2284 17.3265H90.733C90.8028 17.3265 90.8494 17.2799 90.8494 17.2101V11.7766C90.8494 11.7067 90.8028 11.6602 90.733 11.6602ZM88.9089 16.6357C88.2491 16.6357 87.7601 16.1156 87.7601 15.4248C87.7601 14.7107 88.2491 14.1829 88.9089 14.1829C89.5842 14.1829 90.0577 14.7417 90.0577 15.4248C90.0577 16.1079 89.5842 16.6357 88.9089 16.6357Z" fill="white"/>
<path d="M95.8376 17.4041C96.9243 17.4041 97.7859 16.527 97.7859 15.4248C97.7859 14.307 96.9243 13.4377 95.8376 13.4377C94.7431 13.4377 93.8893 14.307 93.8893 15.4248C93.8893 16.527 94.7431 17.4041 95.8376 17.4041ZM95.8376 16.6512C95.1855 16.6512 94.6732 16.1311 94.6732 15.4248C94.6732 14.7029 95.1855 14.1829 95.8376 14.1829C96.4896 14.1829 97.0019 14.7029 97.0019 15.4248C97.0019 16.1311 96.4896 16.6512 95.8376 16.6512Z" fill="white"/>
<path d="M100.694 13.4377C100.128 13.4377 99.7161 13.7482 99.4522 14.1518L99.4212 13.6395C99.4134 13.5696 99.3746 13.5231 99.3047 13.5231H98.7536C98.6838 13.5231 98.6372 13.5696 98.6372 13.6395V17.2101C98.6372 17.2799 98.6838 17.3265 98.7536 17.3265H99.3358C99.4057 17.3265 99.4522 17.2799 99.4522 17.2101V14.9979C99.4522 14.8349 99.786 14.1829 100.446 14.1829C100.896 14.1829 101.23 14.4623 101.23 15.1143V17.2101C101.23 17.2799 101.276 17.3265 101.346 17.3265H101.928C101.998 17.3265 102.045 17.2799 102.045 17.2101V14.9979C102.045 13.981 101.478 13.4377 100.694 13.4377Z" fill="white"/>
<path d="M107.181 13.5231H106.56V12.4752C106.56 12.4053 106.513 12.3587 106.444 12.3587H105.861C105.792 12.3587 105.745 12.4053 105.745 12.4752V13.5231H105.124C105.054 13.5231 105.008 13.5696 105.008 13.6395V14.0819C105.008 14.1518 105.054 14.1984 105.124 14.1984H105.745V17.2101C105.745 17.2799 105.792 17.3265 105.861 17.3265H106.444C106.513 17.3265 106.56 17.2799 106.56 17.2101V14.1984H107.181C107.251 14.1984 107.297 14.1518 107.297 14.0819V13.6395C107.297 13.5696 107.251 13.5231 107.181 13.5231Z" fill="white"/>
<path d="M110.132 13.4377C109.565 13.4377 109.154 13.7482 108.89 14.1518V11.7766C108.89 11.7067 108.843 11.6602 108.773 11.6602H108.191C108.121 11.6602 108.075 11.7067 108.075 11.7766V17.2101C108.075 17.2799 108.121 17.3265 108.191 17.3265H108.773C108.843 17.3265 108.89 17.2799 108.89 17.2101V14.9979C108.89 14.8349 109.223 14.1829 109.883 14.1829C110.333 14.1829 110.667 14.4623 110.667 15.1143V17.2101C110.667 17.2799 110.714 17.3265 110.784 17.3265H111.366C111.436 17.3265 111.482 17.2799 111.482 17.2101V14.9979C111.482 13.981 110.916 13.4377 110.132 13.4377Z" fill="white"/>
<path d="M114.233 13.4454C113.139 13.4454 112.347 14.3148 112.347 15.4093C112.347 16.5037 113.147 17.3809 114.311 17.3809C114.87 17.3809 115.367 17.1635 115.724 16.7987C115.786 16.7366 115.786 16.6823 115.724 16.6202L115.475 16.3795C115.421 16.3252 115.374 16.3407 115.312 16.3873C115.056 16.5814 114.777 16.6978 114.389 16.6978C113.705 16.6978 113.255 16.3097 113.154 15.7198H115.786C115.995 15.7198 116.034 15.58 116.034 15.2928C116.034 14.3148 115.335 13.4454 114.233 13.4454ZM114.241 14.1518C114.823 14.1518 115.25 14.5477 115.312 15.1531H113.147C113.224 14.5477 113.659 14.1518 114.241 14.1518Z" fill="white"/>
<path d="M37.1178 25.0141C37.1353 23.6308 37.4966 22.2745 38.1681 21.0714C38.8395 19.8683 39.7993 18.8575 40.9581 18.1329C40.2219 17.0637 39.2508 16.1838 38.1217 15.5631C36.9927 14.9423 35.7369 14.5979 34.454 14.5571C31.7175 14.2649 29.0646 16.2224 27.6701 16.2224C26.2486 16.2224 24.1016 14.5861 21.7896 14.6344C20.2942 14.6836 18.8367 15.1258 17.5593 15.9181C16.2819 16.7104 15.2281 17.8257 14.5005 19.1553C11.3489 24.7045 13.6997 32.8601 16.7187 37.3457C18.2292 39.5422 19.9945 41.9957 22.3044 41.9087C24.5648 41.8134 25.409 40.4429 28.1375 40.4429C30.8406 40.4429 31.6326 41.9087 33.9894 41.8534C36.4149 41.8134 37.9431 39.6472 39.4006 37.4299C40.4859 35.8648 41.321 34.1351 41.875 32.3047C40.4659 31.6986 39.2634 30.6841 38.4174 29.3876C37.5714 28.0911 37.1194 26.57 37.1178 25.0141Z" fill="white"/>
<path d="M32.6663 11.6067C33.9888 9.99219 34.6404 7.91697 34.4826 5.82178C32.4622 6.03759 30.5958 7.01962 29.2555 8.57221C28.6002 9.33069 28.0982 10.2131 27.7784 11.169C27.4586 12.1248 27.3272 13.1354 27.3917 14.143C28.4023 14.1536 29.402 13.9308 30.3157 13.4915C31.2294 13.0522 32.0331 12.4077 32.6663 11.6067Z" fill="white"/>
</svg>
