<svg xmlns="http://www.w3.org/2000/svg" width="47" height="47" viewBox="0 0 47 47">
    <g>
        <g fill="none">
            <path d="M23.5 0A23.5 23.5 0 1 1 0 23.5 23.5 23.5 0 0 1 23.5 0z" transform="rotate(90 23.5 23.5) rotate(180 23.5 23.5)"/>
            <path fill="#3ebbd2" d="M23.5 3c-2.769 0-5.453.542-7.979 1.61-2.44 1.032-4.633 2.51-6.517 4.394-1.883 1.884-3.362 4.077-4.394 6.517C3.542 18.047 3 20.731 3 23.5s.542 5.453 1.61 7.979c1.032 2.44 2.51 4.633 4.394 6.517 1.884 1.883 4.077 3.362 6.517 4.394C18.047 43.458 20.731 44 23.5 44s5.453-.542 7.979-1.61c2.44-1.032 4.633-2.51 6.517-4.394 1.883-1.884 3.362-4.077 4.394-6.517C43.458 28.953 44 26.269 44 23.5s-.542-5.453-1.61-7.979c-1.032-2.44-2.51-4.633-4.394-6.517-1.884-1.883-4.077-3.362-6.517-4.394C28.953 3.542 26.269 3 23.5 3m0-3C36.479 0 47 10.521 47 23.5S36.479 47 23.5 47 0 36.479 0 23.5 10.521 0 23.5 0z" transform="rotate(90 23.5 23.5) rotate(180 23.5 23.5)"/>
        </g>
        <path fill="rgba(0,0,0,0)" stroke="#3ebbd2" stroke-linecap="round" stroke-linejoin="round" stroke-width="3px" d="M0 16.312l11.065-8.156L0 0" transform="rotate(90 23.5 23.5) rotate(180 13.75 15.828)"/>
    </g>
</svg>
