<svg xmlns="http://www.w3.org/2000/svg" width="474.387" height="474.372" viewBox="0 0 474.387 474.372">
    <defs>
        <style>
            .cls-4{fill:#fff4c7}.cls-5{fill:#ffe862}
        </style>
    </defs>
    <g id="Group_5494" transform="translate(-1250.934 -614.048)">
        <g id="Group_5481" transform="translate(1250.934 614.048)">
            <g id="Group_5479" transform="translate(0 .001)">
                <path id="Path_4389" fill="#fff" d="M1724.382 830.341c-11.545-130.481-126.674-226.9-257.155-215.354a236.855 236.855 0 0 0-182.8 114.735c-1 1.689-1.985 3.375-2.955 5.093q-3.354 5.959-6.4 12.132c-.244.506-.475 1-.719 1.505a235.881 235.881 0 0 0-22.894 118.348c.088 1.4.193 2.814.315 4.228a3.4 3.4 0 0 0 .045.411l.052.707c.031.44.079.882.127 1.323v.057c.16 1.751.349 3.5.552 5.248.014.191.043.368.057.559a236.106 236.106 0 0 0 67.607 139.408q2.064 2.071 4.171 4.089a238 238 0 0 0 28.3 23.109q4.594 3.214 9.378 6.22a238.836 238.836 0 0 0 23.095 12.785 236.247 236.247 0 0 0 123.86 22.54c130.491-11.548 226.911-126.677 215.364-257.143zm-216.123 248.4c-125.654 11.115-236.518-81.727-247.631-207.38-11.129-125.639 81.727-236.507 207.366-247.634 125.656-11.112 236.518 81.727 247.634 207.383 11.126 125.639-81.728 236.518-207.37 247.631z" transform="translate(-1250.935 -614.049)"/>
            </g>
            <g id="Group_5480">
                <path id="Path_4390" fill="#ffd364" d="M1488.4 614.048q-10.51 0-21.177.939a236.862 236.862 0 0 0-182.8 114.735c-1 1.689-1.985 3.375-2.955 5.093q-3.354 5.959-6.4 12.132c-.244.507-.475 1-.719 1.505a235.882 235.882 0 0 0-22.89 118.348c.088 1.4.193 2.814.315 4.228a3.4 3.4 0 0 0 .045.411l.052.707c.031.44.079.881.127 1.323v.057c.16 1.751.349 3.5.552 5.248.014.191.043.368.057.559a236.106 236.106 0 0 0 67.607 139.408q2.064 2.071 4.171 4.09a237.984 237.984 0 0 0 28.3 23.109q4.594 3.214 9.378 6.22a238.862 238.862 0 0 0 23.095 12.785 235.937 235.937 0 0 0 102.7 23.475q10.5 0 21.157-.934c130.482-11.547 226.9-126.676 215.357-257.143-10.919-123.37-114.441-216.293-235.981-216.293zm-.533 465.6c-117.052 0-216.735-89.471-227.243-208.283-11.129-125.639 81.727-236.507 207.366-247.634q10.262-.906 20.388-.9c117.052 0 216.737 89.471 227.245 208.286 11.127 125.639-81.727 236.519-207.369 247.631-6.839.6-13.647.9-20.388.9z" transform="translate(-1250.935 -614.048)"/>
            </g>
        </g>
        <g id="Group_5482" transform="translate(1259.723 622.824)">
            <path id="Path_4391" fill="#fcb733" d="M1483.279 627.342a218.784 218.784 0 0 1 19.024 436.716c-6.49.573-13.064.865-19.543.865a218.784 218.784 0 0 1-19.029-436.716c6.486-.573 13.06-.865 19.543-.865m-.007-9.62q-10.111 0-20.388.9c-125.64 11.127-218.5 121.994-207.366 247.634 10.508 118.812 110.191 208.283 227.243 208.283 6.741 0 13.549-.3 20.388-.9 125.642-11.112 218.5-121.992 207.369-247.631-10.508-118.815-110.194-208.291-227.245-208.286z" transform="translate(-1254.614 -617.722)"/>
        </g>
        <g id="Group_5485" transform="translate(1259.723 622.824)">
            <g id="Group_5483" transform="translate(4.803 4.811)">
                <path id="Path_4392" d="M1479.974 1066.936a223.594 223.594 0 0 1-19.456-446.316c6.626-.588 13.343-.884 19.963-.884a223.594 223.594 0 0 1 19.456 446.316c-6.629.588-13.346.884-19.963.884z" class="cls-4" transform="translate(-1256.624 -619.736)"/>
            </g>
            <g id="Group_5484">
                <path id="Path_4393" d="M1483.279 627.342a218.784 218.784 0 0 1 19.024 436.716c-6.49.573-13.064.865-19.543.865a218.784 218.784 0 0 1-19.029-436.716c6.486-.573 13.06-.865 19.543-.865m-.007-9.62q-10.111 0-20.388.9c-125.64 11.127-218.5 121.994-207.366 247.634 10.508 118.812 110.191 208.283 227.243 208.283 6.741 0 13.549-.3 20.388-.9 125.642-11.112 218.5-121.992 207.369-247.631-10.508-118.815-110.194-208.291-227.245-208.286z" class="cls-5" transform="translate(-1254.614 -617.722)"/>
            </g>
        </g>
        <g id="Group_5490" transform="translate(1283.339 650.557)">
            <g id="Group_5486" transform="translate(60.732)">
                <path id="Path_4394" d="M1570.962 964.456l-278.387-277.839s52.895-71.5 150.585-51.879l-20.945 388.033s104.633 14.762 148.747-58.315z" class="cls-5" transform="translate(-1286.243 -626.558)"/>
                <path id="Path_4395" d="M1447.922 1031.59a176.352 176.352 0 0 1-22.7-1.285l-4.369-.616 10.714-198.458-141.643-141.367 2.468-3.335c.545-.738 55.883-73.712 155.4-53.735l4.08.819-10.465 193.846 139.3 139.028-1.949 3.227c-18.778 31.111-51.359 51.449-94.218 58.816a217.868 217.868 0 0 1-36.618 3.06zm-16.977-10.358c19.576 1.655 99.767 4.555 137.583-53.313L1440.71 840.353zm-128.19-332.155l129.511 129.258 9.548-176.881c-79.185-13.947-127.614 34.521-139.06 47.624z" class="cls-4" transform="translate(-1289.924 -629.332)"/>
            </g>
            <g id="Group_5487" transform="translate(4.526 54.01)">
                <path id="Path_4396" d="M1660.969 810.4l-391.845-33.892s-11.643-75.736 56.731-121.973l278.384 277.837s69.913-37.63 56.73-121.972z" class="cls-5" transform="translate(-1263.649 -648.334)"/>
                <path id="Path_4397" d="M1606.119 941.916l-140.486-140.208-197.943-17.123-.573-3.736c-.122-.786-11.3-79.293 58.787-126.688l3.287-2.219 140.76 140.485 197.933 17.12.581 3.724c13.554 86.7-58.472 126.557-59.2 126.948zM1480.541 803l127.2 126.953c12.861-8.093 60.572-43.048 51.753-111.472zm-204.33-27.33l178.83 15.472-126.994-126.75c-53.983 38.729-53.126 96.055-51.836 111.274z" class="cls-4" transform="translate(-1266.395 -651.942)"/>
            </g>
            <g id="Group_5488" transform="translate(0 80.155)">
                <path id="Path_4398" d="M1628.673 665.441l-321.96 225.91s-57.6-50.532-34.943-129.9l391.845 33.892s29.366-73.768-34.942-129.902z" class="cls-5" transform="translate(-1261.736 -659.34)"/>
                <path id="Path_4399" d="M1309.146 901.006l-2.84-2.492c-.6-.526-59.619-53.482-36.4-134.838l1.089-3.812L1469.129 777l162.634-114.114 2.838 2.477c66.107 57.7 36.553 134.535 36.25 135.3l-1.323 3.323-197.74-17.1zm-31.021-130.871c-16.458 64.368 21.047 107.731 31.819 118.561l146.935-103.1zm205.912 8.155l179.045 15.486c4.648-14.466 18.73-71.911-32.009-118.657z" class="cls-4" transform="translate(-1264.5 -662.887)"/>
            </g>
            <g id="Group_5489" transform="translate(38.937 2.799)">
                <path id="Path_4400" d="M1455.854 633.093l-20.945 388.033s-95.586 17.818-151.474-83.509l321.957-225.91s-53.861-87.08-149.538-78.614z" class="cls-5" transform="translate(-1277.141 -627.712)"/>
                <path id="Path_4401" d="M1422.361 1029.808c-30.923 0-96.891-9.866-139.477-87.075l-2.083-3.781 163.74-114.895 10.4-192.6 4.151-.365c97.462-8.609 153.5 79.98 154.054 80.876l2.386 3.858-161.64 113.422-10.725 198.7-3.719.693a106.553 106.553 0 0 1-17.087 1.167zm-128.936-87.966c22.278 38.524 52.933 63.262 91.177 73.557a139.311 139.311 0 0 0 49.378 4.278l9.9-183.407zm170.665-301.476l-9.538 176.668 147.859-103.751c-11.397-16.005-60.457-77.494-138.321-72.917z" class="cls-4" transform="translate(-1280.8 -630.504)"/>
            </g>
        </g>
        <g id="Group_5492" transform="translate(1284.043 652.873)">
            <g id="Group_5491">
                <path id="Path_4402" d="M1448.038 635.11a168.979 168.979 0 0 1 33.1 3.378l.69.138.7-.065c4.47-.416 8.977-.626 13.4-.626 44.2 0 78.309 21.107 99.136 38.815 22.786 19.37 35.165 39.047 35.285 39.243l.38.612.542.473c26.057 22.75 39.773 50.976 40.769 83.893.748 24.774-6.376 43.091-6.447 43.268l-.485 1.221.2 1.3c5.116 32.788-2.547 62.781-22.775 89.142a130.523 130.523 0 0 1-32.463 30.213l-1.044.616-.628 1.039c-30.693 50.838-91.583 58.429-125.147 58.429a175.831 175.831 0 0 1-21.864-1.2l-.764-.105-.755.134a101.322 101.322 0 0 1-15.849 1.065 146.434 146.434 0 0 1-62.461-14.077c-29.384-13.977-53.427-37.645-71.458-70.347l-.409-.736-.628-.554c-.141-.124-14.357-12.8-25.6-34.864-14.956-29.353-17.87-60.586-8.657-92.832l.284-1-.153-1.03c-.11-.745-10.322-74.988 56.174-119.944l.683-.461.49-.664c.4-.545 41.166-54.473 115.75-54.471m0-4.809c-77.874 0-119.62 56.42-119.62 56.42-69.774 47.173-58.236 124.638-58.236 124.638-23.138 80.991 35.7 132.629 35.7 132.629 42.513 77.1 107.716 86.91 138.13 86.91a103.951 103.951 0 0 0 16.7-1.14 178.307 178.307 0 0 0 22.536 1.249c33.834 0 97.2-7.642 129.265-60.753 0 0 70.435-41.605 57.546-124.237 0 0 30-75.268-35.626-132.562 0 0-49.872-80.329-138.508-80.329q-6.772 0-13.843.647a172.678 172.678 0 0 0-34.047-3.473z" class="cls-5" transform="translate(-1264.795 -630.301)"/>
            </g>
        </g>
        <g id="Group_5493" transform="translate(1470.837 832.197)">
            <circle id="Ellipse_14" cx="18.898" cy="18.898" r="18.898" fill="#fff3c6"/>
        </g>
    </g>
</svg>
