<svg xmlns="http://www.w3.org/2000/svg" id="Group_6387" width="52.686" height="52.692" viewBox="0 0 52.686 52.692">
    <defs>
        <style>
            .cls-1{fill:#3ebbd2}.cls-2{fill:#fff}
        </style>
    </defs>
    <g id="Group_39" transform="translate(20.186 30.196)">
        <g id="Group_37">
            <g id="Group_35">
                <path id="Path_98" d="M653.026 327.647a16.642 16.642 0 0 1-20.926-10.705 1.1 1.1 0 1 1 2.1-.681 14.416 14.416 0 0 0 27.437-8.858 1.1 1.1 0 0 1 2.1-.681 16.64 16.64 0 0 1-10.711 20.925z" class="cls-1" transform="translate(-632.044 -305.957)"/>
            </g>
            <g id="Group_36" transform="translate(3.671 1.186)">
                <path id="Path_99" d="M662.338 308.643a1.1 1.1 0 0 0-1.391-.71l-22.193 7.167a1.107 1.107 0 0 0-.713 1.39 12.766 12.766 0 1 0 24.3-7.846zM644.427 321.4a10.433 10.433 0 0 1-3.89-4.56l7.455-2.409zm1.965 1.01l3.57-6.971 2.4 7.453a10.439 10.439 0 0 1-5.971-.477zm8.075-.2l-2.4-7.453 6.971 3.565a10.422 10.422 0 0 1-4.572 3.897zm-1.4-9.422l7.453-2.4a10.434 10.434 0 0 1-.485 5.973z" class="cls-1" transform="translate(-637.988 -307.879)"/>
            </g>
        </g>
        <g id="Group_38" transform="translate(.764 .054)">
            <path id="Path_100" d="M652.818 325.579a14.431 14.431 0 0 1-18.146-9.284 1.1 1.1 0 0 0-1.391-.711l3.673-1.186a1.107 1.107 0 0 0-.713 1.39 12.766 12.766 0 1 0 24.3-7.846 1.1 1.1 0 0 0-1.391-.71l3.673-1.186a1.1 1.1 0 0 0-.711 1.391 14.431 14.431 0 0 1-9.294 18.142z" class="cls-2" transform="translate(-633.281 -306.045)"/>
        </g>
    </g>
    <g id="Group_48" transform="translate(24.873 8.225)">
        <g id="Group_46">
            <g id="Group_40">
                <path id="Path_101" d="M663.111 294.117a16.642 16.642 0 0 1-22.97 5 1.1 1.1 0 1 1 1.193-1.86A14.416 14.416 0 0 0 656.926 273a1.1 1.1 0 1 1 1.193-1.86 16.641 16.641 0 0 1 4.992 22.977z" class="cls-1" transform="translate(-639.633 -270.971)"/>
            </g>
            <g id="Group_41" transform="translate(2.086 3.245)">
                <path id="Path_102" d="M662.9 284.426a12.653 12.653 0 0 0-5.573-8.023 1.1 1.1 0 0 0-1.529.331l-12.609 19.618a1.109 1.109 0 0 0 .33 1.529 12.768 12.768 0 0 0 19.38-13.454zm-5.865-5.519a10.414 10.414 0 0 1 3.41 4.922l-7.649 1.664zm-11.357 17.662l4.234-6.587 1.664 7.643a10.412 10.412 0 0 1-5.902-1.056zm8.055.6l-1.659-7.654 6.587 4.234a10.446 10.446 0 0 1-4.932 3.416zm6.12-5.274l-6.586-4.239 7.649-1.664a10.411 10.411 0 0 1-1.067 5.899z" class="cls-1" transform="translate(-643.01 -276.224)"/>
            </g>
            <g id="Group_42" transform="translate(4.749 17.003)">
                <path id="Path_103" d="M653.22 306.144a10.412 10.412 0 0 1-5.9-1.057l4.234-6.587z" class="cls-2" transform="translate(-647.323 -298.501)"/>
            </g>
            <g id="Group_43" transform="translate(11.146 16.532)">
                <path id="Path_104" d="M664.267 301.972a10.445 10.445 0 0 1-4.928 3.42l-1.659-7.654z" class="cls-2" transform="translate(-657.68 -297.738)"/>
            </g>
            <g id="Group_44" transform="translate(11.866 5.928)">
                <path id="Path_105" d="M666.5 285.491l-7.649 1.664 4.239-6.587a10.414 10.414 0 0 1 3.41 4.923z" class="cls-2" transform="translate(-658.847 -280.569)"/>
            </g>
            <g id="Group_45" transform="translate(12.338 13.008)">
                <path id="Path_106" d="M666.2 297.936l-6.586-4.239 7.649-1.664a10.411 10.411 0 0 1-1.063 5.903z" class="cls-2" transform="translate(-659.611 -292.033)"/>
            </g>
        </g>
        <g id="Group_47" transform="translate(.174 .507)">
            <path id="Path_107" d="M661.359 293.238a14.43 14.43 0 0 1-19.917 4.332 1.1 1.1 0 0 0-1.527.334l2.085-3.248a1.107 1.107 0 0 0 .33 1.527 12.766 12.766 0 1 0 13.807-21.477 1.1 1.1 0 0 0-1.527.334l2.088-3.248a1.1 1.1 0 0 0 .333 1.527 14.432 14.432 0 0 1 4.328 19.919z" class="cls-2" transform="translate(-639.915 -271.792)"/>
        </g>
    </g>
    <g id="Group_57">
        <g id="Group_55">
            <g id="Group_49">
                <path id="Path_108" d="M602.939 281.154a16.642 16.642 0 0 0 22.97 5 1.1 1.1 0 1 0-1.193-1.86 14.416 14.416 0 0 1-15.593-24.251 1.1 1.1 0 1 0-1.193-1.86 16.641 16.641 0 0 0-4.991 22.971z" class="cls-1" transform="translate(-600.303 -258.008)"/>
            </g>
            <g id="Group_50" transform="translate(3.846 3.245)">
                <path id="Path_109" d="M608.562 281.08a12.77 12.77 0 0 0 17.645 3.838 1.109 1.109 0 0 0 .33-1.529l-12.609-19.618a1.1 1.1 0 0 0-1.529-.331 12.763 12.763 0 0 0-3.838 17.64zm8.37-8.549l-7.649-1.664a10.414 10.414 0 0 1 3.41-4.922zm1.22 12.132l1.664-7.643 4.234 6.587a10.415 10.415 0 0 1-5.899 1.056zm-7.085-3.881l6.586-4.234-1.658 7.654a10.439 10.439 0 0 1-4.929-3.42zm-2.255-7.757l7.648 1.664-6.586 4.239a10.4 10.4 0 0 1-1.062-5.903z" class="cls-1" transform="translate(-606.53 -263.261)"/>
            </g>
            <g id="Group_51" transform="translate(15.467 17.003)">
                <path id="Path_110" d="M625.347 293.181a10.415 10.415 0 0 0 5.9-1.057l-4.234-6.587z" class="cls-2" transform="translate(-625.347 -285.538)"/>
            </g>
            <g id="Group_52" transform="translate(8.382 16.532)">
                <path id="Path_111" d="M613.875 289.009a10.439 10.439 0 0 0 4.928 3.42l1.658-7.654z" class="cls-2" transform="translate(-613.875 -284.775)"/>
            </g>
            <g id="Group_53" transform="translate(6.599 5.928)">
                <path id="Path_112" d="M610.987 272.528l7.649 1.664-4.239-6.587a10.413 10.413 0 0 0-3.41 4.923z" class="cls-2" transform="translate(-610.987 -267.606)"/>
            </g>
            <g id="Group_54" transform="translate(6.059 13.008)">
                <path id="Path_113" d="M611.244 284.973l6.586-4.239-7.648-1.664a10.4 10.4 0 0 0 1.062 5.903z" class="cls-2" transform="translate(-610.114 -279.07)"/>
            </g>
        </g>
        <g id="Group_56" transform="translate(2.21 .507)">
            <path id="Path_114" d="M606.167 280.275a14.43 14.43 0 0 0 19.918 4.332 1.1 1.1 0 0 1 1.526.333l-2.087-3.247a1.107 1.107 0 0 1-.33 1.527 12.766 12.766 0 1 1-13.807-21.477 1.1 1.1 0 0 1 1.527.333l-2.087-3.247a1.1 1.1 0 0 1-.334 1.527 14.432 14.432 0 0 0-4.326 19.919z" class="cls-2" transform="translate(-603.881 -258.829)"/>
        </g>
    </g>
</svg>
