<svg xmlns="http://www.w3.org/2000/svg" width="34.127" height="34.127" viewBox="0 0 34.127 34.127">
    <g>
        <path fill="#fff" fill-rule="evenodd" d="M1193.395 613.722a17.063 17.063 0 1 0 17.061 17.061 17.061 17.061 0 0 0-17.061-17.061zm-4.352 25.106h-3.859v-11.62h3.859zm-1.932-13.207h-.024a2.209 2.209 0 1 1 .024 0zm15.858 13.207h-3.859v-6.217c0-1.563-.559-2.628-1.961-2.628a2.115 2.115 0 0 0-1.979 1.411 2.61 2.61 0 0 0-.128.942v6.492h-3.859s.047-10.531 0-11.62h3.859v1.648a3.825 3.825 0 0 1 3.48-1.923c2.543 0 4.446 1.662 4.446 5.232z" transform="translate(-1176.329 -613.722)"/>
    </g>
</svg>
