<svg xmlns="http://www.w3.org/2000/svg" width="184.094" height="44.277" viewBox="0 0 184.094 44.277">
    <defs>
        <style>
            .cls-1{fill:#3ebbd2}
        </style>
    </defs>
    <g id="Group_5355" transform="translate(-352.689 -158.4)">
        <path id="Path_2976" d="M695.485 176.895h-6.22a.763.763 0 0 0-.777.777v2.7c-1.709-2.177-3.417-3.478-6.63-3.478-7.1 0-12.287 5.707-12.287 13.118 0 7.256 5.183 12.786 12.284 12.786a7.558 7.558 0 0 0 6.633-3.094v2.317a.763.763 0 0 0 .777.778h6.22a.734.734 0 0 0 .777-.778v-24.349a.735.735 0 0 0-.777-.777zm-12.7 19.029a5.637 5.637 0 0 1-5.754-5.96c0-3.628 2.436-6.115 5.754-6.115 3.421 0 5.7 2.695 5.7 6.115.003 3.473-2.277 5.96-5.698 5.96z" class="cls-1" transform="translate(-189.29 -11.048)"/>
        <path id="Path_2977" d="M367.1 176.9c-3.215 0-4.907 1.258-6.617 3.435v-2.657a.763.763 0 0 0-.777-.777h-6.238a.735.735 0 0 0-.777.777v35.273a.735.735 0 0 0 .777.777h6.221a.735.735 0 0 0 .778-.777v-12.61a8.771 8.771 0 0 0 6.633 2.459c7.1 0 12.283-5.573 12.283-12.829-.001-7.407-5.183-13.071-12.283-13.071zm-.933 18.983c-3.421 0-5.7-2.487-5.7-5.96 0-3.42 2.281-6.115 5.7-6.115 3.316 0 5.753 2.487 5.753 6.115a5.636 5.636 0 0 1-5.754 5.961z" class="cls-1" transform="translate(0 -11.052)"/>
        <path id="Path_2978" d="M612.112 176.9c-3.215 0-4.907 1.258-6.617 3.435v-2.657a.763.763 0 0 0-.777-.777h-6.238a.735.735 0 0 0-.778.777v35.273a.735.735 0 0 0 .778.777h6.22a.735.735 0 0 0 .778-.777v-12.61a8.771 8.771 0 0 0 6.634 2.464c7.1 0 12.283-5.573 12.283-12.829.005-7.412-5.182-13.076-12.283-13.076zm-.933 18.983c-3.421 0-5.7-2.487-5.7-5.96 0-3.42 2.28-6.115 5.7-6.115 3.317 0 5.753 2.487 5.753 6.115a5.637 5.637 0 0 1-5.752 5.961z" class="cls-1" transform="translate(-146.36 -11.052)"/>
        <path id="Path_2979" d="M437.773 176.9a12.955 12.955 0 1 0 0 25.9c7.36 0 13.268-5.521 13.268-12.882a12.989 12.989 0 0 0-13.268-13.018zm0 19.035a6.045 6.045 0 1 1 5.752-6.012 5.8 5.8 0 0 1-5.752 6.013z" class="cls-1" transform="translate(-42.931 -11.052)"/>
        <path id="Path_2980" d="M504.176 184.585c0-.882.725-1.762 2.28-1.762s2.643.622 4.614 1.762c.466.31.829.466 1.139.052l2.333-3.057a.8.8 0 0 0 .053-1.088c-2.126-2.489-5.451-3.591-8.924-3.591-4.56 0-8.957 2.605-8.957 7.736 0 8.551 11.714 6.945 11.714 10.365 0 1.4-1.5 1.659-2.7 1.659a11.872 11.872 0 0 1-6.012-2.126c-.466-.259-.881-.362-1.191 0l-2.279 3.318a.785.785 0 0 0 0 1.036 12.909 12.909 0 0 0 9.743 3.915c4.716 0 10-2.516 10-7.7.003-9.378-11.813-6.942-11.813-10.519z" class="cls-1" transform="translate(-85.637 -11.052)"/>
        <path id="Path_2981" d="M565.208 165.849h-4.146v-6.672a.734.734 0 0 0-.778-.777h-6.219a.734.734 0 0 0-.778.777v6.672h-4.146a.735.735 0 0 0-.777.777v4.716a.734.734 0 0 0 .777.778h4.146v18.855a.735.735 0 0 0 .778.778h6.219a.735.735 0 0 0 .778-.778v-18.854h4.146a.735.735 0 0 0 .778-.778v-4.716a.735.735 0 0 0-.778-.778z" class="cls-1" transform="translate(-116.887)"/>
        <path id="Path_2982" d="M768.308 176.9h-6.375a.949.949 0 0 0-.933.622l-5.828 15.978-5.841-15.977a.949.949 0 0 0-.932-.622h-6.271c-.57 0-.829.312-.623.881L751.5 202.8l-4.269 10.043c-.31.569.053.881.623.881h6.063a.95.95 0 0 0 .933-.623l14.085-35.323c.203-.565-.056-.878-.627-.878z" class="cls-1" transform="translate(-232.218 -11.052)"/>
    </g>
</svg>
