<svg xmlns="http://www.w3.org/2000/svg" width="224.802" height="54.068" viewBox="0 0 224.802 54.068">
    <defs>
        <style>
            .cls-1{fill:#fff}
        </style>
    </defs>
    <g id="Group_5398" transform="translate(-352.689 -158.4)">
        <path id="Path_2976" d="M701.215 176.9h-7.6a.932.932 0 0 0-.949.949v3.3c-2.087-2.658-4.173-4.248-8.1-4.248-8.67 0-15 6.969-15 16.019 0 8.861 6.329 15.613 15 15.613a9.23 9.23 0 0 0 8.1-3.778v2.829a.932.932 0 0 0 .949.949h7.6a.9.9 0 0 0 .949-.949v-29.74a.9.9 0 0 0-.949-.944zm-15.505 23.231c-4.051 0-7.026-2.974-7.026-7.278 0-4.43 2.974-7.467 7.026-7.467 4.177 0 6.962 3.291 6.962 7.467-.001 4.241-2.785 7.278-6.962 7.278z" class="cls-1" transform="translate(-161.076 -9.401)"/>
        <path id="Path_2977" d="M370.285 176.9c-3.926 0-5.992 1.536-8.081 4.195v-3.245a.931.931 0 0 0-.949-.949h-7.617a.9.9 0 0 0-.949.949v43.072a.9.9 0 0 0 .949.949h7.6a.9.9 0 0 0 .949-.949v-15.4c1.9 1.963 4.555 3.009 8.1 3.009 8.67 0 15-6.806 15-15.666-.003-9.048-6.332-15.965-15.002-15.965zm-1.139 23.18c-4.177 0-6.962-3.037-6.962-7.278 0-4.176 2.785-7.467 6.962-7.467 4.05 0 7.024 3.037 7.024 7.467 0 4.305-2.97 7.279-7.024 7.279z" class="cls-1" transform="translate(0 -9.404)"/>
        <path id="Path_2978" d="M615.3 176.9c-3.925 0-5.992 1.536-8.08 4.195v-3.245a.931.931 0 0 0-.949-.949h-7.617a.9.9 0 0 0-.949.949v43.072a.9.9 0 0 0 .949.949h7.6a.9.9 0 0 0 .95-.949v-15.4c1.9 1.963 4.555 3.009 8.1 3.009 8.67 0 15-6.806 15-15.666-.004-9.048-6.335-15.965-15.004-15.965zm-1.139 23.18c-4.177 0-6.962-3.037-6.962-7.278 0-4.176 2.785-7.467 6.962-7.467 4.05 0 7.025 3.037 7.025 7.467-.001 4.305-2.976 7.279-7.026 7.279z" class="cls-1" transform="translate(-124.545 -9.404)"/>
        <path id="Path_2979" d="M440.7 176.9a15.846 15.846 0 0 0-16.139 15.9c0 8.988 7.215 15.73 16.139 15.73 8.987 0 16.2-6.742 16.2-15.73a15.861 15.861 0 0 0-16.2-15.9zm0 23.244a7.382 7.382 0 1 1 7.024-7.342 7.084 7.084 0 0 1-7.024 7.343z" class="cls-1" transform="translate(-36.532 -9.404)"/>
        <path id="Path_2980" d="M505.972 186.285c0-1.077.886-2.152 2.784-2.152s3.228.759 5.634 2.152c.569.379 1.012.569 1.391.063l2.848-3.733a.976.976 0 0 0 .064-1.329c-2.6-3.039-6.656-4.385-10.9-4.385-5.568 0-10.938 3.181-10.938 9.447 0 10.442 14.3 8.48 14.3 12.657 0 1.709-1.837 2.026-3.293 2.026-2.024 0-4.493-.824-7.341-2.6-.569-.316-1.075-.442-1.455 0l-2.783 4.051a.959.959 0 0 0 0 1.266c2.214 2.594 6.518 4.78 11.9 4.78 5.759 0 12.214-3.072 12.214-9.4.003-11.451-14.425-8.476-14.425-12.843z" class="cls-1" transform="translate(-72.873 -9.404)"/>
        <path id="Path_2981" d="M568.933 167.5h-5.063v-8.148a.9.9 0 0 0-.95-.949h-7.594a.9.9 0 0 0-.95.949v8.148h-5.062a.9.9 0 0 0-.949.949v5.759a.9.9 0 0 0 .949.949h5.062v23.025a.9.9 0 0 0 .95.949h7.594a.9.9 0 0 0 .95-.949v-23.027h5.063a.9.9 0 0 0 .95-.949v-5.759a.9.9 0 0 0-.95-.947z" class="cls-1" transform="translate(-99.465)"/>
        <path id="Path_2982" d="M774.25 176.9h-7.784a1.159 1.159 0 0 0-1.139.76l-7.117 19.511-7.133-19.511a1.159 1.159 0 0 0-1.139-.76h-7.658c-.7 0-1.012.381-.761 1.076l12.2 30.556-5.212 12.268c-.378.7.065 1.075.761 1.075h7.4a1.16 1.16 0 0 0 1.14-.76l17.2-43.134c.255-.699-.061-1.081-.758-1.081z" class="cls-1" transform="translate(-197.606 -9.404)"/>
    </g>
</svg>
