<svg xmlns="http://www.w3.org/2000/svg" id="Group_5440" width="19.386" height="31.751" viewBox="0 0 19.386 31.751">
    <defs>
        <style>
            .cls-1{fill:#3ebbd2}
        </style>
    </defs>
    <path id="Path_4373" d="M796.7 195.326a1.8 1.8 0 0 1 1.8 1.8v23.713a1.8 1.8 0 0 1-1.8 1.8h-11.347a1.8 1.8 0 0 1-1.8-1.8v-23.715a1.8 1.8 0 0 1 1.8-1.8H796.7m0-2.221h-11.347a4.019 4.019 0 0 0-4.02 4.019v23.713a4.019 4.019 0 0 0 4.02 4.019H796.7a4.019 4.019 0 0 0 4.02-4.019v-23.711a4.019 4.019 0 0 0-4.02-4.019z" class="cls-1" transform="translate(-781.333 -193.105)"/>
    <path id="Path_4374" d="M801.271 246.242a1.506 1.506 0 1 0 1.506 1.506 1.506 1.506 0 0 0-1.506-1.506z" class="cls-1" transform="translate(-791.578 -222.641)"/>
</svg>
