<svg width="171" height="50" viewBox="0 0 171 50" fill="none" xmlns="http://www.w3.org/2000/svg">
<rect x="0.371693" y="0.371693" width="169.51" height="48.685" rx="10.7791" stroke="white" stroke-width="0.743386"/>
<path d="M84.8629 27.7854C81.8663 27.7854 79.424 29.996 79.424 33.0436C79.424 36.0715 81.8663 38.3019 84.8629 38.3019C87.8595 38.3019 90.3018 36.0715 90.3018 33.0436C90.3018 29.996 87.8595 27.7854 84.8629 27.7854ZM84.8629 36.231C83.2207 36.231 81.8039 34.9167 81.8039 33.0436C81.8039 31.1508 83.2207 29.8563 84.8629 29.8563C86.5052 29.8563 87.9206 31.1508 87.9206 33.0436C87.9206 34.9155 86.5052 36.231 84.8629 36.231ZM72.9964 27.7854C69.9998 27.7854 67.5575 29.996 67.5575 33.0436C67.5575 36.0715 69.9998 38.3019 72.9964 38.3019C75.993 38.3019 78.4353 36.0715 78.4353 33.0436C78.4366 29.996 75.993 27.7854 72.9964 27.7854ZM72.9964 36.231C71.3541 36.231 69.9387 34.9167 69.9387 33.0436C69.9387 31.1508 71.3554 29.8563 72.9964 29.8563C74.6386 29.8563 76.0541 31.1508 76.0541 33.0436C76.0554 34.9155 74.6386 36.231 72.9964 36.231ZM58.8824 29.3988V31.6292H64.3838C64.2194 32.8841 63.7888 33.8003 63.1314 34.4383C62.3313 35.2147 61.0789 36.0715 58.8824 36.0715C55.496 36.0715 52.8485 33.422 52.8485 30.1357C52.8485 26.8494 55.496 24.1999 58.8824 24.1999C60.7094 24.1999 62.0434 24.8972 63.0282 25.7936L64.6501 24.2197C63.2754 22.945 61.4484 21.9683 58.8824 21.9683C54.2436 21.9683 50.3438 25.6329 50.3438 30.1345C50.3438 34.6361 54.2436 38.3007 58.8824 38.3007C61.386 38.3007 63.2754 37.5044 64.7533 36.0097C66.2719 34.5359 66.7446 32.4638 66.7446 30.791C66.7446 30.2729 66.7038 29.7945 66.621 29.3964H58.8824V29.3988ZM116.607 31.131C116.156 29.9552 114.78 27.7841 111.968 27.7841C109.177 27.7841 106.858 29.9156 106.858 33.0424C106.858 35.9899 109.157 38.3007 112.236 38.3007C114.719 38.3007 116.156 36.8269 116.751 35.9701L114.904 34.7745C114.288 35.6511 113.446 36.2285 112.236 36.2285C111.024 36.2285 110.163 35.6907 109.609 34.6348L116.854 31.7269L116.607 31.131ZM109.218 32.8841C109.157 30.8528 110.84 29.8167 112.05 29.8167C112.994 29.8167 113.794 30.2742 114.062 30.9319L109.218 32.8841ZM103.326 37.9829H105.708V22.5271H103.326V37.9829ZM99.4266 28.9599H99.345C98.8112 28.343 97.7856 27.7841 96.4924 27.7841C93.7825 27.7841 91.2994 30.0949 91.2994 33.0622C91.2994 36.0097 93.7825 38.3007 96.4924 38.3007C97.7856 38.3007 98.8112 37.7431 99.345 37.1051H99.4266V37.8618C99.4266 39.8733 98.3182 40.949 96.5319 40.949C95.0744 40.949 94.1711 39.9327 93.8016 39.0771L91.7288 39.9141C92.3237 41.3087 93.9048 43.0211 96.5319 43.0211C99.3234 43.0211 101.684 41.4274 101.684 37.544V28.1031H99.4266V28.9599ZM96.6976 36.231C95.0553 36.231 93.6806 34.8969 93.6806 33.0634C93.6806 31.2113 95.0553 29.8563 96.6976 29.8563C98.3194 29.8563 99.5909 31.2101 99.5909 33.0634C99.5909 34.8957 98.3194 36.231 96.6976 36.231ZM127.76 22.5271H122.064V37.9829H124.44V32.1275H127.759C130.394 32.1275 132.984 30.2766 132.984 27.3279C132.984 24.3792 130.395 22.5271 127.76 22.5271ZM127.821 29.9762H124.44V24.6784H127.821C129.599 24.6784 130.608 26.1064 130.608 27.3279C130.608 28.5247 129.599 29.9762 127.821 29.9762ZM142.514 27.7569C140.792 27.7569 139.01 28.4926 138.272 30.1233L140.384 30.9789C140.835 30.1233 141.674 29.8452 142.556 29.8452C143.785 29.8452 145.035 30.561 145.055 31.8332V31.9927C144.625 31.7541 143.702 31.3956 142.576 31.3956C140.302 31.3956 137.986 32.6084 137.986 34.8759C137.986 36.9444 139.851 38.2759 141.94 38.2759C143.539 38.2759 144.42 37.5799 144.973 36.7651H145.054V37.9582H147.349V32.0323C147.349 29.2876 145.239 27.7569 142.514 27.7569ZM142.226 36.2273C141.447 36.2273 140.361 35.8489 140.361 34.9155C140.361 33.7224 141.714 33.2649 142.881 33.2649C143.925 33.2649 144.417 33.4838 145.053 33.7817C144.869 35.2135 143.599 36.2273 142.226 36.2273ZM155.709 28.0945L152.984 34.7956H152.902L150.075 28.0945H147.514L151.756 37.4599L149.338 42.67H151.817L158.354 28.0945H155.709ZM134.296 37.9829H136.673V22.5271H134.296V37.9829Z" fill="white"/>
<path d="M43.0192 22.5315C44.3478 23.2988 44.3478 25.2169 43.0192 25.9841L14.9423 42.1987C13.6138 42.966 11.9531 42.0069 11.9531 40.4725L11.9531 8.04318C11.9531 6.50871 13.6138 5.54967 14.9423 6.3169L43.0192 22.5315Z" fill="white"/>
<path d="M55.9981 15.3049H53.6435C53.5726 15.3049 53.5254 15.3521 53.5254 15.423V15.927C53.5254 15.9979 53.5726 16.0451 53.6435 16.0451H55.2972C55.2657 16.9035 54.5885 17.5414 53.5805 17.5414C52.4622 17.5414 51.6354 16.6751 51.6354 15.5254C51.6354 14.3993 52.4937 13.5409 53.5569 13.5409C54.1002 13.5409 54.5412 13.7456 54.9035 14.0528C54.9586 14.1 55.0216 14.1079 55.0689 14.0528L55.4626 13.6433C55.5099 13.5881 55.5099 13.5251 55.4547 13.4779C54.9586 13.0133 54.3129 12.7061 53.5647 12.7061C51.9976 12.7061 50.7612 13.9583 50.7612 15.5254C50.7612 17.1161 51.9819 18.384 53.5805 18.384C55.1555 18.384 56.1162 17.2343 56.1162 15.7774V15.423C56.1162 15.3521 56.069 15.3049 55.9981 15.3049Z" fill="white"/>
<path d="M58.7109 14.3441C57.6005 14.3441 56.7973 15.2261 56.7973 16.3365C56.7973 17.4469 57.6084 18.3368 58.7897 18.3368C59.3567 18.3368 59.8607 18.1163 60.2229 17.7461C60.2859 17.6831 60.2859 17.628 60.2229 17.565L59.9709 17.3209C59.9158 17.2658 59.8685 17.2815 59.8055 17.3288C59.5457 17.5256 59.2622 17.6438 58.8684 17.6438C58.1754 17.6438 57.7187 17.25 57.6163 16.6515H60.2859C60.4985 16.6515 60.5379 16.5098 60.5379 16.2184C60.5379 15.2261 59.8292 14.3441 58.7109 14.3441ZM58.7188 15.0608C59.3094 15.0608 59.7425 15.4624 59.8055 16.0766H57.6084C57.6872 15.4624 58.1282 15.0608 58.7188 15.0608Z" fill="white"/>
<path d="M63.3379 14.4229H62.7079V13.3598C62.7079 13.2889 62.6606 13.2416 62.5897 13.2416H61.9991C61.9282 13.2416 61.881 13.2889 61.881 13.3598V14.4229H61.251C61.1801 14.4229 61.1329 14.4701 61.1329 14.541V14.9899C61.1329 15.0608 61.1801 15.108 61.251 15.108H61.881V18.1635C61.881 18.2344 61.9282 18.2816 61.9991 18.2816H62.5897C62.6606 18.2816 62.7079 18.2344 62.7079 18.1635V15.108H63.3379C63.4087 15.108 63.456 15.0608 63.456 14.9899V14.541C63.456 14.4701 63.4087 14.4229 63.3379 14.4229Z" fill="white"/>
<path d="M66.9319 13.596C67.1997 13.596 67.4044 13.3834 67.4044 13.1156C67.4044 12.8479 67.1997 12.6353 66.9319 12.6353C66.6563 12.6353 66.4516 12.8479 66.4516 13.1156C66.4516 13.3834 66.6563 13.596 66.9319 13.596ZM66.5146 14.541V18.1635C66.5146 18.2344 66.5618 18.2816 66.6327 18.2816H67.2233C67.2942 18.2816 67.3414 18.2344 67.3414 18.1635V14.541C67.3414 14.4701 67.2942 14.4229 67.2233 14.4229H66.6327C66.5618 14.4229 66.5146 14.4701 66.5146 14.541Z" fill="white"/>
<path d="M70.3208 14.4229H69.6908V13.3598C69.6908 13.2889 69.6435 13.2416 69.5726 13.2416H68.982C68.9111 13.2416 68.8639 13.2889 68.8639 13.3598V14.4229H68.2339C68.163 14.4229 68.1158 14.4701 68.1158 14.541V14.9899C68.1158 15.0608 68.163 15.108 68.2339 15.108H68.8639V18.1635C68.8639 18.2344 68.9111 18.2816 68.982 18.2816H69.5726C69.6435 18.2816 69.6908 18.2344 69.6908 18.1635V15.108H70.3208C70.3916 15.108 70.4389 15.0608 70.4389 14.9899V14.541C70.4389 14.4701 70.3916 14.4229 70.3208 14.4229Z" fill="white"/>
<path d="M75.293 18.3604C76.3955 18.3604 77.2696 17.4705 77.2696 16.3523C77.2696 15.2183 76.3955 14.3363 75.293 14.3363C74.1826 14.3363 73.3163 15.2183 73.3163 16.3523C73.3163 17.4705 74.1826 18.3604 75.293 18.3604ZM75.293 17.5965C74.6315 17.5965 74.1117 17.0689 74.1117 16.3523C74.1117 15.6199 74.6315 15.0923 75.293 15.0923C75.9545 15.0923 76.4742 15.6199 76.4742 16.3523C76.4742 17.0689 75.9545 17.5965 75.293 17.5965Z" fill="white"/>
<path d="M80.2202 14.3363C79.6453 14.3363 79.228 14.6513 78.9602 15.0608L78.9287 14.541C78.9208 14.4701 78.8815 14.4229 78.8106 14.4229H78.2515C78.1806 14.4229 78.1333 14.4701 78.1333 14.541V18.1635C78.1333 18.2344 78.1806 18.2816 78.2515 18.2816H78.8421C78.913 18.2816 78.9602 18.2344 78.9602 18.1635V15.9191C78.9602 15.7538 79.2988 15.0923 79.9682 15.0923C80.425 15.0923 80.7636 15.3758 80.7636 16.0373V18.1635C80.7636 18.2344 80.8108 18.2816 80.8817 18.2816H81.4723C81.5432 18.2816 81.5905 18.2344 81.5905 18.1635V15.9191C81.5905 14.8875 81.0156 14.3363 80.2202 14.3363Z" fill="white"/>
</svg>
