<svg width="186" height="54" viewBox="0 0 186 54" fill="none" xmlns="http://www.w3.org/2000/svg">
<rect width="186" height="54" rx="7" fill="white"/>
<path d="M12.8491 8.59301C12.405 9.06271 12.1426 9.79166 12.1426 10.7356V44.4625C12.1426 45.408 12.405 46.1355 12.8491 46.6052L12.962 46.715L31.8667 27.8217V27.5991V27.3764L12.962 8.48169L12.8491 8.59301Z" fill="#3EBBD2"/>
<path d="M38.1687 34.123L31.8682 27.8233V27.6006V27.378L38.1702 21.0797L38.3121 21.1605L45.7785 25.4C47.9117 26.6109 47.9117 28.5919 45.7785 29.8042L38.3121 34.0437L38.1687 34.123Z" fill="#93E7F7"/>
<path d="M38.3118 34.0407L31.8678 27.5991L12.8486 46.6052C13.5521 47.3494 14.7118 47.4409 16.0195 46.6982L38.3118 34.0407Z" fill="#54D3EB"/>
<path d="M38.3122 21.1575L16.0215 8.49998C14.7137 7.7573 13.554 7.85033 12.8506 8.593L31.8682 27.5991L38.3122 21.1575Z" fill="#54D3EB"/>
<path opacity="0.2" d="M38.1698 33.8989L16.021 46.4756C14.782 47.1786 13.6742 47.1329 12.9631 46.4924L12.8486 46.6067L12.9616 46.7165C13.6726 47.357 14.7805 47.4043 16.0195 46.6998L38.3102 34.0423L38.1698 33.8989Z" fill="#E1E3E3"/>
<path opacity="0.12" d="M12.8491 46.3825C12.405 45.9128 12.1426 45.1838 12.1426 44.2399V44.4625C12.1426 45.4065 12.405 46.1354 12.8491 46.6051L12.9635 46.4908L12.8491 46.3825Z" fill="#3EBBD2"/>
<path opacity="0.12" d="M45.7782 29.5785L38.1699 33.8988L38.3118 34.0407L45.7782 29.8012C46.8448 29.1957 47.3774 28.3982 47.3774 27.6006C47.2873 28.3219 46.7441 29.0295 45.7782 29.5785Z" fill="#3EBBD2"/>
<path opacity="0.25" d="M16.02 8.72264L45.777 25.6196C46.7445 26.1686 47.2862 26.8762 47.3762 27.5991C47.3762 26.8015 46.8437 26.0024 45.777 25.397L16.02 8.49999C13.8867 7.28914 12.1426 8.29412 12.1426 10.7356V10.9598C12.1426 8.51829 13.8882 7.51179 16.02 8.72264Z" fill="white"/>
<path d="M92.7118 30.3551C89.4381 30.3551 86.7698 32.7702 86.7698 36.0997C86.7698 39.4076 89.4381 41.8443 92.7118 41.8443C95.9855 41.8443 98.6537 39.4076 98.6537 36.0997C98.6537 32.7702 95.9855 30.3551 92.7118 30.3551ZM92.7118 39.5819C90.9176 39.5819 89.3699 38.1461 89.3699 36.0997C89.3699 34.0318 90.9176 32.6176 92.7118 32.6176C94.5059 32.6176 96.0523 34.0318 96.0523 36.0997C96.0523 38.1447 94.5059 39.5819 92.7118 39.5819ZM79.7477 30.3551C76.474 30.3551 73.8058 32.7702 73.8058 36.0997C73.8058 39.4076 76.474 41.8443 79.7477 41.8443C83.0215 41.8443 85.6897 39.4076 85.6897 36.0997C85.6911 32.7702 83.0215 30.3551 79.7477 30.3551ZM79.7477 39.5819C77.9536 39.5819 76.4072 38.1461 76.4072 36.0997C76.4072 34.0318 77.955 32.6176 79.7477 32.6176C81.5419 32.6176 83.0883 34.0318 83.0883 36.0997C83.0897 38.1447 81.5419 39.5819 79.7477 39.5819ZM64.3284 32.1178V34.5545H70.3386C70.159 35.9255 69.6886 36.9264 68.9704 37.6233C68.0963 38.4716 66.728 39.4076 64.3284 39.4076C60.6288 39.4076 57.7364 36.513 57.7364 32.9228C57.7364 29.3326 60.6288 26.438 64.3284 26.438C66.3244 26.438 67.7817 27.1998 68.8576 28.1791L70.6295 26.4597C69.1277 25.0671 67.1317 24 64.3284 24C59.2606 24 55 28.0035 55 32.9215C55 37.8394 59.2606 41.843 64.3284 41.843C67.0635 41.843 69.1277 40.9731 70.7422 39.3401C72.4014 37.73 72.9178 35.4662 72.9178 33.6387C72.9178 33.0728 72.8732 32.55 72.7827 32.1151H64.3284V32.1178ZM127.392 34.0102C126.899 32.7256 125.396 30.3538 122.324 30.3538C119.275 30.3538 116.741 32.6824 116.741 36.0984C116.741 39.3185 119.252 41.843 122.616 41.843C125.329 41.843 126.899 40.2329 127.549 39.2969L125.531 37.9907C124.859 38.9484 123.939 39.5792 122.616 39.5792C121.293 39.5792 120.352 38.9916 119.746 37.8381L127.662 34.6612L127.392 34.0102ZM119.319 35.9255C119.252 33.7062 121.091 32.5743 122.413 32.5743C123.445 32.5743 124.319 33.0741 124.611 33.7927L119.319 35.9255ZM112.883 41.4958H115.484V24.6105H112.883V41.4958ZM108.622 31.6383H108.533C107.95 30.9643 106.83 30.3538 105.417 30.3538C102.456 30.3538 99.7436 32.8783 99.7436 36.12C99.7436 39.3401 102.456 41.843 105.417 41.843C106.83 41.843 107.95 41.2338 108.533 40.5368H108.622V41.3635C108.622 43.5611 107.412 44.7362 105.46 44.7362C103.868 44.7362 102.881 43.6259 102.477 42.6912L100.213 43.6056C100.863 45.1293 102.59 47 105.46 47C108.51 47 111.089 45.2589 111.089 41.0163V30.7023H108.622V31.6383V31.6383ZM105.641 39.5819C103.847 39.5819 102.345 38.1244 102.345 36.1213C102.345 34.098 103.847 32.6176 105.641 32.6176C107.413 32.6176 108.802 34.0966 108.802 36.1213C108.802 38.1231 107.413 39.5819 105.641 39.5819ZM139.577 24.6105H133.353V41.4958H135.949V35.0988H139.575C142.454 35.0988 145.283 33.0768 145.283 29.8554C145.283 26.6339 142.455 24.6105 139.577 24.6105ZM139.643 32.7486H135.949V26.9608H139.643C141.585 26.9608 142.687 28.5208 142.687 29.8554C142.687 31.1628 141.585 32.7486 139.643 32.7486ZM155.695 30.3241C153.814 30.3241 151.867 31.1277 151.061 32.9093L153.367 33.844C153.86 32.9093 154.777 32.6054 155.741 32.6054C157.084 32.6054 158.449 33.3875 158.471 34.7774V34.9516C158.001 34.6909 156.993 34.2992 155.763 34.2992C153.278 34.2992 150.748 35.6243 150.748 38.1015C150.748 40.3612 152.786 41.8159 155.068 41.8159C156.815 41.8159 157.777 41.0555 158.381 40.1654H158.47V41.4688H160.977V34.9948C160.977 31.9962 158.672 30.3241 155.695 30.3241ZM155.38 39.5778C154.53 39.5778 153.342 39.1645 153.342 38.1447C153.342 36.8413 154.821 36.3415 156.096 36.3415C157.237 36.3415 157.774 36.5806 158.469 36.9061C158.268 38.4702 156.881 39.5778 155.38 39.5778ZM170.11 30.6928L167.133 38.0137H167.044L163.956 30.6928H161.158L165.791 40.9245L163.15 46.6164H165.858L173 30.6928H170.11V30.6928ZM146.717 41.4958H149.314V24.6105H146.717V41.4958Z" fill="#3EBBD2"/>
<path fill-rule="evenodd" clip-rule="evenodd" d="M94.8563 18.8389C94.1273 19.6134 93.2216 19.9987 92.138 19.9987C91.0544 19.9987 90.1487 19.6121 89.4209 18.8389C88.6919 18.0657 88.3287 17.119 88.3287 16C88.3287 14.881 88.6919 13.9343 89.4209 13.1611C90.1487 12.3866 91.0544 12 92.138 12C93.2154 12 94.1199 12.3892 94.8513 13.1662C95.5828 13.9432 95.9485 14.8874 95.9485 16C95.9485 17.1203 95.584 18.067 94.8563 18.8389ZM90.124 18.1984C90.6726 18.7726 91.3435 19.0584 92.138 19.0584C92.9325 19.0584 93.6034 18.7713 94.152 18.1984C94.7006 17.6242 94.9761 16.8919 94.9761 16.0013C94.9761 15.1107 94.7006 14.377 94.152 13.8041C93.6046 13.23 92.9325 12.9442 92.138 12.9442C91.3435 12.9442 90.6726 13.2313 90.124 13.8041C89.5766 14.3783 89.3011 15.1107 89.3011 16.0013C89.3011 16.8919 89.5766 17.6242 90.124 18.1984Z" fill="#3EBBD2"/>
<path d="M62.4951 16.3113C62.4951 17.3805 62.1886 18.2316 61.5745 18.867C60.8777 19.6223 59.9683 20 58.8513 20C57.7813 20 56.8707 19.6172 56.1231 18.8517C55.3744 18.0848 55 17.1356 55 16.0026C55 14.8683 55.3744 13.919 56.1231 13.1534C56.8707 12.3866 57.7813 12.0038 58.8513 12.0038C59.3826 12.0038 59.8904 12.111 60.3723 12.3241C60.8554 12.5384 61.2422 12.823 61.5313 13.1789L60.8801 13.8526C60.3896 13.2466 59.7138 12.9442 58.8501 12.9442C58.0692 12.9442 57.3946 13.2274 56.825 13.7939C56.2566 14.3604 55.9724 15.0954 55.9724 16.0013C55.9724 16.9072 56.2566 17.6421 56.8262 18.2099C57.3958 18.7764 58.0704 19.0596 58.8513 19.0596C59.6792 19.0596 60.3699 18.7751 60.9222 18.2048C61.2805 17.8335 61.4881 17.3167 61.5437 16.6545H58.8513V15.7333H62.4432C62.479 15.9337 62.4951 16.1263 62.4951 16.3113Z" fill="#3EBBD2"/>
<path d="M68.1911 13.1139H64.8155V15.5407H67.86V16.4606H64.8155V18.8874H68.1911V19.829H63.8629V12.1735H68.1911V13.1139Z" fill="#3EBBD2"/>
<path d="M71.2541 19.829H72.2068V13.1139H74.2776V12.1735H69.1833V13.1139H71.2541V19.829Z" fill="#3EBBD2"/>
<path d="M77.9646 19.829V12.1735H78.9172V19.829H77.9646Z" fill="#3EBBD2"/>
<path d="M82.1878 19.829H83.1405V13.1139H85.2113V12.1735H80.117V13.1139H82.1878V19.829Z" fill="#3EBBD2"/>
<path d="M97.2854 12.1735V19.829H98.2356V15.0597L98.1948 13.5847H98.2356L102.005 19.829H103V12.1735H102.047V16.6545L102.088 18.1295H102.047L98.4444 12.1735H97.2854Z" fill="#3EBBD2"/>
<path fill-rule="evenodd" clip-rule="evenodd" d="M94.8563 18.8389C94.1273 19.6134 93.2216 19.9987 92.138 19.9987C91.0544 19.9987 90.1487 19.6121 89.4209 18.8389C88.6919 18.0657 88.3287 17.119 88.3287 16C88.3287 14.881 88.6919 13.9343 89.4209 13.1611C90.1487 12.3866 91.0544 12 92.138 12C93.2154 12 94.1199 12.3892 94.8513 13.1662C95.5828 13.9432 95.9485 14.8874 95.9485 16C95.9485 17.1203 95.584 18.067 94.8563 18.8389ZM90.124 18.1984C90.6726 18.7726 91.3435 19.0584 92.138 19.0584C92.9325 19.0584 93.6034 18.7713 94.152 18.1984C94.7006 17.6242 94.9761 16.8919 94.9761 16.0013C94.9761 15.1107 94.7006 14.377 94.152 13.8041C93.6046 13.23 92.9325 12.9442 92.138 12.9442C91.3435 12.9442 90.6726 13.2313 90.124 13.8041C89.5766 14.3783 89.3011 15.1107 89.3011 16.0013C89.3011 16.8919 89.5766 17.6242 90.124 18.1984Z" stroke="#3EBBD2" stroke-width="0.2" stroke-miterlimit="10"/>
<path d="M62.4951 16.3113C62.4951 17.3805 62.1886 18.2316 61.5745 18.867C60.8777 19.6223 59.9683 20 58.8513 20C57.7813 20 56.8707 19.6172 56.1231 18.8517C55.3744 18.0848 55 17.1356 55 16.0026C55 14.8683 55.3744 13.919 56.1231 13.1534C56.8707 12.3866 57.7813 12.0038 58.8513 12.0038C59.3826 12.0038 59.8904 12.111 60.3723 12.3241C60.8554 12.5384 61.2422 12.823 61.5313 13.1789L60.8801 13.8526C60.3896 13.2466 59.7138 12.9442 58.8501 12.9442C58.0692 12.9442 57.3946 13.2274 56.825 13.7939C56.2566 14.3604 55.9724 15.0954 55.9724 16.0013C55.9724 16.9072 56.2566 17.6421 56.8262 18.2099C57.3958 18.7764 58.0704 19.0596 58.8513 19.0596C59.6792 19.0596 60.3699 18.7751 60.9222 18.2048C61.2805 17.8335 61.4881 17.3167 61.5437 16.6545H58.8513V15.7333H62.4432C62.479 15.9337 62.4951 16.1263 62.4951 16.3113Z" stroke="#3EBBD2" stroke-width="0.2" stroke-miterlimit="10"/>
<path d="M68.1911 13.1139H64.8155V15.5407H67.86V16.4606H64.8155V18.8874H68.1911V19.829H63.8629V12.1735H68.1911V13.1139Z" stroke="#3EBBD2" stroke-width="0.2" stroke-miterlimit="10"/>
<path d="M71.2541 19.829H72.2068V13.1139H74.2776V12.1735H69.1833V13.1139H71.2541V19.829Z" stroke="#3EBBD2" stroke-width="0.2" stroke-miterlimit="10"/>
<path d="M77.9646 19.829V12.1735H78.9172V19.829H77.9646Z" stroke="#3EBBD2" stroke-width="0.2" stroke-miterlimit="10"/>
<path d="M82.1878 19.829H83.1405V13.1139H85.2113V12.1735H80.117V13.1139H82.1878V19.829Z" stroke="#3EBBD2" stroke-width="0.2" stroke-miterlimit="10"/>
<path d="M97.2854 12.1735V19.829H98.2356V15.0597L98.1948 13.5847H98.2356L102.005 19.829H103V12.1735H102.047V16.6545L102.088 18.1295H102.047L98.4444 12.1735H97.2854Z" stroke="#3EBBD2" stroke-width="0.2" stroke-miterlimit="10"/>
</svg>
