<svg width="168" height="49" viewBox="0 0 168 49" fill="none" xmlns="http://www.w3.org/2000/svg">
<rect width="167.813" height="48.72" rx="7" fill="#3EBBD2"/>
<path d="M83.6467 27.3871C80.6931 27.3871 78.2858 29.566 78.2858 32.57C78.2858 35.5544 80.6931 37.7529 83.6467 37.7529C86.6004 37.7529 89.0077 35.5544 89.0077 32.57C89.0077 29.566 86.6004 27.3871 83.6467 27.3871ZM83.6467 35.7116C82.028 35.7116 80.6316 34.4162 80.6316 32.57C80.6316 30.7042 82.028 29.4283 83.6467 29.4283C85.2655 29.4283 86.6606 30.7042 86.6606 32.57C86.6606 34.415 85.2655 35.7116 83.6467 35.7116ZM71.9503 27.3871C68.9967 27.3871 66.5893 29.566 66.5893 32.57C66.5893 35.5544 68.9967 37.7529 71.9503 37.7529C74.9039 37.7529 77.3113 35.5544 77.3113 32.57C77.3125 29.566 74.9039 27.3871 71.9503 27.3871ZM71.9503 35.7116C70.3316 35.7116 68.9364 34.4162 68.9364 32.57C68.9364 30.7042 70.3328 29.4283 71.9503 29.4283C73.569 29.4283 74.9642 30.7042 74.9642 32.57C74.9655 34.415 73.569 35.7116 71.9503 35.7116ZM58.0386 28.9774V31.1758H63.4611C63.2991 32.4128 62.8747 33.3158 62.2267 33.9446C61.4381 34.7099 60.2036 35.5544 58.0386 35.5544C54.7007 35.5544 52.0912 32.9429 52.0912 29.7037C52.0912 26.4645 54.7007 23.853 58.0386 23.853C59.8394 23.853 61.1543 24.5403 62.125 25.4238L63.7236 23.8725C62.3686 22.6161 60.5678 21.6533 58.0386 21.6533C53.4663 21.6533 49.6223 25.2654 49.6223 29.7025C49.6223 34.1396 53.4663 37.7516 58.0386 37.7516C60.5063 37.7516 62.3686 36.9668 63.8253 35.4935C65.3222 34.0409 65.7881 31.9984 65.7881 30.3496C65.7881 29.839 65.7479 29.3674 65.6663 28.975H58.0386V28.9774ZM114.936 30.6847C114.492 29.5258 113.135 27.3858 110.364 27.3858C107.612 27.3858 105.327 29.4868 105.327 32.5687C105.327 35.474 107.592 37.7516 110.627 37.7516C113.075 37.7516 114.492 36.299 115.078 35.4545L113.257 34.2761C112.651 35.1401 111.82 35.7092 110.627 35.7092C109.433 35.7092 108.584 35.1791 108.038 34.1384L115.18 31.2721L114.936 30.6847ZM107.652 32.4128C107.592 30.4105 109.251 29.3893 110.444 29.3893C111.375 29.3893 112.163 29.8402 112.427 30.4885L107.652 32.4128ZM101.846 37.4385H104.193V22.2041H101.846V37.4385ZM98.0017 28.5448H97.9213C97.3952 27.9367 96.3842 27.3858 95.1096 27.3858C92.4385 27.3858 89.991 29.6635 89.991 32.5882C89.991 35.4935 92.4385 37.7516 95.1096 37.7516C96.3842 37.7516 97.3952 37.202 97.9213 36.5732H98.0017V37.319C98.0017 39.3018 96.9092 40.362 95.1485 40.362C93.7119 40.362 92.8216 39.3603 92.4574 38.517L90.4142 39.342C91.0007 40.7166 92.5591 42.4044 95.1485 42.4044C97.9 42.4044 100.227 40.8336 100.227 37.0058V27.7002H98.0017V28.5448ZM95.3118 35.7116C93.6931 35.7116 92.3381 34.3967 92.3381 32.5895C92.3381 30.7639 93.6931 29.4283 95.3118 29.4283C96.9104 29.4283 98.1637 30.7627 98.1637 32.5895C98.1637 34.3955 96.9104 35.7116 95.3118 35.7116ZM125.929 22.2041H120.315V37.4385H122.657V31.6669H125.928C128.525 31.6669 131.078 29.8426 131.078 26.9362C131.078 24.0297 128.526 22.2041 125.929 22.2041ZM125.99 29.5465H122.657V24.3246H125.99C127.741 24.3246 128.736 25.7321 128.736 26.9362C128.736 28.1158 127.741 29.5465 125.99 29.5465ZM140.471 27.359C138.775 27.359 137.018 28.0841 136.291 29.6915L138.372 30.5348C138.816 29.6915 139.644 29.4173 140.513 29.4173C141.725 29.4173 142.957 30.1229 142.977 31.3769V31.5341C142.552 31.2989 141.643 30.9455 140.533 30.9455C138.291 30.9455 136.008 32.141 136.008 34.376C136.008 36.4148 137.847 37.7273 139.906 37.7273C141.482 37.7273 142.35 37.0412 142.895 36.2381H142.975V37.4141H145.237V31.5731C145.237 28.8677 143.157 27.359 140.471 27.359ZM140.188 35.708C139.42 35.708 138.349 35.3351 138.349 34.415C138.349 33.239 139.683 32.7881 140.833 32.7881C141.863 32.7881 142.347 33.0038 142.974 33.2975C142.793 34.7087 141.541 35.708 140.188 35.708ZM153.478 27.6917L150.791 34.2968H150.711L147.924 27.6917H145.4L149.581 36.923L147.197 42.0583H149.641L156.085 27.6917H153.478ZM132.371 37.4385H134.715V22.2041H132.371V37.4385Z" fill="white"/>
<path d="M42.4027 22.2089C43.7121 22.9651 43.7121 24.8557 42.4027 25.6119L14.7281 41.5942C13.4186 42.3504 11.7818 41.4051 11.7818 39.8926L11.7818 7.92814C11.7818 6.41567 13.4186 5.47037 14.7281 6.22661L42.4027 22.2089Z" fill="white"/>
<path d="M55.1955 15.085H52.8746C52.8048 15.085 52.7582 15.1316 52.7582 15.2014V15.6982C52.7582 15.768 52.8048 15.8146 52.8746 15.8146H54.5047C54.4736 16.6607 53.8061 17.2894 52.8125 17.2894C51.7103 17.2894 50.8953 16.4356 50.8953 15.3023C50.8953 14.1923 51.7414 13.3463 52.7893 13.3463C53.3248 13.3463 53.7595 13.5481 54.1166 13.8508C54.1709 13.8974 54.233 13.9051 54.2796 13.8508L54.6677 13.4472C54.7143 13.3928 54.7143 13.3307 54.6599 13.2842C54.1709 12.8262 53.5344 12.5235 52.797 12.5235C51.2523 12.5235 50.0337 13.7577 50.0337 15.3023C50.0337 16.8703 51.2368 18.12 52.8125 18.12C54.365 18.12 55.3119 16.9867 55.3119 15.5507V15.2014C55.3119 15.1316 55.2654 15.085 55.1955 15.085Z" fill="white"/>
<path d="M57.8695 14.138C56.775 14.138 55.9833 15.0074 55.9833 16.1018C55.9833 17.1963 56.7828 18.0734 57.9471 18.0734C58.5059 18.0734 59.0027 17.8561 59.3598 17.4912C59.4219 17.4291 59.4219 17.3748 59.3598 17.3127L59.1114 17.0721C59.0571 17.0178 59.0105 17.0333 58.9484 17.0798C58.6922 17.2739 58.4128 17.3903 58.0247 17.3903C57.3416 17.3903 56.8914 17.0022 56.7905 16.4123H59.4219C59.6315 16.4123 59.6703 16.2726 59.6703 15.9854C59.6703 15.0074 58.9717 14.138 57.8695 14.138ZM57.8772 14.8444C58.4594 14.8444 58.8863 15.2402 58.9484 15.8457H56.7828C56.8604 15.2402 57.2951 14.8444 57.8772 14.8444Z" fill="white"/>
<path d="M62.4301 14.2156H61.8091V13.1677C61.8091 13.0979 61.7625 13.0513 61.6927 13.0513H61.1105C61.0406 13.0513 60.9941 13.0979 60.9941 13.1677V14.2156H60.3731C60.3032 14.2156 60.2567 14.2622 60.2567 14.3321V14.7745C60.2567 14.8444 60.3032 14.8909 60.3731 14.8909H60.9941V17.9026C60.9941 17.9725 61.0406 18.0191 61.1105 18.0191H61.6927C61.7625 18.0191 61.8091 17.9725 61.8091 17.9026V14.8909H62.4301C62.4999 14.8909 62.5465 14.8444 62.5465 14.7745V14.3321C62.5465 14.2622 62.4999 14.2156 62.4301 14.2156Z" fill="white"/>
<path d="M65.9726 13.4006C66.2366 13.4006 66.4384 13.191 66.4384 12.9271C66.4384 12.6632 66.2366 12.4536 65.9726 12.4536C65.701 12.4536 65.4991 12.6632 65.4991 12.9271C65.4991 13.191 65.701 13.4006 65.9726 13.4006ZM65.5612 14.3321V17.9026C65.5612 17.9725 65.6078 18.0191 65.6777 18.0191H66.2598C66.3297 18.0191 66.3763 17.9725 66.3763 17.9026V14.3321C66.3763 14.2622 66.3297 14.2156 66.2598 14.2156H65.6777C65.6078 14.2156 65.5612 14.2622 65.5612 14.3321Z" fill="white"/>
<path d="M69.3129 14.2156H68.6919V13.1677C68.6919 13.0979 68.6454 13.0513 68.5755 13.0513H67.9933C67.9235 13.0513 67.8769 13.0979 67.8769 13.1677V14.2156H67.2559C67.1861 14.2156 67.1395 14.2622 67.1395 14.3321V14.7745C67.1395 14.8444 67.1861 14.8909 67.2559 14.8909H67.8769V17.9026C67.8769 17.9725 67.9235 18.0191 67.9933 18.0191H68.5755C68.6454 18.0191 68.6919 17.9725 68.6919 17.9026V14.8909H69.3129C69.3828 14.8909 69.4293 14.8444 69.4293 14.7745V14.3321C69.4293 14.2622 69.3828 14.2156 69.3129 14.2156Z" fill="white"/>
<path d="M74.2138 18.0967C75.3005 18.0967 76.1621 17.2196 76.1621 16.1173C76.1621 14.9996 75.3005 14.1302 74.2138 14.1302C73.1194 14.1302 72.2656 14.9996 72.2656 16.1173C72.2656 17.2196 73.1194 18.0967 74.2138 18.0967ZM74.2138 17.3438C73.5618 17.3438 73.0495 16.8237 73.0495 16.1173C73.0495 15.3955 73.5618 14.8754 74.2138 14.8754C74.8659 14.8754 75.3782 15.3955 75.3782 16.1173C75.3782 16.8237 74.8659 17.3438 74.2138 17.3438Z" fill="white"/>
<path d="M79.0705 14.1302C78.5038 14.1302 78.0924 14.4407 77.8285 14.8444L77.7975 14.3321C77.7897 14.2622 77.7509 14.2156 77.681 14.2156H77.1299C77.0601 14.2156 77.0135 14.2622 77.0135 14.3321V17.9026C77.0135 17.9725 77.0601 18.0191 77.1299 18.0191H77.7121C77.7819 18.0191 77.8285 17.9725 77.8285 17.9026V15.6904C77.8285 15.5274 78.1623 14.8754 78.8221 14.8754C79.2723 14.8754 79.606 15.1548 79.606 15.8069V17.9026C79.606 17.9725 79.6526 18.0191 79.7225 18.0191H80.3046C80.3745 18.0191 80.4211 17.9725 80.4211 17.9026V15.6904C80.4211 14.6736 79.8544 14.1302 79.0705 14.1302Z" fill="white"/>
</svg>
