<svg xmlns="http://www.w3.org/2000/svg" width="224.802" height="34.602" viewBox="0 0 224.802 34.602">
    <defs>
        <style>
            .cls-1{fill:#fff}
        </style>
    </defs>
    <g id="Group_5503" transform="translate(-269 -6583.293)">
        <g id="Group_5475" transform="translate(269 6583.293)">
            <path id="Path_4383" d="M1023.378 630.125a17.408 17.408 0 0 1-14.686 17.194v-12.16h4.058l.768-5.034h-4.826v-3.266a2.517 2.517 0 0 1 2.836-2.72h2.2v-4.28a26.586 26.586 0 0 0-3.9-.343c-3.976 0-6.575 2.411-6.575 6.773v3.836h-4.42v5.034h4.42v12.16a17.407 17.407 0 1 1 20.126-17.194z" class="cls-1" transform="translate(-988.56 -612.719)"/>
        </g>
        <g id="Group_5476" transform="translate(333.019 6583.768)">
            <path id="Path_4384" d="M1118.811 645.8a3.556 3.556 0 1 1-3.556-3.556 3.561 3.561 0 0 1 3.556 3.556z" class="cls-1" transform="translate(-1098.189 -628.737)"/>
            <path id="Path_4385" d="M1114.214 630.982h-9.774a4.005 4.005 0 0 0-4 4v9.773a4.005 4.005 0 0 0 4 4h9.774a4.005 4.005 0 0 0 4-4v-9.773a4.005 4.005 0 0 0-4-4zm-4.887 14.22a5.332 5.332 0 1 1 5.332-5.332 5.337 5.337 0 0 1-5.332 5.33zm5.663-9.774a1.222 1.222 0 1 1 1.222-1.222 1.225 1.225 0 0 1-1.222 1.222z" class="cls-1" transform="translate(-1092.261 -622.809)"/>
            <path id="Path_4386" d="M1100.235 613.722a17.063 17.063 0 1 0 17.061 17.061 17.064 17.064 0 0 0-17.061-17.061zm10.665 21.948a5.782 5.782 0 0 1-5.777 5.777h-9.774a5.782 5.782 0 0 1-5.777-5.777v-9.77a5.782 5.782 0 0 1 5.777-5.777h9.774a5.782 5.782 0 0 1 5.777 5.777z" class="cls-1" transform="translate(-1083.169 -613.722)"/>
        </g>
        <g id="Group_5477" transform="translate(396.347 6583.768)">
            <path id="Path_4387" fill="#fff" fill-rule="evenodd" d="M1193.395 613.722a17.063 17.063 0 1 0 17.061 17.061 17.061 17.061 0 0 0-17.061-17.061zm-4.352 25.106h-3.859v-11.62h3.859zm-1.932-13.207h-.024a2.209 2.209 0 1 1 .024 0zm15.858 13.207h-3.859v-6.217c0-1.563-.559-2.628-1.961-2.628a2.115 2.115 0 0 0-1.979 1.411 2.61 2.61 0 0 0-.128.942v6.492h-3.859s.047-10.531 0-11.62h3.859v1.648a3.825 3.825 0 0 1 3.48-1.923c2.543 0 4.446 1.662 4.446 5.232z" transform="translate(-1176.329 -613.722)"/>
        </g>
        <path id="Path_4388" d="M1286.545 613.722a17.063 17.063 0 1 0 17.061 17.061 17.061 17.061 0 0 0-17.061-17.061zm7.108 13.221v.5c0 5.337-3.769 11.45-10.664 11.45a10.064 10.064 0 0 1-5.758-1.852 4.368 4.368 0 0 0 .923.071 7.265 7.265 0 0 0 4.621-1.7 3.7 3.7 0 0 1-3.485-2.77 2.414 2.414 0 0 0 .71.071 4.266 4.266 0 0 0 1-.142 4.079 4.079 0 0 1-2.988-3.982v-.071a3.42 3.42 0 0 0 1.7.5 4.05 4.05 0 0 1-1.634-3.343 3.853 3.853 0 0 1 .5-2.06 10.413 10.413 0 0 0 7.752 4.2 4.083 4.083 0 0 1-.071-.928 3.9 3.9 0 0 1 3.765-4.049 3.628 3.628 0 0 1 2.7 1.279 8.219 8.219 0 0 0 2.415-.995 3.956 3.956 0 0 1-1.634 2.2 5.74 5.74 0 0 0 2.136-.639 8.589 8.589 0 0 1-1.989 2.26z" class="cls-1" transform="translate(-809.804 5970.046)"/>
    </g>
</svg>
