<svg xmlns="http://www.w3.org/2000/svg" width="31.286" height="28.456" viewBox="0 0 31.286 28.456">
    <defs>
        <style>
            .cls-1{fill:#fff}
        </style>
    </defs>
    <g id="Group_5412" transform="rotate(105.01 21.802 12.348)">
        <g id="Group_5409" transform="translate(14.019 4.62)">
            <g id="Group_5408">
                <path id="Path_4363" d="M905.28 229.494c-.153.281-.323.561-.5.836-.052.085-.111.169-.164.249a13.932 13.932 0 0 1-1.472 1.842 14.214 14.214 0 0 1-6.5 3.918q-.31.088-.62.159a15.047 15.047 0 0 1-1.885.313c-.085 0-.17.016-.26.021a14.315 14.315 0 0 1-2.133.005 13.408 13.408 0 0 1-2.1-.313 14.026 14.026 0 0 1-2.976-1.027 14.727 14.727 0 0 1-1.589-.884.947.947 0 1 1 1.022-1.594 12.321 12.321 0 0 0 10.717 1.281 11.776 11.776 0 0 0 1.17-.471 12.279 12.279 0 0 0 4.379-3.4 13.471 13.471 0 0 0 .81-1.123 12.369 12.369 0 0 0-3.707-17.076.949.949 0 0 1 1.022-1.6 14.269 14.269 0 0 1 4.786 18.864z" class="cls-1" transform="translate(-884.655 -210.484)"/>
                <path id="Path_4364" d="M905.381 223.233a10.884 10.884 0 0 0-3.082-5.539c-.132-.127-.265-.243-.4-.365a11.892 11.892 0 0 0-1.3-.974.912.912 0 0 0-.741-.127.986.986 0 0 0-.566.408l-10.812 16.817v.005a.947.947 0 0 0 .286 1.308 10.889 10.889 0 0 0 5.756 1.742 10.9 10.9 0 0 0 9.372-5.03 10.9 10.9 0 0 0 1.487-8.245zm-5.03-4.734a8.931 8.931 0 0 1 2.922 4.22l-6.561 1.43zm-9.738 15.143l3.627-5.65 1.43 6.556a8.929 8.929 0 0 1-5.057-.905zm6.9.508l-1.419-6.56 5.645 3.627a8.931 8.931 0 0 1-4.221 2.935zm5.247-4.522L897.12 226l6.555-1.429a8.9 8.9 0 0 1-.91 5.059z" class="cls-1" transform="translate(-886.54 -213.416)"/>
            </g>
        </g>
    </g>
</svg>
