<svg data-name="Group 6155" xmlns="http://www.w3.org/2000/svg" width="35" height="35" viewBox="0 0 35 35">
    <g data-name="Group 6524">
        <path data-name="Path 4319" d="M27.615 24.362a5.745 5.745 0 1 1 5.745-5.745 5.751 5.751 0 0 1-5.745 5.745m0-9.426a3.681 3.681 0 1 0 3.685 3.681 3.685 3.685 0 0 0-3.681-3.681" transform="translate(-9.95 -4.715)" style="fill:#fff"/>
        <path data-name="Path 4320" d="M16.886 44.966a1.032 1.032 0 0 1-1.032-1.032 8.237 8.237 0 0 1 8.228-8.228 1.032 1.032 0 0 1 0 2.064 6.171 6.171 0 0 0-6.164 6.164 1.032 1.032 0 0 1-1.032 1.032" transform="translate(-6.417 -18.124)" style="fill:#fff"/>
        <path data-name="Path 4321" d="M45.3 47.7h-5.051a1.032 1.032 0 0 1 0-2.064H45.3a1.032 1.032 0 1 1 0 2.064" transform="translate(-20.136 -23.957)" style="fill:#fff"/>
        <path data-name="Path 4322" d="M46.364 46.638a1.032 1.032 0 0 1-1.032-1.032v-5.047a1.032 1.032 0 1 1 2.064 0v5.047a1.032 1.032 0 0 1-1.032 1.032" transform="translate(-23.727 -20.367)" style="fill:#fff"/>
    </g>
    <path data-name="Path 4323" d="M17.5 2.464A15.036 15.036 0 1 1 2.464 17.5 15.053 15.053 0 0 1 17.5 2.464M17.5 0A17.5 17.5 0 1 0 35 17.5 17.5 17.5 0 0 0 17.5 0" style="fill:#fff"/>
</svg>
