<svg xmlns="http://www.w3.org/2000/svg" width="26.563" height="26.563" viewBox="0 0 26.563 26.563">
    <g data-name="Group 6532">
        <path data-name="Path 4324" d="M139.447 1.87a11.412 11.412 0 1 1-11.412 11.412A11.424 11.424 0 0 1 139.447 1.87m0-1.87a13.282 13.282 0 1 0 13.282 13.282A13.282 13.282 0 0 0 139.447 0" transform="translate(-126.165)" style="fill:#fff"/>
        <path data-name="Path 4325" d="M150.076 32.182a.646.646 0 0 1-.38-.128 1.23 1.23 0 0 1-.315-1.416l6.126-14.747a.706.706 0 0 1 1.075-.415 1.231 1.231 0 0 1 .315 1.417l-6.126 14.747a.789.789 0 0 1-.7.543" transform="translate(-139.95 -10.483)" style="fill:#fff"/>
        <path data-name="Path 4326" d="M171.415 37.587a2.652 2.652 0 1 1 1.876-.776 2.644 2.644 0 0 1-1.876.776m0-3.719a1.068 1.068 0 0 0-.755 1.823 1.1 1.1 0 0 0 1.51 0 1.068 1.068 0 0 0-.755-1.823" transform="translate(-152.082 -19.642)" style="fill:#fff"/>
        <path data-name="Path 4327" d="M140.509 26.855a2.651 2.651 0 1 1 1.876-.776 2.644 2.644 0 0 1-1.876.776m0-3.719a1.068 1.068 0 1 0 .755 1.823 1.068 1.068 0 0 0-.755-1.823" transform="translate(-133.278 -13.112)" style="fill:#fff"/>
    </g>
</svg>
