<svg  class='postpay-info-svg ' xmlns="http://www.w3.org/2000/svg" width="10" height="10" viewBox="0 0 46 46">
<g clip-path="url(#clip0_216_6458)">
<path d="M23.1725 0C29.4759 0 35.1833 2.53142 39.3142 6.62413C43.445 10.7168 46.0001 16.3715 46.0001 22.6167C46.0001 28.8618 43.445 34.5165 39.3142 38.6092C35.1833 42.7019 29.4759 45.2333 23.1725 45.2333C21.7745 45.2333 20.3889 45.1038 19.0272 44.8564C17.6361 44.6035 16.3005 44.2307 15.0325 43.7507C14.6494 43.6056 14.2846 43.5283 13.9336 43.5182C13.571 43.508 13.2015 43.5636 12.8183 43.6849C11.0173 44.2544 9.1705 44.6612 7.26962 44.8727C5.36054 45.0849 3.3844 45.1032 1.32957 44.8937C0.515988 44.811 -0.0758966 44.091 0.00758301 43.2849C0.0465858 42.9107 0.223809 42.584 0.483827 42.3494H0.483143C1.21188 41.6911 1.87493 41.0125 2.45723 40.3088C3.04432 39.601 3.55889 38.8641 3.98929 38.094C4.29652 37.5442 4.4409 36.9598 4.42311 36.3822C4.406 35.8175 4.22536 35.2466 3.88323 34.7118C2.75009 32.9417 1.85645 30.9946 1.24883 28.9167C0.660366 26.9046 0.344923 24.7901 0.344923 22.6173C0.344923 16.3722 2.89995 10.7182 7.03082 6.6248C11.1624 2.53142 16.8691 0 23.1725 0ZM37.2148 8.70471C33.6211 5.14419 28.6568 2.94225 23.1725 2.94225C17.6882 2.94225 12.7239 5.14419 9.13012 8.70471C5.5364 12.2652 3.31392 17.1837 3.31392 22.6173C3.31392 24.5339 3.58489 26.3731 4.08987 28.1012C4.61333 29.8909 5.3927 31.5831 6.3883 33.1383C7.01576 34.1186 7.34763 35.2012 7.38116 36.3029C7.414 37.3923 7.14646 38.4879 6.57579 39.5082C6.06191 40.4274 5.4666 41.2884 4.8015 42.0992C5.52545 42.0816 6.23981 42.0328 6.94528 41.9542C8.66756 41.763 10.3242 41.3996 11.9253 40.8932C12.6281 40.6708 13.3205 40.5691 14.0144 40.5888C14.7192 40.6084 15.4068 40.7467 16.0877 41.005C17.2126 41.4308 18.3738 41.7569 19.5603 41.9731C20.7139 42.1833 21.921 42.2931 23.1718 42.2931C28.6555 42.2931 33.6204 40.0912 37.2142 36.5307C40.8079 32.9701 43.0304 28.0517 43.0304 22.618C43.0304 17.1844 40.8079 12.2659 37.2142 8.70539L37.2148 8.70471Z"/>
<path fill-rule="evenodd" clip-rule="evenodd" d="M18.1637 21.1035L19.6827 21.8309C20.1672 22.0628 20.4901 22.5048 20.4135 23.0322L19.3618 30.2509C19.0758 32.1763 18.3682 33.9497 20.0125 35.4473C22.2651 37.4994 26.8086 36.2527 28.6903 33.1267C28.8456 32.8691 28.5548 32.5729 28.2907 32.7193C25.6645 34.1721 24.8899 33.5016 25.3422 30.5872L26.9057 20.5178C26.9913 19.9639 26.565 19.471 25.9998 19.471H18.386C17.4691 19.471 17.3323 20.7062 18.1643 21.1049L18.1637 21.1035Z"/>
<path fill-rule="evenodd" clip-rule="evenodd" d="M24.2823 8.782C26.4035 8.782 28.1224 10.4857 28.1224 12.5866C28.1224 14.6875 26.4028 16.3912 24.2823 16.3912C22.1618 16.3912 20.4422 14.6875 20.4422 12.5866C20.4422 10.4857 22.1618 8.782 24.2823 8.782Z"/>
</g>
<defs>
<clipPath id="clip0_216_6458">
<rect width="46" height="45.2333" fill="white"/>
</clipPath>
</defs>
</svg>