<svg xmlns="http://www.w3.org/2000/svg" width="141.383" height="141.769" viewBox="0 0 141.383 141.769">
    <defs>
        <style>
            .cls-1{fill:#8abbd5;stroke:#75aecd;stroke-miterlimit:10}
        </style>
    </defs>
    <g id="Group_3162" data-name="Group 3162" transform="translate(-362.268 -336.418)">
        <path id="Path_1293" d="M442.061 396.863h-17.288a9.669 9.669 0 0 0-6.917-6.917V365.4a2.421 2.421 0 1 0-4.841 0v24.55a9.662 9.662 0 1 0 11.758 11.75h17.288a2.421 2.421 0 1 0 0-4.841zm-26.627 7.264a4.842 4.842 0 1 1 4.841-4.841 4.846 4.846 0 0 1-4.84 4.841z" class="cls-1" data-name="Path 1293" transform="translate(17.524 10.623)"/>
        <path id="Path_1294" d="M484.062 360.552l9.916 9.916a2.42 2.42 0 0 0 3.424 0 19.659 19.659 0 1 0-27.8-27.8 2.42 2.42 0 0 0 0 3.424l11.041 11.041-4.113 4.112a65.2 65.2 0 0 0-87.135 0l-4.115-4.112 11.041-11.041a2.42 2.42 0 0 0 0-3.424 19.659 19.659 0 0 0-27.8 27.8 2.42 2.42 0 0 0 3.424 0l9.916-9.916 4.056 4.057a65.253 65.253 0 0 0 13.933 101.615l-7.33 7.33a2.421 2.421 0 1 0 3.424 3.424l8.352-8.352a65.205 65.205 0 0 0 57.336 0l8.352 8.352a2.42 2.42 0 0 0 3.422-3.424l-7.33-7.33a65.255 65.255 0 0 0 13.935-101.615zm9.914-14.463a14.845 14.845 0 0 1 1.571 19.105l-20.676-20.678a14.84 14.84 0 0 1 19.106 1.573zm-123.607 19.1a14.819 14.819 0 0 1 20.675-20.675zm62.589 105.234a60.518 60.518 0 1 1 60.517-60.517 60.586 60.586 0 0 1-60.516 60.52z" class="cls-1" data-name="Path 1294"/>
        <path id="Path_1295" d="M476.882 376.952a56.047 56.047 0 0 0-20.182-20.184c-.038-.028-.062-.069-.1-.093s-.089-.024-.134-.045a55.467 55.467 0 0 0-55.409 0c-.044.021-.091.02-.134.045s-.063.065-.1.093a56.043 56.043 0 0 0-20.184 20.184c-.027.041-.068.063-.091.1a1.343 1.343 0 0 0-.044.132 55.467 55.467 0 0 0 0 55.409c.021.044.02.091.044.135a1.7 1.7 0 0 0 .124.159 56.1 56.1 0 0 0 20.151 20.129c.039.027.063.066.1.09a1.419 1.419 0 0 0 .194.08 55.469 55.469 0 0 0 55.287 0 1.419 1.419 0 0 0 .194-.08c.041-.024.062-.063.1-.09a56.087 56.087 0 0 0 20.154-20.129c.038-.055.089-.1.124-.159a1.364 1.364 0 0 0 .044-.135 55.466 55.466 0 0 0 0-55.409c-.023-.044-.02-.089-.044-.132s-.07-.062-.094-.1zm-20.671 70.657l-1.156-2a2.42 2.42 0 0 0-4.191 2.42l1.159 2.007a50.434 50.434 0 0 1-20.847 5.567v-2.3a2.421 2.421 0 1 0-4.841 0v2.3a50.413 50.413 0 0 1-20.847-5.567l1.16-2.007a2.421 2.421 0 0 0-4.194-2.42l-1.154 2a51.134 51.134 0 0 1-15.258-15.258l2-1.154a2.421 2.421 0 1 0-2.42-4.197l-2.007 1.16a50.468 50.468 0 0 1-5.567-20.848h2.3a2.421 2.421 0 1 0 0-4.841h-2.3a50.451 50.451 0 0 1 5.568-20.847l2.007 1.16a2.42 2.42 0 0 0 2.42-4.192l-2-1.16A51.158 51.158 0 0 1 401.3 362.18l1.156 2a2.421 2.421 0 0 0 4.192-2.421l-1.159-2.007a50.455 50.455 0 0 1 20.847-5.567v2.3a2.421 2.421 0 1 0 4.841 0v-2.3a50.407 50.407 0 0 1 20.847 5.567l-1.159 2.007a2.42 2.42 0 0 0 4.191 2.421l1.156-2a51.115 51.115 0 0 1 15.258 15.257l-2 1.154a2.42 2.42 0 1 0 2.418 4.192l2.007-1.16a50.431 50.431 0 0 1 5.567 20.848h-2.3a2.42 2.42 0 0 0 0 4.84h2.3a50.409 50.409 0 0 1-5.567 20.849l-2.01-1.16a2.42 2.42 0 1 0-2.418 4.192l2 1.154a51.054 51.054 0 0 1-15.256 15.263z" class="cls-1" data-name="Path 1295" transform="translate(4.204 5.014)"/>
    </g>
</svg>
