<svg class="postpay-logo-svg" id="Layer_1" data-name="Layer 1" xmlns="http://www.w3.org/2000/svg" viewBox="-0.01 -0.01 1021.43 245.68">
  <defs>
  </defs>
  <g>
    <path class="postpay-cls-2" d="M851.71,41.32H817.2c-2.58,0-4,1.73-4.31,4.31v15c-9.48-12.08-19-19.3-36.79-19.3-39.39,0-68.17,31.66-68.17,72.79,0,40.26,28.76,70.94,68.15,70.94,18.4,0,27.9-6.24,36.81-17.17v12.85c.28,2.59,1.73,4.32,4.31,4.32h34.51a4.08,4.08,0,0,0,4.31-4.32V45.63A4.07,4.07,0,0,0,851.71,41.32ZM781.26,146.9c-18.41,0-31.92-13.52-31.92-33.07,0-20.13,13.51-33.93,31.92-33.93,19,0,31.63,14.95,31.63,33.93C812.89,133.1,800.24,146.9,781.26,146.9Z"></path>
    <path class="postpay-cls-2" d="M80,41.33c-17.83,0-27.22,7-36.72,19.06V45.64c-.28-2.58-1.72-4.31-4.31-4.31H4.31A4.08,4.08,0,0,0,0,45.64V241.35a4.07,4.07,0,0,0,4.31,4.31H38.83a4.07,4.07,0,0,0,4.31-4.31v-70c8.62,8.92,20.7,13.67,36.81,13.67,39.39,0,68.15-30.93,68.15-71.19C148.1,72.75,119.34,41.33,80,41.33ZM74.77,146.65c-19,0-31.63-13.79-31.63-33.07,0-19,12.66-33.92,31.63-33.92,18.4,0,31.92,13.8,31.92,33.92C106.69,133.14,93.17,146.65,74.77,146.65Z"></path>
    <path class="postpay-cls-2" d="M627.32,41.33c-17.83,0-27.22,7-36.71,19.06V45.64c-.29-2.58-1.73-4.31-4.32-4.31h-34.6a4.08,4.08,0,0,0-4.32,4.31V241.35a4.08,4.08,0,0,0,4.32,4.31H586.2a4.07,4.07,0,0,0,4.31-4.31v-70c8.63,8.92,20.7,13.67,36.81,13.67,39.4,0,68.15-30.93,68.15-71.19C695.47,72.75,666.72,41.33,627.32,41.33Zm-5.17,105.32c-19,0-31.64-13.79-31.64-33.07,0-19,12.66-33.92,31.64-33.92,18.4,0,31.91,13.8,31.91,33.92C654.06,133.14,640.55,146.65,622.15,146.65Z"></path>
    <path class="postpay-cls-2" d="M233.89,41.33c-40.55,0-73.33,31.14-73.33,72.25,0,40.84,32.78,71.48,73.33,71.48,40.83,0,73.61-30.64,73.61-71.48C307.5,72.47,274.72,41.33,233.89,41.33Zm0,105.61c-17.55,0-31.93-14.08-31.93-33.36,0-19.55,14.38-33.64,31.93-33.64,17.82,0,31.91,14.09,31.91,33.64C265.8,132.86,251.71,146.94,233.89,146.94Z"></path>
    <path class="postpay-cls-2" d="M365.36,84c0-4.89,4-9.78,12.65-9.78s14.66,3.45,25.6,9.78c2.58,1.72,4.6,2.58,6.32.28l12.94-17c1.44-1.73,2-4,.29-6-11.79-13.8-30.24-19.92-49.51-19.92-25.3,0-49.7,14.46-49.7,42.92,0,47.45,65,38.53,65,57.51,0,7.77-8.35,9.21-15,9.21-9.2,0-20.41-3.74-33.35-11.79-2.59-1.44-4.89-2-6.62,0l-12.64,18.41c-1.16,1.72-1.73,3.73,0,5.75,10.06,11.78,29.61,21.72,54.05,21.72,26.17,0,55.5-14,55.5-42.72C430.92,90.3,365.36,103.81,365.36,84Z"></path>
    <path class="postpay-cls-2" d="M530.61,41.33h-23v-37A4.08,4.08,0,0,0,503.28,0h-34.5a4.08,4.08,0,0,0-4.32,4.31v37h-23a4.07,4.07,0,0,0-4.31,4.31V71.81a4.08,4.08,0,0,0,4.31,4.32h23V180.74a4.08,4.08,0,0,0,4.32,4.32h34.5a4.08,4.08,0,0,0,4.32-4.32V76.13h23a4.08,4.08,0,0,0,4.31-4.32V45.64A4.08,4.08,0,0,0,530.61,41.33Z"></path>
    <path class="postpay-cls-2" d="M1017.58,41.33H982.21A5.27,5.27,0,0,0,977,44.78L944.7,133.43,912.29,44.78a5.26,5.26,0,0,0-5.17-3.45h-34.8c-3.16,0-4.6,1.73-3.45,4.89L924.3,185.06l-23.69,55.72c-1.72,3.16.3,4.88,3.46,4.88h33.64a5.28,5.28,0,0,0,5.18-3.45l78.14-196C1022.18,43.06,1020.75,41.33,1017.58,41.33Z"></path>
  </g>
</svg>
